<svg width="18" height="18" viewBox="0 0 18 18" fill="none" xmlns="http://www.w3.org/2000/svg">
<g clip-path="url(#clip0_196_5796)">
<path d="M16.5006 9.00011H14.6404C14.3126 8.99941 13.9936 9.1061 13.7322 9.30386C13.4708 9.50162 13.2813 9.77957 13.1928 10.0952L11.4302 16.3657C11.4188 16.4046 11.3951 16.4389 11.3627 16.4632C11.3302 16.4876 11.2907 16.5007 11.2502 16.5007C11.2096 16.5007 11.1701 16.4876 11.1377 16.4632C11.1052 16.4389 11.0815 16.4046 11.0702 16.3657L6.92982 1.63452C6.91846 1.59557 6.89478 1.56136 6.86232 1.53701C6.82986 1.51267 6.79038 1.49951 6.74981 1.49951C6.70924 1.49951 6.66976 1.51267 6.6373 1.53701C6.60484 1.56136 6.58116 1.59557 6.5698 1.63452L4.80715 7.90502C4.719 8.21941 4.53067 8.49646 4.27076 8.6941C4.01085 8.89174 3.69355 8.99918 3.36704 9.00011H1.49939" stroke="#1E90FF" stroke-width="2" stroke-linecap="round"/>
</g>
<defs>
<clipPath id="clip0_196_5796">
<rect width="18" height="18" fill="white"/>
</clipPath>
</defs>
</svg>
