<svg width="16" height="16" viewBox="0 0 16 16" fill="none" xmlns="http://www.w3.org/2000/svg">
<path d="M12.6672 11.3339H14.0007C14.4007 11.3339 14.6674 11.0672 14.6674 10.6672V8.66724C14.6674 8.06724 14.2007 7.5339 13.6673 7.40057C12.4672 7.06724 10.6671 6.66724 10.6671 6.66724C10.6671 6.66724 9.80035 5.7339 9.2003 5.1339C8.86694 4.86724 8.46691 4.66724 8.00021 4.66724H3.33317C2.93314 4.66724 2.59978 4.9339 2.39976 5.26724L1.46635 7.20057C1.37806 7.45805 1.33301 7.72837 1.33301 8.00057V10.6672C1.33301 11.0672 1.5997 11.3339 1.99973 11.3339H3.33317M12.6672 11.3339C12.6672 12.0703 12.0702 12.6672 11.3338 12.6672C10.5974 12.6672 10.0004 12.0703 10.0004 11.3339M12.6672 11.3339C12.6672 10.5975 12.0702 10.0006 11.3338 10.0006C10.5974 10.0006 10.0004 10.5975 10.0004 11.3339M3.33317 11.3339C3.33317 12.0703 3.93017 12.6672 4.66661 12.6672C5.40305 12.6672 6.00005 12.0703 6.00005 11.3339M3.33317 11.3339C3.33317 10.5975 3.93017 10.0006 4.66661 10.0006C5.40305 10.0006 6.00005 10.5975 6.00005 11.3339M10.0004 11.3339H6.00005" stroke="#1E90FF" stroke-width="1.5" stroke-linecap="round"/>
</svg>
