<svg width="16" height="16" viewBox="0 0 16 16" fill="none" xmlns="http://www.w3.org/2000/svg">
<path d="M9.33299 1.33277H4.00019C3.64661 1.33277 3.3075 1.47325 3.05748 1.72332C2.80745 1.97339 2.66699 2.31256 2.66699 2.66621V13.3337C2.66699 13.6874 2.80745 14.0265 3.05748 14.2766C3.3075 14.5267 3.64661 14.6672 4.00019 14.6672H11.9994C12.353 14.6672 12.6921 14.5267 12.9421 14.2766C13.1921 14.0265 13.3326 13.6874 13.3326 13.3337V5.33309M9.33299 1.33277C9.54401 1.33242 9.753 1.37384 9.94795 1.45462C10.1429 1.53541 10.3199 1.65396 10.4689 1.80347L12.8606 4.19566C13.0105 4.34468 13.1294 4.52192 13.2104 4.71714C13.2914 4.91237 13.3329 5.12171 13.3326 5.33309M9.33299 1.33277V4.66636C9.33299 4.84319 9.40322 5.01277 9.52823 5.1378C9.65324 5.26284 9.8228 5.33308 9.99959 5.33308L13.3326 5.33309M6.66659 5.9998H5.33339M10.6662 8.66668H5.33339M10.6662 11.3336H5.33339" stroke="white" stroke-width="1.5" stroke-linecap="round"/>
</svg>
