<svg width="16" height="16" viewBox="0 0 16 16" fill="none" xmlns="http://www.w3.org/2000/svg">
<path d="M6.76615 13.6843C6.70102 13.5789 6.66656 13.4574 6.66661 13.3335V9.33346C6.66646 9.00304 6.54363 8.68445 6.32191 8.43945L1.50478 3.11335C1.41839 3.01764 1.36161 2.89893 1.34132 2.77161C1.32102 2.64428 1.33809 2.51381 1.39044 2.39598C1.4428 2.27816 1.5282 2.17804 1.6363 2.10776C1.7444 2.03748 1.87056 2.00005 1.9995 2H14.0007C14.1295 2.0003 14.2555 2.03792 14.3634 2.1083C14.4713 2.17868 14.5565 2.27882 14.6086 2.39659C14.6608 2.51436 14.6778 2.64473 14.6574 2.77194C14.6371 2.89914 14.5803 3.01772 14.494 3.11335L9.67824 8.43945C9.45652 8.68445 9.33369 9.00304 9.33354 9.33346V14.0002C9.33359 14.1139 9.30458 14.2256 9.24928 14.3249C9.19397 14.4242 9.11419 14.5077 9.01753 14.5675C8.92086 14.6273 8.81052 14.6614 8.69697 14.6665C8.58343 14.6717 8.47045 14.6477 8.36878 14.5969L7.03532 13.9302C6.92448 13.8748 6.83127 13.7897 6.76615 13.6843Z" stroke="white" stroke-width="1.5" stroke-linecap="round"/>
</svg>
