<svg width="14" height="14" viewBox="0 0 14 14" fill="none" xmlns="http://www.w3.org/2000/svg">
<g clip-path="url(#clip0_234_3112)">
<path d="M8.45342 9.70072C8.32479 9.73285 8.18905 9.72021 8.06857 9.66488C6.44819 8.86961 5.1369 7.55997 4.3396 5.94058C4.28056 5.81946 4.26526 5.68163 4.29631 5.5505C4.32736 5.41938 4.40285 5.30305 4.50995 5.22127L4.78297 5.01651C4.92788 4.90783 5.04549 4.7669 5.1265 4.60489C5.2075 4.44288 5.24968 4.26423 5.24968 4.0831V2.33296C5.24968 2.02351 5.12675 1.72674 4.90794 1.50793C4.68913 1.28912 4.39236 1.1662 4.08292 1.1662H2.33278C2.02333 1.1662 1.72656 1.28912 1.50775 1.50793C1.28894 1.72674 1.16602 2.02351 1.16602 2.33296C1.16602 5.11795 2.27235 7.78889 4.24164 9.75817C6.21093 11.7275 8.88186 12.8338 11.6669 12.8338C11.9763 12.8338 12.2731 12.7109 12.4919 12.4921C12.7107 12.2733 12.8336 11.9765 12.8336 11.667V9.9169C12.8336 9.60746 12.7107 9.31069 12.4919 9.09188C12.2731 8.87307 11.9763 8.75014 11.6669 8.75014H9.91672C9.73558 8.75014 9.55694 8.79231 9.39493 8.87332C9.23291 8.95432 9.09199 9.07194 8.98331 9.21684L8.77621 9.48811C8.6959 9.5936 8.58205 9.66859 8.45342 9.70072Z" stroke="#9CA3AF" stroke-width="2" stroke-linecap="round"/>
</g>
<defs>
<clipPath id="clip0_234_3112">
<rect width="14" height="14" fill="white"/>
</clipPath>
</defs>
</svg>
