<svg width="18" height="18" viewBox="0 0 18 18" fill="none" xmlns="http://www.w3.org/2000/svg">
<g clip-path="url(#clip0_196_5806)">
<path d="M15.0005 1.50098V4.50086M16.5006 3.00092H13.5004M8.2627 2.11178C8.29483 1.93974 8.38614 1.78436 8.52079 1.67254C8.65544 1.56072 8.82497 1.49951 9 1.49951C9.17504 1.49951 9.34457 1.56072 9.47922 1.67254C9.61387 1.78436 9.70518 1.93974 9.73731 2.11178L10.5256 6.28012C10.5816 6.57647 10.7257 6.84906 10.9389 7.06232C11.1522 7.27557 11.4248 7.41959 11.7212 7.47557L15.8901 8.26379C16.0621 8.29593 16.2175 8.38722 16.3294 8.52185C16.4412 8.65649 16.5024 8.826 16.5024 9.00101C16.5024 9.17603 16.4412 9.34553 16.3294 9.48017C16.2175 9.61481 16.0621 9.7061 15.8901 9.73823L11.7212 10.5265C11.4248 10.5824 11.1522 10.7265 10.9389 10.9397C10.7257 11.153 10.5816 11.4256 10.5256 11.7219L9.73731 15.8902C9.70518 16.0623 9.61387 16.2177 9.47922 16.3295C9.34457 16.4413 9.17504 16.5025 9 16.5025C8.82497 16.5025 8.65544 16.4413 8.52079 16.3295C8.38614 16.2177 8.29483 16.0623 8.2627 15.8902L7.47438 11.7219C7.41839 11.4256 7.27436 11.153 7.06108 10.9397C6.84779 10.7265 6.57517 10.5824 6.27879 10.5265L2.10995 9.73823C1.93789 9.7061 1.78248 9.61481 1.67065 9.48017C1.55882 9.34553 1.4976 9.17603 1.4976 9.00101C1.4976 8.826 1.55882 8.65649 1.67065 8.52185C1.78248 8.38722 1.93789 8.29593 2.10995 8.26379L6.27879 7.47557C6.57517 7.41959 6.84779 7.27557 7.06108 7.06232C7.27436 6.84906 7.41839 6.57647 7.47438 6.28012L8.2627 2.11178ZM4.49968 15.0004C4.49968 15.8288 3.82805 16.5004 2.99956 16.5004C2.17106 16.5004 1.49944 15.8288 1.49944 15.0004C1.49944 14.1721 2.17106 13.5005 2.99956 13.5005C3.82805 13.5005 4.49968 14.1721 4.49968 15.0004Z" stroke="#1E90FF" stroke-width="2" stroke-linecap="round"/>
</g>
<defs>
<clipPath id="clip0_196_5806">
<rect width="18" height="18" fill="white"/>
</clipPath>
</defs>
</svg>
