<svg width="16" height="16" viewBox="0 0 16 16" fill="none" xmlns="http://www.w3.org/2000/svg">
<path d="M7.81451 1.38591C7.75855 1.42065 7.71342 1.47033 7.68421 1.52936L6.14487 4.64869C6.04334 4.85421 5.89339 5.03197 5.70793 5.16668C5.52247 5.3014 5.30705 5.38903 5.08021 5.42203L1.63687 5.92536C1.57134 5.93462 1.50973 5.96211 1.45906 6.00468C1.40839 6.04725 1.37069 6.1032 1.35026 6.16615C1.32983 6.2291 1.3275 6.29653 1.34352 6.36074C1.35954 6.42496 1.39327 6.48338 1.44087 6.52936L3.93154 8.95403C4.09595 9.11413 4.21894 9.31182 4.2899 9.53006C4.36086 9.74829 4.37767 9.98051 4.33887 10.2067L3.75154 13.6327C3.74011 13.6978 3.74719 13.7649 3.77198 13.8262C3.79676 13.8875 3.83826 13.9406 3.89174 13.9795C3.94522 14.0184 4.00854 14.0415 4.07451 14.0462C4.14047 14.0509 4.20643 14.037 4.26487 14.006L7.34287 12.3874C7.54573 12.2808 7.77142 12.2252 8.00054 12.2252C8.22966 12.2252 8.45535 12.2808 8.65821 12.3874L11.7369 14.006C11.7953 14.0372 11.8614 14.0512 11.9275 14.0466C11.9935 14.042 12.057 14.0189 12.1106 13.98C12.1642 13.9411 12.2057 13.8879 12.2305 13.8265C12.2553 13.7651 12.2624 13.6979 12.2509 13.6327L11.6629 10.206C11.6242 9.97995 11.6411 9.74788 11.7121 9.52978C11.7831 9.31168 11.906 9.11409 12.0702 8.95403L14.5609 6.52869C14.6081 6.48266 14.6415 6.42434 14.6573 6.36032C14.6731 6.2963 14.6706 6.22914 14.6502 6.16643C14.6298 6.10372 14.5923 6.04798 14.5419 6.00549C14.4914 5.96301 14.4301 5.93548 14.3649 5.92603L10.9209 5.42203C10.6943 5.38877 10.4792 5.30102 10.294 5.16633C10.1087 5.03163 9.95899 4.854 9.85754 4.64869L8.31754 1.52936C8.28833 1.47033 8.24319 1.42065 8.18724 1.38591C8.13129 1.35117 8.06674 1.33276 8.00087 1.33276C7.93501 1.33276 7.87046 1.35117 7.81451 1.38591Z" stroke="white" stroke-width="1.5" stroke-linecap="round"/>
</svg>
