<svg xmlns="http://www.w3.org/2000/svg" viewBox="0 0 46.041 46.041" fill="none">
  <path d="M 29.869 12.807 C 29.119 12.531 25.05 12.028 22.42 11.733 C 22.832 9.325 23.02 7.119 23.02 4.796 C 23.02 2.15 20.868 0 18.225 0 C 15.581 0 13.429 2.15 13.429 4.796 C 13.429 8.393 12.151 10.048 10.329 11.892 C 9.796 11.181 9.106 10.603 8.313 10.203 C 7.519 9.804 6.643 9.595 5.755 9.592 C 2.582 9.592 0 12.174 0 15.347 L 0 26.857 C 0 30.03 2.582 32.612 5.755 32.612 C 7.203 32.612 8.514 32.056 9.525 31.17 L 9.885 31.54 C 11.727 32.952 16.92 34.531 21.104 34.531 C 24.709 34.531 26.107 33.969 27.344 33.47 L 27.951 33.234 C 29.551 32.649 30.974 30.88 31.281 29.013 L 32.559 17.553 C 32.89 15.564 31.709 13.477 29.869 12.807 Z M 5.755 28.776 C 4.698 28.776 3.837 27.916 3.837 26.857 L 3.837 15.347 C 3.859 14.853 4.071 14.387 4.428 14.045 C 4.785 13.703 5.261 13.513 5.755 13.513 C 6.25 13.513 6.725 13.703 7.082 14.045 C 7.44 14.387 7.651 14.853 7.673 15.347 L 7.673 26.857 C 7.673 27.916 6.812 28.776 5.755 28.776 Z M 27.485 28.488 C 27.414 28.918 26.924 29.526 26.635 29.631 L 25.913 29.911 C 24.868 30.331 23.964 30.694 21.102 30.694 C 17.43 30.694 13.202 29.249 12.216 28.496 C 11.913 28.265 11.51 27.414 11.51 26.857 L 11.51 17.304 C 11.516 17.214 11.608 16.045 12.867 14.787 C 14.618 13.033 17.265 10.386 17.265 4.796 C 17.265 4.268 17.697 3.837 18.225 3.837 C 18.752 3.837 19.184 4.268 19.184 4.796 C 19.184 7.495 18.904 10.033 18.265 13.032 L 17.695 15.71 L 20.229 15.349 C 21.386 15.445 27.774 16.206 28.543 16.404 C 28.655 16.462 28.797 16.755 28.756 17.024 L 27.485 28.488 Z" fill="#091520" fill-rule="nonzero" transform="translate(7.673 3.837)"></path>
</svg>