<svg xmlns="http://www.w3.org/2000/svg" viewBox="0 0 87.5 87.5" fill="none">
  <path d="M 43.75 0 C 67.913 0 87.5 19.587 87.5 43.75 C 87.5 67.913 67.913 87.5 43.75 87.5 C 19.587 87.5 0 67.913 0 43.75 C 0 19.587 19.587 0 43.75 0 Z M 43.75 8.75 C 34.467 8.75 25.565 12.437 19.001 19.001 C 12.437 25.565 8.75 34.467 8.75 43.75 C 8.75 53.033 12.437 61.935 19.001 68.499 C 25.565 75.063 34.467 78.75 43.75 78.75 C 53.033 78.75 61.935 75.063 68.499 68.499 C 75.063 61.935 78.75 53.033 78.75 43.75 C 78.75 34.467 75.063 25.565 68.499 19.001 C 61.935 12.437 53.033 8.75 43.75 8.75 Z M 43.75 61.25 C 44.91 61.25 46.023 61.711 46.844 62.531 C 47.664 63.352 48.125 64.465 48.125 65.625 C 48.125 66.785 47.664 67.898 46.844 68.719 C 46.023 69.539 44.91 70 43.75 70 C 42.59 70 41.477 69.539 40.656 68.719 C 39.836 67.898 39.375 66.785 39.375 65.625 C 39.375 64.465 39.836 63.352 40.656 62.531 C 41.477 61.711 42.59 61.25 43.75 61.25 Z M 43.75 19.688 C 47.435 19.688 51.005 20.971 53.847 23.317 C 56.688 25.663 58.624 28.925 59.322 32.544 C 60.02 36.162 59.436 39.91 57.67 43.145 C 55.905 46.38 53.068 48.898 49.648 50.269 C 49.141 50.455 48.684 50.756 48.313 51.148 C 48.121 51.367 48.09 51.647 48.094 51.936 L 48.125 52.5 C 48.124 53.615 47.697 54.688 46.931 55.498 C 46.166 56.309 45.12 56.797 44.006 56.863 C 42.893 56.928 41.797 56.566 40.942 55.85 C 40.087 55.134 39.537 54.119 39.406 53.012 L 39.375 52.5 L 39.375 51.406 C 39.375 46.362 43.444 43.334 46.393 42.149 C 47.593 41.67 48.64 40.872 49.421 39.843 C 50.202 38.814 50.688 37.591 50.827 36.306 C 50.966 35.021 50.752 33.723 50.208 32.551 C 49.665 31.378 48.812 30.376 47.742 29.651 C 46.672 28.927 45.425 28.508 44.135 28.439 C 42.844 28.37 41.559 28.653 40.418 29.259 C 39.277 29.866 38.322 30.771 37.656 31.879 C 36.991 32.987 36.64 34.255 36.641 35.547 C 36.641 36.707 36.18 37.82 35.359 38.64 C 34.539 39.461 33.426 39.922 32.266 39.922 C 31.105 39.922 29.993 39.461 29.172 38.64 C 28.352 37.82 27.891 36.707 27.891 35.547 C 27.891 31.341 29.562 27.307 32.536 24.333 C 35.51 21.358 39.544 19.688 43.75 19.688 Z" fill="#E93737" fill-rule="nonzero"></path>
</svg>