<svg xmlns="http://www.w3.org/2000/svg" viewBox="0 0 24 24" fill="none">
  <path d="M 7.1 3.61 L 6.402 3.335 L 6.402 3.335 L 7.1 3.61 Z M 8.9 3.61 L 9.598 3.335 L 9.598 3.335 L 8.9 3.61 Z M 9.81 5.92 L 9.112 6.195 L 9.112 6.195 L 9.81 5.92 Z M 13.078 9.188 L 12.803 9.886 L 12.803 9.886 L 13.078 9.188 Z M 15.388 10.098 L 15.663 9.4 L 15.663 9.4 L 15.388 10.098 Z M 15.388 11.898 L 15.663 12.596 L 15.663 12.596 L 15.388 11.898 Z M 13.078 12.808 L 12.803 12.11 L 12.803 12.11 L 13.078 12.808 Z M 9.81 16.076 L 9.112 15.801 L 9.112 15.801 L 9.81 16.076 Z M 8.9 18.386 L 9.598 18.661 L 9.598 18.661 L 8.9 18.386 Z M 7.1 18.386 L 6.402 18.661 L 6.402 18.661 L 7.1 18.386 Z M 6.19 16.076 L 6.888 15.801 L 6.888 15.801 L 6.19 16.076 Z M 2.922 12.808 L 3.197 12.11 L 3.197 12.11 L 2.922 12.808 Z M 0.612 11.898 L 0.337 12.596 L 0.337 12.596 L 0.612 11.898 Z M 0.612 10.098 L 0.337 9.4 L 0.337 9.4 L 0.612 10.098 Z M 2.922 9.188 L 3.197 9.886 L 3.197 9.886 L 2.922 9.188 Z M 6.19 5.92 L 6.888 6.195 L 6.888 6.195 L 6.19 5.92 Z M 15.663 0.228 L 14.967 -0.051 L 14.965 -0.047 L 15.663 0.228 Z M 16.337 0.228 L 17.035 -0.047 L 17.033 -0.051 L 16.337 0.228 Z M 16.679 1.094 L 17.377 0.819 L 17.377 0.819 L 16.679 1.094 Z M 17.904 2.319 L 18.179 1.622 L 18.179 1.621 L 17.904 2.319 Z M 18.77 2.661 L 19.049 1.965 L 19.045 1.964 L 18.77 2.661 Z M 18.77 3.335 L 19.045 4.033 L 19.049 4.031 L 18.77 3.335 Z M 17.904 3.677 L 17.629 2.98 L 17.628 2.98 L 17.904 3.677 Z M 16.679 4.902 L 15.982 4.626 L 15.981 4.627 L 16.679 4.902 Z M 16.337 5.768 L 17.033 6.047 L 17.035 6.044 L 16.337 5.768 Z M 15.663 5.768 L 14.965 6.044 L 14.967 6.047 L 15.663 5.768 Z M 15.321 4.902 L 16.019 4.627 L 16.018 4.626 L 15.321 4.902 Z M 14.096 3.677 L 14.372 2.98 L 14.371 2.979 L 14.096 3.677 Z M 13.229 3.335 L 12.95 4.031 L 12.954 4.033 L 13.229 3.335 Z M 13.229 2.661 L 12.954 1.963 L 12.95 1.965 L 13.229 2.661 Z M 14.096 2.319 L 14.371 3.017 L 14.372 3.016 L 14.096 2.319 Z M 15.321 1.094 L 16.018 1.37 L 16.019 1.37 L 15.321 1.094 Z M 7.1 3.61 L 7.798 3.885 C 7.87 3.702 8.13 3.702 8.202 3.885 L 8.9 3.61 L 9.598 3.335 C 9.026 1.886 6.974 1.886 6.402 3.335 L 7.1 3.61 Z M 8.9 3.61 L 8.202 3.885 L 9.112 6.195 L 9.81 5.92 L 10.508 5.645 L 9.598 3.335 L 8.9 3.61 Z M 9.81 5.92 L 9.112 6.195 C 9.442 7.03 9.939 7.789 10.574 8.424 L 11.104 7.894 L 11.635 7.363 C 11.145 6.874 10.762 6.289 10.508 5.645 L 9.81 5.92 Z M 11.104 7.894 L 10.574 8.424 C 11.209 9.059 11.968 9.556 12.803 9.886 L 13.078 9.188 L 13.353 8.49 C 12.709 8.236 12.124 7.853 11.635 7.363 L 11.104 7.894 Z M 13.078 9.188 L 12.803 9.886 L 15.113 10.796 L 15.388 10.098 L 15.663 9.4 L 13.353 8.49 L 13.078 9.188 Z M 15.388 10.098 L 15.113 10.796 C 15.296 10.868 15.296 11.128 15.113 11.2 L 15.388 11.898 L 15.663 12.596 C 17.112 12.024 17.112 9.972 15.663 9.4 L 15.388 10.098 Z M 15.388 11.898 L 15.113 11.2 L 12.803 12.11 L 13.078 12.808 L 13.353 13.506 L 15.663 12.596 L 15.388 11.898 Z M 13.078 12.808 L 12.803 12.11 C 11.968 12.44 11.209 12.937 10.574 13.572 L 11.104 14.103 L 11.635 14.633 C 12.124 14.143 12.709 13.76 13.353 13.506 L 13.078 12.808 Z M 11.104 14.103 L 10.574 13.572 C 9.939 14.207 9.442 14.966 9.112 15.801 L 9.81 16.076 L 10.508 16.351 C 10.762 15.707 11.145 15.122 11.635 14.633 L 11.104 14.103 Z M 9.81 16.076 L 9.112 15.801 L 8.202 18.111 L 8.9 18.386 L 9.598 18.661 L 10.508 16.351 L 9.81 16.076 Z M 8.9 18.386 L 8.202 18.111 C 8.13 18.294 7.87 18.294 7.798 18.111 L 7.1 18.386 L 6.402 18.661 C 6.974 20.11 9.026 20.11 9.598 18.661 L 8.9 18.386 Z M 7.1 18.386 L 7.798 18.111 L 6.888 15.801 L 6.19 16.076 L 5.492 16.351 L 6.402 18.661 L 7.1 18.386 Z M 6.19 16.076 L 6.888 15.801 C 6.558 14.966 6.061 14.207 5.426 13.572 L 4.896 14.103 L 4.365 14.633 C 4.855 15.122 5.238 15.707 5.492 16.351 L 6.19 16.076 Z M 4.896 14.103 L 5.426 13.572 C 4.791 12.937 4.032 12.44 3.197 12.11 L 2.922 12.808 L 2.647 13.506 C 3.291 13.76 3.876 14.143 4.365 14.633 L 4.896 14.103 Z M 2.922 12.808 L 3.197 12.11 L 0.887 11.2 L 0.612 11.898 L 0.337 12.596 L 2.647 13.506 L 2.922 12.808 Z M 0.612 11.898 L 0.887 11.2 C 0.704 11.128 0.704 10.868 0.887 10.796 L 0.612 10.098 L 0.337 9.4 C -1.112 9.972 -1.112 12.024 0.337 12.596 L 0.612 11.898 Z M 0.612 10.098 L 0.887 10.796 L 3.197 9.886 L 2.922 9.188 L 2.647 8.49 L 0.337 9.4 L 0.612 10.098 Z M 2.922 9.188 L 3.197 9.886 C 4.032 9.556 4.791 9.059 5.426 8.424 L 4.896 7.894 L 4.365 7.363 C 3.876 7.853 3.291 8.236 2.647 8.49 L 2.922 9.188 Z M 4.896 7.894 L 5.426 8.424 C 6.061 7.789 6.558 7.03 6.888 6.195 L 6.19 5.92 L 5.492 5.645 C 5.238 6.289 4.855 6.874 4.365 7.363 L 4.896 7.894 Z M 6.19 5.92 L 6.888 6.195 L 7.798 3.885 L 7.1 3.61 L 6.402 3.335 L 5.492 5.645 L 6.19 5.92 Z M 15.663 0.228 L 16.359 0.507 C 16.331 0.579 16.281 0.64 16.217 0.683 L 15.797 0.062 L 15.376 -0.559 C 15.192 -0.434 15.049 -0.257 14.967 -0.051 L 15.663 0.228 Z M 15.797 0.062 L 16.217 0.683 C 16.153 0.727 16.077 0.75 16 0.75 L 16 0 L 16 -0.75 C 15.778 -0.75 15.56 -0.683 15.376 -0.559 L 15.797 0.062 Z M 16 0 L 16 0.75 C 15.923 0.75 15.847 0.727 15.783 0.683 L 16.203 0.062 L 16.624 -0.559 C 16.44 -0.683 16.222 -0.75 16 -0.75 L 16 0 Z M 16.203 0.062 L 15.783 0.683 C 15.719 0.64 15.669 0.579 15.641 0.507 L 16.337 0.228 L 17.033 -0.051 C 16.951 -0.257 16.808 -0.434 16.624 -0.559 L 16.203 0.062 Z M 16.337 0.228 L 15.639 0.504 L 15.981 1.37 L 16.679 1.094 L 17.377 0.819 L 17.035 -0.047 L 16.337 0.228 Z M 16.679 1.094 L 15.981 1.369 C 16.279 2.123 16.876 2.719 17.629 3.017 L 17.904 2.319 L 18.179 1.621 C 17.812 1.477 17.521 1.186 17.377 0.819 L 16.679 1.094 Z M 17.904 2.319 L 17.629 3.017 L 18.495 3.359 L 18.77 2.661 L 19.045 1.964 L 18.179 1.622 L 17.904 2.319 Z M 18.77 2.661 L 18.491 3.357 C 18.419 3.329 18.358 3.279 18.315 3.215 L 18.936 2.795 L 19.557 2.374 C 19.432 2.19 19.255 2.047 19.049 1.965 L 18.77 2.661 Z M 18.936 2.795 L 18.315 3.215 C 18.271 3.151 18.248 3.075 18.248 2.998 L 18.998 2.998 L 19.748 2.998 C 19.748 2.776 19.681 2.558 19.557 2.374 L 18.936 2.795 Z M 18.998 2.998 L 18.248 2.998 C 18.248 2.921 18.271 2.845 18.315 2.781 L 18.936 3.202 L 19.557 3.622 C 19.681 3.438 19.748 3.22 19.748 2.998 L 18.998 2.998 Z M 18.936 3.202 L 18.315 2.781 C 18.358 2.717 18.419 2.668 18.491 2.639 L 18.77 3.335 L 19.049 4.031 C 19.255 3.949 19.432 3.806 19.557 3.622 L 18.936 3.202 Z M 18.77 3.335 L 18.495 2.638 L 17.629 2.98 L 17.904 3.677 L 18.179 4.375 L 19.045 4.033 L 18.77 3.335 Z M 17.904 3.677 L 17.628 2.98 C 17.256 3.127 16.917 3.349 16.634 3.632 L 17.165 4.163 L 17.695 4.693 C 17.833 4.555 17.998 4.446 18.18 4.374 L 17.904 3.677 Z M 17.165 4.163 L 16.634 3.632 C 16.351 3.916 16.129 4.254 15.982 4.626 L 16.679 4.902 L 17.376 5.178 C 17.448 4.996 17.557 4.831 17.695 4.693 L 17.165 4.163 Z M 16.679 4.902 L 15.981 4.627 L 15.639 5.493 L 16.337 5.768 L 17.035 6.044 L 17.377 5.178 L 16.679 4.902 Z M 16.337 5.768 L 15.641 5.489 C 15.669 5.418 15.719 5.356 15.783 5.313 L 16.203 5.934 L 16.624 6.555 C 16.808 6.43 16.951 6.253 17.033 6.047 L 16.337 5.768 Z M 16.203 5.934 L 15.783 5.313 C 15.847 5.269 15.923 5.246 16 5.246 L 16 5.996 L 16 6.746 C 16.222 6.746 16.44 6.68 16.624 6.555 L 16.203 5.934 Z M 16 5.996 L 16 5.246 C 16.077 5.246 16.153 5.269 16.217 5.313 L 15.797 5.934 L 15.376 6.555 C 15.56 6.68 15.778 6.746 16 6.746 L 16 5.996 Z M 15.797 5.934 L 16.217 5.313 C 16.281 5.356 16.331 5.418 16.359 5.489 L 15.663 5.768 L 14.967 6.047 C 15.049 6.253 15.192 6.43 15.376 6.555 L 15.797 5.934 Z M 15.663 5.768 L 16.361 5.493 L 16.019 4.627 L 15.321 4.902 L 14.623 5.178 L 14.965 6.044 L 15.663 5.768 Z M 15.321 4.902 L 16.018 4.626 C 15.871 4.254 15.649 3.916 15.366 3.632 L 14.835 4.163 L 14.305 4.693 C 14.443 4.831 14.552 4.996 14.624 5.178 L 15.321 4.902 Z M 14.835 4.163 L 15.366 3.632 C 15.083 3.349 14.744 3.127 14.372 2.98 L 14.096 3.677 L 13.82 4.374 C 14.002 4.446 14.167 4.555 14.305 4.693 L 14.835 4.163 Z M 14.096 3.677 L 14.371 2.979 L 13.504 2.637 L 13.229 3.335 L 12.954 4.033 L 13.821 4.375 L 14.096 3.677 Z M 13.229 3.335 L 13.508 2.639 C 13.58 2.668 13.641 2.717 13.684 2.781 L 13.063 3.202 L 12.442 3.622 C 12.567 3.806 12.744 3.949 12.95 4.031 L 13.229 3.335 Z M 13.063 3.202 L 13.684 2.781 C 13.728 2.845 13.751 2.921 13.751 2.998 L 13.001 2.998 L 12.251 2.998 C 12.251 3.22 12.318 3.438 12.442 3.622 L 13.063 3.202 Z M 13.001 2.998 L 13.751 2.998 C 13.751 3.075 13.728 3.151 13.684 3.215 L 13.063 2.795 L 12.442 2.374 C 12.318 2.558 12.251 2.776 12.251 2.998 L 13.001 2.998 Z M 13.063 2.795 L 13.684 3.215 C 13.641 3.279 13.58 3.329 13.508 3.357 L 13.229 2.661 L 12.95 1.965 C 12.744 2.047 12.567 2.19 12.442 2.374 L 13.063 2.795 Z M 13.229 2.661 L 13.504 3.359 L 14.371 3.017 L 14.096 2.319 L 13.821 1.621 L 12.954 1.963 L 13.229 2.661 Z M 14.096 2.319 L 14.372 3.016 C 14.744 2.869 15.083 2.647 15.366 2.364 L 14.835 1.834 L 14.305 1.303 C 14.167 1.441 14.002 1.55 13.82 1.622 L 14.096 2.319 Z M 14.835 1.834 L 15.366 2.364 C 15.649 2.081 15.871 1.742 16.018 1.37 L 15.321 1.094 L 14.624 0.818 C 14.552 1 14.443 1.165 14.305 1.303 L 14.835 1.834 Z M 15.321 1.094 L 16.019 1.37 L 16.361 0.504 L 15.663 0.228 L 14.965 -0.047 L 14.623 0.819 L 15.321 1.094 Z" fill="#1E90FF" fill-rule="nonzero" transform="translate(2.5 2.502)"></path>
</svg>