<svg xmlns="http://www.w3.org/2000/svg" viewBox="0 0 46.041 46.041" fill="none">
  <path d="M 23.634 3.376 C 23.187 3.376 22.757 3.198 22.441 2.882 C 22.124 2.565 21.946 2.136 21.946 1.688 C 21.946 1.24 22.124 0.811 22.441 0.494 C 22.757 0.178 23.187 0 23.634 0 L 30.387 0 C 30.835 0 31.264 0.178 31.581 0.494 C 31.897 0.811 32.075 1.24 32.075 1.688 L 32.075 8.441 C 32.075 8.889 31.897 9.318 31.581 9.635 C 31.264 9.951 30.835 10.129 30.387 10.129 C 29.939 10.129 29.51 9.951 29.193 9.635 C 28.877 9.318 28.699 8.889 28.699 8.441 L 28.699 5.763 L 18.919 15.543 C 18.603 15.859 18.173 16.037 17.726 16.037 C 17.278 16.037 16.849 15.859 16.532 15.543 L 11.817 10.828 L 2.882 19.763 C 2.563 20.071 2.137 20.241 1.694 20.237 C 1.252 20.233 0.828 20.056 0.515 19.743 C 0.202 19.43 0.025 19.006 0.021 18.564 C 0.017 18.121 0.187 17.695 0.495 17.376 L 10.624 7.247 C 10.94 6.931 11.37 6.753 11.817 6.753 C 12.265 6.753 12.694 6.931 13.011 7.247 L 17.726 11.962 L 26.312 3.376 L 23.634 3.376 Z M 3.376 27.011 L 3.376 32.075 C 3.376 32.523 3.198 32.952 2.882 33.269 C 2.565 33.585 2.136 33.763 1.688 33.763 C 1.24 33.763 0.811 33.585 0.494 33.269 C 0.178 32.952 0 32.523 0 32.075 L 0 27.011 C 0 26.563 0.178 26.134 0.494 25.817 C 0.811 25.5 1.24 25.323 1.688 25.323 C 2.136 25.323 2.565 25.5 2.882 25.817 C 3.198 26.134 3.376 26.563 3.376 27.011 Z M 11.817 20.258 C 11.817 19.81 11.639 19.381 11.323 19.064 C 11.006 18.748 10.577 18.57 10.129 18.57 C 9.681 18.57 9.252 18.748 8.935 19.064 C 8.619 19.381 8.441 19.81 8.441 20.258 L 8.441 32.075 C 8.441 32.523 8.619 32.952 8.935 33.269 C 9.252 33.585 9.681 33.763 10.129 33.763 C 10.577 33.763 11.006 33.585 11.323 33.269 C 11.639 32.952 11.817 32.523 11.817 32.075 L 11.817 20.258 Z M 18.57 21.946 C 19.018 21.946 19.447 22.124 19.764 22.441 C 20.08 22.757 20.258 23.187 20.258 23.634 L 20.258 32.075 C 20.258 32.523 20.08 32.952 19.764 33.269 C 19.447 33.585 19.018 33.763 18.57 33.763 C 18.122 33.763 17.693 33.585 17.376 33.269 C 17.06 32.952 16.882 32.523 16.882 32.075 L 16.882 23.634 C 16.882 23.187 17.06 22.757 17.376 22.441 C 17.693 22.124 18.122 21.946 18.57 21.946 Z M 28.699 15.194 C 28.699 14.746 28.521 14.316 28.204 14 C 27.888 13.683 27.458 13.505 27.011 13.505 C 26.563 13.505 26.134 13.683 25.817 14 C 25.5 14.316 25.323 14.746 25.323 15.194 L 25.323 32.075 C 25.323 32.523 25.5 32.952 25.817 33.269 C 26.134 33.585 26.563 33.763 27.011 33.763 C 27.458 33.763 27.888 33.585 28.204 33.269 C 28.521 32.952 28.699 32.523 28.699 32.075 L 28.699 15.194 Z" fill="#091520" fill-rule="nonzero" transform="translate(7.827 6.139)"></path>
</svg>