<svg xmlns="http://www.w3.org/2000/svg" viewBox="0 0 24 24" fill="none">
  <path d="M 20.503 8.201 L 14.705 6.116 L 12.281 3.073 C 12.07 2.815 11.804 2.608 11.503 2.465 C 11.202 2.323 10.873 2.249 10.541 2.25 L 4.543 2.25 C 4.177 2.25 3.816 2.34 3.491 2.511 C 3.167 2.683 2.89 2.931 2.684 3.234 L 0.649 6.221 C 0.226 6.843 0 7.578 0 8.33 L 0 14.25 C 0 14.449 0.079 14.64 0.22 14.78 C 0.36 14.921 0.551 15 0.75 15 L 2.357 15 C 2.52 15.644 2.893 16.215 3.417 16.622 C 3.941 17.03 4.586 17.252 5.25 17.252 C 5.914 17.252 6.559 17.03 7.083 16.622 C 7.607 16.215 7.98 15.644 8.143 15 L 12.857 15 C 13.02 15.644 13.393 16.215 13.917 16.622 C 14.441 17.03 15.086 17.252 15.75 17.252 C 16.414 17.252 17.059 17.03 17.583 16.622 C 18.107 16.215 18.48 15.644 18.643 15 L 20.25 15 C 20.449 15 20.64 14.921 20.78 14.78 C 20.921 14.64 21 14.449 21 14.25 L 21 8.906 C 21 8.752 20.952 8.601 20.863 8.475 C 20.775 8.349 20.649 8.253 20.503 8.201 Z M 5.25 15.75 C 4.953 15.75 4.663 15.662 4.417 15.497 C 4.17 15.332 3.978 15.098 3.864 14.824 C 3.751 14.55 3.721 14.248 3.779 13.957 C 3.837 13.666 3.98 13.399 4.189 13.189 C 4.399 12.98 4.666 12.837 4.957 12.779 C 5.248 12.721 5.55 12.751 5.824 12.864 C 6.098 12.978 6.332 13.17 6.497 13.417 C 6.662 13.663 6.75 13.953 6.75 14.25 C 6.749 14.648 6.591 15.029 6.31 15.31 C 6.029 15.591 5.648 15.749 5.25 15.75 Z M 15.75 15.75 C 15.453 15.75 15.163 15.662 14.917 15.497 C 14.67 15.332 14.478 15.098 14.364 14.824 C 14.251 14.55 14.221 14.248 14.279 13.957 C 14.337 13.666 14.48 13.399 14.689 13.189 C 14.899 12.98 15.166 12.837 15.457 12.779 C 15.748 12.721 16.05 12.751 16.324 12.864 C 16.598 12.978 16.832 13.17 16.997 13.417 C 17.162 13.663 17.25 13.953 17.25 14.25 C 17.249 14.648 17.091 15.029 16.81 15.31 C 16.529 15.591 16.148 15.749 15.75 15.75 Z M 19.5 13.5 L 18.643 13.5 C 18.48 12.856 18.107 12.285 17.583 11.878 C 17.059 11.47 16.414 11.248 15.75 11.248 C 15.086 11.248 14.441 11.47 13.917 11.878 C 13.393 12.285 13.02 12.856 12.857 13.5 L 8.143 13.5 C 7.98 12.856 7.607 12.285 7.083 11.878 C 6.559 11.47 5.914 11.248 5.25 11.248 C 4.586 11.248 3.941 11.47 3.417 11.878 C 2.893 12.285 2.52 12.856 2.357 13.5 L 1.5 13.5 L 1.5 8.33 C 1.5 7.879 1.636 7.438 1.89 7.064 L 3.923 4.078 C 3.992 3.977 4.084 3.894 4.193 3.837 C 4.301 3.78 4.421 3.75 4.543 3.75 L 10.541 3.75 C 10.65 3.75 10.757 3.774 10.856 3.82 C 10.955 3.866 11.043 3.933 11.114 4.016 L 13.663 7.217 C 13.75 7.326 13.866 7.409 13.997 7.456 L 19.5 9.433 L 19.5 13.5 Z M 17.25 3 L 15.75 3 C 15.75 2.602 15.592 2.221 15.311 1.939 C 15.029 1.658 14.648 1.5 14.25 1.5 L 14.25 0 C 15.045 0.001 15.808 0.317 16.37 0.88 C 16.933 1.442 17.249 2.205 17.25 3 Z" fill="#1E90FF" fill-rule="nonzero" transform="translate(1.5 5.25)"></path>
  <path d="M 6 6 L 4.5 6 C 4.499 4.807 4.024 3.663 3.18 2.82 C 2.337 1.976 1.193 1.501 0 1.5 L 0 0 C 1.591 0.002 3.116 0.635 4.24 1.76 C 5.365 2.884 5.998 4.409 6 6 Z" fill="#1E90FF" fill-rule="nonzero" transform="translate(15.75 2.25)"></path>
</svg>