<svg xmlns="http://www.w3.org/2000/svg" viewBox="0 0 87.5 87.5" fill="none">
  <path d="M 43.75 87.5 L 43.755 83.5 L 43.745 83.5 L 43.75 87.5 Z M 74.686 74.686 L 71.861 71.854 L 71.854 71.861 L 74.686 74.686 Z M 87.5 43.75 L 83.5 43.745 L 83.5 43.755 L 87.5 43.75 Z M 74.686 12.814 L 71.854 15.639 L 71.861 15.646 L 74.686 12.814 Z M 43.75 0 L 43.745 4 L 43.755 4 L 43.75 0 Z M 12.814 12.814 L 15.639 15.646 L 15.646 15.639 L 12.814 12.814 Z M 0 43.75 L 4 43.755 L 4 43.745 L 0 43.75 Z M 12.814 74.686 L 15.646 71.861 L 15.639 71.854 L 12.814 74.686 Z M 43.75 87.5 L 43.745 91.5 C 50.018 91.508 56.231 90.276 62.027 87.875 L 60.496 84.18 L 58.966 80.484 C 54.144 82.482 48.974 83.506 43.755 83.5 L 43.75 87.5 Z M 60.496 84.18 L 62.027 87.875 C 67.823 85.474 73.087 81.952 77.518 77.511 L 74.686 74.686 L 71.854 71.861 C 68.168 75.556 63.788 78.487 58.966 80.484 L 60.496 84.18 Z M 74.686 74.686 L 77.511 77.518 C 81.952 73.087 85.474 67.823 87.875 62.027 L 84.18 60.496 L 80.484 58.966 C 78.487 63.788 75.556 68.168 71.861 71.854 L 74.686 74.686 Z M 84.18 60.496 L 87.875 62.027 C 90.276 56.231 91.508 50.018 91.5 43.745 L 87.5 43.75 L 83.5 43.755 C 83.506 48.974 82.482 54.144 80.484 58.966 L 84.18 60.496 Z M 87.5 43.75 L 91.5 43.755 C 91.508 37.482 90.276 31.269 87.875 25.473 L 84.18 27.004 L 80.484 28.534 C 82.482 33.356 83.506 38.526 83.5 43.745 L 87.5 43.75 Z M 84.18 27.004 L 87.875 25.473 C 85.474 19.677 81.952 14.413 77.511 9.982 L 74.686 12.814 L 71.861 15.646 C 75.556 19.332 78.487 23.712 80.484 28.534 L 84.18 27.004 Z M 74.686 12.814 L 77.518 9.99 C 73.087 5.548 67.823 2.026 62.027 -0.375 L 60.496 3.32 L 58.966 7.016 C 63.788 9.013 68.168 11.944 71.854 15.639 L 74.686 12.814 Z M 60.496 3.32 L 62.027 -0.375 C 56.231 -2.776 50.018 -4.008 43.745 -4 L 43.75 0 L 43.755 4 C 48.974 3.994 54.144 5.019 58.966 7.016 L 60.496 3.32 Z M 43.75 0 L 43.755 -4 C 37.482 -4.008 31.269 -2.776 25.473 -0.375 L 27.004 3.32 L 28.534 7.016 C 33.356 5.019 38.526 3.994 43.745 4 L 43.75 0 Z M 27.004 3.32 L 25.473 -0.375 C 19.677 2.026 14.413 5.548 9.982 9.99 L 12.814 12.814 L 15.646 15.639 C 19.332 11.944 23.712 9.013 28.534 7.016 L 27.004 3.32 Z M 12.814 12.814 L 9.99 9.982 C 5.548 14.413 2.026 19.677 -0.375 25.473 L 3.32 27.004 L 7.016 28.534 C 9.013 23.712 11.944 19.332 15.639 15.646 L 12.814 12.814 Z M 3.32 27.004 L -0.375 25.473 C -2.776 31.269 -4.008 37.482 -4 43.755 L 0 43.75 L 4 43.745 C 3.994 38.526 5.019 33.356 7.016 28.534 L 3.32 27.004 Z M 0 43.75 L -4 43.745 C -4.008 50.018 -2.776 56.231 -0.375 62.027 L 3.32 60.496 L 7.016 58.966 C 5.019 54.144 3.994 48.974 4 43.755 L 0 43.75 Z M 3.32 60.496 L -0.375 62.027 C 2.026 67.823 5.548 73.087 9.99 77.518 L 12.814 74.686 L 15.639 71.854 C 11.944 68.168 9.013 63.788 7.016 58.966 L 3.32 60.496 Z M 12.814 74.686 L 9.982 77.511 C 14.413 81.952 19.677 85.474 25.473 87.875 L 27.004 84.18 L 28.534 80.484 C 23.712 78.487 19.332 75.556 15.646 71.861 L 12.814 74.686 Z M 27.004 84.18 L 25.473 87.875 C 31.269 90.276 37.482 91.508 43.755 91.5 L 43.75 87.5 L 43.745 83.5 C 38.526 83.506 33.356 82.482 28.534 80.484 L 27.004 84.18 Z" fill="#1E90FF" fill-rule="nonzero"></path>
  <path d="M 2.828 10.297 C 1.266 8.734 -1.266 8.734 -2.828 10.297 C -4.391 11.859 -4.391 14.391 -2.828 15.953 L 0 13.125 L 2.828 10.297 Z M 13.125 26.25 L 10.297 29.078 C 11.859 30.641 14.391 30.641 15.953 29.078 L 13.125 26.25 Z M 42.203 2.828 C 43.766 1.266 43.766 -1.266 42.203 -2.828 C 40.641 -4.391 38.109 -4.391 36.547 -2.828 L 39.375 0 L 42.203 2.828 Z M 0 13.125 L -2.828 15.953 L 10.297 29.078 L 13.125 26.25 L 15.953 23.422 L 2.828 10.297 L 0 13.125 Z M 13.125 26.25 L 15.953 29.078 L 42.203 2.828 L 39.375 0 L 36.547 -2.828 L 10.297 23.422 L 13.125 26.25 Z" fill="#1E90FF" fill-rule="nonzero" transform="translate(26.25 30.625)"></path>
</svg>