<svg xmlns="http://www.w3.org/2000/svg" viewBox="0 0 46.041 46.041" fill="none">
  <path d="M 2.878 24.589 C 3.744 24.589 4.447 23.886 4.447 23.019 C 4.447 22.152 3.744 21.45 2.878 21.45 L 2.878 23.019 L 2.878 24.589 Z M 0 21.101 L -1.57 21.101 L 0 21.101 Z M 5.755 15.346 L 5.755 13.776 L 5.755 15.346 Z M 7.673 16.915 C 8.54 16.915 9.243 16.212 9.243 15.346 C 9.243 14.479 8.54 13.776 7.673 13.776 L 7.673 15.346 L 7.673 16.915 Z M 7.359 11.032 C 8.208 11.206 9.038 10.658 9.211 9.809 C 9.385 8.96 8.837 8.131 7.988 7.957 L 7.673 9.495 L 7.359 11.032 Z M 10.569 2.214 C 11.263 2.734 12.247 2.593 12.766 1.899 C 13.286 1.205 13.145 0.222 12.451 -0.298 L 11.51 0.958 L 10.569 2.214 Z M 31.653 21.45 C 30.786 21.45 30.084 22.152 30.084 23.019 C 30.084 23.886 30.786 24.589 31.653 24.589 L 31.653 23.019 L 31.653 21.45 Z M 34.531 21.101 L 36.1 21.101 L 34.531 21.101 Z M 26.857 13.776 C 25.99 13.776 25.288 14.479 25.288 15.346 C 25.288 16.212 25.99 16.915 26.857 16.915 L 26.857 15.346 L 26.857 13.776 Z M 26.543 7.957 C 25.693 8.131 25.146 8.96 25.319 9.809 C 25.493 10.658 26.322 11.206 27.172 11.032 L 26.857 9.495 L 26.543 7.957 Z M 22.079 -0.298 C 21.386 0.222 21.245 1.205 21.764 1.899 C 22.284 2.593 23.268 2.734 23.962 2.214 L 23.02 0.958 L 22.079 -0.298 Z M 14.388 19.182 L 14.388 17.613 L 14.388 19.182 Z M 25.898 24.937 L 27.468 24.937 L 25.898 24.937 Z M 22.061 8.631 L 20.492 8.631 L 22.061 8.631 Z M 2.878 23.019 L 2.878 21.45 L 1.918 21.45 L 1.918 23.019 L 1.918 24.589 L 2.878 24.589 L 2.878 23.019 Z M 1.918 23.019 L 1.918 21.45 C 1.826 21.45 1.737 21.413 1.672 21.347 L 0.562 22.457 L -0.548 23.567 C 0.106 24.221 0.993 24.589 1.918 24.589 L 1.918 23.019 Z M 0.562 22.457 L 1.672 21.347 C 1.606 21.282 1.57 21.193 1.57 21.101 L 0 21.101 L -1.57 21.101 C -1.57 22.026 -1.202 22.913 -0.548 23.567 L 0.562 22.457 Z M 0 21.101 L 1.57 21.101 C 1.57 19.991 2.011 18.926 2.795 18.141 L 1.686 17.031 L 0.576 15.921 C -0.798 17.295 -1.57 19.158 -1.57 21.101 L 0 21.101 Z M 1.686 17.031 L 2.795 18.141 C 3.58 17.356 4.645 16.915 5.755 16.915 L 5.755 15.346 L 5.755 13.776 C 3.812 13.776 1.949 14.548 0.576 15.921 L 1.686 17.031 Z M 5.755 15.346 L 5.755 16.915 L 7.673 16.915 L 7.673 15.346 L 7.673 13.776 L 5.755 13.776 L 5.755 15.346 Z M 7.673 9.495 L 7.988 7.957 C 7.514 7.86 7.068 7.658 6.683 7.365 L 5.734 8.615 L 4.784 9.865 C 5.544 10.442 6.424 10.841 7.359 11.032 L 7.673 9.495 Z M 5.734 8.615 L 6.683 7.365 C 6.298 7.073 5.983 6.697 5.763 6.267 L 4.366 6.982 L 2.969 7.698 C 3.404 8.547 4.024 9.288 4.784 9.865 L 5.734 8.615 Z M 4.366 6.982 L 5.763 6.267 C 5.542 5.836 5.421 5.362 5.409 4.878 L 3.84 4.918 L 2.271 4.958 C 2.295 5.912 2.534 6.848 2.969 7.698 L 4.366 6.982 Z M 3.84 4.918 L 5.409 4.878 C 5.397 4.395 5.493 3.914 5.692 3.473 L 4.26 2.83 L 2.828 2.186 C 2.437 3.057 2.247 4.004 2.271 4.958 L 3.84 4.918 Z M 4.26 2.83 L 5.692 3.473 C 5.89 3.032 6.185 2.641 6.555 2.329 L 5.543 1.129 L 4.531 -0.07 C 3.801 0.545 3.22 1.316 2.828 2.186 L 4.26 2.83 Z M 5.543 1.129 L 6.555 2.329 C 6.924 2.018 7.36 1.793 7.828 1.672 L 7.435 0.152 L 7.043 -1.367 C 6.119 -1.129 5.261 -0.686 4.531 -0.07 L 5.543 1.129 Z M 7.435 0.152 L 7.828 1.672 C 8.296 1.551 8.786 1.537 9.26 1.631 L 9.565 0.091 L 9.869 -1.449 C 8.933 -1.634 7.967 -1.606 7.043 -1.367 L 7.435 0.152 Z M 9.565 0.091 L 9.26 1.631 C 9.735 1.725 10.182 1.924 10.569 2.214 L 11.51 0.958 L 12.451 -0.298 C 11.688 -0.87 10.805 -1.264 9.869 -1.449 L 9.565 0.091 Z M 31.653 23.019 L 31.653 24.589 L 32.612 24.589 L 32.612 23.019 L 32.612 21.45 L 31.653 21.45 L 31.653 23.019 Z M 32.612 23.019 L 32.612 24.589 C 33.537 24.589 34.425 24.221 35.079 23.567 L 33.969 22.457 L 32.859 21.347 C 32.794 21.413 32.705 21.45 32.612 21.45 L 32.612 23.019 Z M 33.969 22.457 L 35.079 23.567 C 35.733 22.913 36.1 22.026 36.1 21.101 L 34.531 21.101 L 32.961 21.101 C 32.961 21.193 32.924 21.282 32.859 21.347 L 33.969 22.457 Z M 34.531 21.101 L 36.1 21.101 C 36.1 19.158 35.329 17.295 33.955 15.921 L 32.845 17.031 L 31.735 18.141 C 32.52 18.926 32.961 19.991 32.961 21.101 L 34.531 21.101 Z M 32.845 17.031 L 33.955 15.921 C 32.581 14.548 30.718 13.776 28.776 13.776 L 28.776 15.346 L 28.776 16.915 C 29.886 16.915 30.95 17.356 31.735 18.141 L 32.845 17.031 Z M 28.776 15.346 L 28.776 13.776 L 26.857 13.776 L 26.857 15.346 L 26.857 16.915 L 28.776 16.915 L 28.776 15.346 Z M 26.857 9.495 L 27.172 11.032 C 28.107 10.841 28.987 10.442 29.747 9.865 L 28.797 8.615 L 27.848 7.365 C 27.463 7.658 27.017 7.86 26.543 7.957 L 26.857 9.495 Z M 28.797 8.615 L 29.747 9.865 C 30.506 9.288 31.127 8.547 31.562 7.698 L 30.165 6.982 L 28.768 6.267 C 28.547 6.697 28.233 7.073 27.848 7.365 L 28.797 8.615 Z M 30.165 6.982 L 31.562 7.698 C 31.997 6.848 32.235 5.912 32.26 4.958 L 30.691 4.918 L 29.122 4.878 C 29.109 5.362 28.988 5.836 28.768 6.267 L 30.165 6.982 Z M 30.691 4.918 L 32.26 4.958 C 32.284 4.004 32.093 3.057 31.702 2.186 L 30.271 2.83 L 28.839 3.473 C 29.037 3.914 29.134 4.395 29.122 4.878 L 30.691 4.918 Z M 30.271 2.83 L 31.702 2.186 C 31.311 1.316 30.729 0.545 30 -0.07 L 28.988 1.129 L 27.976 2.329 C 28.346 2.641 28.641 3.032 28.839 3.473 L 30.271 2.83 Z M 28.988 1.129 L 30 -0.07 C 29.27 -0.686 28.412 -1.129 27.488 -1.367 L 27.095 0.152 L 26.703 1.672 C 27.171 1.793 27.606 2.018 27.976 2.329 L 28.988 1.129 Z M 27.095 0.152 L 27.488 -1.367 C 26.564 -1.606 25.598 -1.634 24.662 -1.449 L 24.966 0.091 L 25.271 1.631 C 25.745 1.537 26.235 1.551 26.703 1.672 L 27.095 0.152 Z M 24.966 0.091 L 24.662 -1.449 C 23.726 -1.264 22.843 -0.87 22.079 -0.298 L 23.02 0.958 L 23.962 2.214 C 24.349 1.924 24.796 1.725 25.271 1.631 L 24.966 0.091 Z M 23.98 26.856 L 23.98 25.286 L 10.551 25.286 L 10.551 26.856 L 10.551 28.425 L 23.98 28.425 L 23.98 26.856 Z M 10.551 26.856 L 10.551 25.286 C 10.459 25.286 10.37 25.25 10.304 25.184 L 9.195 26.294 L 8.085 27.404 C 8.739 28.058 9.626 28.425 10.551 28.425 L 10.551 26.856 Z M 9.195 26.294 L 10.304 25.184 C 10.239 25.119 10.202 25.03 10.202 24.937 L 8.633 24.937 L 7.063 24.937 C 7.063 25.863 7.431 26.75 8.085 27.404 L 9.195 26.294 Z M 8.633 24.937 L 10.202 24.937 C 10.202 23.827 10.643 22.763 11.428 21.978 L 10.318 20.868 L 9.208 19.758 C 7.835 21.132 7.063 22.995 7.063 24.937 L 8.633 24.937 Z M 10.318 20.868 L 11.428 21.978 C 12.213 21.193 13.278 20.752 14.388 20.752 L 14.388 19.182 L 14.388 17.613 C 12.445 17.613 10.582 18.385 9.208 19.758 L 10.318 20.868 Z M 14.388 19.182 L 14.388 20.752 L 20.143 20.752 L 20.143 19.182 L 20.143 17.613 L 14.388 17.613 L 14.388 19.182 Z M 20.143 19.182 L 20.143 20.752 C 21.253 20.752 22.318 21.193 23.103 21.978 L 24.212 20.868 L 25.322 19.758 C 23.949 18.385 22.086 17.613 20.143 17.613 L 20.143 19.182 Z M 24.212 20.868 L 23.103 21.978 C 23.887 22.763 24.328 23.827 24.328 24.937 L 25.898 24.937 L 27.468 24.937 C 27.468 22.995 26.696 21.132 25.322 19.758 L 24.212 20.868 Z M 25.898 24.937 L 24.328 24.937 C 24.328 25.03 24.292 25.119 24.226 25.184 L 25.336 26.294 L 26.446 27.404 C 27.1 26.75 27.468 25.863 27.468 24.937 L 25.898 24.937 Z M 25.336 26.294 L 24.226 25.184 C 24.161 25.25 24.072 25.286 23.98 25.286 L 23.98 26.856 L 23.98 28.425 C 24.905 28.425 25.792 28.058 26.446 27.404 L 25.336 26.294 Z M 22.061 8.631 L 20.492 8.631 C 20.492 9.487 20.152 10.308 19.547 10.913 L 20.657 12.023 L 21.766 13.132 C 22.96 11.939 23.631 10.32 23.631 8.631 L 22.061 8.631 Z M 20.657 12.023 L 19.547 10.913 C 18.942 11.518 18.121 11.858 17.265 11.858 L 17.265 13.427 L 17.265 14.997 C 18.954 14.997 20.573 14.326 21.766 13.132 L 20.657 12.023 Z M 17.265 13.427 L 17.265 11.858 C 16.41 11.858 15.589 11.518 14.984 10.913 L 13.874 12.023 L 12.764 13.132 C 13.958 14.326 15.577 14.997 17.265 14.997 L 17.265 13.427 Z M 13.874 12.023 L 14.984 10.913 C 14.379 10.308 14.039 9.487 14.039 8.631 L 12.469 8.631 L 10.9 8.631 C 10.9 10.32 11.57 11.939 12.764 13.132 L 13.874 12.023 Z M 12.469 8.631 L 14.039 8.631 C 14.039 7.776 14.379 6.955 14.984 6.35 L 13.874 5.24 L 12.764 4.13 C 11.57 5.324 10.9 6.943 10.9 8.631 L 12.469 8.631 Z M 13.874 5.24 L 14.984 6.35 C 15.589 5.745 16.41 5.405 17.265 5.405 L 17.265 3.835 L 17.265 2.266 C 15.577 2.266 13.958 2.936 12.764 4.13 L 13.874 5.24 Z M 17.265 3.835 L 17.265 5.405 C 18.121 5.405 18.942 5.745 19.547 6.35 L 20.657 5.24 L 21.766 4.13 C 20.573 2.936 18.954 2.266 17.265 2.266 L 17.265 3.835 Z M 20.657 5.24 L 19.547 6.35 C 20.152 6.955 20.492 7.776 20.492 8.631 L 22.061 8.631 L 23.631 8.631 C 23.631 6.943 22.96 5.324 21.766 4.13 L 20.657 5.24 Z" fill="#091520" fill-rule="nonzero" transform="translate(5.755 9.593)"></path>
</svg>