<svg xmlns="http://www.w3.org/2000/svg" viewBox="0 0 20.378 20.378" fill="none">
  <path d="M 8.883 0 L 9.847 -0.445 C 9.674 -0.821 9.297 -1.062 8.883 -1.062 C 8.469 -1.062 8.092 -0.821 7.919 -0.445 L 8.883 0 Z M 11.519 5.713 L 10.554 6.157 C 10.709 6.493 11.027 6.723 11.393 6.767 L 11.519 5.713 Z M 17.766 6.454 L 18.487 7.233 C 18.791 6.952 18.904 6.52 18.776 6.126 C 18.648 5.732 18.303 5.448 17.891 5.399 L 17.766 6.454 Z M 13.147 10.725 L 12.426 9.945 C 12.155 10.196 12.034 10.569 12.106 10.932 L 13.147 10.725 Z M 14.373 16.896 L 13.855 17.822 C 14.216 18.025 14.662 17.998 14.997 17.755 C 15.332 17.511 15.495 17.095 15.415 16.689 L 14.373 16.896 Z M 8.883 13.823 L 9.402 12.896 C 9.079 12.716 8.687 12.716 8.364 12.896 L 8.883 13.823 Z M 3.393 16.897 L 2.351 16.69 C 2.271 17.096 2.434 17.512 2.769 17.756 C 3.104 17.999 3.55 18.025 3.912 17.823 L 3.393 16.897 Z M 4.619 10.726 L 5.66 10.932 C 5.732 10.57 5.611 10.197 5.34 9.946 L 4.619 10.726 Z M 0 6.453 L -0.125 5.399 C -0.536 5.447 -0.882 5.731 -1.01 6.125 C -1.138 6.519 -1.025 6.951 -0.721 7.232 L 0 6.453 Z M 6.248 5.712 L 6.373 6.766 C 6.74 6.723 7.058 6.492 7.212 6.156 L 6.248 5.712 Z M 8.883 0 L 7.919 0.445 L 10.554 6.157 L 11.519 5.713 L 12.483 5.268 L 9.847 -0.445 L 8.883 0 Z M 11.519 5.713 L 11.393 6.767 L 17.641 7.508 L 17.766 6.454 L 17.891 5.399 L 11.644 4.658 L 11.519 5.713 Z M 17.766 6.454 L 17.045 5.674 L 12.426 9.945 L 13.147 10.725 L 13.868 11.504 L 18.487 7.233 L 17.766 6.454 Z M 13.147 10.725 L 12.106 10.932 L 13.332 17.103 L 14.373 16.896 L 15.415 16.689 L 14.189 10.518 L 13.147 10.725 Z M 14.373 16.896 L 14.892 15.969 L 9.402 12.896 L 8.883 13.823 L 8.364 14.749 L 13.855 17.822 L 14.373 16.896 Z M 8.883 13.823 L 8.364 12.896 L 2.874 15.97 L 3.393 16.897 L 3.912 17.823 L 9.402 14.749 L 8.883 13.823 Z M 3.393 16.897 L 4.434 17.104 L 5.66 10.932 L 4.619 10.726 L 3.578 10.519 L 2.351 16.69 L 3.393 16.897 Z M 4.619 10.726 L 5.34 9.946 L 0.721 5.674 L 0 6.453 L -0.721 7.232 L 3.898 11.505 L 4.619 10.726 Z M 0 6.453 L 0.125 7.507 L 6.373 6.766 L 6.248 5.712 L 6.123 4.657 L -0.125 5.399 L 0 6.453 Z M 6.248 5.712 L 7.212 6.156 L 9.847 0.445 L 8.883 0 L 7.919 -0.445 L 5.284 5.267 L 6.248 5.712 Z" fill="#091520" fill-rule="nonzero" transform="translate(1.306 1.698)"></path>
</svg>