<svg xmlns="http://www.w3.org/2000/svg" width="439" height="64" viewBox="0 0 439 64" fill="none">
  <path d="M 16.953 62.636 L 16.953 7.414 L 28.396 7.414 L 28.396 62.636 L 16.953 62.636 Z M 0 12.527 L 0 1.619 L 45.349 1.619 L 45.349 12.527 L 0 12.527 Z" fill="currentColor" fill-rule="nonzero"></path>
  <path d="M 45.818 62.636 L 45.818 19.174 L 56.243 19.174 L 56.243 24.969 L 56.922 24.969 C 57.656 23.606 58.617 22.413 59.804 21.39 C 61.047 20.311 62.488 19.458 64.127 18.834 C 65.765 18.209 67.517 17.896 69.382 17.896 C 70.512 17.896 71.529 17.981 72.433 18.152 C 73.338 18.322 74.129 18.549 74.807 18.834 L 74.807 29.997 C 73.62 29.543 72.433 29.174 71.247 28.889 C 70.116 28.549 68.902 28.378 67.602 28.378 C 65.398 28.378 63.477 28.946 61.838 30.083 C 60.256 31.162 59.041 32.668 58.193 34.599 C 57.345 36.474 56.922 38.605 56.922 40.991 L 56.922 62.636 L 45.818 62.636 Z" fill="currentColor" fill-rule="nonzero"></path>
  <path d="M 95.396 64 C 90.084 64 86.1 62.352 83.444 59.057 C 80.788 55.762 79.46 51.274 79.46 45.593 L 79.46 19.174 L 90.564 19.174 L 90.564 44.229 C 90.564 47.183 91.271 49.513 92.683 51.217 C 94.153 52.865 96.017 53.688 98.278 53.688 C 100.482 53.688 102.346 53.149 103.872 52.069 C 105.398 50.933 106.556 49.427 107.347 47.553 C 108.195 45.678 108.619 43.604 108.619 41.332 L 108.619 19.174 L 119.723 19.174 L 119.723 62.636 L 109.297 62.636 L 109.297 57.182 L 108.619 57.182 C 107.771 58.546 106.669 59.739 105.313 60.762 C 103.957 61.784 102.431 62.58 100.736 63.148 C 99.097 63.716 97.317 64 95.396 64 Z" fill="currentColor" fill-rule="nonzero"></path>
  <path d="M 145.125 64 C 141.395 64 138.203 63.46 135.547 62.381 C 132.947 61.301 130.828 59.881 129.189 58.12 C 127.551 56.359 126.336 54.427 125.545 52.325 L 135.462 47.979 C 136.423 50.024 137.722 51.586 139.361 52.666 C 141 53.688 142.921 54.2 145.125 54.2 C 146.933 54.2 148.572 53.916 150.041 53.348 C 151.511 52.723 152.245 51.615 152.245 50.024 C 152.245 48.888 151.85 48.007 151.058 47.382 C 150.324 46.7 149.391 46.189 148.261 45.848 C 147.131 45.451 145.973 45.138 144.786 44.911 L 139.7 43.803 C 137.609 43.348 135.631 42.553 133.767 41.417 C 131.902 40.224 130.376 38.747 129.189 36.985 C 128.059 35.167 127.494 33.094 127.494 30.764 C 127.494 28.151 128.229 25.878 129.698 23.947 C 131.224 22.015 133.258 20.51 135.801 19.43 C 138.4 18.351 141.254 17.811 144.362 17.811 C 147.244 17.811 149.844 18.152 152.16 18.834 C 154.477 19.515 156.483 20.566 158.179 21.987 C 159.874 23.35 161.23 25.111 162.247 27.27 L 152.754 31.446 C 151.85 29.742 150.663 28.549 149.194 27.867 C 147.781 27.185 146.255 26.844 144.616 26.844 C 142.695 26.844 141.169 27.213 140.039 27.952 C 138.909 28.691 138.344 29.571 138.344 30.594 C 138.344 31.673 138.909 32.611 140.039 33.406 C 141.169 34.202 142.526 34.798 144.108 35.196 L 150.465 36.73 C 154.76 37.752 157.981 39.4 160.128 41.672 C 162.332 43.945 163.434 46.672 163.434 49.854 C 163.434 52.694 162.615 55.194 160.976 57.353 C 159.337 59.455 157.133 61.103 154.364 62.296 C 151.595 63.432 148.516 64 145.125 64 Z" fill="currentColor" fill-rule="nonzero"></path>
  <path d="M 165.567 28.719 L 165.567 19.174 L 173.535 19.174 L 173.535 28.719 L 165.567 28.719 Z M 187.436 63.318 C 182.972 63.318 179.468 62.04 176.925 59.483 C 174.382 56.87 173.111 53.291 173.111 48.746 L 173.111 6.903 L 184.215 1.577 L 184.215 46.7 C 184.215 48.802 184.639 50.365 185.487 51.387 C 186.334 52.353 187.719 52.836 189.64 52.836 C 190.544 52.836 191.392 52.723 192.183 52.495 C 192.974 52.211 193.963 51.7 195.15 50.961 L 195.15 61.87 C 193.906 62.324 192.635 62.665 191.335 62.892 C 190.092 63.176 188.792 63.318 187.436 63.318 Z M 183.791 28.719 L 183.791 19.174 L 194.811 19.174 L 194.811 28.719 L 183.791 28.719 Z" fill="currentColor" fill-rule="nonzero"></path>
  <path d="M 203.799 62.636 L 203.799 1.619 L 224.312 1.619 C 230.754 1.619 236.292 2.926 240.925 5.539 C 245.616 8.096 249.204 11.675 251.69 16.277 C 254.233 20.822 255.505 26.106 255.505 32.128 C 255.505 38.15 254.233 43.462 251.69 48.064 C 249.204 52.666 245.616 56.245 240.925 58.802 C 236.292 61.358 230.754 62.636 224.312 62.636 L 203.799 62.636 Z M 215.242 51.728 L 223.803 51.728 C 228.267 51.728 231.997 50.933 234.992 49.342 C 237.987 47.695 240.219 45.394 241.688 42.439 C 243.214 39.485 243.977 36.048 243.977 32.128 C 243.977 28.151 243.214 24.714 241.688 21.816 C 240.219 18.862 237.987 16.589 234.992 14.999 C 231.997 13.351 228.267 12.527 223.803 12.527 L 215.242 12.527 L 215.242 51.728 Z" fill="currentColor" fill-rule="nonzero"></path>
  <path d="M 262.992 62.636 L 262.992 19.174 L 273.418 19.174 L 273.418 24.969 L 274.096 24.969 C 274.831 23.606 275.791 22.413 276.978 21.39 C 278.221 20.311 279.662 19.458 281.301 18.834 C 282.94 18.209 284.691 17.896 286.556 17.896 C 287.686 17.896 288.704 17.981 289.608 18.152 C 290.512 18.322 291.303 18.549 291.981 18.834 L 291.981 29.997 C 290.794 29.543 289.608 29.174 288.421 28.889 C 287.291 28.549 286.076 28.378 284.776 28.378 C 282.572 28.378 280.651 28.946 279.012 30.083 C 277.43 31.162 276.215 32.668 275.367 34.599 C 274.52 36.474 274.096 38.605 274.096 40.991 L 274.096 62.636 L 262.992 62.636 Z" fill="currentColor" fill-rule="nonzero"></path>
  <path d="M 296.973 62.636 L 296.973 19.174 L 308.078 19.174 L 308.078 62.636 L 296.973 62.636 Z M 302.568 14.402 C 300.59 14.402 298.895 13.692 297.482 12.272 C 296.069 10.851 295.363 9.147 295.363 7.158 C 295.363 5.17 296.069 3.494 297.482 2.13 C 298.895 0.71 300.59 0 302.568 0 C 304.546 0 306.213 0.71 307.569 2.13 C 308.982 3.494 309.688 5.17 309.688 7.158 C 309.688 9.147 308.982 10.851 307.569 12.272 C 306.213 13.692 304.546 14.402 302.568 14.402 Z" fill="currentColor" fill-rule="nonzero"></path>
  <path d="M 330.357 62.636 L 312.048 19.174 L 324.677 19.174 L 335.612 47.467 L 336.29 47.467 L 347.394 19.174 L 359.854 19.174 L 341.376 62.636 L 330.357 62.636 Z" fill="currentColor" fill-rule="nonzero"></path>
  <path d="M 382.464 64 C 378.113 64 374.214 63.006 370.766 61.017 C 367.376 59.029 364.692 56.302 362.714 52.836 C 360.793 49.371 359.832 45.422 359.832 40.991 C 359.832 36.843 360.793 33.008 362.714 29.486 C 364.635 25.964 367.263 23.151 370.597 21.049 C 373.931 18.89 377.745 17.811 382.04 17.811 C 386.674 17.811 390.573 18.805 393.737 20.794 C 396.902 22.782 399.304 25.452 400.942 28.804 C 402.581 32.099 403.401 35.764 403.401 39.798 C 403.401 40.707 403.372 41.502 403.316 42.184 C 403.259 42.809 403.203 43.263 403.146 43.547 L 366.02 43.547 L 366.02 35.622 L 392.72 35.622 C 392.664 34.656 392.381 33.662 391.873 32.639 C 391.364 31.617 390.658 30.679 389.754 29.827 C 388.849 28.975 387.747 28.293 386.448 27.782 C 385.205 27.213 383.764 26.929 382.125 26.929 C 379.977 26.929 378 27.498 376.191 28.634 C 374.44 29.77 373.055 31.361 372.038 33.406 C 371.021 35.395 370.512 37.781 370.512 40.565 C 370.512 43.462 371.049 45.933 372.123 47.979 C 373.196 49.967 374.637 51.501 376.446 52.581 C 378.31 53.603 380.373 54.115 382.633 54.115 C 385.289 54.115 387.521 53.546 389.33 52.41 C 391.138 51.217 392.551 49.74 393.568 47.979 L 402.553 52.41 C 400.519 55.989 397.863 58.83 394.585 60.932 C 391.308 62.977 387.267 64 382.464 64 Z" fill="currentColor" fill-rule="nonzero"></path>
  <path d="M 410.011 62.636 L 410.011 19.174 L 420.437 19.174 L 420.437 24.969 L 421.115 24.969 C 421.849 23.606 422.81 22.413 423.997 21.39 C 425.24 20.311 426.681 19.458 428.32 18.834 C 429.959 18.209 431.71 17.896 433.575 17.896 C 434.705 17.896 435.722 17.981 436.627 18.152 C 437.531 18.322 438.322 18.549 439 18.834 L 439 29.997 C 437.813 29.543 436.627 29.174 435.44 28.889 C 434.31 28.549 433.095 28.378 431.795 28.378 C 429.591 28.378 427.67 28.946 426.031 30.083 C 424.449 31.162 423.234 32.668 422.386 34.599 C 421.539 36.474 421.115 38.605 421.115 40.991 L 421.115 62.636 L 410.011 62.636 Z" fill="currentColor" fill-rule="nonzero"></path>
</svg>