<svg xmlns="http://www.w3.org/2000/svg" viewBox="0 0 24 24" fill="none">
  <g transform="translate(0.51 0)" fill="#FFFFFF"><path d="M 23.38 5.94 C 23.035 5.67 22.115 5.45 21.425 5.29 L 20.49 5.165 L 20.49 2.905 L 20.97 2.9 C 21.42 3.13 22.065 3.5 22.1 4 L 23.9 4 C 23.865 3 23.105 2.37 22.43 1.87 C 21.98 1.54 21.49 1.36 20.49 1.25 L 20.49 0 L 19.49 0 L 19.49 1.21 C 18.49 1.305 18.165 1.555 17.715 1.96 C 17.125 2.49 16.86 3.16 16.86 3.96 C 16.86 4.84 17.11 5.485 17.715 5.9 C 18.055 6.135 18.485 6.355 19.485 6.555 L 19.485 9 C 18.985 8.91 18.985 8.935 18.81 8.725 C 18.64 8.52 18.595 7.995 18.535 7.995 L 16.745 7.995 C 16.745 8.995 17.015 9.475 17.695 10.01 C 18.185 10.395 18.49 10.465 19.49 10.565 L 19.49 11.5 L 20.49 11.5 L 20.49 10.58 C 21.49 10.485 22.34 10.23 22.83 9.81 C 23.465 9.27 23.985 8.59 23.985 7.77 C 23.985 6.97 23.92 6.36 23.385 5.94 L 23.38 5.94 Z M 19 4.545 C 18.71 4.385 18.595 4.145 18.595 3.825 C 18.595 3.475 18.69 3.205 18.985 3.01 C 19.14 2.91 18.99 2.835 19.485 2.785 L 19.485 4.755 C 18.985 4.68 19.105 4.61 18.995 4.55 L 19 4.545 Z M 21.17 8.955 C 21.085 8.985 20.49 9.005 20.49 9.025 L 20.49 6.94 C 21.49 7.025 21.415 7.12 21.58 7.22 C 21.84 7.38 21.97 7.615 21.97 7.91 C 21.97 8.42 21.705 8.765 21.17 8.955 Z M 18.75 14.995 L 18.475 14.995 L 15.405 9.435 C 15.275 9.195 14.94 9 14.665 9 L 5.345 9 C 5.07 9 4.735 9.195 4.605 9.44 L 1.535 15.005 L 1.26 15.005 C 0.71 15.005 0 15.455 0 16.005 L 0 21.005 C 0 21.555 0.71 22.005 1.26 22.005 L 2 22.005 L 2 23.505 C 2 24.33 2.935 25.005 3.76 25.005 L 4.26 25.005 C 5.085 25.005 5.5 24.33 5.5 23.505 L 5.5 22.005 L 14 22.005 L 14 23.505 C 14 24.33 14.935 25.005 15.76 25.005 L 16.26 25.005 C 17.085 25.005 17.5 24.33 17.5 23.505 L 17.5 22.005 L 18.76 22.005 C 19.31 22.005 19.5 21.555 19.5 21.005 L 19.5 16.005 C 19.5 15.455 19.31 15.005 18.76 15.005 L 18.75 14.995 Z M 3 18.995 C 2.668 18.995 2.351 18.863 2.116 18.629 C 1.882 18.394 1.75 18.077 1.75 17.745 C 1.75 17.413 1.882 17.096 2.116 16.861 C 2.351 16.627 2.668 16.495 3 16.495 C 3.332 16.495 3.649 16.627 3.884 16.861 C 4.118 17.096 4.25 17.413 4.25 17.745 C 4.25 18.077 4.118 18.394 3.884 18.629 C 3.649 18.863 3.332 18.995 3 18.995 Z M 4 14.995 L 6.025 10.945 C 6.15 10.7 6.475 10.5 6.75 10.5 L 13.25 10.5 C 13.525 10.5 13.85 10.7 13.975 10.95 L 16 15.005 L 4 15.005 L 4 14.995 Z M 17 18.995 C 16.668 18.995 16.351 18.863 16.116 18.629 C 15.882 18.394 15.75 18.077 15.75 17.745 C 15.75 17.413 15.882 17.096 16.116 16.861 C 16.351 16.627 16.668 16.495 17 16.495 C 17.332 16.495 17.649 16.627 17.884 16.861 C 18.118 17.096 18.25 17.413 18.25 17.745 C 18.25 18.077 18.118 18.394 17.884 18.629 C 17.649 18.863 17.332 18.995 17 18.995 Z" fill-rule="nonzero"></path></g>
</svg>