<svg xmlns="http://www.w3.org/2000/svg" viewBox="0 0 24 24" fill="none">
  <g transform="translate(5 5)" fill="#1E90FF"><path d="M 3 0 C 3.411 0 3.799 0.078 4.164 0.235 C 4.529 0.391 4.846 0.604 5.117 0.875 C 5.388 1.146 5.604 1.466 5.766 1.836 C 5.927 2.206 6.005 2.594 6 3 C 6 3.417 5.922 3.805 5.766 4.164 C 5.609 4.524 5.396 4.841 5.125 5.117 C 4.854 5.393 4.534 5.61 4.164 5.766 C 3.794 5.922 3.406 6 3 6 C 2.583 6 2.195 5.922 1.836 5.766 C 1.477 5.61 1.159 5.396 0.883 5.125 C 0.607 4.854 0.391 4.537 0.234 4.172 C 0.078 3.808 0 3.417 0 3 C 0 2.589 0.078 2.201 0.234 1.836 C 0.391 1.472 0.604 1.154 0.875 0.883 C 1.146 0.612 1.464 0.396 1.828 0.235 C 2.193 0.073 2.583 -0.005 3 0 Z" fill-rule="nonzero"></path></g>
</svg>