<svg xmlns="http://www.w3.org/2000/svg" viewBox="0 0 32 32" fill="none">
  <g transform="translate(4.599 6.156)" fill="rgb(255,255,255)"><path d="M 20.829 11.4 L 21.713 12.284 C 21.717 12.28 21.721 12.276 21.724 12.273 L 20.829 11.4 Z M 13.287 18.944 L 14.17 19.828 L 14.171 19.828 L 13.287 18.944 Z M 9.516 18.944 L 8.632 19.828 L 8.632 19.828 L 9.516 18.944 Z M 1.973 11.401 L 2.857 10.517 L 2.853 10.514 L 1.973 11.401 Z M 11.401 1.973 L 10.514 2.853 C 10.997 3.341 11.783 3.347 12.274 2.868 L 11.401 1.973 Z M 20.829 11.4 L 19.945 10.516 L 12.403 18.06 L 13.287 18.944 L 14.171 19.828 L 21.713 12.284 L 20.829 11.4 Z M 13.287 18.944 L 12.403 18.06 C 12.137 18.326 11.777 18.475 11.401 18.475 L 11.401 19.725 L 11.401 20.975 C 12.44 20.975 13.436 20.562 14.17 19.828 L 13.287 18.944 Z M 11.401 19.725 L 11.401 18.475 C 11.026 18.475 10.665 18.326 10.4 18.06 L 9.516 18.944 L 8.632 19.828 C 9.367 20.562 10.363 20.975 11.401 20.975 L 11.401 19.725 Z M 9.516 18.944 L 10.4 18.06 L 2.857 10.517 L 1.973 11.401 L 1.089 12.285 L 8.632 19.828 L 9.516 18.944 Z M 1.973 11.401 L 2.853 10.514 C 2.347 10.011 1.944 9.414 1.669 8.756 L 0.516 9.238 L -0.637 9.72 C -0.235 10.682 0.353 11.555 1.093 12.289 L 1.973 11.401 Z M 0.516 9.238 L 1.669 8.756 C 1.394 8.098 1.252 7.392 1.25 6.679 L 0 6.681 L -1.25 6.684 C -1.248 7.727 -1.04 8.758 -0.637 9.72 L 0.516 9.238 Z M 0 6.681 L 1.25 6.679 C 1.248 5.965 1.388 5.259 1.66 4.599 L 0.505 4.122 L -0.651 3.645 C -1.049 4.609 -1.252 5.641 -1.25 6.684 L 0 6.681 Z M 0.505 4.122 L 1.66 4.599 C 1.932 3.94 2.332 3.341 2.837 2.837 L 1.953 1.953 L 1.069 1.069 C 0.332 1.806 -0.253 2.681 -0.651 3.645 L 0.505 4.122 Z M 1.953 1.953 L 2.837 2.837 C 3.341 2.332 3.94 1.932 4.599 1.66 L 4.122 0.505 L 3.645 -0.651 C 2.681 -0.253 1.806 0.332 1.069 1.069 L 1.953 1.953 Z M 4.122 0.505 L 4.599 1.66 C 5.259 1.388 5.965 1.248 6.679 1.25 L 6.681 0 L 6.684 -1.25 C 5.641 -1.252 4.609 -1.049 3.645 -0.651 L 4.122 0.505 Z M 6.681 0 L 6.679 1.25 C 7.392 1.252 8.098 1.394 8.756 1.669 L 9.238 0.516 L 9.72 -0.637 C 8.758 -1.04 7.727 -1.248 6.684 -1.25 L 6.681 0 Z M 9.238 0.516 L 8.756 1.669 C 9.414 1.944 10.011 2.347 10.514 2.853 L 11.401 1.973 L 12.289 1.093 C 11.555 0.353 10.682 -0.235 9.72 -0.637 L 9.238 0.516 Z M 11.401 1.973 L 12.274 2.868 C 13.294 1.874 14.665 1.321 16.09 1.33 L 16.097 0.08 L 16.105 -1.17 C 14.023 -1.183 12.019 -0.375 10.529 1.078 L 11.401 1.973 Z M 16.097 0.08 L 16.09 1.33 C 17.514 1.339 18.878 1.909 19.885 2.916 L 20.769 2.032 L 21.653 1.148 C 20.181 -0.324 18.187 -1.157 16.105 -1.17 L 16.097 0.08 Z M 20.769 2.032 L 19.885 2.916 C 20.893 3.923 21.463 5.287 21.472 6.712 L 22.722 6.704 L 23.972 6.696 C 23.959 4.613 23.126 2.62 21.653 1.148 L 20.769 2.032 Z M 22.722 6.704 L 21.472 6.712 C 21.481 8.136 20.929 9.507 19.934 10.527 L 20.829 11.4 L 21.724 12.273 C 23.178 10.782 23.985 8.778 23.972 6.696 L 22.722 6.704 Z" fill-rule="nonzero"></path></g>
</svg>