<svg xmlns="http://www.w3.org/2000/svg" viewBox="0 0 32 32" fill="none">
  <g transform="translate(0 3.799)" fill="#1E90FF"><path d="M 28.5 0.401 C 28.156 0.179 27.763 0.044 27.355 0.009 C 26.947 -0.026 26.537 0.04 26.16 0.201 L 13.82 5.061 C 13.528 5.181 13.216 5.242 12.9 5.241 L 5 5.241 C 4.337 5.241 3.701 5.504 3.232 5.973 C 2.763 6.442 2.5 7.078 2.5 7.741 L 2.5 7.941 L 0 7.941 L 0 13.941 L 2.5 13.941 L 2.5 14.201 C 2.516 14.854 2.786 15.474 3.253 15.93 C 3.72 16.386 4.347 16.641 5 16.641 L 8 23.001 C 8.203 23.429 8.523 23.792 8.923 24.046 C 9.322 24.301 9.786 24.438 10.26 24.441 L 11.52 24.441 C 12.18 24.436 12.81 24.17 13.275 23.702 C 13.739 23.233 14 22.601 14 21.941 L 14 16.881 L 26.16 21.741 C 26.459 21.859 26.778 21.92 27.1 21.921 C 27.599 21.912 28.085 21.759 28.5 21.481 C 28.829 21.259 29.1 20.962 29.292 20.614 C 29.483 20.266 29.589 19.878 29.6 19.481 L 29.6 2.461 C 29.598 2.054 29.497 1.654 29.305 1.295 C 29.114 0.936 28.837 0.629 28.5 0.401 Z M 11.5 7.741 L 11.5 14.201 L 5 14.201 L 5 7.741 L 11.5 7.741 Z M 11.5 21.941 L 10.24 21.941 L 7.78 16.641 L 11.5 16.641 L 11.5 21.941 Z M 14.74 14.501 C 14.502 14.38 14.255 14.279 14 14.201 L 14 7.601 C 14.252 7.548 14.5 7.475 14.74 7.381 L 27.1 2.461 L 27.1 19.421 L 14.74 14.501 Z M 29.66 8.441 L 29.66 13.441 C 30.323 13.441 30.959 13.178 31.428 12.709 C 31.897 12.24 32.16 11.604 32.16 10.941 C 32.16 10.278 31.897 9.642 31.428 9.173 C 30.959 8.704 30.323 8.441 29.66 8.441 Z" fill-rule="nonzero"></path></g>
</svg>