<svg xmlns="http://www.w3.org/2000/svg" viewBox="0 0 24 24" fill="none">
  <g transform="translate(0 3)" fill="#FFFFFF"><path d="M 12 0 C 14.153 0 15.9 1.747 15.9 3.9 C 15.9 6.052 14.153 7.8 12 7.8 C 9.848 7.8 8.1 6.052 8.1 3.9 C 8.1 1.747 9.848 0 12 0 Z M 3.6 2.7 C 5.093 2.7 6.3 3.907 6.3 5.4 C 6.3 6.892 5.093 8.1 3.6 8.1 C 2.108 8.1 0.9 6.892 0.9 5.4 C 0.9 3.907 2.108 2.7 3.6 2.7 Z M 0 15 C 0 12.349 2.149 10.2 4.8 10.2 C 5.28 10.2 5.745 10.271 6.184 10.402 C 4.95 11.782 4.2 13.605 4.2 15.6 L 4.2 16.2 C 4.2 16.627 4.29 17.032 4.451 17.4 L 1.2 17.4 C 0.536 17.4 0 16.864 0 16.2 L 0 15 Z M 19.549 17.4 C 19.71 17.032 19.8 16.627 19.8 16.2 L 19.8 15.6 C 19.8 13.605 19.05 11.782 17.816 10.402 C 18.255 10.271 18.72 10.2 19.2 10.2 C 21.851 10.2 24 12.349 24 15 L 24 16.2 C 24 16.864 23.464 17.4 22.8 17.4 L 19.549 17.4 Z M 17.7 5.4 C 17.7 3.907 18.908 2.7 20.4 2.7 C 21.892 2.7 23.1 3.907 23.1 5.4 C 23.1 6.892 21.892 8.1 20.4 8.1 C 18.908 8.1 17.7 6.892 17.7 5.4 Z M 6 15.6 C 6 12.285 8.685 9.6 12 9.6 C 15.315 9.6 18 12.285 18 15.6 L 18 16.2 C 18 16.864 17.464 17.4 16.8 17.4 L 7.2 17.4 C 6.536 17.4 6 16.864 6 16.2 L 6 15.6 Z" fill-rule="nonzero"></path></g>
</svg>