<svg xmlns="http://www.w3.org/2000/svg" viewBox="0 0 32 32" fill="none">
  <g transform="translate(5.333 1.378)" fill="rgb(255,255,255)"><path d="M 0 28 C 0 25.171 1.124 22.458 3.124 20.458 C 5.125 18.457 7.838 17.333 10.667 17.333 C 13.496 17.333 16.209 18.457 18.209 20.458 C 20.21 22.458 21.333 25.171 21.333 28 L 18.667 28 C 18.667 25.878 17.824 23.843 16.324 22.343 C 14.823 20.843 12.788 20 10.667 20 C 8.545 20 6.51 20.843 5.01 22.343 C 3.51 23.843 2.667 25.878 2.667 28 L 0 28 Z M 10.667 16 C 6.247 16 2.667 12.42 2.667 8 C 2.667 3.58 6.247 0 10.667 0 C 15.087 0 18.667 3.58 18.667 8 C 18.667 12.42 15.087 16 10.667 16 Z M 10.667 13.333 C 13.613 13.333 16 10.947 16 8 C 16 5.053 13.613 2.667 10.667 2.667 C 7.72 2.667 5.333 5.053 5.333 8 C 5.333 10.947 7.72 13.333 10.667 13.333 Z" fill-rule="nonzero"></path></g>
</svg>