<svg xmlns="http://www.w3.org/2000/svg" viewBox="0 0 32 32" fill="none">
  <g transform="translate(0 0)" fill="#52C3AD"><path d="M 18.352 0 C 19.095 0 19.823 0.207 20.455 0.597 C 21.086 0.988 21.597 1.546 21.929 2.211 L 23.777 5.905 C 24.103 5.772 24.423 5.628 24.737 5.473 C 25.054 5.315 25.42 5.289 25.756 5.401 C 26.091 5.513 26.369 5.754 26.527 6.071 C 26.685 6.387 26.711 6.753 26.599 7.089 C 26.487 7.425 26.246 7.702 25.929 7.86 C 25.609 8.003 25.287 8.141 24.963 8.276 L 26.244 10.84 C 26.522 11.396 26.667 12.009 26.667 12.631 L 26.667 16 C 26.667 16.563 26.548 17.119 26.318 17.633 C 26.088 18.147 25.753 18.606 25.333 18.981 L 25.333 20.667 C 25.333 21.197 25.123 21.706 24.748 22.081 C 24.372 22.456 23.864 22.667 23.333 22.667 C 22.803 22.667 22.294 22.456 21.919 22.081 C 21.544 21.706 21.333 21.197 21.333 20.667 L 21.333 20 L 5.333 20 L 5.333 20.667 C 5.333 21.197 5.123 21.706 4.748 22.081 C 4.372 22.456 3.864 22.667 3.333 22.667 C 2.803 22.667 2.294 22.456 1.919 22.081 C 1.544 21.706 1.333 21.197 1.333 20.667 L 1.333 18.981 C 0.515 18.248 0 17.184 0 16 L 0 12.629 C 0 12.009 0.145 11.396 0.423 10.841 L 1.693 8.297 C 1.372 8.162 1.054 8.017 0.74 7.861 C 0.425 7.701 0.186 7.424 0.074 7.089 C -0.039 6.754 -0.015 6.388 0.14 6.071 C 0.218 5.914 0.327 5.774 0.459 5.659 C 0.591 5.544 0.745 5.457 0.911 5.401 C 1.077 5.346 1.253 5.324 1.427 5.336 C 1.602 5.348 1.773 5.395 1.929 5.473 C 2.245 5.629 2.565 5.773 2.889 5.905 L 4.737 2.212 C 5.069 1.547 5.58 0.989 6.212 0.598 C 6.844 0.207 7.572 0 8.315 0 L 18.352 0 Z M 7.333 12 C 6.803 12 6.294 12.211 5.919 12.586 C 5.544 12.961 5.333 13.47 5.333 14 C 5.333 14.53 5.544 15.039 5.919 15.414 C 6.294 15.789 6.803 16 7.333 16 C 7.864 16 8.372 15.789 8.748 15.414 C 9.123 15.039 9.333 14.53 9.333 14 C 9.333 13.47 9.123 12.961 8.748 12.586 C 8.372 12.211 7.864 12 7.333 12 Z M 19.333 12 C 18.803 12 18.294 12.211 17.919 12.586 C 17.544 12.961 17.333 13.47 17.333 14 C 17.333 14.53 17.544 15.039 17.919 15.414 C 18.294 15.789 18.803 16 19.333 16 C 19.864 16 20.372 15.789 20.748 15.414 C 21.123 15.039 21.333 14.53 21.333 14 C 21.333 13.47 21.123 12.961 20.748 12.586 C 20.372 12.211 19.864 12 19.333 12 Z M 18.352 2.667 L 8.315 2.667 C 8.095 2.667 7.879 2.721 7.686 2.824 C 7.492 2.928 7.327 3.077 7.205 3.26 L 7.123 3.404 L 5.429 6.788 C 7.493 7.407 10.275 8 13.333 8 C 16.189 8 18.801 7.483 20.813 6.911 L 21.236 6.788 L 19.544 3.404 C 19.446 3.208 19.301 3.039 19.122 2.912 C 18.943 2.785 18.735 2.705 18.517 2.677 L 18.353 2.667 L 18.352 2.667 Z" fill-rule="evenodd"></path></g>
</svg>