<svg xmlns="http://www.w3.org/2000/svg" viewBox="0 0 32 32" fill="none">
  <g transform="translate(1.778 1.777)" fill="#1E3A8A"><path d="M 6.806 18.654 C 6.574 18.654 6.352 18.608 6.139 18.515 C 5.926 18.422 5.731 18.293 5.556 18.126 L 0.514 13.084 C 0.171 12.742 0 12.325 0 11.834 C 0 11.584 0.046 11.353 0.139 11.14 C 0.231 10.927 0.356 10.742 0.514 10.584 C 0.671 10.427 0.861 10.302 1.083 10.209 C 1.306 10.117 1.537 10.071 1.778 10.071 C 2.019 10.071 2.245 10.112 2.458 10.196 C 2.671 10.279 2.866 10.409 3.042 10.584 L 8.069 15.612 C 8.236 15.779 8.361 15.969 8.444 16.182 C 8.528 16.395 8.574 16.626 8.583 16.876 C 8.583 17.117 8.537 17.344 8.444 17.557 C 8.352 17.77 8.227 17.959 8.069 18.126 C 7.912 18.293 7.722 18.422 7.5 18.515 C 7.278 18.608 7.046 18.654 6.806 18.654 Z M 16.861 8.598 C 16.63 8.598 16.407 8.552 16.194 8.459 C 15.981 8.367 15.787 8.237 15.611 8.071 L 10.583 3.043 C 10.231 2.691 10.056 2.27 10.056 1.779 C 10.056 1.529 10.102 1.297 10.194 1.084 C 10.287 0.872 10.412 0.686 10.569 0.529 C 10.727 0.372 10.917 0.242 11.139 0.14 C 11.361 0.038 11.593 -0.008 11.833 0.001 C 12.324 0.001 12.741 0.172 13.083 0.515 L 18.125 5.557 C 18.292 5.723 18.417 5.913 18.5 6.126 C 18.583 6.339 18.63 6.571 18.639 6.821 C 18.639 7.061 18.593 7.288 18.5 7.501 C 18.407 7.714 18.282 7.904 18.125 8.071 C 17.968 8.237 17.778 8.367 17.556 8.459 C 17.333 8.552 17.102 8.598 16.861 8.598 Z M 9.639 14.029 L 4.611 9.001 L 9 4.612 L 14.028 9.64 L 9.639 14.029 Z M 26.917 25.668 C 27.093 25.844 27.181 26.052 27.181 26.293 C 27.181 26.534 27.093 26.742 26.917 26.918 C 26.741 27.094 26.532 27.182 26.292 27.182 C 26.051 27.182 25.843 27.094 25.667 26.918 L 12.458 13.723 L 13.722 12.459 L 26.917 25.668 Z M 0 26.668 L 14.222 26.668 L 14.222 28.446 L 0 28.446 L 0 26.668 Z M 1.778 23.112 L 12.444 23.112 L 12.444 24.89 L 1.778 24.89 L 1.778 23.112 Z" fill-rule="nonzero"></path></g>
</svg>