<svg xmlns="http://www.w3.org/2000/svg" viewBox="0 0 24 24" fill="none">
  <g transform="translate(4 1)" fill="#FFFFFF"><path d="M 16 22 L 16 23 L 17 23 L 17 22 L 16 22 Z M 0 22 L -1 22 L -1 23 L 0 23 L 0 22 Z M 8 12 L 8 13 L 8 12 Z M 8 0 L 8 -1 L 8 0 Z M 2 6 L 1 6 L 2 6 Z M 9 4 L 9.763 3.353 L 9 2.453 L 8.237 3.353 L 9 4 Z M 8.025 17.257 L 7.302 17.948 L 8.029 18.708 L 8.751 17.944 L 8.025 17.257 Z M 12 11 L 11.554 11.895 C 13.564 12.896 15 15.001 15 18 L 16 18 L 17 18 C 17 14.299 15.184 11.47 12.446 10.105 L 12 11 Z M 16 18 L 15 18 L 15 22 L 16 22 L 17 22 L 17 18 L 16 18 Z M 16 22 L 16 21 L 0 21 L 0 22 L 0 23 L 16 23 L 16 22 Z M 0 22 L 1 22 L 1 18 L 0 18 L -1 18 L -1 22 L 0 22 Z M 0 18 L 1 18 C 1 14.996 2.442 12.889 4.444 11.896 L 4 11 L 3.556 10.104 C 0.82 11.461 -1 14.296 -1 18 L 0 18 Z M 8 12 L 8 13 C 8.919 13 9.83 12.819 10.679 12.467 L 10.296 11.543 L 9.913 10.619 C 9.307 10.871 8.657 11 8 11 L 8 12 Z M 10.296 11.543 L 10.679 12.467 C 11.528 12.115 12.3 11.6 12.95 10.95 L 12.243 10.243 L 11.536 9.536 C 11.071 10 10.52 10.368 9.913 10.619 L 10.296 11.543 Z M 12.243 10.243 L 12.95 10.95 C 13.6 10.3 14.115 9.528 14.467 8.679 L 13.543 8.296 L 12.619 7.913 C 12.368 8.52 12 9.071 11.536 9.536 L 12.243 10.243 Z M 13.543 8.296 L 14.467 8.679 C 14.819 7.83 15 6.919 15 6 L 14 6 L 13 6 C 13 6.657 12.871 7.307 12.619 7.913 L 13.543 8.296 Z M 14 6 L 15 6 C 15 5.081 14.819 4.17 14.467 3.321 L 13.543 3.704 L 12.619 4.087 C 12.871 4.693 13 5.343 13 6 L 14 6 Z M 13.543 3.704 L 14.467 3.321 C 14.115 2.472 13.6 1.7 12.95 1.05 L 12.243 1.757 L 11.536 2.464 C 12 2.929 12.368 3.48 12.619 4.087 L 13.543 3.704 Z M 12.243 1.757 L 12.95 1.05 C 12.3 0.4 11.528 -0.115 10.679 -0.467 L 10.296 0.457 L 9.913 1.381 C 10.52 1.632 11.071 2 11.536 2.464 L 12.243 1.757 Z M 10.296 0.457 L 10.679 -0.467 C 9.83 -0.819 8.919 -1 8 -1 L 8 0 L 8 1 C 8.657 1 9.307 1.129 9.913 1.381 L 10.296 0.457 Z M 8 0 L 8 -1 C 6.143 -1 4.363 -0.263 3.05 1.05 L 3.757 1.757 L 4.464 2.464 C 5.402 1.527 6.674 1 8 1 L 8 0 Z M 3.757 1.757 L 3.05 1.05 C 1.737 2.363 1 4.143 1 6 L 2 6 L 3 6 C 3 4.674 3.527 3.402 4.464 2.464 L 3.757 1.757 Z M 2 6 L 1 6 C 1 7.857 1.737 9.637 3.05 10.95 L 3.757 10.243 L 4.464 9.536 C 3.527 8.598 3 7.326 3 6 L 2 6 Z M 3.757 10.243 L 3.05 10.95 C 4.363 12.263 6.143 13 8 13 L 8 12 L 8 11 C 6.674 11 5.402 10.473 4.464 9.536 L 3.757 10.243 Z M 14 6 L 14 5 C 13.106 5 12.584 5.08 11.932 4.915 C 11.364 4.772 10.659 4.411 9.763 3.353 L 9 4 L 8.237 4.647 C 9.341 5.949 10.386 6.588 11.443 6.855 C 12.416 7.1 13.394 7 14 7 L 14 6 Z M 9 4 L 8.237 3.353 C 7.342 4.41 6.38 5.03 5.42 5.297 C 4.465 5.562 3.439 5.499 2.371 5.072 L 2 6 L 1.629 6.928 C 3.061 7.501 4.535 7.618 5.955 7.223 C 7.37 6.83 8.658 5.95 9.763 4.647 L 9 4 Z M 3 12 L 2.277 12.691 L 7.302 17.948 L 8.025 17.257 L 8.748 16.566 L 3.723 11.309 L 3 12 Z M 8.025 17.257 L 8.751 17.944 L 13.726 12.687 L 13 12 L 12.274 11.313 L 7.299 16.57 L 8.025 17.257 Z M 8 17 L 7 17 L 7 22 L 8 22 L 9 22 L 9 17 L 8 17 Z" fill-rule="nonzero"></path></g>
</svg>