<svg xmlns="http://www.w3.org/2000/svg" viewBox="0 0 24 24" fill="none">
  <g transform="translate(1 2)" fill="#1E90FF"><path d="M 13 16.315 C 11.903 15.792 10.96 14.995 10.263 14 L 2 14 L 2 2 L 20 2 L 20 4.264 C 20.81 4.832 21.492 5.565 22 6.414 L 22 2 C 21.998 1.47 21.787 0.962 21.412 0.588 C 21.038 0.213 20.53 0.002 20 0 L 2 0 C 1.47 0.002 0.962 0.213 0.588 0.588 C 0.213 0.962 0.002 1.47 0 2 L 0 14 C 0.002 14.53 0.213 15.038 0.588 15.412 C 0.962 15.787 1.47 15.998 2 16 L 9 16 L 9 18 L 7 18 L 7 20 L 15 20 L 15 18 L 13 18 L 13 16.315 Z" fill-rule="nonzero"></path></g>
  <g transform="translate(11 6)" fill="#1E90FF"><path d="M 6 0 C 4.813 0 3.653 0.352 2.667 1.011 C 1.68 1.67 0.911 2.608 0.457 3.704 C 0.003 4.8 -0.116 6.007 0.115 7.171 C 0.347 8.334 0.918 9.404 1.757 10.243 C 2.596 11.082 3.666 11.653 4.829 11.885 C 5.993 12.116 7.2 11.997 8.296 11.543 C 9.392 11.089 10.33 10.32 10.989 9.333 C 11.648 8.347 12 7.187 12 6 C 12 4.409 11.368 2.883 10.243 1.757 C 9.117 0.632 7.591 0 6 0 Z M 6 10 C 5.209 10 4.436 9.765 3.778 9.326 C 3.12 8.886 2.607 8.262 2.304 7.531 C 2.002 6.8 1.923 5.996 2.077 5.22 C 2.231 4.444 2.612 3.731 3.172 3.172 C 3.731 2.612 4.444 2.231 5.22 2.077 C 5.996 1.923 6.8 2.002 7.531 2.304 C 8.262 2.607 8.886 3.12 9.326 3.778 C 9.765 4.436 10 5.209 10 6 C 9.999 7.06 9.577 8.077 8.827 8.827 C 8.077 9.577 7.06 9.999 6 10 Z" fill-rule="nonzero"></path></g>
  <g transform="translate(16 11)" fill="#1E90FF"><path d="M 1 2 C 1.552 2 2 1.552 2 1 C 2 0.448 1.552 0 1 0 C 0.448 0 0 0.448 0 1 C 0 1.552 0.448 2 1 2 Z" fill-rule="nonzero"></path></g>
</svg>