<svg xmlns="http://www.w3.org/2000/svg" viewBox="0 0 72 72" fill="none">
  <g transform="translate(21 21.5)" fill="#1E90FF"><path d="M 0 12.5 C -1.105 12.5 -2 13.395 -2 14.5 C -2 15.605 -1.105 16.5 0 16.5 L 0 14.5 L 0 12.5 Z M 30 14.5 L 31.39 15.938 L 32.878 14.5 L 31.39 13.062 L 30 14.5 Z M 16.39 -1.438 C 15.596 -2.206 14.33 -2.184 13.562 -1.39 C 12.794 -0.596 12.816 0.67 13.61 1.438 L 15 0 L 16.39 -1.438 Z M 13.61 27.562 C 12.816 28.33 12.794 29.596 13.562 30.39 C 14.33 31.184 15.596 31.206 16.39 30.438 L 15 29 L 13.61 27.562 Z M 0 14.5 L 0 16.5 L 30 16.5 L 30 14.5 L 30 12.5 L 0 12.5 L 0 14.5 Z M 30 14.5 L 31.39 13.062 L 16.39 -1.438 L 15 0 L 13.61 1.438 L 28.61 15.938 L 30 14.5 Z M 30 14.5 L 28.61 13.062 L 13.61 27.562 L 15 29 L 16.39 30.438 L 31.39 15.938 L 30 14.5 Z" fill-rule="nonzero"></path></g>
</svg>