<svg xmlns="http://www.w3.org/2000/svg" viewBox="0 0 32 32" fill="none">
  <g transform="translate(5.333 0)" fill="#1E90FF"><path d="M 7.467 7.467 L 6.467 7.467 C 6.467 8.019 6.914 8.467 7.467 8.467 L 7.467 7.467 Z M 7.467 3.2 L 8.467 3.2 L 7.467 3.2 Z M 4.267 0 L 4.267 -1 C 3.871 -1 3.513 -0.767 3.353 -0.406 L 4.267 0 Z M 0 9.6 L -0.914 9.194 C -0.971 9.322 -1 9.46 -1 9.6 L 0 9.6 Z M 0 21.333 L -1 21.333 C -1 21.886 -0.552 22.333 0 22.333 L 0 21.333 Z M 12.395 21.333 L 12.406 20.333 L 12.395 20.333 L 12.395 21.333 Z M 14.528 19.52 L 13.54 19.368 L 13.539 19.37 L 14.528 19.52 Z M 16 9.92 L 16.988 10.072 L 16.989 10.07 L 16 9.92 Z M 13.867 7.467 L 13.867 8.467 L 13.878 8.467 L 13.867 7.467 Z M 7.467 7.467 L 8.467 7.467 L 8.467 3.2 L 7.467 3.2 L 6.467 3.2 L 6.467 7.467 L 7.467 7.467 Z M 7.467 3.2 L 8.467 3.2 C 8.467 2.648 8.358 2.102 8.147 1.593 L 7.223 1.975 L 6.299 2.358 C 6.41 2.625 6.467 2.911 6.467 3.2 L 7.467 3.2 Z M 7.223 1.975 L 8.147 1.593 C 7.936 1.083 7.627 0.62 7.237 0.23 L 6.529 0.937 L 5.822 1.644 C 6.027 1.849 6.189 2.091 6.299 2.358 L 7.223 1.975 Z M 6.529 0.937 L 7.237 0.23 C 6.847 -0.16 6.384 -0.469 5.874 -0.68 L 5.491 0.244 L 5.109 1.167 C 5.375 1.278 5.618 1.44 5.822 1.644 L 6.529 0.937 Z M 5.491 0.244 L 5.874 -0.68 C 5.364 -0.891 4.818 -1 4.267 -1 L 4.267 0 L 4.267 1 C 4.556 1 4.842 1.057 5.109 1.167 L 5.491 0.244 Z M 4.267 0 L 3.353 -0.406 L -0.914 9.194 L 0 9.6 L 0.914 10.006 L 5.18 0.406 L 4.267 0 Z M 0 9.6 L -1 9.6 L -1 21.333 L 0 21.333 L 1 21.333 L 1 9.6 L 0 9.6 Z M 0 21.333 L 0 22.333 L 12.395 22.333 L 12.395 21.333 L 12.395 20.333 L 0 20.333 L 0 21.333 Z M 12.395 21.333 L 12.383 22.333 C 13.139 22.342 13.872 22.077 14.448 21.588 L 13.8 20.826 L 13.153 20.064 C 12.945 20.241 12.679 20.336 12.406 20.333 L 12.395 21.333 Z M 13.8 20.826 L 14.448 21.588 C 15.024 21.098 15.403 20.417 15.517 19.67 L 14.528 19.52 L 13.539 19.37 C 13.498 19.64 13.361 19.887 13.153 20.064 L 13.8 20.826 Z M 14.528 19.52 L 15.516 19.672 L 16.988 10.072 L 16 9.92 L 15.012 9.768 L 13.54 19.368 L 14.528 19.52 Z M 16 9.92 L 16.989 10.07 C 17.057 9.621 17.027 9.162 16.9 8.726 L 15.94 9.005 L 14.979 9.284 C 15.025 9.442 15.036 9.608 15.011 9.77 L 16 9.92 Z M 15.94 9.005 L 16.9 8.726 C 16.773 8.29 16.553 7.887 16.255 7.544 L 15.501 8.2 L 14.746 8.856 C 14.854 8.98 14.933 9.126 14.979 9.284 L 15.94 9.005 Z M 15.501 8.2 L 16.255 7.544 C 15.957 7.201 15.588 6.927 15.174 6.741 L 14.764 7.654 L 14.355 8.566 C 14.505 8.633 14.638 8.732 14.746 8.856 L 15.501 8.2 Z M 14.764 7.654 L 15.174 6.741 C 14.759 6.555 14.31 6.462 13.855 6.467 L 13.867 7.467 L 13.878 8.467 C 14.042 8.465 14.205 8.499 14.355 8.566 L 14.764 7.654 Z M 13.867 7.467 L 13.867 6.467 L 7.467 6.467 L 7.467 7.467 L 7.467 8.467 L 13.867 8.467 L 13.867 7.467 Z" fill-rule="nonzero"></path></g>
  <g transform="translate(0 9.481)" fill="#1E90FF"><path d="M 5.333 0 L 2.485 0 C 1.236 -0.022 0.168 1.014 0 2.252 L 0 9.719 C 0.081 10.317 0.379 10.865 0.837 11.258 C 1.295 11.651 1.882 11.863 2.485 11.852 L 5.333 11.852 L 5.333 0 Z" fill-rule="nonzero"></path><path d="M 5.333 0 L 6.333 0 C 6.333 -0.552 5.886 -1 5.333 -1 L 5.333 0 Z M 2.485 0 L 2.468 1 C 2.474 1 2.479 1 2.485 1 L 2.485 0 Z M 0 2.252 L -0.991 2.118 C -0.997 2.162 -1 2.207 -1 2.252 L 0 2.252 Z M 0 9.719 L -1 9.719 C -1 9.764 -0.997 9.809 -0.991 9.853 L 0 9.719 Z M 2.485 11.852 L 2.485 10.852 C 2.48 10.852 2.474 10.852 2.468 10.852 L 2.485 11.852 Z M 5.333 11.852 L 5.333 12.852 C 5.886 12.852 6.333 12.404 6.333 11.852 L 5.333 11.852 Z M 5.333 0 L 5.333 -1 L 2.485 -1 L 2.485 0 L 2.485 1 L 5.333 1 L 5.333 0 Z M 2.485 0 L 2.503 -1 C 0.681 -1.031 -0.764 0.444 -0.991 2.118 L 0 2.252 L 0.991 2.386 C 1.1 1.583 1.79 0.988 2.468 1 L 2.485 0 Z M 0 2.252 L -1 2.252 L -1 9.719 L 0 9.719 L 1 9.719 L 1 2.252 L 0 2.252 Z M 0 9.719 L -0.991 9.853 C -0.877 10.694 -0.458 11.464 0.186 12.017 L 0.837 11.258 L 1.488 10.499 C 1.216 10.265 1.039 9.94 0.991 9.584 L 0 9.719 Z M 0.837 11.258 L 0.186 12.017 C 0.83 12.569 1.654 12.867 2.503 12.852 L 2.485 11.852 L 2.468 10.852 C 2.109 10.859 1.761 10.733 1.488 10.499 L 0.837 11.258 Z M 2.485 11.852 L 2.485 12.852 L 5.333 12.852 L 5.333 11.852 L 5.333 10.852 L 2.485 10.852 L 2.485 11.852 Z M 5.333 11.852 L 6.333 11.852 L 6.333 0 L 5.333 0 L 4.333 0 L 4.333 11.852 L 5.333 11.852 Z" fill-rule="nonzero"></path></g>
</svg>