<svg xmlns="http://www.w3.org/2000/svg" viewBox="0 0 32 32" fill="none">
  <g transform="translate(2.667 5.333)" fill="#2375C4"><path d="M 14.76 8.547 C 15.57 7.415 16.005 6.058 16.005 4.667 C 16.005 3.275 15.57 1.918 14.76 0.787 C 15.518 0.27 16.416 -0.004 17.333 0 C 18.571 0 19.758 0.492 20.633 1.367 C 21.508 2.242 22 3.429 22 4.667 C 22 5.904 21.508 7.091 20.633 7.967 C 19.758 8.842 18.571 9.333 17.333 9.333 C 16.416 9.338 15.518 9.063 14.76 8.547 Z M 4.667 4.667 C 4.667 3.744 4.94 2.841 5.453 2.074 C 5.966 1.307 6.695 0.708 7.547 0.355 C 8.4 0.002 9.339 -0.09 10.244 0.09 C 11.149 0.27 11.981 0.714 12.633 1.367 C 13.286 2.02 13.73 2.851 13.91 3.756 C 14.09 4.662 13.998 5.6 13.645 6.453 C 13.292 7.305 12.693 8.034 11.926 8.547 C 11.159 9.06 10.256 9.333 9.333 9.333 C 8.096 9.333 6.909 8.842 6.034 7.967 C 5.158 7.091 4.667 5.904 4.667 4.667 Z M 7.333 4.667 C 7.333 5.062 7.451 5.449 7.67 5.778 C 7.89 6.107 8.203 6.363 8.568 6.514 C 8.933 6.666 9.336 6.705 9.724 6.628 C 10.111 6.551 10.468 6.361 10.748 6.081 C 11.027 5.801 11.218 5.445 11.295 5.057 C 11.372 4.669 11.332 4.267 11.181 3.901 C 11.03 3.536 10.773 3.224 10.444 3.004 C 10.116 2.784 9.729 2.667 9.333 2.667 C 8.803 2.667 8.294 2.877 7.919 3.253 C 7.544 3.628 7.333 4.136 7.333 4.667 Z M 18.667 17.333 L 18.667 20 L 0 20 L 0 17.333 C 0 17.333 0 12 9.333 12 C 18.667 12 18.667 17.333 18.667 17.333 Z M 16 17.333 C 15.813 16.293 14.227 14.667 9.333 14.667 C 4.44 14.667 2.76 16.413 2.667 17.333 M 18.6 12 C 19.417 12.636 20.085 13.443 20.558 14.364 C 21.03 15.285 21.295 16.299 21.333 17.333 L 21.333 20 L 26.667 20 L 26.667 17.333 C 26.667 17.333 26.667 12.493 18.587 12 L 18.6 12 Z" fill-rule="nonzero"></path></g>
</svg>