<svg xmlns="http://www.w3.org/2000/svg" viewBox="0 0 32 32" fill="none">
  <g transform="translate(4 1.333)" fill="#1E90FF"><path d="M 2.667 5.333 L 5.333 5.333 L 5.333 9.333 L 18.667 9.333 L 18.667 5.333 L 21.333 5.333 L 21.333 12 L 24 12 L 24 5.333 C 24 3.867 22.8 2.667 21.333 2.667 L 15.76 2.667 C 15.2 1.12 13.733 0 12 0 C 10.267 0 8.8 1.12 8.24 2.667 L 2.667 2.667 C 1.2 2.667 0 3.867 0 5.333 L 0 24 C 0 25.467 1.2 26.667 2.667 26.667 L 10.667 26.667 L 10.667 24 L 2.667 24 L 2.667 5.333 Z M 12 2.667 C 12.733 2.667 13.333 3.267 13.333 4 C 13.333 4.733 12.733 5.333 12 5.333 C 11.267 5.333 10.667 4.733 10.667 4 C 10.667 3.267 11.267 2.667 12 2.667 Z" fill-rule="nonzero"></path></g>
  <g transform="translate(14.667 15.333)" fill="#1E90FF"><path d="M 13.333 0 L 6.013 7.333 L 2 3.333 L 0 5.333 L 6.013 11.333 L 15.333 2 L 13.333 0 Z" fill-rule="nonzero"></path></g>
</svg>