<svg xmlns="http://www.w3.org/2000/svg" viewBox="0 0 32 32" fill="none">
  <g transform="translate(2.667 2.667)" fill="rgb(255,255,255)"><path d="M 18.667 0 C 23.085 0 26.667 3.393 26.667 7.579 C 26.667 8.832 26.412 10.15 25.904 11.532 L 23.771 9.405 C 23.9 8.866 23.975 8.346 23.995 7.849 L 24 7.579 C 24 4.899 21.643 2.667 18.667 2.667 C 17.652 2.667 16.688 2.927 15.859 3.403 L 12.126 7.001 C 11.606 7.521 11.606 8.366 12.126 8.886 C 12.647 9.407 13.491 9.407 14.012 8.886 L 17.63 5.123 L 19.445 6.963 L 24.593 12.11 C 26.156 13.672 26.156 16.205 24.593 17.767 C 24.094 18.267 23.494 18.607 22.859 18.787 L 22.793 18.804 C 23.073 20.09 22.713 21.487 21.714 22.487 C 20.685 23.516 19.234 23.867 17.918 23.541 C 17.737 24.159 17.4 24.729 16.909 25.176 C 15.506 26.455 13.457 26.573 11.922 25.452 L 11.686 25.247 L 10.647 24.316 C 3.549 17.84 0 12.261 0 7.579 C 0 3.393 3.582 0 8 0 C 10.05 0 11.919 0.73 13.335 1.931 C 14.749 0.73 16.618 0 18.667 0 Z M 8 2.667 C 5.023 2.667 2.667 4.899 2.667 7.579 C 2.667 11.327 5.848 16.328 12.428 22.331 L 13.027 22.868 C 13.554 23.4 14.531 23.812 15.098 23.265 C 15.614 22.768 15.561 22.076 15.157 21.564 L 14.334 20.724 L 11.252 17.643 L 11.196 17.593 L 13.104 15.684 L 15.866 18.485 L 16.909 19.529 C 16.98 19.599 17.048 19.673 17.113 19.749 L 17.78 20.428 C 18.474 21.122 19.334 21.148 19.855 20.627 C 20.376 20.107 20.359 19.237 19.665 18.542 L 16.476 15.306 L 14.98 13.809 L 16.865 11.922 L 17.83 12.887 C 17.927 12.968 18.021 13.054 18.111 13.143 L 19.327 14.386 L 20.822 15.882 C 21.343 16.402 22.187 16.402 22.708 15.882 C 23.229 15.361 23.229 14.517 22.708 13.996 L 17.689 8.979 L 15.898 10.772 C 14.335 12.334 11.803 12.334 10.241 10.772 C 8.679 9.21 8.679 6.677 10.241 5.115 L 11.488 3.867 L 11.359 3.765 C 10.421 3.061 9.249 2.667 8 2.667 Z" fill-rule="nonzero"></path></g>
</svg>