<svg xmlns="http://www.w3.org/2000/svg" viewBox="0 0 32 32" fill="none">
  <g transform="translate(1.999 2.572)" fill="#1E90FF"><path d="M 21.865 0.743 C 21.323 -0.248 19.9 -0.248 19.358 0.743 L 18.217 2.831 C 17.981 3.262 17.627 3.617 17.195 3.853 L 15.109 4.995 C 14.118 5.537 14.118 6.96 15.109 7.501 L 17.195 8.644 C 17.627 8.88 17.981 9.235 18.217 9.666 L 19.358 11.753 C 19.9 12.744 21.324 12.744 21.865 11.753 L 23.006 9.666 C 23.242 9.234 23.597 8.879 24.028 8.643 L 26.115 7.501 C 27.105 6.96 27.105 5.537 26.115 4.995 L 24.028 3.853 C 23.597 3.617 23.242 3.262 23.006 2.831 L 21.865 0.743 Z M 5.493 22.968 C 5.187 22.808 4.916 22.588 4.696 22.321 C 4.476 22.055 4.312 21.748 4.212 21.417 C 4.046 20.879 3.892 20.338 3.749 19.793 C 2.573 18.799 1.628 17.56 0.981 16.163 C 0.333 14.766 -0.002 13.244 0 11.704 C 0 5.852 4.741 1.107 10.591 1.107 C 11.242 1.107 11.88 1.165 12.499 1.278 C 12.798 1.332 13.062 1.503 13.235 1.752 C 13.407 2.002 13.473 2.309 13.419 2.607 C 13.365 2.906 13.194 3.17 12.945 3.343 C 12.696 3.515 12.388 3.581 12.09 3.527 C 11.595 3.437 11.094 3.392 10.591 3.392 C 6.005 3.392 2.286 7.112 2.286 11.704 C 2.284 12.965 2.571 14.209 3.122 15.343 C 3.674 16.477 4.477 17.47 5.47 18.247 C 5.671 18.405 5.813 18.624 5.874 18.872 C 6.031 19.501 6.206 20.126 6.397 20.746 C 6.442 20.893 6.541 20.954 6.631 20.963 C 7.361 21.04 8.626 21.127 10.591 21.127 C 12.557 21.127 13.822 21.04 14.551 20.963 C 14.642 20.954 14.741 20.893 14.786 20.746 C 14.977 20.126 15.152 19.501 15.309 18.872 C 15.37 18.624 15.512 18.405 15.713 18.247 C 16.694 17.478 17.49 16.498 18.042 15.381 C 18.179 15.114 18.416 14.912 18.701 14.818 C 18.986 14.724 19.296 14.746 19.565 14.879 C 19.834 15.011 20.04 15.245 20.138 15.528 C 20.237 15.811 20.22 16.122 20.091 16.393 C 19.447 17.696 18.542 18.853 17.433 19.793 C 17.29 20.337 17.136 20.878 16.971 21.416 C 16.772 22.075 16.32 22.628 15.714 22.955 L 15.585 24.153 C 15.45 25.392 14.563 26.515 13.204 26.693 C 12.329 26.804 11.447 26.859 10.565 26.856 C 9.438 26.856 8.563 26.775 7.921 26.678 C 6.738 26.499 5.961 25.559 5.763 24.505 C 5.667 23.994 5.577 23.482 5.493 22.968" fill-rule="evenodd"></path></g>
</svg>