<svg xmlns="http://www.w3.org/2000/svg" viewBox="0 0 24 24" fill="none">
  <g transform="translate(1.46 4.452)" fill="#FFFFFF"><path d="M 21 6 L 19.5 6 C 18.947 6 18.469 6.304 18.208 6.75 L 3.051 6.75 L 5.02 1.5 L 10.5 1.5 L 10.5 0 L 5.02 0 C 4.715 0.001 4.417 0.094 4.166 0.268 C 3.915 0.442 3.723 0.688 3.615 0.973 L 1.729 6 L 0 6 L 0 7.5 L 1.5 7.5 L 1.5 14.25 C 1.5 15.076 2.173 15.75 3 15.75 L 3 18 L 4.5 18 L 4.5 15.75 L 16.5 15.75 L 16.5 18 L 18 18 L 18 15.75 C 18.826 15.75 19.5 15.076 19.5 14.25 L 19.5 7.5 L 21 7.5 L 21 6 Z M 3 14.25 L 3 12 L 5.25 12 L 5.25 10.5 L 3 10.5 L 3 8.25 L 18 8.25 L 18 10.5 L 15.75 10.5 L 15.75 12 L 18 12 L 18 14.25 L 3 14.25 Z" fill-rule="nonzero"></path></g>
  <g transform="translate(8.984 1.895)" fill="#FFFFFF"><path d="M 0 13.061 L 6 13.061 L 6 14.561 L 0 14.561 L 0 13.061 Z M 13.169 0 L 8.226 4.943 L 6.284 3 L 5.226 4.057 L 8.226 7.057 L 14.226 1.058 L 13.169 0 Z" fill-rule="nonzero"></path></g>
</svg>