<svg xmlns="http://www.w3.org/2000/svg" viewBox="0 0 24 24" fill="none">
  <g transform="translate(2 2.919)" fill="#FFFFFF"><path d="M 16.72 11.841 C 17.07 10.991 17.26 10.081 17.26 9.081 C 17.26 8.361 17.15 7.671 16.96 7.031 C 16.31 7.181 15.63 7.261 14.92 7.261 C 13.466 7.262 12.033 6.914 10.742 6.246 C 9.45 5.578 8.338 4.609 7.5 3.421 C 6.604 5.591 4.912 7.337 2.77 8.301 C 2.73 8.551 2.73 8.821 2.73 9.081 C 2.73 10.035 2.918 10.981 3.283 11.863 C 3.649 12.745 4.184 13.546 4.859 14.221 C 6.223 15.585 8.072 16.351 10 16.351 C 11.05 16.351 12.06 16.121 12.97 15.711 C 13.54 16.801 13.8 17.341 13.78 17.341 C 12.14 17.891 10.87 18.161 10 18.161 C 7.58 18.161 5.27 17.211 3.57 15.501 C 2.535 14.471 1.766 13.204 1.33 11.811 L 0 11.811 L 0 7.261 L 1.09 7.261 C 1.42 5.653 2.179 4.165 3.287 2.954 C 4.395 1.744 5.81 0.855 7.382 0.384 C 8.953 -0.088 10.624 -0.125 12.215 0.275 C 13.806 0.676 15.259 1.501 16.42 2.661 C 17.68 3.916 18.539 5.517 18.89 7.261 L 20 7.261 L 20 11.811 L 19.94 11.811 L 16.38 15.081 L 11.08 14.481 L 11.08 12.811 L 15.91 12.811 L 16.72 11.841 Z M 7.27 8.851 C 7.57 8.851 7.86 8.971 8.07 9.191 C 8.281 9.404 8.399 9.691 8.399 9.991 C 8.399 10.29 8.281 10.578 8.07 10.791 C 7.86 11.001 7.57 11.121 7.27 11.121 C 6.64 11.121 6.13 10.621 6.13 9.991 C 6.13 9.361 6.64 8.851 7.27 8.851 Z M 12.72 8.851 C 13.35 8.851 13.85 9.361 13.85 9.991 C 13.85 10.621 13.35 11.121 12.72 11.121 C 12.09 11.121 11.58 10.621 11.58 9.991 C 11.58 9.688 11.7 9.398 11.914 9.185 C 12.128 8.971 12.418 8.851 12.72 8.851 Z" fill-rule="nonzero"></path></g>
</svg>