<svg xmlns="http://www.w3.org/2000/svg" viewBox="0 0 32 32" fill="none">
  <g transform="translate(4.002 4)" fill="#7864B4"><path d="M 2.665 10.667 C 2.665 9.616 2.872 8.576 3.274 7.605 C 3.676 6.635 4.265 5.753 5.008 5.01 C 5.751 4.267 6.633 3.678 7.604 3.276 C 8.574 2.874 9.615 2.667 10.665 2.667 C 11.716 2.667 12.756 2.874 13.727 3.276 C 14.697 3.678 15.579 4.267 16.322 5.01 C 17.065 5.753 17.654 6.635 18.056 7.605 C 18.458 8.576 18.665 9.616 18.665 10.667 C 18.665 12.788 17.822 14.823 16.322 16.324 C 14.822 17.824 12.787 18.667 10.665 18.667 C 8.543 18.667 6.509 17.824 5.008 16.324 C 3.508 14.823 2.665 12.788 2.665 10.667 Z M 10.665 0 C 8.968 0 7.295 0.406 5.785 1.182 C 4.276 1.959 2.974 3.085 1.987 4.466 C 1 5.848 0.358 7.445 0.112 9.124 C -0.133 10.804 0.026 12.518 0.576 14.124 C 1.126 15.73 2.051 17.181 3.275 18.357 C 4.499 19.534 5.986 20.401 7.613 20.887 C 9.239 21.373 10.958 21.464 12.627 21.152 C 14.295 20.84 15.865 20.134 17.206 19.093 L 21.722 23.609 C 21.974 23.852 22.311 23.987 22.66 23.984 C 23.01 23.981 23.344 23.84 23.592 23.593 C 23.839 23.346 23.979 23.011 23.982 22.662 C 23.985 22.312 23.851 21.975 23.608 21.724 L 19.092 17.208 C 20.316 15.631 21.073 13.743 21.277 11.757 C 21.481 9.771 21.124 7.768 20.246 5.976 C 19.368 4.183 18.005 2.672 16.311 1.616 C 14.617 0.56 12.661 0 10.665 0 Z M 10.665 16 C 12.08 16 13.436 15.438 14.436 14.438 C 15.437 13.438 15.998 12.081 15.998 10.667 C 15.998 9.252 15.437 7.896 14.436 6.895 C 13.436 5.895 12.08 5.333 10.665 5.333 C 9.251 5.333 7.894 5.895 6.894 6.895 C 5.894 7.896 5.332 9.252 5.332 10.667 C 5.332 12.081 5.894 13.438 6.894 14.438 C 7.894 15.438 9.251 16 10.665 16 Z" fill-rule="evenodd"></path></g>
</svg>