<svg xmlns="http://www.w3.org/2000/svg" viewBox="0 0 24 24" fill="none">
  <g transform="translate(1.5 1.5)" fill="#FFFFFF"><path d="M 21 3 L 21 1.5 L 18.75 1.5 L 18.75 0 L 17.25 0 L 17.25 1.5 L 16.5 1.5 C 15.673 1.5 15 2.174 15 3 L 15 4.5 C 15 5.327 15.673 6 16.5 6 L 19.5 6 L 19.5 7.5 L 15 7.5 L 15 9 L 17.25 9 L 17.25 10.5 L 18.75 10.5 L 18.75 9 L 19.5 9 C 20.327 9 21 8.327 21 7.5 L 21 6 C 21 5.174 20.327 4.5 19.5 4.5 L 16.5 4.5 L 16.5 3 L 21 3 Z M 16.5 13.5 L 16.5 15 L 18.44 15 L 15.75 17.69 L 14.031 15.97 C 13.891 15.829 13.7 15.75 13.502 15.75 L 13.5 15.75 C 13.301 15.75 13.111 15.829 12.971 15.97 L 9 19.94 L 10.06 21 L 13.501 17.56 L 15.22 19.28 C 15.36 19.421 15.551 19.5 15.75 19.5 C 15.949 19.5 16.14 19.421 16.28 19.28 L 19.5 16.06 L 19.5 18 L 21 18 L 21 13.5 L 16.5 13.5 Z M 1.5 21 L 0 21 L 0 17.25 C 0 14.355 2.355 12 5.25 12 L 9.75 12 C 11.242 12 12.667 12.637 13.663 13.75 L 12.545 14.75 C 12.194 14.357 11.763 14.042 11.281 13.827 C 10.799 13.611 10.278 13.5 9.75 13.5 L 5.25 13.5 C 3.182 13.5 1.5 15.182 1.5 17.25 L 1.5 21 Z M 7.5 10.5 C 8.892 10.5 10.228 9.947 11.212 8.962 C 12.197 7.978 12.75 6.642 12.75 5.25 C 12.75 3.858 12.197 2.522 11.212 1.538 C 10.228 0.553 8.892 0 7.5 0 C 6.108 0 4.772 0.553 3.788 1.538 C 2.803 2.522 2.25 3.858 2.25 5.25 C 2.25 6.642 2.803 7.978 3.788 8.962 C 4.772 9.947 6.108 10.5 7.5 10.5 Z M 7.5 1.5 C 8.495 1.5 9.448 1.895 10.152 2.598 C 10.855 3.302 11.25 4.255 11.25 5.25 C 11.25 6.245 10.855 7.198 10.152 7.902 C 9.448 8.605 8.495 9 7.5 9 C 6.505 9 5.552 8.605 4.848 7.902 C 4.145 7.198 3.75 6.245 3.75 5.25 C 3.75 4.255 4.145 3.302 4.848 2.598 C 5.552 1.895 6.505 1.5 7.5 1.5 Z" fill-rule="nonzero"></path></g>
</svg>