<svg xmlns="http://www.w3.org/2000/svg" viewBox="0 0 24 24" fill="none">
  <g transform="translate(11.709 4)" fill="#1E90FF"><path d="M 2.171 2.25 C 2.171 2.847 2.408 3.419 2.83 3.841 C 3.252 4.263 3.824 4.5 4.421 4.5 C 5.018 4.5 5.59 4.263 6.012 3.841 C 6.434 3.419 6.671 2.847 6.671 2.25 C 6.671 1.653 6.434 1.081 6.012 0.659 C 5.59 0.237 5.018 0 4.421 0 C 3.824 0 3.252 0.237 2.83 0.659 C 2.408 1.081 2.171 1.653 2.171 2.25 Z M 0.031 8.66 C 0.011 8.695 0 8.735 0 8.775 C 0 8.815 0.011 8.855 0.031 8.89 C 0.056 8.935 0.095 8.97 0.142 8.99 C 0.189 9.01 0.241 9.013 0.291 9 L 8.681 9 C 8.712 9.001 8.743 8.994 8.771 8.98 C 8.799 8.966 8.823 8.945 8.841 8.92 C 8.853 8.893 8.86 8.864 8.86 8.835 C 8.86 8.806 8.853 8.777 8.841 8.75 C 8.549 7.816 7.969 6.998 7.183 6.414 C 6.398 5.83 5.447 5.51 4.469 5.5 C 3.49 5.49 2.533 5.791 1.736 6.358 C 0.938 6.926 0.342 7.732 0.031 8.66 Z" fill-rule="nonzero"></path></g>
  <g transform="translate(0.62 0.5)" fill="#1E90FF"><path d="M 21.76 16 C 22.025 16 22.28 15.895 22.467 15.707 C 22.655 15.52 22.76 15.265 22.76 15 C 22.76 14.735 22.655 14.48 22.467 14.293 C 22.28 14.105 22.025 14 21.76 14 L 9.5 14 C 9.367 14 9.24 13.947 9.146 13.854 C 9.053 13.76 9 13.633 9 13.5 L 9 12 C 9 10.807 8.526 9.662 7.682 8.818 C 6.838 7.974 5.693 7.5 4.5 7.5 C 3.307 7.5 2.162 7.974 1.318 8.818 C 0.474 9.662 0 10.807 0 12 L 0 15.5 C 0 15.633 0.053 15.76 0.146 15.854 C 0.24 15.947 0.367 16 0.5 16 L 1.5 16 C 1.627 15.997 1.749 16.044 1.843 16.129 C 1.936 16.215 1.992 16.334 2 16.46 L 2.47 22.5 C 2.478 22.626 2.534 22.745 2.627 22.831 C 2.721 22.916 2.843 22.963 2.97 22.96 L 6.04 22.96 C 6.166 22.96 6.287 22.913 6.38 22.828 C 6.473 22.743 6.53 22.626 6.54 22.5 L 6.97 16.5 C 6.978 16.374 7.034 16.255 7.127 16.169 C 7.221 16.084 7.343 16.037 7.47 16.04 L 21.76 16 Z M 1.51 3 C 1.51 3.394 1.588 3.784 1.738 4.148 C 1.889 4.512 2.11 4.843 2.389 5.121 C 2.667 5.4 2.998 5.621 3.362 5.772 C 3.726 5.922 4.116 6 4.51 6 C 4.904 6 5.294 5.922 5.658 5.772 C 6.022 5.621 6.353 5.4 6.631 5.121 C 6.91 4.843 7.131 4.512 7.282 4.148 C 7.432 3.784 7.51 3.394 7.51 3 C 7.51 2.204 7.194 1.441 6.631 0.879 C 6.069 0.316 5.306 0 4.51 0 C 3.714 0 2.951 0.316 2.389 0.879 C 1.826 1.441 1.51 2.204 1.51 3 Z" fill-rule="nonzero"></path></g>
</svg>