<svg xmlns="http://www.w3.org/2000/svg" viewBox="0 0 32 32" fill="none">
  <g transform="translate(5.333 5.333)" fill="rgb(255,255,255)"><path d="M 11.667 14.667 C 11.667 14.114 11.219 13.667 10.667 13.667 C 10.114 13.667 9.667 14.114 9.667 14.667 L 10.667 14.667 L 11.667 14.667 Z M 9.667 21.333 C 9.667 21.886 10.114 22.333 10.667 22.333 C 11.219 22.333 11.667 21.886 11.667 21.333 L 10.667 21.333 L 9.667 21.333 Z M 6.667 20.333 C 6.114 20.333 5.667 20.781 5.667 21.333 C 5.667 21.886 6.114 22.333 6.667 22.333 L 6.667 21.333 L 6.667 20.333 Z M 14.667 22.333 C 15.219 22.333 15.667 21.886 15.667 21.333 C 15.667 20.781 15.219 20.333 14.667 20.333 L 14.667 21.333 L 14.667 22.333 Z M 0 8.333 C -0.552 8.333 -1 8.781 -1 9.333 C -1 9.886 -0.552 10.333 0 10.333 L 0 9.333 L 0 8.333 Z M 21.333 10.333 C 21.886 10.333 22.333 9.886 22.333 9.333 C 22.333 8.781 21.886 8.333 21.333 8.333 L 21.333 9.333 L 21.333 10.333 Z M 20 0 L 20 -1 L 20 0 Z M 0 1.333 L -1 1.333 L 0 1.333 Z M 10.667 14.667 L 9.667 14.667 L 9.667 21.333 L 10.667 21.333 L 11.667 21.333 L 11.667 14.667 L 10.667 14.667 Z M 6.667 21.333 L 6.667 22.333 L 14.667 22.333 L 14.667 21.333 L 14.667 20.333 L 6.667 20.333 L 6.667 21.333 Z M 0 9.333 L 0 10.333 L 21.333 10.333 L 21.333 9.333 L 21.333 8.333 L 0 8.333 L 0 9.333 Z M 1.333 14.667 L 1.333 15.667 L 20 15.667 L 20 14.667 L 20 13.667 L 1.333 13.667 L 1.333 14.667 Z M 20 14.667 L 20 15.667 C 20.619 15.667 21.212 15.421 21.65 14.983 L 20.943 14.276 L 20.236 13.569 C 20.173 13.632 20.088 13.667 20 13.667 L 20 14.667 Z M 20.943 14.276 L 21.65 14.983 C 22.088 14.546 22.333 13.952 22.333 13.333 L 21.333 13.333 L 20.333 13.333 C 20.333 13.422 20.298 13.507 20.236 13.569 L 20.943 14.276 Z M 21.333 13.333 L 22.333 13.333 L 22.333 1.333 L 21.333 1.333 L 20.333 1.333 L 20.333 13.333 L 21.333 13.333 Z M 21.333 1.333 L 22.333 1.333 C 22.333 0.714 22.088 0.121 21.65 -0.317 L 20.943 0.391 L 20.236 1.098 C 20.298 1.16 20.333 1.245 20.333 1.333 L 21.333 1.333 Z M 20.943 0.391 L 21.65 -0.317 C 21.212 -0.754 20.619 -1 20 -1 L 20 0 L 20 1 C 20.088 1 20.173 1.035 20.236 1.098 L 20.943 0.391 Z M 20 0 L 20 -1 L 1.333 -1 L 1.333 0 L 1.333 1 L 20 1 L 20 0 Z M 1.333 0 L 1.333 -1 C 0.714 -1 0.121 -0.754 -0.317 -0.317 L 0.391 0.391 L 1.098 1.098 C 1.16 1.035 1.245 1 1.333 1 L 1.333 0 Z M 0.391 0.391 L -0.317 -0.317 C -0.754 0.121 -1 0.714 -1 1.333 L 0 1.333 L 1 1.333 C 1 1.245 1.035 1.16 1.098 1.098 L 0.391 0.391 Z M 0 1.333 L -1 1.333 L -1 13.333 L 0 13.333 L 1 13.333 L 1 1.333 L 0 1.333 Z M 0 13.333 L -1 13.333 C -1 13.952 -0.754 14.546 -0.317 14.983 L 0.391 14.276 L 1.098 13.569 C 1.035 13.507 1 13.422 1 13.333 L 0 13.333 Z M 0.391 14.276 L -0.317 14.983 C 0.121 15.421 0.714 15.667 1.333 15.667 L 1.333 14.667 L 1.333 13.667 C 1.245 13.667 1.16 13.632 1.098 13.569 L 0.391 14.276 Z" fill-rule="nonzero"></path></g>
</svg>