<svg xmlns="http://www.w3.org/2000/svg" viewBox="0 0 32 32" fill="none">
  <g transform="translate(5.333 2.667)" fill="#1E90FF"><path d="M 9.333 0 C 11.911 0 14 2.089 14 4.667 C 14 7.158 12.048 9.194 9.589 9.326 L 9.333 9.333 C 6.756 9.333 4.667 7.244 4.667 4.667 C 4.667 2.175 6.619 0.14 9.077 0.007 L 9.333 0 Z M 0 24 L 11.737 24 C 11.26 23.176 10.935 22.273 10.777 21.333 L 2.667 21.333 L 2.667 19.2 L 2.674 18.941 C 2.802 16.543 4.706 14.667 7 14.667 L 11.667 14.667 L 11.911 14.674 C 12.149 14.688 12.382 14.722 12.609 14.774 C 13.283 13.993 14.101 13.349 15.019 12.878 C 14.024 12.318 12.881 12 11.667 12 L 7 12 L 6.711 12.006 C 2.979 12.162 0 15.323 0 19.2 L 0 24 Z M 7.333 4.667 C 7.333 3.562 8.229 2.667 9.333 2.667 C 10.438 2.667 11.333 3.562 11.333 4.667 C 11.333 5.771 10.438 6.667 9.333 6.667 C 8.229 6.667 7.333 5.771 7.333 4.667 Z M 14.748 25.393 L 18.667 23 L 22.585 25.393 L 21.52 20.927 L 25.007 17.94 L 20.43 17.573 L 18.667 13.333 L 16.903 17.573 L 12.326 17.94 L 15.813 20.927 L 14.748 25.393 Z" fill-rule="evenodd"></path></g>
</svg>