<svg xmlns="http://www.w3.org/2000/svg" viewBox="0 0 32 32" fill="none">
  <g transform="translate(2.667 5.333)" fill="#1E90FF"><path d="M 20 22.667 L 22.4 25.027 C 23.067 25.693 24 25.16 24 24.373 L 24 18.667 L 27.733 14.133 C 27.882 13.935 27.972 13.7 27.995 13.453 C 28.017 13.206 27.97 12.959 27.859 12.737 C 27.748 12.516 27.578 12.329 27.368 12.199 C 27.157 12.069 26.914 12 26.667 12 L 17.333 12 C 16.267 12 15.6 13.333 16.267 14.133 L 20 18.667 L 20 22.667 Z M 17.333 21.333 L 0 21.333 L 0 17.333 C 0 13.733 7.067 12 10.667 12 C 11.467 12 12.4 12.133 13.467 12.267 C 13.2 13.067 13.333 14 13.6 14.8 C 12.667 14.667 11.6 14.533 10.667 14.533 C 6.667 14.533 2.533 16.533 2.533 17.333 L 2.533 18.8 L 16.667 18.8 L 17.333 19.6 L 17.333 21.333 Z M 10.667 0 C 7.733 0 5.333 2.4 5.333 5.333 C 5.333 8.267 7.733 10.667 10.667 10.667 C 13.6 10.667 16 8.267 16 5.333 C 16 2.4 13.6 0 10.667 0 Z M 10.667 8 C 9.2 8 8 6.8 8 5.333 C 8 3.867 9.2 2.667 10.667 2.667 C 12.133 2.667 13.333 3.867 13.333 5.333 C 13.333 6.8 12.133 8 10.667 8 Z" fill-rule="nonzero"></path></g>
</svg>