<svg xmlns="http://www.w3.org/2000/svg" viewBox="0 0 522 478">
<g transform="matrix(-1 0 0 1 522 0)">
  <g transform="translate(0.332 417.8)"><path d="M 520.758 0.862 L 0.431 0.862 C 0.193 0.862 0 0.669 0 0.431 C 0 0.193 0.193 0 0.431 0 L 520.758 0 C 520.996 0 521.189 0.193 521.189 0.431 C 521.189 0.669 520.996 0.862 520.758 0.862 Z" fill="rgb(9,21,32)" fill-rule="nonzero"></path></g>
  <g transform="translate(100.194 55.747)"><path d="M 263.733 15.744 L 263.733 315.946 C 263.733 324.641 256.685 331.689 247.99 331.689 L 15.743 331.689 C 7.048 331.689 0 324.641 0 315.946 L 0 54.979 L 53.394 0 L 247.99 0 C 256.685 0 263.733 7.049 263.733 15.744 Z" fill="rgb(199,219,240)" fill-rule="nonzero"></path></g>
  <g transform="translate(100.226 55.747)"><path d="M 53.362 0 L 53.362 38.671 C 53.362 47.462 46.328 54.636 37.538 54.809 C 25.404 55.048 9.426 55.268 1.44 54.979 L 0 54.979 C 17.782 36.664 35.58 18.316 53.362 0 Z" fill="rgb(30,144,255)" fill-rule="nonzero"></path></g>
  <g transform="translate(100.193 110.728)"><path d="M 0.032 0 C 0.016 0.016 0.016 0.016 0 0.032 L 0.032 0 Z" fill="rgb(199,219,240)" fill-rule="nonzero"></path></g>
  <g transform="translate(139.24800000000002 82.475)"><path d="M 266.967 15.937 L 266.967 319.82 C 266.967 328.622 259.832 335.757 251.031 335.757 L 15.936 335.757 C 7.135 335.757 0 328.622 0 319.82 L 0 55.654 L 54.048 0 L 251.031 0 C 259.832 0 266.967 7.135 266.967 15.937 Z" fill="rgb(255,255,255)" fill-rule="nonzero"></path></g>
  <g transform="translate(138.817 82.044)"><path d="M 251.462 336.618 L 16.367 336.618 C 7.342 336.618 0 329.276 0 320.251 L 0 56.085 C 0 55.973 0.044 55.865 0.122 55.784 L 54.17 0.131 C 54.252 0.047 54.363 0 54.479 0 L 251.462 0 C 260.487 0 267.829 7.342 267.829 16.367 L 267.829 320.251 C 267.829 329.276 260.487 336.618 251.462 336.618 Z M 0.862 56.26 L 0.862 320.251 C 0.862 328.801 7.817 335.757 16.367 335.757 L 251.462 335.757 C 260.012 335.757 266.967 328.801 266.967 320.251 L 266.967 16.367 C 266.967 7.818 260.012 0.862 251.462 0.862 L 54.661 0.862 L 0.862 56.26 Z" fill="rgb(9,21,32)" fill-rule="nonzero"></path></g>
  <g transform="translate(138.85 82.044)"><path d="M 12.427 56.654 C 8.291 56.654 4.616 56.614 1.873 56.515 L 0.431 56.516 C 0.258 56.516 0.101 56.412 0.034 56.252 C -0.033 56.093 0.001 55.909 0.122 55.784 C 9.122 46.514 18.125 37.236 27.13 27.958 C 36.134 18.679 45.138 9.401 54.138 0.131 C 54.26 0.005 54.446 -0.034 54.609 0.032 C 54.771 0.098 54.878 0.255 54.878 0.431 L 54.878 39.577 C 54.878 43.994 53.175 48.163 50.082 51.317 C 46.99 54.471 42.854 56.256 38.438 56.343 C 30.362 56.502 20.514 56.654 12.427 56.654 Z M 1.449 55.654 L 1.888 55.654 C 9.992 55.946 26.226 55.721 38.42 55.481 C 47.019 55.312 54.015 48.177 54.015 39.577 L 54.015 1.494 C 45.262 10.51 36.505 19.534 27.748 28.558 C 18.981 37.592 10.213 46.627 1.449 55.654 Z" fill="rgb(9,21,32)" fill-rule="nonzero"></path></g>
  <g transform="translate(138.818 137.697)"><path d="M 0.431 0.895 C 0.32 0.895 0.21 0.852 0.126 0.768 C -0.042 0.6 -0.042 0.327 0.126 0.159 L 0.16 0.125 C 0.329 -0.042 0.602 -0.042 0.77 0.127 C 0.937 0.296 0.936 0.569 0.767 0.737 L 0.736 0.768 C 0.651 0.853 0.541 0.895 0.431 0.895 Z" fill="rgb(9,21,32)" fill-rule="nonzero"></path></g>
  <g transform="translate(293.631 106.665)"><path d="M 89.386 162.652 C 89.148 162.652 88.955 162.459 88.955 162.221 L 88.955 16.367 C 88.955 7.818 81.999 0.862 73.449 0.862 L 0.431 0.862 C 0.193 0.862 0 0.669 0 0.431 C 0 0.193 0.193 0 0.431 0 L 73.449 0 C 82.474 0 89.817 7.342 89.817 16.367 L 89.817 162.221 C 89.817 162.459 89.624 162.652 89.386 162.652 Z" fill="rgb(9,21,32)" fill-rule="nonzero"></path></g>
  <g transform="translate(115.619 162.318)"><path d="M 0.431 0.895 C 0.32 0.895 0.21 0.852 0.126 0.768 C -0.042 0.6 -0.042 0.327 0.126 0.159 L 0.159 0.126 C 0.327 -0.042 0.6 -0.042 0.768 0.126 C 0.937 0.295 0.937 0.567 0.768 0.736 L 0.736 0.768 C 0.651 0.853 0.541 0.895 0.431 0.895 Z" fill="rgb(9,21,32)" fill-rule="nonzero"></path></g>
  <g transform="translate(210.271 173.986)"><path d="M 148.743 0 L 0 0 L 0 14.235 L 148.743 14.235 L 148.743 0 Z" fill="rgb(30,144,255)" fill-rule="nonzero"></path></g>
  <g transform="translate(186.45 207.686)"><path d="M 172.565 0 L 0 0 L 0 14.235 L 172.565 14.235 L 172.565 0 Z" fill="rgb(30,144,255)" fill-rule="nonzero"></path></g>
  <g transform="translate(186.45 241.386)"><path d="M 172.565 0 L 0 0 L 0 14.235 L 172.565 14.235 L 172.565 0 Z" fill="rgb(199,219,240)" fill-rule="nonzero"></path></g>
  <g transform="translate(186.449 275.085)"><path d="M 172.565 0 L 0 0 L 0 14.235 L 172.565 14.235 L 172.565 0 Z" fill="rgb(199,219,240)" fill-rule="nonzero"></path></g>
  <g transform="translate(240.517 144.404)"><path d="M 107.225 0.057 C 49.911 -1.817 1.93 43.126 0.057 100.44 C -1.817 157.753 43.126 205.734 100.44 207.608 C 157.753 209.482 205.734 164.539 207.608 107.225 C 209.482 49.912 164.539 1.93 107.225 0.057 Z M 100.866 194.567 C 50.756 192.929 11.459 150.98 13.098 100.866 C 14.736 50.756 56.689 11.46 106.799 13.098 C 156.912 14.736 196.205 56.689 194.567 106.799 C 192.929 156.912 150.98 196.206 100.866 194.567 Z" fill="rgb(255,255,255)" fill-rule="nonzero"></path></g>
  <g transform="translate(240.086 143.972)"><path d="M 104.356 208.53 C 103.191 208.53 102.026 208.511 100.857 208.473 C 86.789 208.012 73.232 204.81 60.562 198.956 C 48.325 193.302 37.427 185.423 28.17 175.54 C 18.913 165.657 11.764 154.267 6.921 141.687 C 1.907 128.661 -0.402 114.924 0.057 100.857 C 0.517 86.79 3.718 73.233 9.572 60.564 C 15.226 48.327 23.104 37.428 32.987 28.171 C 42.87 18.914 54.26 11.764 66.84 6.921 C 79.865 1.907 93.598 -0.403 107.67 0.057 C 121.738 0.518 135.295 3.719 147.965 9.574 C 160.202 15.228 171.101 23.106 180.358 32.989 C 189.616 42.873 196.765 54.262 201.607 66.843 C 206.621 79.868 208.93 93.605 208.47 107.673 C 208.01 121.74 204.809 135.296 198.955 147.966 C 193.301 160.203 185.423 171.101 175.54 180.358 C 165.658 189.616 154.267 196.765 141.687 201.608 C 129.744 206.206 117.201 208.53 104.356 208.53 Z M 104.22 0.863 C 48.752 0.863 2.744 45.046 0.919 100.885 C -0.943 157.869 43.901 205.746 100.885 207.611 C 157.873 209.471 205.746 164.628 207.608 107.645 C 208.512 80.04 198.611 53.736 179.729 33.579 C 160.848 13.421 135.247 1.822 107.642 0.919 C 106.498 0.882 105.357 0.863 104.22 0.863 Z M 104.339 195.481 C 103.322 195.481 102.306 195.464 101.285 195.431 C 76.933 194.635 54.349 184.404 37.693 166.622 C 21.036 148.841 12.302 125.636 13.099 101.285 C 13.895 76.935 24.126 54.351 41.909 37.695 C 59.691 21.038 82.89 12.301 107.245 13.099 C 131.596 13.895 154.18 24.126 170.836 41.909 C 187.492 59.691 196.227 82.894 195.431 107.245 C 194.634 131.598 184.402 154.182 166.621 170.837 C 149.586 186.794 127.571 195.481 104.339 195.481 Z M 104.227 13.912 C 55.758 13.912 15.555 52.519 13.96 101.313 C 13.171 125.435 21.823 148.42 38.322 166.033 C 54.821 183.647 77.192 193.782 101.313 194.57 C 102.313 194.602 103.31 194.619 104.303 194.619 C 152.769 194.619 192.973 156.011 194.57 107.217 C 195.358 83.097 186.706 60.112 170.207 42.498 C 153.708 24.884 131.338 14.749 107.217 13.961 C 106.217 13.928 105.22 13.912 104.227 13.912 Z" fill="rgb(9,21,32)" fill-rule="nonzero"></path></g>
  <g transform="translate(410.984 333.242)"><path d="M 68.382 83.168 C 64.82 86.027 59.615 85.457 56.756 81.895 L 1.821 13.446 C -1.038 9.884 -0.468 4.679 3.094 1.821 C 6.656 -1.038 11.861 -0.468 14.72 3.094 L 69.655 71.543 C 72.514 75.105 71.944 80.31 68.382 83.168 Z" fill="rgb(255,255,255)" fill-rule="nonzero"></path></g>
  <g transform="translate(410.557 332.811)"><path d="M 63.649 85.852 C 63.329 85.852 63.008 85.835 62.685 85.799 C 60.375 85.546 58.302 84.409 56.847 82.596 L 1.911 14.147 C -1.091 10.406 -0.49 4.919 3.251 1.916 C 5.063 0.462 7.333 -0.2 9.644 0.053 C 11.954 0.306 14.028 1.443 15.482 3.256 L 70.418 71.705 C 71.873 73.517 72.534 75.788 72.281 78.098 C 72.028 80.408 70.891 82.482 69.078 83.936 C 67.519 85.188 65.62 85.852 63.649 85.852 Z M 8.681 0.861 C 6.905 0.861 5.195 1.46 3.79 2.588 C 0.419 5.293 -0.122 10.237 2.583 13.608 L 57.519 82.057 C 58.829 83.69 60.697 84.714 62.779 84.943 C 64.863 85.169 66.906 84.574 68.539 83.264 C 70.172 81.953 71.197 80.085 71.425 78.004 C 71.653 75.922 71.056 73.876 69.746 72.243 L 14.81 3.794 C 13.5 2.162 11.632 1.137 9.55 0.909 C 9.259 0.877 8.97 0.861 8.681 0.861 Z" fill="rgb(9,21,32)" fill-rule="nonzero"></path></g>
  <g transform="translate(186.449 360.496)"><path d="M 65.946 0 L 0 0 L 0 7.263 L 65.946 7.263 L 65.946 0 Z" fill="rgb(199,219,240)" fill-rule="nonzero"></path></g>
  <g transform="translate(185.587 378.217)"><path d="M 47.935 0 L 0 0 L 0 7.263 L 47.935 7.263 L 47.935 0 Z" fill="rgb(199,219,240)" fill-rule="nonzero"></path></g>
  <g transform="translate(235.38 64.078)"><path d="M 39.117 78.234 C 60.721 78.234 78.234 60.721 78.234 39.117 C 78.234 17.513 60.721 0 39.117 0 C 17.513 0 0 17.513 0 39.117 C 0 60.721 17.513 78.234 39.117 78.234 Z" fill="rgb(30,144,255)" fill-rule="nonzero"></path></g>
  <g transform="translate(247.439 97.273)"><path d="M 5.922 11.844 C 9.192 11.844 11.844 9.192 11.844 5.922 C 11.844 2.651 9.192 0 5.922 0 C 2.651 0 0 2.651 0 5.922 C 0 9.192 2.651 11.844 5.922 11.844 Z" fill="rgb(255,255,255)" fill-rule="nonzero"></path></g>
  <g transform="translate(268.576 97.273)"><path d="M 5.922 11.844 C 9.192 11.844 11.844 9.192 11.844 5.922 C 11.844 2.651 9.192 0 5.922 0 C 2.651 0 0 2.651 0 5.922 C 0 9.192 2.651 11.844 5.922 11.844 Z" fill="rgb(255,255,255)" fill-rule="nonzero"></path></g>
  <g transform="translate(289.712 97.273)"><path d="M 5.922 11.844 C 9.192 11.844 11.844 9.192 11.844 5.922 C 11.844 2.651 9.192 0 5.922 0 C 2.651 0 0 2.651 0 5.922 C 0 9.192 2.651 11.844 5.922 11.844 Z" fill="rgb(255,255,255)" fill-rule="nonzero"></path></g>
  <g transform="translate(244.855 301.48)"><path d="M 157.583 22.818 L 11.409 22.818 C 5.108 22.818 0 17.71 0 11.409 C 0 5.108 5.108 0 11.409 0 L 157.583 0 C 163.884 0 168.992 5.108 168.992 11.409 C 168.991 17.71 163.884 22.818 157.583 22.818 Z" fill="rgb(255,255,255)" fill-rule="nonzero"></path></g>
  <g transform="translate(244.423 301.049)"><path d="M 158.014 23.679 L 11.84 23.679 C 5.311 23.679 0 18.368 0 11.84 C 0 5.311 5.311 0 11.84 0 L 158.014 0 C 164.542 0 169.853 5.311 169.853 11.84 C 169.853 18.368 164.542 23.679 158.014 23.679 Z M 11.84 0.862 C 5.787 0.862 0.862 5.787 0.862 11.84 C 0.862 17.893 5.787 22.818 11.84 22.818 L 158.014 22.818 C 164.067 22.818 168.992 17.893 168.992 11.84 C 168.992 5.787 164.067 0.862 158.014 0.862 L 11.84 0.862 Z" fill="rgb(9,21,32)" fill-rule="nonzero"></path></g>
  <g transform="translate(264.995 314.247)"><path d="M 5.638 6.552 C 5.492 6.552 5.35 6.478 5.269 6.344 C 4.905 5.742 1.991 2.657 0.122 0.731 C -0.044 0.56 -0.04 0.287 0.131 0.122 C 0.301 -0.044 0.574 -0.04 0.74 0.131 C 1.223 0.629 5.474 5.019 6.006 5.899 C 6.129 6.102 6.064 6.367 5.86 6.49 C 5.791 6.532 5.714 6.552 5.638 6.552 Z" fill="rgb(9,21,32)" fill-rule="nonzero"></path></g>
  <g transform="translate(254.406 304.614)"><path d="M 6.314 12.627 C 2.832 12.627 0 9.795 0 6.314 C 0 2.832 2.832 0 6.314 0 C 9.795 0 12.627 2.832 12.627 6.314 C 12.627 9.795 9.795 12.627 6.314 12.627 Z M 6.314 0.862 C 3.308 0.862 0.862 3.308 0.862 6.314 C 0.862 9.32 3.308 11.766 6.314 11.766 C 9.32 11.766 11.766 9.32 11.766 6.314 C 11.766 3.308 9.32 0.862 6.314 0.862 Z" fill="rgb(9,21,32)" fill-rule="nonzero"></path></g>
  <g transform="translate(92.587 234.813)"><path d="M 36.154 0 C 52.332 57.189 68.509 114.377 84.687 171.566 C 84.867 172.185 85.2 172.749 85.655 173.205 L 89.346 176.896 C 91.753 179.303 90.048 183.418 86.644 183.418 L 44.73 183.418 C 42.954 183.418 41.412 182.194 41.009 180.465 C 27.339 121.916 13.67 63.368 0 4.82 C 12.051 3.214 24.103 1.607 36.154 0 Z" fill="rgb(255,255,255)" fill-rule="nonzero"></path></g>
  <g transform="translate(92.156 234.382)"><path d="M 87.075 184.28 L 45.16 184.28 C 43.173 184.28 41.471 182.928 41.02 180.993 L 0.011 5.349 C -0.016 5.231 0.007 5.106 0.076 5.006 C 0.146 4.906 0.254 4.84 0.374 4.824 L 36.527 0.004 C 36.74 -0.024 36.941 0.107 36.999 0.314 L 85.533 171.88 C 85.691 172.425 85.988 172.928 86.391 173.331 L 90.082 177.022 C 91.321 178.261 91.674 180.036 91.004 181.656 C 90.333 183.274 88.828 184.28 87.075 184.28 Z M 0.958 5.616 L 41.859 180.797 C 42.219 182.341 43.576 183.418 45.16 183.418 L 87.075 183.418 C 88.472 183.418 89.672 182.616 90.207 181.325 C 90.742 180.035 90.46 178.619 89.472 177.631 L 85.782 173.94 C 85.276 173.434 84.903 172.804 84.704 172.117 L 36.271 0.907 L 0.958 5.616 Z" fill="rgb(9,21,32)" fill-rule="nonzero"></path></g>
  <g transform="translate(69.931 239.874)"><path d="M 46.188 20.466 L 40.439 24.681 C 39.702 25.222 39.29 26.1 39.346 27.012 L 47.888 167.959 C 47.918 168.454 48.085 168.931 48.369 169.337 L 51.72 174.127 C 52.967 175.909 51.693 178.357 49.518 178.357 L 2.688 178.357 C 1.192 178.357 -0.016 177.135 0 175.639 L 1.899 2.169 L 21.903 0 L 46.188 20.466 Z" fill="rgb(255,255,255)" fill-rule="nonzero"></path></g>
  <g transform="translate(69.5 239.443)"><path d="M 49.949 179.219 L 3.119 179.219 C 2.28 179.219 1.492 178.89 0.902 178.293 C 0.311 177.696 -0.009 176.905 0 176.066 L 1.899 2.596 C 1.901 2.377 2.066 2.195 2.283 2.172 L 22.288 0.002 C 22.522 -0.023 22.737 0.147 22.763 0.384 C 22.789 0.621 22.618 0.833 22.381 0.859 L 2.756 2.987 L 0.862 176.075 C 0.855 176.682 1.087 177.255 1.514 177.687 C 1.941 178.119 2.511 178.356 3.119 178.356 L 49.949 178.356 C 50.806 178.356 51.555 177.902 51.951 177.142 C 52.347 176.381 52.29 175.508 51.798 174.805 L 48.446 170.015 C 48.116 169.543 47.923 168.99 47.889 168.415 L 39.346 27.468 C 39.282 26.405 39.756 25.394 40.615 24.764 L 46.364 20.549 C 46.556 20.409 46.825 20.45 46.966 20.642 C 47.107 20.834 47.065 21.103 46.873 21.244 L 41.125 25.46 C 40.504 25.915 40.16 26.647 40.207 27.416 L 48.749 168.363 C 48.774 168.779 48.914 169.18 49.153 169.521 L 52.505 174.311 C 53.184 175.282 53.263 176.489 52.715 177.54 C 52.168 178.591 51.134 179.219 49.949 179.219 Z" fill="rgb(9,21,32)" fill-rule="nonzero"></path></g>
  <g transform="translate(74.664 408.159)"><path d="M 42.128 0.862 L 0.431 0.862 C 0.193 0.862 0 0.669 0 0.431 C 0 0.193 0.193 0 0.431 0 L 42.128 0 C 42.366 0 42.559 0.193 42.559 0.431 C 42.559 0.669 42.366 0.862 42.128 0.862 Z" fill="rgb(9,21,32)" fill-rule="nonzero"></path></g>
  <g transform="translate(134.678 407.195)"><path d="M 42.128 0.862 L 0.431 0.862 C 0.193 0.862 0 0.669 0 0.431 C 0 0.193 0.193 0 0.431 0 L 42.128 0 C 42.366 0 42.559 0.193 42.559 0.431 C 42.559 0.669 42.366 0.862 42.128 0.862 Z" fill="rgb(9,21,32)" fill-rule="nonzero"></path></g>
  <g transform="translate(94.88 149.433)"><path d="M 10.123 0 C 6.749 5.222 3.374 10.444 0 15.667 C 4.418 20.145 8.835 24.623 13.253 29.101 C 15.302 25.285 17.35 21.469 19.399 17.653 C 19.56 14.359 19.72 11.065 19.881 7.771 C 16.628 5.18 13.376 2.59 10.123 0 Z" fill="rgb(255,255,255)" fill-rule="nonzero"></path></g>
  <g transform="translate(94.449 149.001)"><path d="M 13.684 29.963 C 13.57 29.963 13.459 29.918 13.377 29.835 L 0.124 16.4 C -0.018 16.257 -0.041 16.033 0.069 15.864 L 10.192 0.197 C 10.258 0.095 10.364 0.026 10.485 0.006 C 10.604 -0.014 10.727 0.018 10.823 0.094 L 20.581 7.865 C 20.689 7.951 20.749 8.084 20.743 8.223 L 20.261 18.105 C 20.258 18.169 20.24 18.231 20.21 18.288 L 14.064 29.736 C 13.999 29.856 13.881 29.939 13.746 29.959 C 13.725 29.962 13.704 29.963 13.684 29.963 Z M 0.981 16.041 L 13.581 28.814 L 19.404 17.966 L 19.871 8.402 L 10.657 1.065 L 0.981 16.041 Z" fill="rgb(9,21,32)" fill-rule="nonzero"></path></g>
  <g transform="translate(143.162 163.788)"><path d="M 0.04 25.471 C 3.535 19.478 6.726 14.725 9.199 11.251 C 11.634 7.828 12.96 6.226 15.224 4.984 C 18.312 3.29 19.458 4.29 23.178 2.092 C 25.07 0.974 26.822 -0.495 27.999 0.163 C 28.51 0.45 28.688 1.012 28.722 1.127 C 29.426 3.553 23.901 7.005 23.66 7.153 C 27.561 6.425 30.525 5.372 32.578 4.502 C 34.704 3.601 37.087 2.372 38.121 3.297 C 38.536 3.668 38.61 4.275 38.603 4.743 C 40.081 3.911 41.651 4.552 41.978 5.466 C 42.237 6.189 41.778 7.257 40.773 7.876 C 41.666 7.808 42.461 8.231 42.701 8.84 C 43.025 9.664 42.384 10.955 41.014 11.25 C 41.645 11.807 41.967 12.369 41.978 12.937 C 42.027 15.469 35.921 18.12 23.66 20.891 C 21.571 26.274 19.482 31.657 17.393 37.04 C 17.039 37.223 11.347 40.051 5.824 36.799 C 1.921 34.5 -0.332 30.086 0.04 25.471 Z" fill="rgb(255,255,255)" fill-rule="nonzero"></path></g>
  <g transform="translate(142.732 163.357)"><path d="M 12.032 39.212 C 10.189 39.212 8.101 38.817 6.036 37.601 C 2.011 35.231 -0.343 30.625 0.041 25.867 C 0.046 25.803 0.065 25.741 0.098 25.685 C 3 20.709 6.088 15.913 9.278 11.432 C 11.667 8.075 13.054 6.35 15.447 5.037 C 16.932 4.223 18.009 4.002 19.051 3.789 C 20.231 3.547 21.45 3.297 23.389 2.152 C 23.761 1.932 24.132 1.696 24.491 1.467 C 26.024 0.49 27.473 -0.434 28.639 0.219 C 29.273 0.574 29.509 1.242 29.566 1.439 C 30.094 3.258 27.828 5.397 26.093 6.723 C 28.46 6.167 30.722 5.434 32.84 4.536 C 33.096 4.428 33.355 4.315 33.615 4.201 C 35.635 3.32 37.724 2.409 38.839 3.407 C 39.14 3.676 39.333 4.053 39.417 4.532 C 40.111 4.297 40.846 4.297 41.506 4.543 C 42.148 4.782 42.625 5.223 42.814 5.752 C 43.065 6.455 42.819 7.311 42.229 7.994 C 42.839 8.186 43.324 8.586 43.532 9.114 C 43.726 9.607 43.669 10.206 43.375 10.754 C 43.119 11.232 42.715 11.615 42.222 11.862 C 42.622 12.346 42.829 12.849 42.839 13.36 C 42.873 15.133 40.994 17.922 24.409 21.692 L 18.225 37.627 C 18.187 37.725 18.115 37.805 18.022 37.853 C 17.861 37.937 15.342 39.212 12.032 39.212 Z M 0.892 26.034 C 0.575 30.43 2.758 34.671 6.473 36.859 C 11.433 39.78 16.55 37.602 17.483 37.159 L 23.689 21.167 C 23.741 21.033 23.856 20.934 23.996 20.902 C 38.913 17.531 42.008 14.949 41.977 13.377 C 41.969 12.938 41.694 12.476 41.159 12.005 C 41.037 11.898 40.986 11.731 41.027 11.573 C 41.068 11.416 41.195 11.295 41.353 11.261 C 41.908 11.141 42.369 10.808 42.615 10.348 C 42.787 10.027 42.83 9.684 42.73 9.429 C 42.555 8.984 41.913 8.686 41.236 8.737 C 41.038 8.752 40.855 8.63 40.793 8.441 C 40.732 8.252 40.808 8.045 40.977 7.941 C 41.84 7.409 42.181 6.542 42.002 6.043 C 41.9 5.758 41.602 5.499 41.205 5.351 C 40.591 5.122 39.877 5.194 39.245 5.55 C 39.111 5.625 38.947 5.623 38.814 5.545 C 38.682 5.466 38.601 5.322 38.603 5.168 C 38.61 4.633 38.497 4.257 38.265 4.049 C 37.562 3.421 35.649 4.255 33.96 4.991 C 33.697 5.106 33.435 5.22 33.177 5.33 C 30.389 6.512 27.359 7.413 24.17 8.008 C 23.965 8.045 23.763 7.933 23.689 7.739 C 23.614 7.545 23.688 7.326 23.865 7.217 C 25.992 5.911 29.195 3.252 28.739 1.679 C 28.715 1.595 28.576 1.17 28.219 0.971 C 27.502 0.57 26.265 1.359 24.955 2.194 C 24.59 2.426 24.213 2.667 23.828 2.894 C 21.766 4.112 20.474 4.377 19.225 4.633 C 18.201 4.843 17.233 5.041 15.863 5.793 C 13.625 7.02 12.292 8.684 9.981 11.932 C 6.824 16.366 3.767 21.11 0.892 26.034 Z" fill="rgb(9,21,32)" fill-rule="nonzero"></path></g>
  <g transform="translate(55.446 160.939)"><path d="M 59.195 5.061 C 59.476 6.507 59.757 7.953 60.038 9.399 C 61.262 9.168 63.053 8.988 65.1 9.399 C 67.83 9.948 70.763 11.5 76.669 18.799 C 79.137 21.851 82.224 26.027 85.345 31.333 C 86.149 29.967 86.952 28.601 87.756 27.235 C 89.232 29.188 92.459 32.883 97.879 35.189 C 101.208 36.605 104.23 37.014 106.314 37.117 C 105.375 55.566 97.771 68.268 89.443 69.173 C 87.75 69.357 84.762 69.192 80.766 66.281 C 81.007 72.065 81.248 77.85 81.489 83.634 C 58.673 83.776 35.858 83.917 13.042 84.058 C 12.961 81.327 12.881 78.595 12.801 75.864 C 18.587 76.431 25.184 77.321 25.21 78.573 C 25.248 80.339 12.335 84.746 5.085 79.778 C -1.815 75.051 -0.346 62.537 1.71 46.035 C 3.85 28.867 4.98 19.794 12.797 13.497 C 20.199 7.535 29.429 7.416 34.008 7.713 C 36.579 5.142 39.149 2.571 41.72 0 L 53.289 12.774 C 55.258 10.203 57.226 7.632 59.195 5.061 Z" fill="rgb(30,144,255)" fill-rule="nonzero"></path></g>
  <g transform="translate(94.663 192.046)"><path d="M 36.923 0.676 L 13.04 0.001 C 12.353 -0.019 11.738 0.423 11.536 1.079 L 0.054 38.487 C -0.182 39.256 0.38 40.039 1.184 40.061 L 25.016 40.735 C 25.703 40.755 26.318 40.313 26.52 39.657 L 38.017 2.201 C 38.246 1.456 37.702 0.698 36.923 0.676 Z" fill="rgb(9,21,32)" fill-rule="nonzero"></path></g>
  <g transform="translate(89.022 168.341)"><path d="M 14.892 17.011 C 14.77 17.011 14.653 16.959 14.571 16.867 L 0.11 0.719 C -0.049 0.541 -0.034 0.269 0.144 0.11 C 0.321 -0.049 0.593 -0.034 0.752 0.144 L 14.8 15.83 L 19.331 7.22 C 19.396 7.097 19.517 7.012 19.655 6.994 C 19.794 6.976 19.933 7.025 20.028 7.127 L 26.096 13.629 L 26.754 3.536 C 26.77 3.299 26.976 3.117 27.212 3.134 C 27.45 3.15 27.63 3.355 27.614 3.592 L 26.891 14.679 C 26.88 14.851 26.768 14.999 26.606 15.057 C 26.444 15.115 26.264 15.071 26.146 14.945 L 19.812 8.158 L 15.274 16.78 C 15.208 16.905 15.085 16.99 14.945 17.007 C 14.927 17.01 14.91 17.011 14.892 17.011 Z" fill="rgb(9,21,32)" fill-rule="nonzero"></path></g>
  <g transform="translate(88.249 196.008)"><path d="M 0.482 0 C 0.321 6.026 0.161 12.051 0 18.077 L 0.482 0 Z" fill="rgb(255,255,255)" fill-rule="nonzero"></path></g>
  <g transform="translate(87.817 195.577)"><path d="M 0.431 18.939 C 0.427 18.939 0.424 18.939 0.42 18.938 C 0.182 18.932 -0.006 18.734 0 18.496 L 0.482 0.42 C 0.488 0.182 0.687 -0.007 0.925 0 C 1.162 0.007 1.35 0.204 1.344 0.443 L 0.862 18.519 C 0.855 18.753 0.664 18.939 0.431 18.939 Z" fill="rgb(9,21,32)" fill-rule="nonzero"></path></g>
  <g transform="translate(136.454 226.377)"><path d="M 0 0 C 0.08 4.097 0.161 8.195 0.241 12.292 L 0 0 Z" fill="rgb(255,255,255)" fill-rule="nonzero"></path></g>
  <g transform="translate(136.022 225.945)"><path d="M 0.672 13.155 C 0.438 13.155 0.246 12.968 0.241 12.732 L 0 0.44 C -0.005 0.202 0.185 0.005 0.422 0.001 C 0.656 -0.013 0.857 0.185 0.862 0.423 L 1.103 12.715 C 1.107 12.953 0.918 13.15 0.68 13.155 C 0.677 13.155 0.675 13.155 0.672 13.155 Z" fill="rgb(9,21,32)" fill-rule="nonzero"></path></g>
  <g transform="translate(80.897 203.194)"><path d="M 0 7.878 L 9.159 27.401 C 13.049 22.033 16.873 20.017 19.764 19.206 C 22.606 18.409 26.575 18.206 27.477 15.832 C 27.782 15.026 27.642 14.218 27.477 13.662 C 29.511 13.622 31.013 12.233 31.092 10.77 C 31.164 9.447 30.049 8.494 29.887 8.36 C 32.122 8.17 33.432 6.616 33.262 5.468 C 33.105 4.416 31.723 3.841 31.574 3.781 C 32.438 2.661 32.437 2 32.297 1.612 C 31.306 -1.148 19.744 -0.112 10.846 2.817 C 5.954 4.426 2.252 6.482 0 7.878 Z" fill="rgb(255,255,255)" fill-rule="nonzero"></path></g>
  <g transform="translate(65.351 209.746)"><path d="M 0 10.123 C 6.106 6.749 12.212 3.374 18.318 0 L 0 10.123 Z" fill="rgb(255,255,255)" fill-rule="nonzero"></path></g>
  <g transform="translate(64.92 209.314)"><path d="M 0.431 10.985 C 0.28 10.985 0.132 10.905 0.054 10.763 C -0.061 10.554 0.014 10.292 0.222 10.177 L 18.54 0.054 C 18.749 -0.061 19.011 0.014 19.126 0.222 C 19.241 0.431 19.165 0.693 18.957 0.808 L 0.639 10.931 C 0.573 10.968 0.502 10.985 0.431 10.985 Z" fill="rgb(9,21,32)" fill-rule="nonzero"></path></g>
  <g transform="translate(170.849 171.234)"><path d="M 0.43 5.08 C 0.217 5.08 0.032 4.921 0.004 4.704 C -0.027 4.468 0.14 4.252 0.376 4.221 C 3.111 3.867 5.794 3.186 8.35 2.198 C 9.9 1.599 11.422 0.878 12.873 0.056 C 13.079 -0.061 13.342 0.012 13.46 0.219 C 13.577 0.426 13.504 0.689 13.297 0.806 C 11.81 1.649 10.25 2.388 8.661 3.002 C 6.041 4.015 3.291 4.713 0.486 5.076 C 0.468 5.079 0.449 5.08 0.43 5.08 Z" fill="rgb(9,21,32)" fill-rule="nonzero"></path></g>
  <g transform="translate(171.091 174.607)"><path d="M 0.43 5.08 C 0.217 5.08 0.032 4.922 0.004 4.704 C -0.027 4.468 0.14 4.252 0.376 4.222 C 3.111 3.867 5.794 3.187 8.35 2.198 C 9.9 1.599 11.422 0.878 12.873 0.056 C 13.08 -0.061 13.342 0.011 13.46 0.219 C 13.577 0.426 13.504 0.689 13.297 0.806 C 11.81 1.649 10.25 2.387 8.661 3.002 C 6.041 4.015 3.291 4.713 0.486 5.076 C 0.468 5.079 0.449 5.08 0.43 5.08 Z" fill="rgb(9,21,32)" fill-rule="nonzero"></path></g>
  <g transform="translate(168.681 168.101)"><path d="M 0.43 5.08 C 0.217 5.08 0.032 4.922 0.004 4.704 C -0.027 4.468 0.14 4.252 0.376 4.222 C 3.112 3.867 5.795 3.187 8.35 2.198 C 9.9 1.599 11.422 0.878 12.872 0.056 C 13.08 -0.061 13.342 0.011 13.46 0.219 C 13.577 0.426 13.504 0.689 13.297 0.806 C 11.81 1.649 10.25 2.387 8.661 3.002 C 6.042 4.015 3.292 4.713 0.487 5.076 C 0.468 5.079 0.449 5.08 0.43 5.08 Z" fill="rgb(9,21,32)" fill-rule="nonzero"></path></g>
  <g transform="translate(96.494 206.545)"><path d="M 0.431 3.873 C 0.268 3.873 0.112 3.78 0.04 3.622 C -0.06 3.406 0.035 3.15 0.251 3.051 C 3.763 1.434 7.46 0.448 11.24 0.121 C 13.099 -0.04 14.989 -0.04 16.857 0.121 C 17.094 0.141 17.27 0.35 17.25 0.587 C 17.229 0.824 17.022 0.998 16.784 0.979 C 14.964 0.822 13.124 0.822 11.314 0.979 C 7.634 1.298 4.033 2.258 0.611 3.833 C 0.553 3.86 0.492 3.873 0.431 3.873 Z" fill="rgb(9,21,32)" fill-rule="nonzero"></path></g>
  <g transform="translate(99.145 211.244)"><path d="M 0.431 3.272 C 0.249 3.272 0.079 3.155 0.021 2.972 C -0.052 2.745 0.073 2.503 0.3 2.43 C 2.521 1.722 4.81 1.15 7.102 0.73 C 8.943 0.393 10.822 0.148 12.69 0.001 C 12.929 -0.016 13.134 0.16 13.153 0.397 C 13.172 0.634 12.994 0.842 12.757 0.86 C 10.919 1.005 9.069 1.246 7.257 1.578 C 5.001 1.991 2.749 2.554 0.562 3.252 C 0.519 3.265 0.475 3.272 0.431 3.272 Z" fill="rgb(9,21,32)" fill-rule="nonzero"></path></g>
  <g transform="translate(135.757 190.396)"><path d="M 0.431 11.346 C 0.358 11.346 0.284 11.328 0.216 11.289 C 0.009 11.17 -0.061 10.906 0.058 10.7 L 6.106 0.216 C 6.225 0.01 6.489 -0.061 6.695 0.058 C 6.901 0.176 6.972 0.44 6.853 0.646 L 0.804 11.131 C 0.724 11.269 0.58 11.346 0.431 11.346 Z" fill="rgb(9,21,32)" fill-rule="nonzero"></path></g>
  <g transform="translate(99.021 129.536)"><path d="M 24.296 13.567 C 21.32 11.609 17.862 10.039 15.376 11.317 C 12.831 12.625 12.24 16.436 11.16 16.25 C 9.997 16.051 10.39 11.59 9.274 11.306 C 8.495 11.108 6.933 12.93 3.568 21.039 C 2.442 20.825 1.679 20.376 1.158 19.834 C -1.282 17.301 0.669 11.845 2.122 7.783 C 3.248 4.634 3.811 3.059 5.014 1.998 C 8.793 -1.333 14.857 0.353 17.306 1.034 C 20.528 1.93 24.602 3.063 25.742 6.578 C 26.756 9.703 24.824 12.779 24.296 13.567 Z" fill="rgb(9,21,32)" fill-rule="nonzero"></path></g>
  <g transform="translate(99.094 135.643)"><path d="M 0 8.184 C 0 5.721 1.457 3.725 3.254 3.725 C 4.168 3.725 4.993 4.243 5.584 5.076 C 7.319 2.552 9.842 0.578 13.015 0.11 C 16.238 -0.366 20.317 0.682 22.656 3.725 C 25.621 7.582 24.134 12.488 23.138 15.776 C 22.749 17.061 20.066 25.452 14.461 26.14 C 13.851 26.215 13.396 26.176 13.015 26.14 C 8.548 25.726 5.233 21.633 3.856 18.187 C 3.544 17.405 2.833 15.571 2.892 13.125 C 2.896 12.958 2.904 12.789 2.915 12.619 C 1.277 12.386 0 10.49 0 8.184 Z" fill="rgb(255,255,255)" fill-rule="nonzero"></path></g>
  <g transform="translate(98.664 135.215)"><path d="M 14.201 27.041 C 13.885 27.041 13.622 27.017 13.406 26.997 C 8.934 26.582 5.403 22.568 3.887 18.774 C 3.598 18.05 2.829 16.127 2.892 13.542 C 2.894 13.491 2.895 13.441 2.897 13.39 C 1.221 12.911 0 10.941 0 8.611 C 0 5.915 1.653 3.722 3.685 3.722 C 4.54 3.722 5.343 4.098 5.993 4.795 C 7.939 2.186 10.545 0.53 13.383 0.111 C 16.575 -0.36 20.919 0.625 23.429 3.89 C 26.528 7.922 24.996 12.98 23.982 16.328 C 23.479 17.986 20.684 26.291 14.945 26.995 C 14.669 27.029 14.422 27.041 14.201 27.041 Z M 3.684 4.583 C 2.128 4.583 0.861 6.391 0.861 8.611 C 0.861 10.657 1.979 12.417 3.406 12.619 C 3.63 12.651 3.791 12.849 3.776 13.074 C 3.765 13.238 3.758 13.401 3.754 13.563 C 3.695 15.971 4.416 17.775 4.687 18.454 C 6.106 22.004 9.376 25.757 13.486 26.138 C 13.832 26.17 14.263 26.21 14.84 26.14 C 20.048 25.5 22.681 17.647 23.157 16.078 C 24.12 12.899 25.574 8.096 22.745 4.415 C 20.449 1.427 16.451 0.529 13.509 0.963 C 9.967 1.486 7.672 3.853 6.37 5.747 C 6.291 5.863 6.159 5.933 6.018 5.934 C 5.878 5.94 5.745 5.867 5.664 5.753 C 5.128 4.999 4.425 4.583 3.684 4.583 Z" fill="rgb(9,21,32)" fill-rule="nonzero"></path></g>
  <g transform="translate(101.194 140.985)"><path d="M 1.688 5.263 C 1.61 5.263 1.532 5.242 1.46 5.198 C 1.258 5.072 1.197 4.806 1.322 4.604 C 1.986 3.538 2.025 2.308 1.419 1.542 C 1.093 1.13 0.639 0.936 0.315 0.846 C 0.086 0.782 -0.048 0.545 0.016 0.315 C 0.08 0.086 0.318 -0.048 0.547 0.016 C 0.994 0.141 1.625 0.414 2.095 1.007 C 2.926 2.057 2.91 3.686 2.054 5.059 C 1.973 5.19 1.832 5.263 1.688 5.263 Z" fill="rgb(9,21,32)" fill-rule="nonzero"></path></g>
  <g transform="translate(103.312 131.139)"><path d="M 21.451 5.457 C 21.516 5.673 22.746 9.948 20.246 12.446 C 17.877 14.813 13.888 13.86 13.015 13.652 C 9.519 12.816 8.862 10.655 6.749 11 C 3.946 11.458 2.747 15.643 1.928 15.339 C 1.576 15.208 1.402 14.288 1.928 11.241 C 1.71 10.821 1.401 10.316 0.964 9.795 C 0.632 9.4 0.298 9.082 0 8.831 C 0.268 7.661 1.364 3.533 5.062 1.36 C 9.73 -1.385 16.741 0.047 21.451 5.457 Z" fill="rgb(9,21,32)" fill-rule="nonzero"></path></g>
  <g transform="translate(0 0)"><path d="M 660.219 388.276 L 903.245 0 L 938.568 0 L 695.542 388.276 L 660.219 388.276 Z M 567.059 388.276 L 810.085 0 L 872.866 0 L 629.841 388.276 L 567.059 388.276 Z M 417.194 388.276 L 660.219 0 L 769.58 0 L 526.556 388.276 L 417.194 388.276 Z M 269.354 388.276 L 512.379 0 L 621.741 0 L 378.71 388.276 L 269.354 388.276 Z M 0 388.276 L 243.025 0 L 473.9 0 L 230.874 388.276 L 0 388.276 Z" fill="rgb(249,249,255)" fill-rule="nonzero"></path></g>
</g>
</svg>