<svg xmlns="http://www.w3.org/2000/svg" viewBox="0 0 43.403 65.564" fill="none">
  <path d="M 44.038 -0.119 C 43.972 -0.667 43.474 -1.059 42.926 -0.993 C 42.378 -0.927 41.986 -0.429 42.052 0.119 L 43.045 0 L 44.038 -0.119 Z M 36.423 29.689 L 37.041 30.475 L 36.423 29.689 Z M 12.003 35.875 L 11.363 35.106 L 11.363 35.106 L 12.003 35.875 Z M 7.864 65.564 L 7.108 66.219 C 7.318 66.461 7.631 66.588 7.95 66.56 C 8.269 66.533 8.555 66.354 8.721 66.08 L 7.864 65.564 Z M 0.756 55.837 C 0.394 55.42 -0.238 55.375 -0.655 55.737 C -1.072 56.098 -1.117 56.73 -0.756 57.147 L 0 56.492 L 0.756 55.837 Z M 14.929 55.771 C 15.214 55.298 15.061 54.684 14.588 54.399 C 14.115 54.114 13.501 54.266 13.216 54.739 L 14.072 55.255 L 14.929 55.771 Z M 43.045 0 C 42.052 0.119 42.052 0.119 42.052 0.119 C 42.052 0.119 42.052 0.119 42.052 0.119 C 42.052 0.12 42.052 0.12 42.052 0.121 C 42.053 0.123 42.053 0.127 42.054 0.132 C 42.055 0.141 42.056 0.156 42.059 0.176 C 42.063 0.216 42.07 0.277 42.078 0.357 C 42.095 0.518 42.119 0.756 42.146 1.063 C 42.2 1.678 42.267 2.567 42.32 3.658 C 42.424 5.842 42.468 8.824 42.226 12.025 C 41.983 15.232 41.456 18.624 40.435 21.643 C 39.412 24.67 37.92 27.239 35.804 28.903 L 36.423 29.689 L 37.041 30.475 C 39.577 28.481 41.239 25.51 42.33 22.284 C 43.423 19.05 43.97 15.477 44.22 12.176 C 44.47 8.87 44.425 5.801 44.317 3.562 C 44.264 2.441 44.194 1.525 44.138 0.888 C 44.11 0.569 44.085 0.32 44.067 0.149 C 44.058 0.063 44.051 -0.002 44.046 -0.047 C 44.044 -0.07 44.042 -0.087 44.04 -0.099 C 44.039 -0.105 44.039 -0.11 44.039 -0.113 C 44.038 -0.115 44.038 -0.116 44.038 -0.117 C 44.038 -0.118 44.038 -0.118 44.038 -0.118 C 44.038 -0.119 44.038 -0.119 43.045 0 Z M 36.423 29.689 L 35.804 28.903 C 32.163 31.768 27.982 31.995 23.642 32.101 C 19.426 32.205 14.887 32.173 11.363 35.106 L 12.003 35.875 L 12.643 36.643 C 15.527 34.242 19.265 34.21 23.691 34.101 C 27.994 33.995 32.819 33.796 37.041 30.475 L 36.423 29.689 Z M 12.003 35.875 L 11.363 35.106 C 8.807 37.234 7.296 40.281 6.438 43.549 C 5.579 46.819 5.353 50.388 5.422 53.664 C 5.491 56.946 5.858 59.973 6.206 62.178 C 6.38 63.281 6.551 64.181 6.678 64.807 C 6.741 65.12 6.794 65.365 6.831 65.533 C 6.85 65.617 6.865 65.681 6.875 65.726 C 6.88 65.748 6.884 65.765 6.887 65.777 C 6.888 65.783 6.889 65.787 6.89 65.79 C 6.89 65.792 6.891 65.793 6.891 65.794 C 6.891 65.795 6.891 65.795 6.891 65.796 C 6.891 65.796 6.891 65.796 7.864 65.564 C 8.837 65.332 8.837 65.332 8.837 65.332 C 8.837 65.332 8.837 65.332 8.837 65.332 C 8.837 65.331 8.836 65.331 8.836 65.33 C 8.836 65.328 8.835 65.324 8.834 65.32 C 8.832 65.31 8.828 65.296 8.824 65.276 C 8.815 65.237 8.801 65.178 8.784 65.1 C 8.749 64.943 8.699 64.71 8.638 64.409 C 8.516 63.808 8.351 62.936 8.181 61.865 C 7.842 59.721 7.488 56.788 7.421 53.622 C 7.354 50.45 7.577 47.084 8.372 44.057 C 9.168 41.027 10.516 38.413 12.643 36.643 L 12.003 35.875 Z M 7.864 65.564 L 8.62 64.909 L 0.756 55.837 L 0 56.492 L -0.756 57.147 L 7.108 66.219 L 7.864 65.564 Z M 7.864 65.564 L 8.721 66.08 L 14.929 55.771 L 14.072 55.255 L 13.216 54.739 L 7.007 65.048 L 7.864 65.564 Z" fill="#091520" fill-rule="nonzero"></path>
</svg>