<svg xmlns="http://www.w3.org/2000/svg" viewBox="0 0 412.778 323.043">
  <g transform="translate(30.92 136.328)" fill="#1e90ff"><path d="M 256.14 98.75 L 179.374 98.75 L 154.647 168.514 C 118.89 160.215 85.21 151.674 52.799 148.76 C 49.472 148.443 45.673 147.943 43.778 145.183 C 42.066 142.692 42.643 139.258 44.009 136.565 C 45.384 133.882 47.452 131.593 48.799 128.91 C 52.068 122.428 48.789 117.744 42.365 116.052 C 28.237 112.358 14.128 108.656 0 104.943 C 2.914 88.902 13.022 72.841 21.226 58.751 C 35.315 34.535 48.722 21.292 68.947 9.116 C 76.776 4.375 85.373 0.229 94.539 0.008 C 106.916 -0.271 118.265 6.567 130.383 9.01 C 147.502 12.472 165.14 7.048 182.567 7.952 C 194.281 8.539 204.927 19.753 212.64 27.456 C 222.123 36.958 231.519 46.604 239.28 57.568 C 247.407 69.051 254.639 83.891 256.14 98.75 Z" fill-rule="nonzero"></path></g>
  <g transform="translate(177.123 231.654)" fill="#d8ecff"><path d="M 210.996 7.126 L 172.863 120.14 L 0 120.14 L 41.297 3.607 C 42.076 1.433 44.115 0 46.404 0 L 205.889 0 C 209.572 0 212.198 3.635 210.996 7.126 Z M 118.909 58.599 L 107.695 56.781 L 105.657 46.356 L 97.212 56.617 L 84.979 58.118 L 90.98 66.273 L 85.46 77.593 L 97.597 72.38 L 106.426 77.901 L 107.955 66.514 L 118.909 58.599 Z" fill-rule="evenodd"></path></g>
  <g transform="translate(185.998 89.994)" fill="#1e90ff"><path d="M 0.06 1.929 C -0.364 3.554 1.512 5.439 4.243 6.141 C 6.974 6.843 9.533 6.103 9.946 4.477 C 10.36 2.852 8.494 0.967 5.763 0.265 C 3.031 -0.437 0.473 0.303 0.06 1.929 Z" fill-rule="nonzero"></path></g>
  <g transform="translate(223.321 102.4)" fill="#1e90ff"><path d="M 0.177 1.343 C -0.535 2.862 0.965 5.055 3.524 6.248 C 6.082 7.431 8.727 7.161 9.438 5.642 C 10.14 4.122 8.64 1.93 6.082 0.737 C 3.524 -0.446 0.879 -0.177 0.177 1.343 Z" fill-rule="nonzero"></path></g>
  <g transform="translate(0.038 2.289)" fill="#d8ecff"><path d="M 0 0 C 2.174 0.885 60.128 59.118 60.128 59.118 L 64.09 33.776 L 84.998 26.756 L 0 0 Z" fill-rule="nonzero"></path></g>
  <g transform="translate(209.776 83.816)" fill="#091520"><path d="M 4.691 13.859 L 8.731 1.039 C 8.865 0.615 8.625 0.163 8.202 0.038 C 7.779 -0.096 7.327 0.135 7.192 0.558 L 2.912 14.128 C 2.778 14.561 3.018 15.003 3.441 15.138 C 4.913 15.609 6.413 16.205 7.452 17.455 C 8.471 18.686 8.923 20.321 8.606 21.726 C 8.279 23.216 7.067 24.486 5.595 24.89 C 4.134 25.303 2.441 24.822 1.393 23.707 C 1.085 23.389 0.575 23.37 0.258 23.678 C -0.069 23.976 -0.088 24.486 0.219 24.813 C 1.652 26.332 3.97 27.005 6.028 26.438 C 8.057 25.88 9.731 24.13 10.183 22.072 C 10.596 20.168 10.039 18.061 8.683 16.426 C 7.577 15.09 6.144 14.378 4.691 13.859 Z" fill-rule="nonzero"></path></g>
  <g transform="translate(226.959 85.719)" fill="#091520"><path d="M 3.358 0.068 C 2.194 -0.298 0.8 0.856 0.232 2.645 C -0.326 4.434 0.155 6.184 1.309 6.55 C 2.473 6.915 3.868 5.761 4.425 3.963 C 4.993 2.174 4.512 0.433 3.358 0.068 Z" fill-rule="nonzero"></path></g>
  <g transform="translate(197.014 77.073)" fill="#091520"><path d="M 3.354 0.068 C 2.2 -0.298 0.806 0.856 0.238 2.645 C -0.329 4.434 0.152 6.184 1.315 6.55 C 2.469 6.915 3.864 5.761 4.431 3.972 C 4.999 2.174 4.518 0.433 3.354 0.068 Z" fill-rule="nonzero"></path></g>
  <g transform="translate(229.596 79.902)" fill="#091520"><path d="M 1.019 0.028 C 0.596 -0.087 0.153 0.163 0.028 0.596 C -0.087 1.019 0.163 1.461 0.586 1.577 C 2.25 2.048 3.817 2.769 5.241 3.74 C 5.375 3.827 5.539 3.875 5.693 3.875 C 6.472 3.875 6.799 2.856 6.145 2.404 C 4.577 1.336 2.856 0.538 1.019 0.028 Z" fill-rule="nonzero"></path></g>
  <g transform="translate(195.404 72.129)" fill="#091520"><path d="M 7.388 1.502 C 5.301 0.675 3.099 0.175 0.858 0.002 C 0.406 -0.027 0.031 0.309 0.002 0.752 C -0.027 1.194 0.3 1.579 0.742 1.608 C 2.82 1.762 4.859 2.233 6.792 3.002 C 6.888 3.041 6.987 3.06 7.09 3.06 C 7.965 3.06 8.205 1.829 7.388 1.502 Z" fill-rule="nonzero"></path></g>
  <g transform="translate(164.446 12.041)" fill="#091520"><path d="M 0.809 11.349 C 1.175 11.349 1.502 11.098 1.588 10.723 C 2.502 6.771 5.214 3.328 8.849 1.529 C 9.253 1.327 9.417 0.846 9.215 0.452 C 9.022 0.048 8.542 -0.115 8.138 0.087 C 4.069 2.097 1.04 5.944 0.021 10.368 C -0.095 10.868 0.29 11.349 0.809 11.349 Z" fill-rule="nonzero"></path></g>
  <g transform="translate(164.052 24.36)" fill="#091520"><path d="M 0.78 4.674 C 0.786 4.674 0.796 4.674 0.809 4.674 C 1.232 4.674 1.597 4.328 1.607 3.895 L 1.722 0.837 C 1.741 0.394 1.395 0.019 0.943 0 C 0.491 0.029 0.126 0.337 0.116 0.779 L 0.001 3.837 C -0.018 4.28 0.328 4.655 0.78 4.674 Z" fill-rule="nonzero"></path></g>
  <g transform="translate(231.589 60.787)" fill="#091520"><path d="M 0.911 4.159 C 0.469 4.101 0.065 4.409 0.007 4.851 C -0.051 5.294 0.257 5.698 0.699 5.755 C 7.143 6.602 13.962 5.063 19.424 1.476 C 19.79 1.235 19.896 0.735 19.655 0.36 C 19.405 -0.006 18.905 -0.111 18.54 0.129 C 13.414 3.495 6.989 4.967 0.911 4.159 Z" fill-rule="nonzero"></path></g>
  <g transform="translate(224.263 63.557)" fill="#091520"><path d="M 4.823 1.187 L 1.034 0.033 C 0.611 -0.092 0.159 0.148 0.034 0.572 C -0.091 0.995 0.14 1.447 0.572 1.572 L 4.352 2.726 C 4.785 2.861 5.227 2.62 5.352 2.197 C 5.487 1.774 5.246 1.322 4.823 1.187 Z" fill-rule="nonzero"></path></g>
  <g transform="translate(148.052 46.635)" fill="#091520"><path d="M 4.951 25.419 C 10.096 28.602 17.108 25.794 20.599 19.139 C 24.08 12.484 22.734 4.501 17.588 1.318 C 12.433 -1.875 5.432 0.933 1.941 7.588 C -1.55 14.244 -0.204 22.226 4.951 25.419 Z" fill-rule="nonzero"></path></g>
  <g transform="translate(86.255 138.653)" fill="#091520"><path d="M 28.057 0.039 C 18.237 3.377 8.918 8.089 0.34 14.052 C -0.016 14.302 -0.112 14.802 0.147 15.167 C 0.397 15.533 0.888 15.629 1.263 15.369 C 9.716 9.493 18.901 4.848 28.567 1.568 C 28.99 1.424 29.22 0.963 29.076 0.549 C 28.932 0.126 28.48 -0.095 28.057 0.039 Z" fill-rule="nonzero"></path></g>
  <g transform="translate(71.556 157.765)" fill="#091520"><path d="M 8.095 0.181 C 5.364 2.422 2.719 4.797 0.238 7.269 C -0.272 7.769 0.094 8.644 0.805 8.644 C 1.661 8.644 1.854 7.375 9.115 1.431 C 9.461 1.142 9.509 0.642 9.23 0.296 C 8.942 -0.05 8.441 -0.098 8.095 0.181 Z" fill-rule="nonzero"></path></g>
  <g transform="translate(76.524 56.449)" fill="#091520"><path d="M 1.3 0.168 C 0.944 -0.101 0.444 -0.043 0.165 0.313 C -0.104 0.659 -0.036 1.169 0.31 1.438 C 8.369 7.708 16.88 13.546 25.613 18.807 C 25.748 18.884 25.892 18.922 26.027 18.922 C 26.844 18.922 27.142 17.855 26.44 17.432 C 17.765 12.2 9.302 6.4 1.3 0.168 Z" fill-rule="nonzero"></path></g>
  <g transform="translate(101.253 57.157)" fill="#091520"><path d="M 0.432 1.519 C 5.135 4 9.809 6.693 14.319 9.52 C 14.454 9.607 14.608 9.645 14.752 9.645 C 15.55 9.645 15.858 8.587 15.175 8.155 C 10.636 5.308 5.923 2.596 1.182 0.095 C 0.788 -0.116 0.307 0.037 0.095 0.432 C -0.116 0.826 0.037 1.307 0.432 1.519 Z" fill-rule="nonzero"></path></g>
  <g transform="translate(7.653 -0.002)" fill="#091520"><path d="M 0.05 0.531 C 0.195 0.117 0.656 -0.094 1.07 0.04 L 86.078 26.796 C 86.818 27.027 86.828 28.085 86.087 28.325 L 65.641 35.192 L 61.755 60.053 C 61.65 60.707 60.851 60.966 60.39 60.495 C 37.452 37.452 2.58 2.733 0.483 1.531 C 0.079 1.377 -0.094 0.935 0.05 0.531 Z M 64.035 35.038 L 8.042 6.321 C 21.651 19.362 51.195 48.983 60.409 58.235 L 64.035 35.038 Z M 83.231 27.594 L 5.08 3.003 L 64.987 33.72 L 83.231 27.594 Z" fill-rule="evenodd"></path></g>
  <g transform="translate(4.321 4.912)" fill="#091520"><path d="M 402.609 299.987 C 397.233 316.721 389.607 328.003 379.287 334.466 C 367.747 341.707 351.897 343.381 342.982 332.869 L 337.365 349.497 L 350.243 349.497 C 350.685 349.497 351.051 349.863 351.051 350.305 C 351.051 350.748 350.685 351.113 350.243 351.113 C 295.501 351.113 77.292 351.113 22.675 351.113 C 22.223 351.113 21.867 350.748 21.867 350.305 C 21.867 349.863 22.223 349.497 22.675 349.497 L 64.011 349.497 C 63.741 349.065 63.664 348.507 63.876 347.978 L 69.829 333.561 C 70.089 332.917 70.723 332.504 71.416 332.513 L 75.426 332.571 C 24.012 325.512 21.819 325.569 15.222 322.982 C 9.317 320.665 4.748 316.885 2.363 312.326 C -0.705 306.517 0.132 300.43 0.036 294.419 C -0.06 288.514 1.199 282.493 2.604 276.328 C 5.47 263.807 9.884 251.727 15.693 240.417 C 15.424 240.359 4.642 238.109 4.402 238.061 C 3.873 237.955 3.594 237.359 3.863 236.878 C 23.358 202.332 43.025 167.008 74.811 143.407 C 70.358 135.145 69.146 121.248 74.465 113.016 C 77.206 108.775 81.235 105.437 85.832 103.341 C 81.889 99.446 81.755 93.368 83.39 89.001 C 84.919 84.923 88.044 81.153 92.959 77.451 C 106.558 67.218 122.455 63.457 137.891 66.775 C 133.9 56.427 136.737 44.838 144.633 38.077 C 145.095 35.5 146.056 33.345 147.509 31.701 C 149.422 29.527 152.769 28.133 155.77 28.806 C 152.933 22.622 153.693 14.803 157.867 9.389 C 162.521 3.359 171.167 0.685 178.428 3.041 C 182.785 4.436 186.565 7.638 188.921 11.841 C 189.908 11.488 190.899 11.168 191.893 10.879 C 193.614 7.263 196.173 4.359 199.346 2.474 C 204.674 -0.71 213.465 -1.181 218.062 3.205 C 220.947 5.965 221.13 9.235 222.399 12.562 C 225.044 13.716 226.919 14.794 229.535 16.371 C 231.314 15.957 230.795 16.063 250.751 8.552 C 253.29 7.59 256.223 6.667 258.772 7.936 C 264.966 10.975 265.85 27.133 254.165 35.298 C 258.003 34.769 261.917 34.702 265.725 35.086 C 276.054 36.106 278.391 42.886 275.189 49.137 C 273.535 52.369 270.544 54.725 268.13 56.427 C 259.753 62.265 249.866 65.91 241.211 67.045 C 248.414 78.297 243.894 93.175 232.122 98.782 C 232.093 98.792 232.074 98.792 232.045 98.801 C 231.555 100.494 231.045 102.081 230.526 103.485 C 227.131 112.833 220.052 122.412 210.502 127.384 C 210.551 127.451 210.589 127.528 210.608 127.605 C 211.031 129.317 211.176 131.087 211.204 132.808 C 211.243 132.818 211.281 132.808 211.32 132.828 C 217.927 135.53 224.255 139.002 230.093 143.186 C 239.278 149.754 247.818 157.689 255.406 165.988 C 263.167 172.182 275.4 173.548 282.787 173.75 C 294.126 174.067 305.493 171.711 317.092 172.211 C 329.95 172.769 343.722 177.885 348.82 189.82 C 370.074 191.503 390.828 206.506 400.821 228.059 C 410.294 248.525 410.938 274.068 402.609 299.987 Z M 399.359 228.742 C 389.732 207.959 369.882 193.417 349.454 191.484 C 350.858 195.677 350.887 200.082 349.454 203.89 C 347.233 209.757 341.424 213.719 335.663 213.315 C 329.691 212.892 324.238 207.093 325.18 200.967 C 326.296 193.696 334.711 190.07 342.559 189.705 C 344.04 189.637 345.521 189.637 347.011 189.705 C 341.866 178.914 329.017 174.336 317.015 173.817 C 305.695 173.317 294.154 175.683 282.739 175.356 C 275.381 175.154 266.485 174 259.33 170.412 C 273.689 187.05 284.864 205.679 290.846 226.741 L 289.192 226.741 C 279.565 193.436 254.175 162.42 229.16 144.493 C 223.563 140.493 217.533 137.146 211.195 134.54 C 211.118 136.905 210.781 140.935 210.32 144.167 C 210.127 145.523 210.175 147.398 209.521 148.764 C 208.55 150.62 206.973 151.081 204.953 151.553 C 199.664 152.649 194.009 153.793 185.315 153.793 C 179.159 153.793 172.812 153.12 166.224 151.63 C 166.186 151.658 166.147 151.697 166.099 151.726 C 165.984 151.774 165.868 151.803 165.753 151.803 C 165.455 151.803 165.166 151.63 165.022 151.341 C 151.144 147.927 141.729 142.349 129.63 134.03 C 127.822 132.799 126.11 131.577 124.542 130.423 C 123.119 129.356 122.927 128.731 122.638 126.788 C 122.426 125.345 122.205 124.807 121.83 121.835 C 121.734 121.979 121.59 122.104 121.397 122.162 C 109.347 125.653 97.662 130.76 86.688 137.357 C 49.027 160.016 27.359 198.514 5.806 236.715 C 5.479 236.647 16.847 239.013 17.914 239.234 C 19.848 239.1 18.434 238.936 22.213 239.84 C 23.31 239.898 26.003 240.677 27.013 241.129 C 31.513 242.139 34.562 243.504 50.642 246.063 C 52.143 246.38 76.965 251.554 83.553 252.929 C 86.525 244.947 89.227 237.051 92.343 229.934 L 104.519 202.207 C 104.702 201.794 105.173 201.611 105.577 201.794 C 105.981 201.967 106.173 202.448 105.99 202.852 C 93.469 232.127 94.69 227.116 87.246 247.534 C 86.823 248.688 84.996 253.737 84.774 254.199 C 84.678 254.401 84.582 254.468 84.457 254.545 C 84.284 254.641 84.226 254.632 84.063 254.661 C 84.64 254.805 75.571 252.91 75.407 252.872 C 74.878 254.16 76.302 250.977 69.877 264.432 C 69.531 265.172 63.587 276.107 62.356 279.214 C 67.569 280.147 163.791 297.612 180.16 300.584 L 203.934 233.493 C 204.809 231.021 207.165 229.357 209.791 229.357 L 226.054 229.357 C 225.948 229.049 226.381 231.877 220.043 184.646 C 219.976 184.204 220.293 183.8 220.726 183.742 C 221.168 183.665 221.572 183.992 221.63 184.434 C 227.939 231.81 227.679 229.001 227.564 229.357 L 369.276 229.357 C 373.527 229.357 376.518 233.531 375.162 237.551 L 343.588 331.09 C 351.705 341.659 367.189 340.149 378.431 333.109 C 388.414 326.849 395.829 315.856 401.08 299.497 C 409.274 273.963 408.668 248.832 399.359 228.742 Z M 209.069 128.105 C 200.577 132.01 191.018 131.818 182.67 127.25 C 169.225 124.105 156.578 118.19 147.97 111.006 C 147.797 110.871 146.383 109.736 144.143 107.62 C 143.816 107.313 143.796 106.803 144.104 106.486 C 144.412 106.159 144.922 106.139 145.239 106.447 C 146.239 107.38 147.105 108.169 147.922 108.871 C 149.519 106.322 150.923 104.302 152.394 101.821 C 153.125 100.581 153.904 99.369 154.683 98.167 C 154.202 97.993 154 98.032 151.413 96.926 C 145.97 94.579 137.103 90.463 131.294 91.886 C 124.725 93.521 123.311 101.792 122.965 108.544 C 122.475 119.286 124.148 125.98 124.235 126.557 C 124.494 128.356 124.61 128.461 125.504 129.135 C 130.072 132.51 135.044 135.761 139.863 138.79 C 139.209 130.808 139.401 122.749 140.469 114.814 C 140.526 114.372 140.921 114.035 141.373 114.122 C 141.815 114.18 142.123 114.583 142.065 115.026 C 140.978 123.066 140.796 131.231 141.507 139.31 C 141.517 139.464 141.479 139.608 141.411 139.733 C 148.97 144.378 156.318 147.388 164.252 149.475 C 161.598 142.762 161.194 135.117 163.223 128.192 C 163.348 127.769 163.791 127.519 164.224 127.644 C 164.647 127.769 164.897 128.221 164.772 128.644 C 162.723 135.607 163.262 143.339 166.195 149.975 C 172.427 151.428 178.15 152.062 183.968 152.159 C 180.929 145.196 180.371 137.117 182.516 129.837 C 182.641 129.404 183.083 129.163 183.506 129.288 C 183.939 129.413 184.18 129.856 184.055 130.289 C 181.958 137.444 182.564 145.407 185.718 152.178 C 189.402 152.159 193.124 151.908 196.827 151.408 C 201.462 150.754 203.347 150.245 204.588 149.985 C 206.136 149.62 207.406 149.331 208.079 148.042 C 208.56 147.032 208.531 145.292 208.723 143.936 C 209.031 141.791 209.271 139.492 209.473 136.694 C 209.666 133.905 209.743 130.943 209.069 128.105 Z M 233.651 67.631 C 233.642 67.583 233.661 67.545 233.661 67.506 C 214.522 67.429 197.538 58.62 180.842 50.407 C 184.641 63.65 177.736 77.941 164.695 81.442 C 168.013 90.28 173.456 98.263 180.439 104.591 C 182.545 103.1 187.065 103.687 191.431 106.207 C 196.509 109.14 199.442 113.554 197.981 116.084 C 196.528 118.604 191.229 118.267 186.161 115.343 C 181.343 112.564 178.457 108.438 179.429 105.87 C 172.158 99.301 166.503 91.002 163.089 81.807 C 153.298 83.635 143.835 78.47 139.122 69.488 C 138.43 74.796 140.844 80.105 144.498 84.106 C 148.336 88.29 153.664 90.742 158.29 94.05 C 158.636 94.3 158.732 94.772 158.511 95.128 C 158.011 95.926 157.261 97.109 156.434 98.397 C 156.385 98.888 156.155 99.282 155.962 99.551 C 154.837 101.235 150.105 108.226 149.422 110.092 C 156.905 116.18 167.215 121.277 178.409 124.48 C 174.985 121.854 171.821 118.45 168.965 114.266 C 168.715 113.901 168.801 113.401 169.167 113.15 C 169.542 112.9 170.042 112.997 170.292 113.362 C 175.514 120.998 184.593 129.971 198.183 129.211 C 213.176 128.404 224.467 115.439 229.016 102.937 C 232.113 94.425 235.19 80.057 233.651 67.631 Z M 239.431 67.256 C 238.874 67.314 236.046 67.478 235.565 67.497 C 236.585 75.787 235.652 86.424 233.036 96.474 C 243.115 90.502 246.25 77.066 239.431 67.256 Z M 230.237 18.496 C 224.409 18.987 218.619 19.67 213.032 20.516 C 207.733 21.324 201.52 21.603 196.74 23.824 C 188.306 27.719 180.525 32.499 175.293 40.308 C 175.332 40.357 175.774 40.876 176.168 41.366 C 176.563 41.847 177.342 42.79 178.294 44.415 C 178.813 45.3 179.688 47.031 180.15 48.252 C 197.74 57.004 215.33 66.121 234.642 65.9 C 246.5 65.795 258.368 61.284 267.206 55.1 C 269.611 53.417 272.275 51.301 273.756 48.406 C 276.593 42.876 274.304 37.558 265.562 36.683 C 259.753 36.096 253.694 36.615 248.058 38.193 C 248.052 38.193 248.049 38.193 248.049 38.193 C 247.626 38.318 247.183 38.068 247.058 37.635 C 246.933 37.212 247.183 36.769 247.616 36.644 C 257.301 33.932 263.494 23.603 261.148 14.101 C 260.734 12.428 259.859 10.254 258.06 9.379 C 256.089 8.398 253.646 9.177 251.319 10.062 C 231.574 17.486 232.324 17.265 230.978 17.66 C 230.997 18.102 230.67 18.467 230.237 18.496 Z M 222.063 14.159 C 201.501 4.965 176.774 14.111 164.022 33.432 C 168.128 34.461 171.167 36.433 174.149 39.116 C 179.602 31.201 187.363 26.383 196.067 22.362 C 201.087 20.035 207.358 19.756 212.782 18.919 C 218.745 18.015 226.006 17.265 227.65 17.111 C 225.756 15.996 223.957 14.996 222.063 14.159 Z M 220.408 11.745 C 219.543 9.004 219.129 6.455 216.956 4.368 C 212.945 0.55 204.896 1.031 200.173 3.859 C 197.654 5.349 195.538 7.561 193.989 10.302 C 202.664 8.206 211.897 8.533 220.408 11.745 Z M 146.653 36.538 C 151.307 33.384 157.059 32.182 162.329 33.086 C 168.244 23.593 177.832 16.111 187.401 12.389 C 185.238 8.648 181.833 5.821 177.938 4.57 C 171.302 2.426 163.397 4.859 159.146 10.37 C 154.876 15.9 154.51 24.161 158.27 30.027 C 158.742 30.758 157.857 31.614 157.136 31.124 C 154.577 29.364 150.73 30.48 148.711 32.759 C 147.807 33.788 147.114 35.048 146.653 36.538 Z M 148.567 77.48 C 153.039 80.249 158.165 81.163 163.146 80.134 C 163.204 80.105 163.243 80.067 163.3 80.047 C 163.435 79.999 163.57 79.999 163.704 80.019 C 169.859 78.576 174.668 74.537 177.544 69.036 C 185.709 53.465 174.755 33.634 157.867 34.423 C 150.288 34.778 143.873 39.376 140.44 45.915 C 134.65 56.956 138.295 71.123 148.567 77.48 Z M 76.119 142.435 C 79.244 140.166 82.486 138.011 85.861 135.982 C 96.96 129.308 108.76 124.143 120.945 120.614 C 121.244 120.537 121.532 120.633 121.734 120.825 C 121.253 116.44 121.195 112.131 121.359 108.467 C 121.744 100.859 123.475 92.185 130.909 90.319 C 136.901 88.857 145.22 92.502 150.644 94.849 C 155.77 97.041 154.837 96.407 155.539 96.811 C 155.943 96.176 156.347 95.551 156.741 94.926 C 152.24 91.829 147.153 89.386 143.315 85.193 C 139.151 80.634 136.506 74.508 137.68 68.372 C 122.667 65.112 107.183 68.757 93.93 78.73 C 89.266 82.24 86.313 85.789 84.899 89.569 C 82.928 94.791 84.438 100.167 87.467 102.648 C 91.285 101.196 95.421 100.581 99.489 100.994 C 100.066 101.052 100.403 101.696 100.105 102.196 C 97.623 106.438 91.391 107.178 87.227 104.476 C 82.611 106.409 78.542 109.679 75.811 113.891 C 70.925 121.45 72.06 134.703 76.119 142.435 Z M 97.864 102.494 C 94.94 102.389 92.007 102.821 89.227 103.725 C 92.016 104.956 95.738 104.668 97.864 102.494 Z M 88.756 332.754 L 168.369 333.85 L 179.611 302.113 C 163.454 299.189 61.674 280.714 61.212 280.637 C 60.885 280.579 60.625 280.329 60.558 280.012 C 60.433 279.387 60.827 278.06 67.29 265.903 C 69.05 262.595 69.069 262.306 72.435 255.372 C 72.868 254.439 73.445 253.468 73.811 252.535 C 71.454 252.045 51.95 247.976 50.431 247.669 C 50.399 247.662 50.37 247.653 50.344 247.64 C 35.399 245.284 32.042 243.976 26.599 242.687 C 27.022 242.783 17.972 240.898 17.809 240.86 L 17.241 240.908 C 11.423 252.179 7.028 264.211 4.171 276.684 C 2.786 282.753 1.555 288.668 1.642 294.4 C 1.738 300.468 0.93 306.162 3.787 311.576 C 5.999 315.789 10.259 319.309 15.808 321.482 C 20.857 323.463 26.359 324.213 31.677 324.944 C 97.258 333.927 81.966 331.859 88.756 332.754 Z M 335.673 349.497 L 373.632 237.042 C 374.642 234.051 372.421 230.973 369.276 230.973 L 209.791 230.973 C 207.848 230.973 206.107 232.204 205.453 234.031 L 167.407 341.371 L 165.483 346.805 L 164.531 349.497 L 335.673 349.497 Z M 342.636 191.311 C 335.442 191.647 327.748 194.84 326.767 201.217 C 326.421 203.477 327.113 205.833 328.729 207.853 C 336.634 217.759 353.647 207.305 347.704 191.349 C 345.944 191.244 344.28 191.244 342.636 191.311 Z" fill-rule="evenodd"></path></g>
  <g transform="translate(204.344 115.087)" fill="#091520"><path d="M 6.69 0.043 C 6.267 -0.101 5.815 0.13 5.67 0.553 C 5.074 2.322 2.852 3.419 1.073 2.794 C 0.65 2.64 0.198 2.861 0.044 3.284 C -0.1 3.698 0.121 4.159 0.535 4.304 C 3.151 5.236 6.315 3.688 7.199 1.062 C 7.334 0.639 7.113 0.187 6.69 0.043 Z" fill-rule="nonzero"></path></g>
</svg>