<svg xmlns="http://www.w3.org/2000/svg" viewBox="0 0 32 32" fill="none">
  <g transform="translate(5.333 2.667)" fill="#1E90FF"><path d="M 0 2.667 C 0 1.367 0.957 0 2.5 0 L 18.833 0 C 20.376 0 21.333 1.367 21.333 2.667 L 21.333 24 C 21.333 25.3 20.376 26.667 18.833 26.667 L 2.5 26.667 C 0.957 26.667 0 25.3 0 24 L 0 2.667 Z M 9.333 20 C 8.98 20 8.641 20.14 8.391 20.391 C 8.14 20.641 8 20.98 8 21.333 C 8 21.687 8.14 22.026 8.391 22.276 C 8.641 22.526 8.98 22.667 9.333 22.667 L 12 22.667 C 12.354 22.667 12.693 22.526 12.943 22.276 C 13.193 22.026 13.333 21.687 13.333 21.333 C 13.333 20.98 13.193 20.641 12.943 20.391 C 12.693 20.14 12.354 20 12 20 L 9.333 20 Z" fill-rule="evenodd"></path></g>
</svg>