<svg xmlns="http://www.w3.org/2000/svg" viewBox="0 0 32 32" fill="none">
  <g transform="translate(2.653 2.665)" fill="#1E90FF"><path d="M 21.32 7.335 C 21.346 7.652 21.359 7.811 21.44 7.896 C 21.523 7.982 21.686 8.003 22.012 8.043 C 23.359 8.212 24.591 8.888 25.457 9.933 C 26.322 10.978 26.757 12.314 26.672 13.668 C 26.588 15.023 25.989 16.294 25 17.223 C 24.011 18.152 22.704 18.669 21.347 18.668 L 20.68 18.668 C 20.366 18.668 20.208 18.668 20.111 18.571 C 20.014 18.474 20.014 18.316 20.014 18.002 L 20.014 16.002 C 20.014 13.487 20.014 12.231 19.232 11.45 C 18.451 10.668 17.195 10.668 14.68 10.668 L 12.014 10.668 C 9.499 10.668 8.243 10.668 7.462 11.45 C 6.68 12.231 6.68 13.487 6.68 16.002 L 6.68 18.002 C 6.68 18.316 6.68 18.474 6.583 18.571 C 6.486 18.668 6.328 18.668 6.014 18.668 L 5.347 18.668 C 3.988 18.672 2.679 18.156 1.687 17.227 C 0.695 16.298 0.095 15.025 0.01 13.668 C -0.074 12.312 0.362 10.974 1.23 9.929 C 2.098 8.883 3.333 8.208 4.682 8.042 C 5.008 8.002 5.171 7.982 5.254 7.896 C 5.335 7.811 5.348 7.652 5.374 7.336 C 5.481 6.037 5.905 4.784 6.608 3.685 C 7.311 2.587 8.272 1.678 9.407 1.036 C 10.542 0.394 11.817 0.039 13.12 0.003 C 14.424 -0.033 15.716 0.25 16.886 0.827 C 18.123 1.438 19.182 2.358 19.958 3.498 C 20.735 4.638 21.205 5.96 21.32 7.335 Z" fill-rule="nonzero"></path></g>
  <g transform="translate(10.667 14.667)" fill="#1E90FF"><path d="M 0.781 0.781 C 0 1.563 0 2.819 0 5.333 L 0 8 C 0 10.515 0 11.771 0.781 12.552 C 1.563 13.333 2.819 13.333 5.333 13.333 C 7.848 13.333 9.104 13.333 9.885 12.552 C 10.667 11.771 10.667 10.515 10.667 8 L 10.667 5.333 C 10.667 2.819 10.667 1.563 9.885 0.781 C 9.104 0 7.848 0 5.333 0 C 2.819 0 1.563 0 0.781 0.781 Z M 4.667 5.333 C 4.313 5.333 3.974 5.474 3.724 5.724 C 3.474 5.974 3.333 6.313 3.333 6.667 C 3.333 7.02 3.474 7.359 3.724 7.609 C 3.974 7.86 4.313 8 4.667 8 L 6 8 C 6.354 8 6.693 7.86 6.943 7.609 C 7.193 7.359 7.333 7.02 7.333 6.667 C 7.333 6.313 7.193 5.974 6.943 5.724 C 6.693 5.474 6.354 5.333 6 5.333 L 4.667 5.333 Z" fill-rule="evenodd"></path></g>
</svg>