<svg xmlns="http://www.w3.org/2000/svg" viewBox="0 0 32 32" fill="none">
  <g transform="translate(3.2 0.355)" fill="#1E90FF"><path d="M 3.058 25.387 C 2.086 24.249 1.333 22.975 0.799 21.565 C 0.265 20.155 -0.001 18.656 0 17.067 C 0 13.511 1.244 10.489 3.733 8 C 6.222 5.511 9.244 4.267 12.8 4.267 L 13.084 4.267 L 10.809 1.991 L 12.8 0 L 18.489 5.689 L 12.8 11.378 L 10.773 9.351 L 13.013 7.111 L 12.8 7.111 C 10.05 7.111 7.704 8.083 5.76 10.027 C 3.816 11.97 2.844 14.317 2.844 17.067 C 2.844 18.276 3.04 19.413 3.43 20.48 C 3.821 21.547 4.372 22.507 5.084 23.36 L 3.058 25.387 Z M 11.378 24.889 C 11.378 24.344 11.194 23.805 10.827 23.272 C 10.46 22.739 10.051 22.182 9.6 21.601 C 9.149 21.019 8.74 20.415 8.374 19.787 C 8.008 19.16 7.824 18.49 7.822 17.778 C 7.822 16.403 8.308 15.23 9.28 14.258 C 10.252 13.286 11.425 12.8 12.8 12.8 C 14.175 12.8 15.348 13.286 16.32 14.258 C 17.292 15.23 17.778 16.403 17.778 17.778 C 17.778 18.489 17.594 19.159 17.227 19.787 C 16.86 20.416 16.451 21.02 16 21.599 C 15.549 22.179 15.14 22.736 14.774 23.27 C 14.408 23.805 14.224 24.345 14.222 24.889 L 11.378 24.889 Z M 11.378 28.444 L 11.378 26.311 L 14.222 26.311 L 14.222 28.444 L 11.378 28.444 Z M 22.542 25.387 L 20.516 23.36 C 21.227 22.507 21.778 21.547 22.17 20.48 C 22.561 19.413 22.757 18.276 22.756 17.067 C 22.756 15.502 22.43 14.051 21.778 12.712 C 21.127 11.373 20.232 10.253 19.093 9.351 L 21.12 7.324 C 22.495 8.51 23.585 9.938 24.391 11.61 C 25.197 13.281 25.6 15.1 25.6 17.067 C 25.6 18.655 25.334 20.154 24.801 21.565 C 24.268 22.976 23.515 24.25 22.542 25.387 Z" fill-rule="nonzero"></path></g>
</svg>