<svg xmlns="http://www.w3.org/2000/svg" viewBox="0 0 24 24" fill="none">
  <g transform="translate(2 2)" fill="#DF893D"><path d="M 10.713 14.713 C 10.904 14.521 11 14.283 11 14 L 11 10 C 11 9.717 10.904 9.479 10.712 9.288 C 10.52 9.097 10.283 9.001 10 9 C 9.717 8.999 9.48 9.095 9.288 9.288 C 9.096 9.481 9 9.718 9 10 L 9 14 C 9 14.283 9.096 14.521 9.288 14.713 C 9.48 14.905 9.717 15.001 10 15 C 10.283 14.999 10.52 14.904 10.713 14.713 Z M 10.713 6.712 C 10.904 6.521 11 6.283 11 6 C 11 5.717 10.904 5.479 10.712 5.288 C 10.52 5.097 10.283 5.001 10 5 C 9.717 4.999 9.48 5.095 9.288 5.288 C 9.096 5.481 9 5.718 9 6 C 9 6.282 9.096 6.52 9.288 6.713 C 9.48 6.906 9.717 7.002 10 7 C 10.283 6.998 10.52 6.902 10.713 6.712 Z M 10 20 C 8.617 20 7.317 19.737 6.1 19.212 C 4.883 18.687 3.825 17.974 2.925 17.075 C 2.025 16.176 1.313 15.117 0.788 13.9 C 0.263 12.683 0.001 11.383 0 10 C -0.001 8.617 0.262 7.317 0.788 6.1 C 1.314 4.883 2.026 3.824 2.925 2.925 C 3.824 2.026 4.882 1.313 6.1 0.788 C 7.318 0.263 8.618 0 10 0 C 11.382 0 12.682 0.263 13.9 0.788 C 15.118 1.313 16.176 2.026 17.075 2.925 C 17.974 3.824 18.686 4.883 19.213 6.1 C 19.74 7.317 20.002 8.617 20 10 C 19.998 11.383 19.735 12.683 19.212 13.9 C 18.689 15.117 17.976 16.176 17.075 17.075 C 16.174 17.974 15.115 18.687 13.9 19.213 C 12.685 19.739 11.385 20.001 10 20 Z" fill-rule="nonzero"></path></g>
</svg>