<svg xmlns="http://www.w3.org/2000/svg" viewBox="0 0 32 32" fill="none">
  <g transform="translate(1.6 4.8)" fill="#1E90FF"><path d="M 0 3.2 C 0 1.435 1.435 0 3.2 0 L 25.6 0 C 27.365 0 28.8 1.435 28.8 3.2 L 0 3.2 Z M 0 5.6 L 28.8 5.6 L 28.8 19.2 C 28.8 20.965 27.365 22.4 25.6 22.4 L 3.2 22.4 C 1.435 22.4 0 20.965 0 19.2 L 0 5.6 Z M 12.365 19.2 C 13.375 19.2 14.13 18.23 13.485 17.45 C 12.75 16.565 11.64 16 10.4 16 L 7.2 16 C 5.96 16 4.85 16.565 4.115 17.45 C 3.47 18.23 4.225 19.2 5.235 19.2 L 12.36 19.2 L 12.365 19.2 Z M 8.8 14 C 10.345 14 11.6 12.745 11.6 11.2 C 11.6 9.655 10.345 8.4 8.8 8.4 C 7.255 8.4 6 9.655 6 11.2 C 6 12.745 7.255 14 8.8 14 Z M 18 8.8 C 17.335 8.8 16.8 9.335 16.8 10 C 16.8 10.665 17.335 11.2 18 11.2 L 23.6 11.2 C 24.265 11.2 24.8 10.665 24.8 10 C 24.8 9.335 24.265 8.8 23.6 8.8 L 18 8.8 Z M 18 13.6 C 17.335 13.6 16.8 14.135 16.8 14.8 C 16.8 15.465 17.335 16 18 16 L 23.6 16 C 24.265 16 24.8 15.465 24.8 14.8 C 24.8 14.135 24.265 13.6 23.6 13.6 L 18 13.6 Z" fill-rule="nonzero"></path></g>
</svg>