<svg xmlns="http://www.w3.org/2000/svg" viewBox="0 0 24 24" fill="none">
  <path d="M 9 18 C 10.182 18 11.352 17.767 12.444 17.315 C 13.536 16.863 14.528 16.2 15.364 15.364 C 16.2 14.528 16.863 13.536 17.315 12.444 C 17.767 11.352 18 10.182 18 9 C 18 7.818 17.767 6.648 17.315 5.556 C 16.863 4.464 16.2 3.472 15.364 2.636 C 14.528 1.8 13.536 1.137 12.444 0.685 C 11.352 0.233 10.182 0 9 0 C 6.613 0 4.324 0.948 2.636 2.636 C 0.948 4.324 0 6.613 0 9 C 0 11.387 0.948 13.676 2.636 15.364 C 4.324 17.052 6.613 18 9 18 Z M 8.768 12.64 L 13.768 6.64 L 12.232 5.36 L 7.932 10.519 L 5.707 8.293 L 4.293 9.707 L 7.293 12.707 L 8.067 13.481 L 8.768 12.64 Z" fill="#1E90FF" fill-rule="evenodd" transform="translate(3 3)"></path>
</svg>