<svg xmlns="http://www.w3.org/2000/svg" viewBox="0 0 22 22" fill="none">
  <g transform="translate(4.494 1.72)" fill="#FFFFFF"><path d="M 6.506 18.562 C 6.232 18.562 5.97 18.453 5.776 18.26 C 5.583 18.066 5.474 17.804 5.474 17.53 L 5.474 3.519 L 1.734 7.259 C 1.539 7.441 1.28 7.54 1.013 7.536 C 0.746 7.531 0.491 7.423 0.302 7.234 C 0.113 7.045 0.005 6.79 0 6.523 C -0.005 6.256 0.095 5.997 0.277 5.802 L 5.777 0.302 C 5.97 0.108 6.232 0 6.506 0 C 6.779 0 7.041 0.108 7.234 0.302 L 12.734 5.802 C 12.916 5.997 13.016 6.256 13.011 6.523 C 13.006 6.79 12.898 7.045 12.709 7.234 C 12.52 7.423 12.265 7.531 11.998 7.536 C 11.731 7.54 11.472 7.441 11.277 7.259 L 7.537 3.519 L 7.537 17.53 C 7.537 17.804 7.428 18.066 7.235 18.26 C 7.041 18.453 6.779 18.562 6.506 18.562 Z" fill-rule="evenodd"></path></g>
</svg>