<svg xmlns="http://www.w3.org/2000/svg" viewBox="0 0 32 32" fill="none">
  <g transform="translate(0.958 0.305)" fill="#1E90FF"><path d="M 11.983 0.05 C 12.349 0.017 12.716 0.001 13.083 0 C 13.472 0 13.847 0.021 14.185 0.05 C 14.774 0.098 15.322 0.374 15.711 0.821 C 21.527 1.893 26.315 6.781 26.557 12.756 L 29.296 16.243 C 29.752 16.823 30 17.54 30 18.278 C 30 19.575 29.233 20.791 27.975 21.285 C 27.487 21.477 26.886 21.702 26.281 21.898 L 25.669 25.985 C 25.555 26.759 25.138 27.456 24.511 27.924 C 23.884 28.392 23.097 28.592 22.323 28.481 L 20.889 28.276 L 20.889 30.003 C 20.889 30.356 20.749 30.695 20.499 30.945 C 20.249 31.196 19.91 31.336 19.556 31.336 C 19.202 31.336 18.863 31.196 18.613 30.945 C 18.363 30.695 18.223 30.356 18.223 30.003 L 18.223 26.738 C 18.223 26.547 18.264 26.358 18.343 26.184 C 18.422 26.011 18.538 25.856 18.682 25.731 C 18.827 25.605 18.996 25.513 19.18 25.459 C 19.363 25.405 19.556 25.391 19.745 25.418 L 22.701 25.842 C 22.74 25.847 22.778 25.845 22.816 25.835 C 22.853 25.825 22.888 25.808 22.919 25.785 C 22.949 25.762 22.975 25.733 22.995 25.7 C 23.014 25.666 23.027 25.63 23.032 25.591 L 23.769 20.666 C 23.807 20.409 23.92 20.168 24.093 19.975 C 24.266 19.781 24.493 19.642 24.744 19.575 C 25.456 19.385 26.309 19.075 27 18.803 C 27.185 18.73 27.333 18.536 27.333 18.278 C 27.334 18.137 27.287 18 27.2 17.889 L 24.185 14.053 C 24 13.818 23.9 13.528 23.899 13.229 C 23.899 8.86 20.668 4.99 16.343 3.71 C 16.354 4.327 16.361 5.051 16.361 5.889 C 16.361 6.511 16.357 7.521 16.351 8.183 C 17.248 8.782 17.964 9.615 18.42 10.593 C 18.876 11.57 19.055 12.654 18.938 13.726 C 18.82 14.798 18.41 15.818 17.753 16.673 C 17.096 17.528 16.217 18.187 15.211 18.577 C 16.865 20.014 18.965 20.889 20.917 20.889 C 21.092 20.889 21.266 20.924 21.428 20.991 C 21.589 21.058 21.736 21.156 21.86 21.28 C 21.984 21.404 22.082 21.551 22.149 21.712 C 22.216 21.874 22.251 22.048 22.251 22.223 C 22.251 22.398 22.216 22.571 22.149 22.733 C 22.082 22.895 21.984 23.042 21.86 23.165 C 21.736 23.289 21.589 23.388 21.428 23.455 C 21.266 23.522 21.092 23.556 20.917 23.556 C 17.591 23.556 14.231 21.766 12.059 19.159 C 11.98 19.064 11.915 18.959 11.865 18.846 C 10.731 18.605 9.693 18.036 8.882 17.208 C 8.07 16.381 7.521 15.332 7.302 14.194 C 7.084 13.056 7.206 11.879 7.653 10.81 C 8.1 9.74 8.853 8.827 9.817 8.183 C 9.81 7.418 9.806 6.654 9.806 5.889 C 9.807 5.111 9.812 4.43 9.822 3.844 C 5.657 5.28 2.667 9.231 2.667 13.875 C 2.667 17.904 4.905 21.699 8.131 23.493 C 8.339 23.609 8.512 23.778 8.633 23.983 C 8.753 24.188 8.817 24.421 8.817 24.659 L 8.817 30.002 C 8.817 30.356 8.676 30.695 8.426 30.945 C 8.176 31.195 7.837 31.335 7.483 31.335 C 7.13 31.335 6.791 31.195 6.541 30.945 C 6.29 30.695 6.15 30.356 6.15 30.002 L 6.15 25.413 C 2.425 23.004 0 18.547 0 13.875 C 0 7.542 4.439 2.249 10.374 0.92 C 10.567 0.671 10.81 0.465 11.087 0.316 C 11.364 0.166 11.669 0.075 11.983 0.05 Z" fill-rule="evenodd"></path></g>
</svg>