<svg xmlns="http://www.w3.org/2000/svg" viewBox="0 0 63 107">
  <g transform="translate(29.4 0.25)" fill="#e3c25e"><path d="M 6.75 2.65 C 9.5 5.2 10 9.15 10 9.15 C 10 9.15 6 9 3.25 6.5 C 0.5 3.95 0 0 0 0 C 0 0 4 0.15 6.75 2.65 Z" fill-rule="nonzero"></path></g>
  <g transform="translate(14.2 91.05)" fill="#e3c25e"><path d="M 2.5 4.8 C 0.1 7.85 0 11.45 0 11.5 C 0 11.5 5 10.1 7.25 6.75 C 9.5 3.45 8.4 0 8.45 0 C 8.4 0 4.9 1.8 2.5 4.8 Z" fill-rule="nonzero"></path></g>
  <g transform="translate(14.199 101.439)" fill="#e3c25e"><path d="M 6.001 5.011 C 1.601 4.261 -0.049 0.911 0.001 0.961 C 0.051 0.961 4.751 -0.389 8.801 0.111 C 12.901 0.611 15.301 3.111 15.301 3.161 C 15.351 3.161 10.451 5.761 6.001 5.011 Z" fill-rule="nonzero"></path></g>
  <g transform="translate(24.244 86.4)" fill="#e3c25e"><path d="M 1.156 5.65 C -0.494 9 0.106 12.5 0.106 12.5 C 0.106 12.55 4.506 10.35 6.006 6.7 C 7.506 3.15 5.806 0 5.806 0 C 5.806 0 2.756 2.3 1.156 5.65 Z" fill-rule="nonzero"></path></g>
  <g transform="translate(24.3 96.436)" fill="#e3c25e"><path d="M 6.45 5.214 C 2.2 5.264 0 2.314 0 2.314 C 0.05 2.364 4.2 0.264 8.1 0.014 C 12.1 -0.186 14.9 1.864 14.9 1.914 C 14.95 1.914 10.75 5.214 6.45 5.214 Z" fill-rule="nonzero"></path></g>
  <g transform="translate(32.544 80.6)" fill="#e3c25e"><path d="M 0.356 6.3 C -0.594 9.8 0.656 13.1 0.656 13.1 C 0.656 13.15 4.456 10.3 5.206 6.5 C 5.956 2.75 3.756 0 3.806 0 C 3.806 0.05 1.256 2.8 0.356 6.3 Z" fill-rule="nonzero"></path></g>
  <g transform="translate(33.15 89.669)" fill="#e3c25e"><path d="M 6.65 5.631 C 2.6 6.331 0 3.881 0 3.931 C 0.05 3.931 3.55 1.181 7.3 0.281 C 11.1 -0.619 14.15 0.931 14.15 0.931 C 14.2 0.931 10.8 4.881 6.65 5.631 Z" fill-rule="nonzero"></path></g>
  <g transform="translate(39.126 73.85)" fill="#e3c25e"><path d="M 0.024 6.75 C -0.226 10.3 1.574 13.3 1.574 13.3 C 1.574 13.35 4.674 9.9 4.774 6.1 C 4.824 2.35 2.224 0.05 2.224 0 C 2.224 0.05 0.274 3.2 0.024 6.75 Z" fill-rule="nonzero"></path></g>
  <g transform="translate(40.6 81.387)" fill="#e3c25e"><path d="M 6.8 6.163 C 2.95 7.563 0 5.613 0 5.663 C 0.05 5.663 2.95 2.413 6.45 0.863 C 9.95 -0.637 13.2 0.263 13.2 0.313 C 13.25 0.313 10.65 4.713 6.8 6.163 Z" fill-rule="nonzero"></path></g>
  <g transform="translate(44.044 66.45)" fill="#e3c25e"><path d="M 0.056 6.95 C 0.406 10.45 2.706 13.05 2.706 13 C 2.756 13.05 5.156 9.2 4.606 5.45 C 4.006 1.8 1.056 0 1.106 0 C 1.106 0 -0.294 3.4 0.056 6.95 Z" fill-rule="nonzero"></path></g>
  <g transform="translate(46.65 71.828)" fill="#e3c25e"><path d="M 6.7 6.872 C 3.25 8.922 0 7.522 0 7.572 C 0.05 7.572 2.3 3.872 5.45 1.772 C 8.6 -0.328 11.95 0.022 12 0.022 C 12.05 0.022 10.2 4.822 6.7 6.872 Z" fill-rule="nonzero"></path></g>
  <g transform="translate(47.27 58.45)" fill="#e3c25e"><path d="M 0.43 7 C 1.43 10.4 4.08 12.5 4.08 12.5 C 4.13 12.55 5.83 8.3 4.63 4.8 C 3.48 1.25 0.28 0.05 0.28 0 C 0.33 0.05 -0.47 3.65 0.43 7 Z" fill-rule="nonzero"></path></g>
  <g transform="translate(51.25 61.395)" fill="#e3c25e"><path d="M 6.4 7.605 C 3.35 10.255 0 9.455 0 9.505 C 0.05 9.455 1.6 5.505 4.35 2.905 C 7.1 0.255 10.45 -0.045 10.45 0.005 C 10.5 -0.045 9.5 5.005 6.4 7.605 Z" fill-rule="nonzero"></path></g>
  <g transform="translate(48.641 50.2)" fill="#e3c25e"><path d="M 1.309 6.85 C 2.809 10 5.759 11.6 5.809 11.6 C 5.809 11.6 6.809 7.2 5.059 3.9 C 3.309 0.65 -0.041 0 0.009 0 C 0.009 0.05 -0.191 3.7 1.309 6.85 Z" fill-rule="nonzero"></path></g>
  <g transform="translate(54.3 50.55)" fill="#e3c25e"><path d="M 6 8.2 C 3.45 11.35 0 11.2 0 11.2 C 0.05 11.2 0.9 7 3.15 3.95 C 5.4 0.85 8.65 0 8.65 0 C 8.7 -0.05 8.55 5.1 6 8.2 Z" fill-rule="nonzero"></path></g>
  <g transform="translate(48.25 41.8)" fill="#e3c25e"><path d="M 2.45 6.55 C 4.45 9.4 7.65 10.45 7.65 10.45 C 7.7 10.45 7.9 5.9 5.65 3 C 3.4 0.1 0 0.05 0 0 C 0.05 0.05 0.5 3.75 2.45 6.55 Z" fill-rule="nonzero"></path></g>
  <g transform="translate(55.8 39.599)" fill="#e3c25e"><path d="M 5.351 8.601 C 3.351 12.151 -0.049 12.601 0.001 12.601 C 0.001 12.601 0.151 8.301 1.851 4.901 C 3.551 1.401 6.501 -0.049 6.551 0.001 C 6.601 -0.049 7.351 5.051 5.351 8.601 Z" fill-rule="nonzero"></path></g>
  <g transform="translate(46.4 33.499)" fill="#e3c25e"><path d="M 3.6 6.151 C 6.05 8.601 9.3 9.051 9.35 9.051 C 9.35 9.051 8.8 4.501 6.05 2.001 C 3.35 -0.499 0 0.051 0 0.051 C 0.05 0.051 1.15 3.701 3.6 6.151 Z" fill-rule="nonzero"></path></g>
  <g transform="translate(55.467 28.8)" fill="#e3c25e"><path d="M 4.683 8.8 C 3.383 12.65 0.133 13.75 0.133 13.75 C 0.183 13.7 -0.417 9.45 0.583 5.7 C 1.633 1.95 4.283 0 4.333 0 C 4.333 -0.05 6.033 4.9 4.683 8.8 Z" fill-rule="nonzero"></path></g>
  <g transform="translate(43.05 25.278)" fill="#e3c25e"><path d="M 4.65 5.771 C 7.5 7.821 10.8 7.671 10.8 7.621 C 10.85 7.671 9.45 3.221 6.3 1.221 C 3.15 -0.829 0 0.321 0 0.321 C 0.05 0.321 1.85 3.771 4.65 5.771 Z" fill-rule="nonzero"></path></g>
  <g transform="translate(52.656 18.45)" fill="#e3c25e"><path d="M 4.644 8.75 C 4.044 12.85 1.044 14.5 1.094 14.5 C 1.094 14.45 -0.257 10.3 0.043 6.4 C 0.343 2.45 2.544 0 2.594 0 C 2.594 -0.05 5.194 4.65 4.644 8.75 Z" fill-rule="nonzero"></path></g>
  <g transform="translate(38.1 17.354)" fill="#e3c25e"><path d="M 5.7 5.496 C 8.95 7.046 12.1 6.296 12.1 6.296 C 12.15 6.296 9.95 2.096 6.4 0.596 C 2.85 -0.854 0 0.796 0 0.796 C 0.05 0.796 2.55 3.946 5.7 5.496 Z" fill-rule="nonzero"></path></g>
  <g transform="translate(47.356 8.85)" fill="#e3c25e"><path d="M 5.094 8.45 C 5.344 12.65 2.744 14.85 2.744 14.85 C 2.744 14.8 0.644 10.9 0.094 6.9 C -0.406 2.85 1.244 0 1.294 0 C 1.294 -0.05 4.894 4.2 5.094 8.45 Z" fill-rule="nonzero"></path></g>
  <g transform="translate(31.5 9.934)" fill="#e3c25e"><path d="M 6.75 5.316 C 10.3 6.316 13.25 5.016 13.25 5.016 C 13.35 5.016 10.25 1.166 6.35 0.216 C 2.5 -0.684 0 1.516 0 1.516 C 0.05 1.516 3.3 4.316 6.75 5.316 Z" fill-rule="nonzero"></path></g>
  <g transform="translate(39.539 0.2)" fill="#e3c25e"><path d="M 6.061 7.95 C 7.261 12.15 5.111 14.8 5.111 14.8 C 5.161 14.8 2.211 11.15 0.761 7.2 C -0.639 3.2 0.311 0 0.361 0 C 0.361 -0.05 4.961 3.7 6.061 7.95 Z" fill-rule="nonzero"></path></g>
  <g transform="translate(0.15 6.7)" fill="#e3c25e"><path d="M 0 96.95 L 0.05 96.15 C 6.45 96.75 12.85 96.05 19 94.05 C 25.05 92.1 30.6 89.05 35.6 84.95 C 45.9 76.5 52.6 64.35 54.35 50.85 C 55.8 39.8 55.05 29.95 52.15 21.6 C 49 12.6 43.45 5.55 35.6 0.65 L 36 0 C 44 5 49.7 12.15 52.85 21.35 C 55.8 29.8 56.55 39.8 55.1 50.95 C 53.3 64.65 46.55 76.95 36.1 85.55 C 31.05 89.7 25.35 92.8 19.25 94.8 C 12.95 96.8 6.5 97.5 0 96.95 Z" fill-rule="nonzero"></path></g>
  <g transform="translate(-37.05 0.25)" fill="#e3c25e"><path d="M 3.25 2.65 C 0.5 5.2 0 9.15 0 9.15 C 0 9.15 4 9 6.75 6.5 C 9.5 3.95 10 0 10 0 C 10 0 6 0.15 3.25 2.65 Z" fill-rule="nonzero"></path></g>
  <g transform="translate(-20.525 91.05)" fill="#e3c25e"><path d="M 6.175 4.8 C 8.575 7.85 8.725 11.45 8.675 11.5 C 8.675 11.5 3.675 10.1 1.425 6.75 C -0.825 3.45 0.275 0 0.225 0 C 0.275 0 3.775 1.8 6.175 4.8 Z" fill-rule="nonzero"></path></g>
  <g transform="translate(-27.15 101.439)" fill="#e3c25e"><path d="M 9.3 5.011 C 13.7 4.261 15.35 0.911 15.35 0.961 C 15.25 0.961 10.55 -0.389 6.5 0.111 C 2.4 0.611 0 3.111 0 3.161 C -0.05 3.161 4.85 5.761 9.3 5.011 Z" fill-rule="nonzero"></path></g>
  <g transform="translate(-28.519 86.4)" fill="#e3c25e"><path d="M 5.468 5.65 C 7.118 9 6.518 12.5 6.518 12.5 C 6.518 12.55 2.118 10.35 0.618 6.7 C -0.882 3.15 0.818 0 0.818 0 C 0.818 0 3.868 2.3 5.468 5.65 Z" fill-rule="nonzero"></path></g>
  <g transform="translate(-36.85 96.436)" fill="#e3c25e"><path d="M 8.45 5.214 C 12.7 5.264 14.9 2.314 14.9 2.314 C 14.85 2.364 10.7 0.264 6.8 0.014 C 2.8 -0.186 0 1.864 0 1.914 C -0.05 1.914 4.15 5.214 8.45 5.214 Z" fill-rule="nonzero"></path></g>
  <g transform="translate(-35.556 80.6)" fill="#e3c25e"><path d="M 5.006 6.3 C 5.956 9.8 4.706 13.1 4.706 13.1 C 4.706 13.15 0.906 10.3 0.156 6.5 C -0.594 2.75 1.606 0 1.556 0 C 1.606 0.05 4.106 2.8 5.006 6.3 Z" fill-rule="nonzero"></path></g>
  <g transform="translate(-44.95 89.669)" fill="#e3c25e"><path d="M 7.501 5.631 C 11.551 6.331 14.151 3.881 14.151 3.931 C 14.101 3.931 10.601 1.181 6.851 0.281 C 3.051 -0.619 0.001 0.931 0.001 0.931 C -0.049 0.931 3.351 4.881 7.501 5.631 Z" fill-rule="nonzero"></path></g>
  <g transform="translate(-41.551 73.85)" fill="#e3c25e"><path d="M 4.751 6.75 C 5.001 10.3 3.201 13.3 3.201 13.3 C 3.201 13.35 0.101 9.9 0.001 6.1 C -0.049 2.35 2.551 0.05 2.551 0 C 2.551 0.05 4.501 3.2 4.751 6.75 Z" fill-rule="nonzero"></path></g>
  <g transform="translate(-51.451 81.387)" fill="#e3c25e"><path d="M 6.401 6.163 C 10.251 7.563 13.201 5.613 13.201 5.663 C 13.151 5.663 10.251 2.413 6.751 0.863 C 3.251 -0.637 0.001 0.263 0.001 0.313 C -0.049 0.313 2.551 4.713 6.401 6.163 Z" fill-rule="nonzero"></path></g>
  <g transform="translate(-46.382 66.45)" fill="#e3c25e"><path d="M 4.632 6.95 C 4.282 10.45 1.982 13.05 1.982 13 C 1.932 13.05 -0.468 9.2 0.082 5.45 C 0.682 1.8 3.632 0 3.582 0 C 3.582 0 4.982 3.4 4.632 6.95 Z" fill-rule="nonzero"></path></g>
  <g transform="translate(-56.3 71.828)" fill="#e3c25e"><path d="M 5.3 6.872 C 8.75 8.922 12 7.522 12 7.572 C 11.95 7.572 9.7 3.872 6.55 1.772 C 3.4 -0.328 0.05 0.022 0 0.022 C 0 0.022 1.8 4.822 5.3 6.872 Z" fill-rule="nonzero"></path></g>
  <g transform="translate(-49.978 58.45)" fill="#e3c25e"><path d="M 4.628 7 C 3.628 10.4 0.978 12.5 0.978 12.5 C 0.928 12.55 -0.772 8.3 0.428 4.8 C 1.578 1.25 4.778 0.05 4.778 0 C 4.728 0.05 5.528 3.65 4.628 7 Z" fill-rule="nonzero"></path></g>
  <g transform="translate(-59.352 61.395)" fill="#e3c25e"><path d="M 4.052 7.605 C 7.102 10.255 10.452 9.455 10.452 9.505 C 10.402 9.455 8.852 5.505 6.102 2.905 C 3.352 0.255 0.002 -0.045 0.002 0.005 C -0.048 -0.045 0.952 5.005 4.052 7.605 Z" fill-rule="nonzero"></path></g>
  <g transform="translate(-52.385 50.2)" fill="#e3c25e"><path d="M 4.784 6.85 C 3.284 10 0.334 11.6 0.284 11.6 C 0.284 11.6 -0.716 7.2 1.034 3.9 C 2.784 0.65 6.134 0 6.084 0 C 6.084 0.05 6.284 3.7 4.784 6.85 Z" fill-rule="nonzero"></path></g>
  <g transform="translate(-60.607 50.55)" fill="#e3c25e"><path d="M 2.657 8.2 C 5.207 11.35 8.657 11.2 8.657 11.2 C 8.607 11.2 7.757 7 5.507 3.95 C 3.257 0.85 0.007 0 0.007 0 C -0.043 -0.05 0.107 5.1 2.657 8.2 Z" fill-rule="nonzero"></path></g>
  <g transform="translate(-53.577 41.8)" fill="#e3c25e"><path d="M 5.227 6.55 C 3.227 9.4 0.027 10.45 0.027 10.45 C -0.023 10.45 -0.223 5.9 2.027 3 C 4.327 0.1 7.677 0.05 7.677 0 C 7.627 0.05 7.177 3.75 5.227 6.55 Z" fill-rule="nonzero"></path></g>
  <g transform="translate(-60.158 39.599)" fill="#e3c25e"><path d="M 1.358 8.601 C 3.358 12.151 6.758 12.601 6.708 12.601 C 6.708 12.601 6.558 8.301 4.858 4.901 C 3.158 1.401 0.208 -0.049 0.158 0.001 C 0.158 -0.049 -0.642 5.051 1.358 8.601 Z" fill-rule="nonzero"></path></g>
  <g transform="translate(-53.4 33.499)" fill="#e3c25e"><path d="M 5.75 6.151 C 3.3 8.601 0.05 9.051 0 9.051 C 0 9.051 0.55 4.501 3.3 2.001 C 6.05 -0.499 9.35 0.051 9.35 0.051 C 9.3 0.051 8.2 3.701 5.75 6.151 Z" fill-rule="nonzero"></path></g>
  <g transform="translate(-58.321 28.8)" fill="#e3c25e"><path d="M 0.521 8.8 C 1.821 12.65 5.071 13.75 5.071 13.75 C 5.071 13.7 5.621 9.45 4.621 5.7 C 3.571 1.95 0.921 0 0.871 0 C 0.871 -0.05 -0.829 4.9 0.521 8.8 Z" fill-rule="nonzero"></path></g>
  <g transform="translate(-51.501 25.278)" fill="#e3c25e"><path d="M 6.151 5.771 C 3.301 7.821 0.001 7.671 0.001 7.621 C -0.049 7.671 1.351 3.221 4.501 1.221 C 7.651 -0.829 10.801 0.321 10.801 0.321 C 10.751 0.321 8.951 3.771 6.151 5.771 Z" fill-rule="nonzero"></path></g>
  <g transform="translate(-55.026 18.45)" fill="#e3c25e"><path d="M 0.076 8.75 C 0.676 12.85 3.676 14.5 3.626 14.5 C 3.626 14.45 4.976 10.3 4.676 6.4 C 4.376 2.45 2.176 0 2.126 0 C 2.126 -0.05 -0.474 4.65 0.076 8.75 Z" fill-rule="nonzero"></path></g>
  <g transform="translate(-47.851 17.354)" fill="#e3c25e"><path d="M 6.401 5.496 C 3.151 7.046 0.001 6.296 0.001 6.296 C -0.049 6.296 2.151 2.096 5.701 0.596 C 9.251 -0.854 12.101 0.796 12.101 0.796 C 12.051 0.796 9.551 3.946 6.401 5.496 Z" fill-rule="nonzero"></path></g>
  <g transform="translate(-50.117 8.85)" fill="#e3c25e"><path d="M 0.017 8.45 C -0.233 12.65 2.367 14.85 2.367 14.85 C 2.367 14.8 4.467 10.9 5.017 6.9 C 5.517 2.85 3.867 0 3.817 0 C 3.817 -0.05 0.267 4.2 0.017 8.45 Z" fill-rule="nonzero"></path></g>
  <g transform="translate(-42.402 9.934)" fill="#e3c25e"><path d="M 6.502 5.316 C 2.952 6.316 0.002 5.016 0.002 5.016 C -0.098 5.016 3.002 1.166 6.902 0.216 C 10.752 -0.684 13.252 1.516 13.252 1.516 C 13.202 1.516 9.952 4.316 6.502 5.316 Z" fill-rule="nonzero"></path></g>
  <g transform="translate(-43.614 0.2)" fill="#e3c25e"><path d="M 0.364 7.95 C -0.836 12.15 1.314 14.8 1.314 14.8 C 1.264 14.8 4.214 11.15 5.664 7.2 C 7.064 3.2 6.114 0 6.064 0 C 6.064 -0.05 1.464 3.7 0.364 7.95 Z" fill-rule="nonzero"></path></g>
  <g transform="translate(-53.617 6.7)" fill="#e3c25e"><path d="M 55.817 96.95 L 55.767 96.15 C 49.367 96.75 42.967 96.05 36.817 94.05 C 30.767 92.1 25.217 89.05 20.217 84.95 C 9.917 76.5 3.217 64.35 1.467 50.85 C 0.017 39.8 0.767 29.95 3.667 21.6 C 6.817 12.6 12.367 5.55 20.217 0.65 L 19.817 0 C 11.817 5 6.117 12.15 2.967 21.35 C 0.017 29.8 -0.733 39.8 0.717 50.95 C 2.517 64.65 9.267 76.95 19.717 85.55 C 24.767 89.7 30.467 92.8 36.567 94.8 C 42.867 96.8 49.317 97.5 55.817 96.95 Z" fill-rule="nonzero"></path></g>
</svg>