<svg xmlns="http://www.w3.org/2000/svg" viewBox="0 0 355 278">
  <g transform="translate(84.559 110.17)"><path d="M 20.245 56.773 L 17.656 57.518 C 16.873 57.744 16.056 57.292 15.831 56.509 L 0 1.561 L 5.423 0 L 21.254 54.948 C 21.48 55.731 21.028 56.548 20.245 56.773 Z" fill="rgb(205,224,223)" fill-rule="nonzero"></path><path d="M 20.245 56.773 L 20.126 56.36 L 20.126 56.36 L 20.245 56.773 Z M 17.656 57.518 L 17.537 57.106 L 17.537 57.106 L 17.656 57.518 Z M 15.831 56.509 L 16.244 56.39 L 16.244 56.39 L 15.831 56.509 Z M 0 1.561 L -0.119 1.148 L -0.532 1.267 L -0.413 1.68 L 0 1.561 Z M 5.423 0 L 5.836 -0.119 L 5.717 -0.532 L 5.304 -0.413 L 5.423 0 Z M 21.254 54.948 L 21.667 54.829 L 21.667 54.829 L 21.254 54.948 Z M 20.245 56.773 L 20.126 56.36 L 17.537 57.106 L 17.656 57.518 L 17.775 57.931 L 20.364 57.186 L 20.245 56.773 Z M 17.656 57.518 L 17.537 57.106 C 16.982 57.265 16.403 56.945 16.244 56.39 L 15.831 56.509 L 15.418 56.628 C 15.709 57.639 16.764 58.222 17.775 57.931 L 17.656 57.518 Z M 15.831 56.509 L 16.244 56.39 L 0.413 1.442 L 0 1.561 L -0.413 1.68 L 15.418 56.628 L 15.831 56.509 Z M 0 1.561 L 0.119 1.974 L 5.542 0.413 L 5.423 0 L 5.304 -0.413 L -0.119 1.148 L 0 1.561 Z M 5.423 0 L 5.01 0.119 L 20.842 55.067 L 21.254 54.948 L 21.667 54.829 L 5.836 -0.119 L 5.423 0 Z M 21.254 54.948 L 20.842 55.067 C 21.001 55.622 20.681 56.201 20.126 56.36 L 20.245 56.773 L 20.364 57.186 C 21.375 56.895 21.958 55.84 21.667 54.829 L 21.254 54.948 Z" fill="rgb(9,21,32)" fill-rule="nonzero"></path></g>
  <g transform="translate(82.84899999999999 105.21000000000001)"><path d="M 12.697 20.212 L 5.376 22.319 L 0.103 3.998 C -0.297 2.611 0.504 1.164 1.891 0.764 L 4.19 0.103 C 5.577 -0.297 7.025 0.504 7.424 1.891 L 12.697 20.212 Z" fill="rgb(255,214,113)" fill-rule="nonzero"></path><path d="M 12.697 20.212 L 12.816 20.625 L 13.229 20.506 L 13.11 20.093 L 12.697 20.212 Z M 5.376 22.319 L 4.963 22.438 L 5.082 22.851 L 5.494 22.732 L 5.376 22.319 Z M 0.103 3.998 L 0.515 3.88 L 0.515 3.88 L 0.103 3.998 Z M 1.891 0.764 L 1.772 0.352 L 1.772 0.352 L 1.891 0.764 Z M 4.19 0.103 L 4.309 0.515 L 4.309 0.515 L 4.19 0.103 Z M 7.424 1.891 L 7.837 1.772 L 7.837 1.772 L 7.424 1.891 Z M 12.697 20.212 L 12.578 19.799 L 5.257 21.906 L 5.376 22.319 L 5.494 22.732 L 12.816 20.625 L 12.697 20.212 Z M 5.376 22.319 L 5.788 22.2 L 0.515 3.88 L 0.103 3.998 L -0.31 4.117 L 4.963 22.438 L 5.376 22.319 Z M 0.103 3.998 L 0.515 3.88 C 0.182 2.721 0.851 1.511 2.01 1.177 L 1.891 0.764 L 1.772 0.352 C 0.157 0.817 -0.775 2.502 -0.31 4.117 L 0.103 3.998 Z M 1.891 0.764 L 2.01 1.177 L 4.309 0.515 L 4.19 0.103 L 4.071 -0.31 L 1.772 0.352 L 1.891 0.764 Z M 4.19 0.103 L 4.309 0.515 C 5.468 0.182 6.678 0.851 7.011 2.01 L 7.424 1.891 L 7.837 1.772 C 7.372 0.157 5.686 -0.775 4.071 -0.31 L 4.19 0.103 Z M 7.424 1.891 L 7.011 2.01 L 12.284 20.331 L 12.697 20.212 L 13.11 20.093 L 7.837 1.772 L 7.424 1.891 Z" fill="rgb(9,21,32)" fill-rule="nonzero"></path></g>
  <g transform="translate(81.517 109.18900000000001)"><path d="M 1.548 0.413 C 1.776 0.347 1.908 0.109 1.842 -0.119 C 1.777 -0.347 1.539 -0.478 1.311 -0.413 L 1.429 0 L 1.548 0.413 Z M 0.078 2.445 L 0.49 2.326 L 0.49 2.326 L 0.078 2.445 Z M 4.397 19.006 C 4.463 19.234 4.701 19.366 4.929 19.3 C 5.157 19.234 5.288 18.996 5.223 18.768 L 4.81 18.887 L 4.397 19.006 Z M 1.429 0 L 1.311 -0.413 C 0.034 -0.045 -0.703 1.287 -0.335 2.563 L 0.078 2.445 L 0.49 2.326 C 0.254 1.505 0.728 0.649 1.548 0.413 L 1.429 0 Z M 0.078 2.445 L -0.335 2.563 L 4.397 19.006 L 4.81 18.887 L 5.223 18.768 L 0.49 2.326 L 0.078 2.445 Z" fill="rgb(9,21,32)" fill-rule="nonzero"></path></g>
  <g transform="translate(100.597 164.901)"><path d="M 5.467 1.089 C 5.737 2.026 4.742 3.136 3.244 3.567 C 1.747 3.998 0.314 3.587 0.044 2.65 C -0.226 1.712 0.77 0.602 2.267 0.171 C 3.765 -0.26 5.198 0.151 5.467 1.089 Z" fill="rgb(205,224,223)" fill-rule="nonzero"></path><path d="M 5.467 1.089 L 5.055 1.207 L 5.055 1.207 L 5.467 1.089 Z M 2.267 0.171 L 2.386 0.584 L 2.386 0.584 L 2.267 0.171 Z M 5.467 1.089 L 5.055 1.207 C 5.134 1.483 5.044 1.846 4.699 2.231 C 4.358 2.611 3.809 2.957 3.126 3.154 L 3.244 3.567 L 3.363 3.98 C 4.177 3.746 4.874 3.322 5.338 2.805 C 5.798 2.292 6.071 1.632 5.88 0.97 L 5.467 1.089 Z M 3.244 3.567 L 3.126 3.154 C 2.442 3.351 1.792 3.349 1.302 3.209 C 0.805 3.066 0.536 2.806 0.457 2.531 L 0.044 2.65 L -0.369 2.769 C -0.178 3.431 0.404 3.845 1.066 4.035 C 1.734 4.226 2.549 4.214 3.363 3.98 L 3.244 3.567 Z M 0.044 2.65 L 0.457 2.531 C 0.378 2.256 0.467 1.892 0.813 1.507 C 1.153 1.128 1.702 0.781 2.386 0.584 L 2.267 0.171 L 2.148 -0.241 C 1.334 -0.007 0.637 0.416 0.173 0.934 C -0.286 1.446 -0.559 2.106 -0.369 2.769 L 0.044 2.65 Z M 2.267 0.171 L 2.386 0.584 C 3.07 0.387 3.719 0.389 4.209 0.53 C 4.706 0.672 4.975 0.932 5.055 1.207 L 5.467 1.089 L 5.88 0.97 C 5.69 0.308 5.108 -0.107 4.446 -0.296 C 3.778 -0.488 2.962 -0.476 2.148 -0.241 L 2.267 0.171 Z" fill="rgb(9,21,32)" fill-rule="nonzero"></path></g>
  <g transform="translate(88.322 124.49700000000001)"><path d="M 1.286 4.783 C 0.665 4.536 0.217 4.123 0.06 3.577 C -0.305 2.311 1.039 0.813 3.061 0.231 C 5.083 -0.351 7.017 0.204 7.381 1.47 C 7.563 2.102 7.318 2.793 6.775 3.399" fill="rgb(153,198,195)" fill-rule="nonzero"></path><path d="M 1.128 5.182 C 1.348 5.27 1.598 5.163 1.686 4.942 C 1.773 4.722 1.666 4.472 1.445 4.384 L 1.286 4.783 L 1.128 5.182 Z M 0.06 3.577 L 0.472 3.458 L 0.472 3.458 L 0.06 3.577 Z M 6.456 3.112 C 6.297 3.289 6.312 3.56 6.489 3.719 C 6.665 3.877 6.937 3.862 7.095 3.686 L 6.775 3.399 L 6.456 3.112 Z M 1.286 4.783 L 1.445 4.384 C 0.906 4.169 0.582 3.838 0.472 3.458 L 0.06 3.577 L -0.353 3.696 C -0.149 4.407 0.425 4.903 1.128 5.182 L 1.286 4.783 Z M 0.06 3.577 L 0.472 3.458 C 0.346 3.019 0.499 2.476 0.985 1.934 C 1.466 1.398 2.234 0.916 3.179 0.644 L 3.061 0.231 L 2.942 -0.182 C 1.866 0.128 0.95 0.686 0.346 1.361 C -0.255 2.03 -0.591 2.87 -0.353 3.696 L 0.06 3.577 Z M 3.061 0.231 L 3.179 0.644 C 4.125 0.372 5.031 0.372 5.724 0.57 C 6.424 0.771 6.842 1.149 6.968 1.588 L 7.381 1.47 L 7.794 1.351 C 7.556 0.524 6.825 -0.008 5.961 -0.255 C 5.09 -0.505 4.018 -0.491 2.942 -0.182 L 3.061 0.231 Z M 7.381 1.47 L 6.968 1.588 C 7.095 2.028 6.941 2.57 6.456 3.112 L 6.775 3.399 L 7.095 3.686 C 7.695 3.017 8.032 2.177 7.794 1.351 L 7.381 1.47 Z" fill="rgb(9,21,32)" fill-rule="nonzero"></path></g>
  <g transform="translate(89.48299999999999 126.34400000000001)"><path d="M 5.83 2.348 L 5.467 1.089 C 5.198 0.151 3.765 -0.26 2.267 0.171 C 0.77 0.602 -0.226 1.712 0.044 2.65 L 0.66 4.791" fill="rgb(205,224,223)" fill-rule="nonzero"></path><path d="M 5.417 2.467 C 5.483 2.695 5.721 2.827 5.949 2.761 C 6.177 2.696 6.308 2.458 6.243 2.23 L 5.83 2.348 L 5.417 2.467 Z M 5.467 1.089 L 5.055 1.207 L 5.055 1.207 L 5.467 1.089 Z M 0.044 2.65 L 0.457 2.531 L 0.457 2.531 L 0.044 2.65 Z M 0.248 4.91 C 0.313 5.138 0.551 5.269 0.779 5.204 C 1.007 5.138 1.139 4.9 1.073 4.672 L 0.66 4.791 L 0.248 4.91 Z M 5.83 2.348 L 6.243 2.23 L 5.88 0.97 L 5.467 1.089 L 5.055 1.207 L 5.417 2.467 L 5.83 2.348 Z M 5.467 1.089 L 5.88 0.97 C 5.69 0.308 5.107 -0.107 4.446 -0.296 C 3.778 -0.488 2.962 -0.476 2.148 -0.242 L 2.267 0.171 L 2.386 0.584 C 3.07 0.387 3.719 0.389 4.209 0.53 C 4.706 0.672 4.975 0.932 5.055 1.207 L 5.467 1.089 Z M 2.267 0.171 L 2.148 -0.242 C 1.334 -0.007 0.637 0.416 0.173 0.934 C -0.286 1.446 -0.559 2.106 -0.369 2.769 L 0.044 2.65 L 0.457 2.531 C 0.378 2.255 0.467 1.892 0.813 1.507 C 1.153 1.128 1.702 0.781 2.386 0.584 L 2.267 0.171 Z M 0.044 2.65 L -0.369 2.768 L 0.248 4.91 L 0.66 4.791 L 1.073 4.672 L 0.457 2.531 L 0.044 2.65 Z" fill="rgb(9,21,32)" fill-rule="nonzero"></path></g>
  <g transform="translate(102.124 167.211)"><path d="M 3.34 0.665 C 3.505 1.238 2.897 1.916 1.982 2.179 C 1.067 2.443 0.192 2.191 0.027 1.619 C -0.138 1.046 0.47 0.368 1.385 0.105 C 2.3 -0.159 3.176 0.092 3.34 0.665 Z" fill="rgb(205,224,223)" fill-rule="nonzero"></path><path d="M 0.027 1.619 L 0.44 1.5 L 0.44 1.5 L 0.027 1.619 Z M 1.385 0.105 L 1.267 -0.308 L 1.266 -0.308 L 1.385 0.105 Z M 3.34 0.665 L 2.928 0.784 C 2.954 0.877 2.935 1.041 2.747 1.251 C 2.563 1.456 2.256 1.653 1.863 1.766 L 1.982 2.179 L 2.101 2.592 C 2.624 2.441 3.078 2.168 3.386 1.825 C 3.689 1.487 3.891 1.026 3.753 0.546 L 3.34 0.665 Z M 1.982 2.179 L 1.863 1.766 C 1.471 1.879 1.106 1.875 0.842 1.8 C 0.57 1.722 0.467 1.593 0.44 1.5 L 0.027 1.619 L -0.386 1.737 C -0.248 2.217 0.169 2.5 0.605 2.625 C 1.048 2.752 1.578 2.742 2.101 2.592 L 1.982 2.179 Z M 0.027 1.619 L 0.44 1.5 C 0.413 1.407 0.432 1.243 0.621 1.032 C 0.805 0.827 1.112 0.63 1.504 0.517 L 1.385 0.105 L 1.266 -0.308 C 0.744 -0.158 0.289 0.116 -0.019 0.459 C -0.322 0.796 -0.524 1.258 -0.386 1.738 L 0.027 1.619 Z M 1.385 0.105 L 1.504 0.517 C 1.896 0.405 2.261 0.408 2.526 0.484 C 2.797 0.562 2.901 0.691 2.928 0.784 L 3.34 0.665 L 3.753 0.546 C 3.615 0.066 3.199 -0.217 2.763 -0.342 C 2.32 -0.469 1.789 -0.459 1.267 -0.308 L 1.385 0.105 Z" fill="rgb(9,21,32)" fill-rule="nonzero"></path></g>
  <g transform="translate(145.91 102.65100000000001) matrix(0.974,0.226,-0.226,0.974,13.934,0)"><path d="M 103.197 0 L 0 0 L 0 61.709 L 103.197 61.709 L 103.197 0 Z" fill="rgb(255,255,255)" fill-rule="nonzero"></path><path d="M 0 0 L 0 -0.43 L -0.43 -0.43 L -0.43 0 L 0 0 Z M 103.197 0 L 103.626 0 L 103.626 -0.43 L 103.197 -0.43 L 103.197 0 Z M 103.197 61.709 L 103.197 62.138 L 103.626 62.138 L 103.626 61.709 L 103.197 61.709 Z M 0 61.709 L -0.43 61.709 L -0.43 62.138 L 0 62.138 L 0 61.709 Z M 0 0 L 0 0.43 L 103.197 0.43 L 103.197 0 L 103.197 -0.43 L 0 -0.43 L 0 0 Z M 103.197 0 L 102.767 0 L 102.767 61.709 L 103.197 61.709 L 103.626 61.709 L 103.626 0 L 103.197 0 Z M 103.197 61.709 L 103.197 61.279 L 0 61.279 L 0 61.709 L 0 62.138 L 103.197 62.138 L 103.197 61.709 Z M 0 61.709 L 0.43 61.709 L 0.43 0 L 0 0 L -0.43 0 L -0.43 61.709 L 0 61.709 Z" fill="rgb(9,21,32)" fill-rule="nonzero"></path></g>
  <g transform="translate(162.78 112.84200000000001)"><path d="M 0.078 -0.336 C -0.108 -0.379 -0.293 -0.264 -0.336 -0.078 C -0.379 0.108 -0.264 0.293 -0.078 0.336 L 0 0 L 0.078 -0.336 Z M 36.749 8.872 C 36.934 8.916 37.12 8.8 37.163 8.614 C 37.206 8.429 37.09 8.243 36.904 8.2 L 36.827 8.536 L 36.749 8.872 Z M 0 0 L -0.078 0.336 L 36.749 8.872 L 36.827 8.536 L 36.904 8.2 L 0.078 -0.336 L 0 0 Z" fill="rgb(239,221,216)" fill-rule="nonzero"></path></g>
  <g transform="translate(162.321 114.82400000000001)"><path d="M 0.078 -0.336 C -0.108 -0.379 -0.293 -0.264 -0.336 -0.078 C -0.379 0.108 -0.264 0.293 -0.078 0.336 L 0 0 L 0.078 -0.336 Z M 36.749 8.872 C 36.934 8.916 37.12 8.8 37.163 8.614 C 37.206 8.429 37.09 8.243 36.904 8.2 L 36.827 8.536 L 36.749 8.872 Z M 0 0 L -0.078 0.336 L 36.749 8.872 L 36.827 8.536 L 36.904 8.2 L 0.078 -0.336 L 0 0 Z" fill="rgb(239,221,216)" fill-rule="nonzero"></path></g>
  <g transform="translate(145.91 102.65100000000001) matrix(0.226,-0.974,0.974,0.226,83.642,49.008)"><path d="M 24.046 0 L 0 0 L 0 2.27 L 24.046 2.27 L 24.046 0 Z" fill="rgb(239,221,216)" fill-rule="nonzero"></path></g>
  <g transform="translate(145.91 102.65100000000001) matrix(0.226,-0.974,0.974,0.226,88.696,50.179)"><path d="M 12.023 0 L 0 0 L 0 2.27 L 12.023 2.27 L 12.023 0 Z" fill="rgb(239,221,216)" fill-rule="nonzero"></path></g>
  <g transform="translate(145.91 102.65100000000001) matrix(0.226,-0.974,0.974,0.226,93.749,51.351)"><path d="M 19.469 0 L 0 0 L 0 2.269 L 19.469 2.269 L 19.469 0 Z" fill="rgb(239,221,216)" fill-rule="nonzero"></path></g>
  <g transform="translate(145.91 102.65100000000001) matrix(0.226,-0.974,0.974,0.226,98.803,52.522)"><path d="M 6.271 0 L 0 0 L 0 2.27 L 6.271 2.27 L 6.271 0 Z" fill="rgb(239,221,216)" fill-rule="nonzero"></path></g>
  <g transform="translate(145.91 102.65100000000001) matrix(0.226,-0.974,0.974,0.226,100.234,46.346)"><path d="M 6.271 0 L 0 0 L 0 2.27 L 6.271 2.27 L 6.271 0 Z" fill="rgb(30,144,255)" fill-rule="nonzero"></path></g>
  <g transform="translate(145.91 102.65100000000001) matrix(0.226,-0.974,0.974,0.226,91.410,38.466)"><path d="M 4.394 0 L 0 0 L 0 2.27 L 4.394 2.27 L 4.394 0 Z" fill="rgb(30,144,255)" fill-rule="nonzero"></path></g>
  <g transform="translate(201.046 123.766)"><path d="M 23 14.282 C 21.547 20.552 15.287 24.452 9.021 23 C 2.756 21.548 -1.15 15.291 0.304 9.021 C 1.756 2.756 8.017 -1.149 14.283 0.303 C 14.642 0.387 14.997 0.489 15.339 0.603 L 11.652 11.652 L 23.177 13.327 C 23.133 13.645 23.074 13.966 23 14.282 Z" fill="rgb(30,144,255)" fill-rule="nonzero"></path></g>
  <g transform="translate(214.60399999999998 123.12900000000002)"><path d="M 11.525 12.724 L 0 11.049 L 3.687 0 C 9.026 1.776 12.344 7.149 11.525 12.724 Z" fill="rgb(239,221,216)" fill-rule="nonzero"></path></g>
  <g transform="translate(152.024 146.854)"><path d="M 88.131 32.819 L 0 12.39 L 2.872 0 L 21.647 9.51 L 29.481 13.582 L 49.925 12.68 L 61.038 21.058 L 65.889 21.538 L 81.851 28.623 L 88.131 32.819 Z" fill="rgb(30,144,255)" fill-rule="nonzero"></path></g>
  <g transform="translate(152.024 143.756)"><path d="M 3.926 0.078 C 3.969 -0.108 3.854 -0.293 3.668 -0.336 C 3.482 -0.379 3.297 -0.264 3.254 -0.078 L 3.59 0 L 3.926 0.078 Z M 0 15.488 L -0.336 15.41 L -0.414 15.746 L -0.078 15.824 L 0 15.488 Z M 90.768 36.882 C 90.954 36.925 91.139 36.809 91.182 36.624 C 91.225 36.438 91.11 36.252 90.924 36.209 L 90.846 36.546 L 90.768 36.882 Z M 3.59 0 L 3.254 -0.078 L -0.336 15.41 L 0 15.488 L 0.336 15.566 L 3.926 0.078 L 3.59 0 Z M 0 15.488 L -0.078 15.824 L 90.768 36.882 L 90.846 36.546 L 90.924 36.209 L 0.078 15.152 L 0 15.488 Z" fill="rgb(239,221,216)" fill-rule="nonzero"></path></g>
  <g transform="translate(182.179 157.53)"><path d="M 0.078 -0.336 C -0.108 -0.379 -0.293 -0.264 -0.336 -0.078 C -0.379 0.108 -0.264 0.293 -0.078 0.336 L 0 0 L 0.078 -0.336 Z M 3.905 1.259 C 4.09 1.302 4.276 1.187 4.319 1.001 C 4.362 0.815 4.246 0.63 4.06 0.587 L 3.982 0.923 L 3.905 1.259 Z M 0 0 L -0.078 0.336 L 3.905 1.259 L 3.982 0.923 L 4.06 0.587 L 0.078 -0.336 L 0 0 Z" fill="rgb(239,221,216)" fill-rule="nonzero"></path></g>
  <g transform="translate(201.836 157.735)"><path d="M 0.078 -0.336 C -0.108 -0.379 -0.293 -0.264 -0.336 -0.078 C -0.379 0.108 -0.264 0.293 -0.078 0.336 L 0 0 L 0.078 -0.336 Z M 3.905 1.259 C 4.091 1.302 4.276 1.187 4.319 1.001 C 4.362 0.815 4.246 0.63 4.061 0.587 L 3.983 0.923 L 3.905 1.259 Z M 0 0 L -0.078 0.336 L 3.905 1.259 L 3.983 0.923 L 4.061 0.587 L 0.078 -0.336 L 0 0 Z" fill="rgb(239,221,216)" fill-rule="nonzero"></path></g>
  <g transform="translate(213.38400000000001 164.763)"><path d="M 0.078 -0.336 C -0.108 -0.379 -0.293 -0.264 -0.336 -0.078 C -0.379 0.108 -0.264 0.293 -0.078 0.336 L 0 0 L 0.078 -0.336 Z M 3.905 1.259 C 4.09 1.303 4.276 1.187 4.319 1.001 C 4.362 0.816 4.246 0.63 4.06 0.587 L 3.982 0.923 L 3.905 1.259 Z M 0 0 L -0.078 0.336 L 3.905 1.259 L 3.982 0.923 L 4.06 0.587 L 0.078 -0.336 L 0 0 Z" fill="rgb(239,221,216)" fill-rule="nonzero"></path></g>
  <g transform="translate(218.801 167.469)"><path d="M 0.078 -0.336 C -0.108 -0.379 -0.293 -0.264 -0.336 -0.078 C -0.379 0.108 -0.264 0.293 -0.078 0.336 L 0 0 L 0.078 -0.336 Z M 3.905 1.259 C 4.09 1.303 4.276 1.187 4.319 1.001 C 4.362 0.816 4.246 0.63 4.06 0.587 L 3.982 0.923 L 3.905 1.259 Z M 0 0 L -0.078 0.336 L 3.905 1.259 L 3.982 0.923 L 4.06 0.587 L 0.078 -0.336 L 0 0 Z" fill="rgb(239,221,216)" fill-rule="nonzero"></path></g>
  <g transform="translate(234.083 174.034)"><path d="M 0.078 -0.336 C -0.108 -0.379 -0.293 -0.264 -0.336 -0.078 C -0.379 0.108 -0.264 0.293 -0.078 0.336 L 0 0 L 0.078 -0.336 Z M 3.905 1.259 C 4.09 1.302 4.276 1.187 4.319 1.001 C 4.362 0.815 4.246 0.63 4.06 0.587 L 3.982 0.923 L 3.905 1.259 Z M 0 0 L -0.078 0.336 L 3.905 1.259 L 3.982 0.923 L 4.06 0.587 L 0.078 -0.336 L 0 0 Z" fill="rgb(239,221,216)" fill-rule="nonzero"></path></g>
  <g transform="translate(226.808 151.03)"><path d="M 0.078 -0.336 C -0.108 -0.379 -0.293 -0.264 -0.336 -0.078 C -0.379 0.108 -0.264 0.293 -0.078 0.336 L 0 0 L 0.078 -0.336 Z M 22.255 5.513 C 22.441 5.556 22.626 5.44 22.669 5.254 C 22.712 5.069 22.596 4.883 22.411 4.84 L 22.333 5.176 L 22.255 5.513 Z M 0 0 L -0.078 0.336 L 22.255 5.513 L 22.333 5.176 L 22.411 4.84 L 0.078 -0.336 L 0 0 Z" fill="rgb(239,221,216)" fill-rule="nonzero"></path></g>
  <g transform="translate(157.387 126.70400000000001)"><path d="M -0.193 9.118 C -0.351 9.224 -0.393 9.439 -0.286 9.597 C -0.18 9.755 0.035 9.797 0.193 9.69 L 0 9.404 L -0.193 9.118 Z M 4.137 6.615 L 3.944 6.328 L 3.944 6.328 L 4.137 6.615 Z M 4.336 6.602 L 4.493 6.295 L 4.492 6.295 L 4.336 6.602 Z M 8.435 8.691 L 8.592 8.383 L 8.592 8.383 L 8.435 8.691 Z M 8.658 8.66 L 8.892 8.913 L 8.893 8.913 L 8.658 8.66 Z M 15.396 2.413 L 15.631 2.666 L 15.631 2.666 L 15.396 2.413 Z M 15.671 2.421 L 15.919 2.181 L 15.919 2.181 L 15.671 2.421 Z M 18.362 5.205 L 18.114 5.445 L 18.114 5.445 L 18.362 5.205 Z M 18.592 5.244 L 18.747 5.552 L 18.747 5.552 L 18.592 5.244 Z M 27.693 0.648 L 27.849 0.956 L 27.849 0.955 L 27.693 0.648 Z M 27.855 0.64 L 27.726 0.961 L 27.727 0.961 L 27.855 0.64 Z M 32.064 2.325 L 31.935 2.645 L 31.936 2.646 L 32.064 2.325 Z M 32.19 2.331 L 32.284 2.664 L 32.284 2.663 L 32.19 2.331 Z M 40.499 0.332 C 40.682 0.28 40.789 0.089 40.737 -0.094 C 40.685 -0.278 40.494 -0.384 40.311 -0.332 L 40.405 0 L 40.499 0.332 Z M 0 9.404 L 0.193 9.69 L 4.33 6.901 L 4.137 6.615 L 3.944 6.328 L -0.193 9.118 L 0 9.404 Z M 4.137 6.615 L 4.329 6.901 C 4.286 6.93 4.228 6.935 4.179 6.91 L 4.336 6.602 L 4.492 6.295 C 4.316 6.205 4.107 6.219 3.944 6.328 L 4.137 6.615 Z M 4.336 6.602 L 4.179 6.91 L 8.279 8.998 L 8.435 8.691 L 8.592 8.383 L 4.493 6.295 L 4.336 6.602 Z M 8.435 8.691 L 8.278 8.998 C 8.481 9.102 8.726 9.066 8.892 8.913 L 8.658 8.66 L 8.424 8.406 C 8.469 8.365 8.536 8.354 8.592 8.383 L 8.435 8.691 Z M 8.658 8.66 L 8.893 8.913 L 15.631 2.666 L 15.396 2.413 L 15.162 2.16 L 8.423 8.407 L 8.658 8.66 Z M 15.396 2.413 L 15.631 2.666 C 15.572 2.721 15.48 2.719 15.423 2.661 L 15.671 2.421 L 15.919 2.181 C 15.715 1.969 15.378 1.96 15.162 2.16 L 15.396 2.413 Z M 15.671 2.421 L 15.423 2.661 L 18.114 5.445 L 18.362 5.205 L 18.61 4.966 L 15.919 2.181 L 15.671 2.421 Z M 18.362 5.205 L 18.114 5.445 C 18.279 5.616 18.535 5.659 18.747 5.552 L 18.592 5.244 L 18.437 4.936 C 18.495 4.907 18.565 4.919 18.61 4.965 L 18.362 5.205 Z M 18.592 5.244 L 18.747 5.552 L 27.849 0.956 L 27.693 0.648 L 27.538 0.339 L 18.436 4.936 L 18.592 5.244 Z M 27.693 0.648 L 27.849 0.955 C 27.811 0.975 27.767 0.977 27.726 0.961 L 27.855 0.64 L 27.983 0.32 C 27.839 0.262 27.676 0.269 27.538 0.34 L 27.693 0.648 Z M 27.855 0.64 L 27.727 0.961 L 31.935 2.645 L 32.064 2.325 L 32.192 2.004 L 27.983 0.32 L 27.855 0.64 Z M 32.064 2.325 L 31.936 2.646 C 32.047 2.69 32.169 2.696 32.284 2.664 L 32.19 2.331 L 32.097 1.999 C 32.128 1.991 32.161 1.992 32.191 2.004 L 32.064 2.325 Z M 32.19 2.331 L 32.284 2.663 L 40.499 0.332 L 40.405 0 L 40.311 -0.332 L 32.096 1.999 L 32.19 2.331 Z" fill="rgb(255,159,54)" fill-rule="nonzero"></path></g>
  <g transform="translate(157.35 120.51400000000001)"><path d="M 3.988 0.078 C 4.032 -0.108 3.916 -0.293 3.73 -0.336 C 3.545 -0.379 3.359 -0.264 3.316 -0.078 L 3.652 0 L 3.988 0.078 Z M 0 15.755 L -0.336 15.677 L -0.414 16.013 L -0.078 16.091 L 0 15.755 Z M 36.198 24.5 C 36.384 24.543 36.57 24.428 36.613 24.242 C 36.656 24.056 36.54 23.871 36.354 23.828 L 36.276 24.164 L 36.198 24.5 Z M 3.652 0 L 3.316 -0.078 L -0.336 15.677 L 0 15.755 L 0.336 15.833 L 3.988 0.078 L 3.652 0 Z M 0 15.755 L -0.078 16.091 L 36.198 24.5 L 36.276 24.164 L 36.354 23.828 L 0.078 15.419 L 0 15.755 Z" fill="rgb(239,221,216)" fill-rule="nonzero"></path></g>
  <g transform="translate(160.478 132.178)"><path d="M 2.151 1.336 C 2.015 1.921 1.429 2.287 0.843 2.151 C 0.258 2.015 -0.108 1.429 0.028 0.843 C 0.164 0.258 0.75 -0.108 1.336 0.028 C 1.921 0.164 2.286 0.75 2.151 1.336 Z" fill="rgb(255,159,54)" fill-rule="nonzero"></path></g>
  <g transform="translate(164.763 134.28900000000002)"><path d="M 2.151 1.335 C 2.015 1.921 1.429 2.286 0.843 2.151 C 0.258 2.015 -0.108 1.43 0.028 0.844 C 0.164 0.257 0.75 -0.107 1.335 0.028 C 1.921 0.164 2.287 0.749 2.151 1.335 Z" fill="rgb(255,159,54)" fill-rule="nonzero"></path></g>
  <g transform="translate(171.776 128.05100000000002)"><path d="M 2.151 1.335 C 2.015 1.921 1.429 2.287 0.843 2.151 C 0.258 2.015 -0.108 1.429 0.028 0.843 C 0.164 0.258 0.75 -0.108 1.335 0.028 C 1.921 0.164 2.286 0.749 2.151 1.335 Z" fill="rgb(255,159,54)" fill-rule="nonzero"></path></g>
  <g transform="translate(174.821 130.62800000000001)"><path d="M 2.151 1.335 C 2.015 1.921 1.43 2.286 0.844 2.151 C 0.258 2.015 -0.107 1.429 0.028 0.843 C 0.164 0.258 0.749 -0.108 1.335 0.028 C 1.922 0.164 2.287 0.749 2.151 1.335 Z" fill="rgb(255,159,54)" fill-rule="nonzero"></path></g>
  <g transform="translate(184.07 126.48700000000001)"><path d="M 2.151 1.335 C 2.015 1.921 1.429 2.286 0.843 2.151 C 0.258 2.015 -0.108 1.429 0.028 0.843 C 0.164 0.258 0.75 -0.108 1.335 0.028 C 1.921 0.164 2.286 0.749 2.151 1.335 Z" fill="rgb(255,159,54)" fill-rule="nonzero"></path></g>
  <g transform="translate(188.362 127.94000000000001)"><path d="M 2.151 1.336 C 2.015 1.922 1.429 2.287 0.843 2.151 C 0.258 2.015 -0.108 1.43 0.028 0.844 C 0.164 0.257 0.75 -0.107 1.335 0.028 C 1.921 0.164 2.286 0.75 2.151 1.336 Z" fill="rgb(255,159,54)" fill-rule="nonzero"></path></g>
  <g transform="translate(238.106 50.676)"><path d="M 46.797 55.753 L 25.381 64.525 C 23.179 65.427 20.662 64.373 19.76 62.17 L 16.793 54.928 L 15.441 51.629 L 0.323 14.716 C -0.579 12.514 0.475 9.997 2.677 9.095 L 24.093 0.323 C 26.295 -0.579 28.812 0.475 29.714 2.677 L 49.154 50.131 C 50.056 52.333 49 54.85 46.797 55.753 Z" fill="rgb(255,255,255)" fill-rule="nonzero"></path><path d="M 46.797 55.753 L 46.96 56.15 L 46.96 56.15 L 46.797 55.753 Z M 25.381 64.525 L 25.219 64.127 L 25.219 64.127 L 25.381 64.525 Z M 19.76 62.17 L 20.157 62.008 L 20.157 62.008 L 19.76 62.17 Z M 16.793 54.928 L 17.19 54.765 L 17.19 54.765 L 16.793 54.928 Z M 15.441 51.629 L 15.043 51.791 L 15.043 51.791 L 15.441 51.629 Z M 0.323 14.716 L 0.72 14.554 L 0.72 14.554 L 0.323 14.716 Z M 2.677 9.095 L 2.514 8.697 L 2.514 8.697 L 2.677 9.095 Z M 24.093 0.323 L 24.256 0.72 L 24.256 0.72 L 24.093 0.323 Z M 29.714 2.677 L 30.112 2.514 L 30.112 2.514 L 29.714 2.677 Z M 49.154 50.131 L 49.552 49.968 L 49.552 49.968 L 49.154 50.131 Z M 46.797 55.753 L 46.634 55.355 L 25.219 64.127 L 25.381 64.525 L 25.544 64.922 L 46.96 56.15 L 46.797 55.753 Z M 25.381 64.525 L 25.219 64.127 C 23.236 64.939 20.969 63.99 20.157 62.008 L 19.76 62.17 L 19.362 62.333 C 20.354 64.755 23.123 65.914 25.544 64.922 L 25.381 64.525 Z M 19.76 62.17 L 20.157 62.008 L 17.19 54.765 L 16.793 54.928 L 16.395 55.091 L 19.362 62.333 L 19.76 62.17 Z M 16.793 54.928 L 17.19 54.765 L 15.838 51.466 L 15.441 51.629 L 15.043 51.791 L 16.395 55.091 L 16.793 54.928 Z M 15.441 51.629 L 15.839 51.466 L 0.72 14.554 L 0.323 14.716 L -0.075 14.879 L 15.043 51.791 L 15.441 51.629 Z M 0.323 14.716 L 0.72 14.554 C -0.092 12.571 0.857 10.304 2.84 9.492 L 2.677 9.095 L 2.514 8.697 C 0.092 9.689 -1.067 12.457 -0.075 14.879 L 0.323 14.716 Z M 2.677 9.095 L 2.84 9.492 L 24.256 0.72 L 24.093 0.323 L 23.93 -0.075 L 2.514 8.697 L 2.677 9.095 Z M 24.093 0.323 L 24.256 0.72 C 26.238 -0.092 28.504 0.857 29.317 2.84 L 29.714 2.677 L 30.112 2.514 C 29.12 0.092 26.351 -1.067 23.93 -0.075 L 24.093 0.323 Z M 29.714 2.677 L 29.317 2.84 L 48.757 50.294 L 49.154 50.131 L 49.552 49.968 L 30.112 2.514 L 29.714 2.677 Z M 49.154 50.131 L 48.757 50.294 C 49.569 52.276 48.618 54.543 46.634 55.355 L 46.797 55.753 L 46.96 56.15 C 49.382 55.158 50.544 52.39 49.552 49.968 L 49.154 50.131 Z" fill="rgb(9,21,32)" fill-rule="nonzero"></path></g>
  <g transform="translate(242.12099999999998 54.772000000000006)"><path d="M 20.581 0.126 C 21.441 -0.226 22.424 0.185 22.778 1.045 L 24.168 4.436 L 32.928 25.821 L 39.287 41.357 C 39.639 42.217 39.227 43.2 38.366 43.553 L 28.334 47.663 L 18.825 51.555 C 17.964 51.907 16.981 51.496 16.628 50.635 L 15.194 47.136 L 0.126 10.328 C -0.226 9.468 0.186 8.485 1.046 8.132 L 20.581 0.126 Z" fill="rgb(9,21,32)" fill-rule="nonzero"></path></g>
  <g transform="translate(264.229 107.951)"><path d="M 2.329 0.751 C 2.582 1.369 2.286 2.075 1.668 2.329 C 1.05 2.582 0.344 2.286 0.091 1.668 C -0.163 1.05 0.133 0.344 0.751 0.091 C 1.369 -0.163 2.075 0.133 2.329 0.751 Z" fill="rgb(9,21,32)" fill-rule="nonzero"></path></g>
  <g transform="translate(271.148 105.116)"><path d="M 2.329 0.751 C 2.582 1.369 2.286 2.075 1.668 2.329 C 1.05 2.582 0.344 2.286 0.091 1.668 C -0.163 1.05 0.133 0.344 0.751 0.09 C 1.369 -0.162 2.075 0.133 2.329 0.751 Z" fill="rgb(9,21,32)" fill-rule="nonzero"></path></g>
  <g transform="translate(277.993 102.313)"><path d="M 2.329 0.751 C 2.582 1.369 2.286 2.075 1.668 2.329 C 1.05 2.582 0.344 2.286 0.091 1.668 C -0.163 1.05 0.133 0.344 0.751 0.091 C 1.369 -0.163 2.075 0.133 2.329 0.751 Z" fill="rgb(9,21,32)" fill-rule="nonzero"></path></g>
  <g transform="translate(253.547 52.087)"><path d="M 12.601 0 L 11.908 3.296 L 2.434 48.362 L 1.352 53.517 L 0 50.218 L 1.085 45.06 L 10.361 0.916 L 10.851 0.716 L 12.601 0 Z" fill="rgb(255,252,250)" fill-rule="nonzero"></path></g>
  <g transform="translate(257.06399999999996 58.021)"><path d="M 9.472 0 L 18.717 22.571 L 13.868 45.624 L 2.188 50.405 L 0 45.068 L 9.472 0 Z" fill="rgb(255,252,250)" fill-rule="nonzero"></path></g>
  <g transform="translate(112.07499999999999 86.18700000000001) matrix(0.991,-0.137,0.137,0.991,0,14.086)"><path d="M 103.197 0 L 0 0 L 0 61.709 L 103.197 61.709 L 103.197 0 Z" fill="rgb(255,255,255)" fill-rule="nonzero"></path><path d="M 0 0 L 0 -0.43 L -0.43 -0.43 L -0.43 0 L 0 0 Z M 103.197 0 L 103.626 0 L 103.626 -0.43 L 103.197 -0.43 L 103.197 0 Z M 103.197 61.709 L 103.197 62.138 L 103.626 62.138 L 103.626 61.709 L 103.197 61.709 Z M 0 61.709 L -0.43 61.709 L -0.43 62.138 L 0 62.138 L 0 61.709 Z M 0 0 L 0 0.43 L 103.197 0.43 L 103.197 0 L 103.197 -0.43 L 0 -0.43 L 0 0 Z M 103.197 0 L 102.767 0 L 102.767 61.709 L 103.197 61.709 L 103.626 61.709 L 103.626 0 L 103.197 0 Z M 103.197 61.709 L 103.197 61.279 L 0 61.279 L 0 61.709 L 0 62.138 L 103.197 62.138 L 103.197 61.709 Z M 0 61.709 L 0.43 61.709 L 0.43 0 L 0 0 L -0.43 0 L -0.43 61.709 L 0 61.709 Z" fill="rgb(9,21,32)" fill-rule="nonzero"></path></g>
  <g transform="translate(118.08599999999998 100.90400000000001)"><path d="M -0.047 4.817 C -0.236 4.843 -0.368 5.017 -0.342 5.206 C -0.316 5.395 -0.142 5.527 0.047 5.501 L 0 5.159 L -0.047 4.817 Z M 37.497 0.342 C 37.686 0.316 37.818 0.142 37.792 -0.047 C 37.766 -0.236 37.591 -0.368 37.403 -0.342 L 37.45 0 L 37.497 0.342 Z M 0 5.159 L 0.047 5.501 L 37.497 0.342 L 37.45 0 L 37.403 -0.342 L -0.047 4.817 L 0 5.159 Z" fill="rgb(239,221,216)" fill-rule="nonzero"></path></g>
  <g transform="translate(118.36399999999999 102.91900000000001)"><path d="M -0.047 4.817 C -0.236 4.843 -0.368 5.017 -0.342 5.206 C -0.316 5.395 -0.142 5.527 0.047 5.501 L 0 5.159 L -0.047 4.817 Z M 37.497 0.342 C 37.685 0.316 37.817 0.142 37.791 -0.047 C 37.765 -0.236 37.591 -0.368 37.402 -0.342 L 37.449 0 L 37.497 0.342 Z M 0 5.159 L 0.047 5.501 L 37.497 0.342 L 37.449 0 L 37.402 -0.342 L -0.047 4.817 L 0 5.159 Z" fill="rgb(239,221,216)" fill-rule="nonzero"></path></g>
  <g transform="translate(121.84799999999998 128.211)"><path d="M -0.047 4.816 C -0.236 4.843 -0.368 5.017 -0.342 5.205 C -0.316 5.394 -0.142 5.526 0.047 5.5 L 0 5.158 L -0.047 4.816 Z M 37.497 0.342 C 37.686 0.316 37.818 0.142 37.792 -0.047 C 37.766 -0.236 37.591 -0.368 37.403 -0.342 L 37.45 0 L 37.497 0.342 Z M 0 5.158 L 0.047 5.5 L 37.497 0.342 L 37.45 0 L 37.403 -0.342 L -0.047 4.816 L 0 5.158 Z" fill="rgb(239,221,216)" fill-rule="nonzero"></path></g>
  <g transform="translate(122.12499999999999 130.227)"><path d="M -0.047 4.816 C -0.236 4.842 -0.368 5.017 -0.342 5.205 C -0.316 5.394 -0.142 5.526 0.047 5.5 L 0 5.158 L -0.047 4.816 Z M 37.497 0.342 C 37.685 0.316 37.817 0.142 37.791 -0.047 C 37.765 -0.236 37.591 -0.368 37.402 -0.342 L 37.449 0 L 37.497 0.342 Z M 0 5.158 L 0.047 5.5 L 37.497 0.342 L 37.449 0 L 37.402 -0.342 L -0.047 4.816 L 0 5.158 Z" fill="rgb(239,221,216)" fill-rule="nonzero"></path></g>
  <g transform="translate(147.66699999999997 107.10700000000001)"><path d="M -0.047 0.921 C -0.236 0.947 -0.368 1.121 -0.342 1.31 C -0.316 1.499 -0.142 1.631 0.047 1.605 L 0 1.263 L -0.047 0.921 Z M 9.217 0.342 C 9.405 0.316 9.537 0.142 9.511 -0.047 C 9.485 -0.236 9.311 -0.368 9.122 -0.342 L 9.169 0 L 9.217 0.342 Z M 0 1.263 L 0.047 1.605 L 9.217 0.342 L 9.169 0 L 9.122 -0.342 L -0.047 0.921 L 0 1.263 Z" fill="rgb(239,221,216)" fill-rule="nonzero"></path></g>
  <g transform="translate(148.375 112.24600000000001)"><path d="M -0.047 0.921 C -0.236 0.947 -0.368 1.122 -0.342 1.31 C -0.316 1.499 -0.142 1.631 0.047 1.605 L 0 1.263 L -0.047 0.921 Z M 9.217 0.342 C 9.405 0.316 9.537 0.142 9.511 -0.047 C 9.485 -0.236 9.311 -0.368 9.122 -0.342 L 9.169 0 L 9.217 0.342 Z M 0 1.263 L 0.047 1.605 L 9.217 0.342 L 9.169 0 L 9.122 -0.342 L -0.047 0.921 L 0 1.263 Z" fill="rgb(239,221,216)" fill-rule="nonzero"></path></g>
  <g transform="translate(149.083 117.38500000000002)"><path d="M -0.047 0.921 C -0.236 0.947 -0.368 1.121 -0.342 1.31 C -0.316 1.499 -0.142 1.631 0.047 1.605 L 0 1.263 L -0.047 0.921 Z M 9.217 0.342 C 9.406 0.316 9.538 0.142 9.512 -0.047 C 9.486 -0.236 9.311 -0.368 9.123 -0.342 L 9.17 0 L 9.217 0.342 Z M 0 1.263 L 0.047 1.605 L 9.217 0.342 L 9.17 0 L 9.123 -0.342 L -0.047 0.921 L 0 1.263 Z" fill="rgb(239,221,216)" fill-rule="nonzero"></path></g>
  <g transform="translate(149.791 122.52400000000002)"><path d="M -0.047 0.921 C -0.236 0.947 -0.368 1.122 -0.342 1.31 C -0.316 1.499 -0.142 1.631 0.047 1.605 L 0 1.263 L -0.047 0.921 Z M 9.217 0.342 C 9.406 0.316 9.538 0.142 9.512 -0.047 C 9.486 -0.236 9.311 -0.368 9.123 -0.342 L 9.17 0 L 9.217 0.342 Z M 0 1.263 L 0.047 1.605 L 9.217 0.342 L 9.17 0 L 9.123 -0.342 L -0.047 0.921 L 0 1.263 Z" fill="rgb(239,221,216)" fill-rule="nonzero"></path></g>
  <g transform="translate(112.07499999999999 86.18700000000001) matrix(0.991,-0.137,0.137,0.991,6.720,25.007)"><path d="M 24.046 0 L 0 0 L 0 2.27 L 24.046 2.27 L 24.046 0 Z" fill="rgb(239,221,216)" fill-rule="nonzero"></path></g>
  <g transform="translate(112.07499999999999 86.18700000000001) matrix(0.991,-0.137,0.137,0.991,7.428,30.146)"><path d="M 6.271 0 L 0 0 L 0 2.27 L 6.271 2.27 L 6.271 0 Z" fill="rgb(239,221,216)" fill-rule="nonzero"></path></g>
  <g transform="translate(112.07499999999999 86.18700000000001) matrix(0.991,-0.137,0.137,0.991,7.428,30.146)"><path d="M 12.023 0 L 0 0 L 0 2.27 L 12.023 2.27 L 12.023 0 Z" fill="rgb(239,221,216)" fill-rule="nonzero"></path></g>
  <g transform="translate(112.07499999999999 86.18700000000001) matrix(0.991,-0.137,0.137,0.991,8.136,35.285)"><path d="M 19.469 0 L 0 0 L 0 2.27 L 19.469 2.27 L 19.469 0 Z" fill="rgb(239,221,216)" fill-rule="nonzero"></path></g>
  <g transform="translate(112.07499999999999 86.18700000000001) matrix(0.991,-0.137,0.137,0.991,8.845,40.423)"><path d="M 6.271 0 L 0 0 L 0 2.27 L 6.271 2.27 L 6.271 0 Z" fill="rgb(239,221,216)" fill-rule="nonzero"></path></g>
  <g transform="translate(112.07499999999999 86.18700000000001) matrix(0.991,-0.137,0.137,0.991,15.124,39.558)"><path d="M 6.271 0 L 0 0 L 0 2.27 L 6.271 2.27 L 6.271 0 Z" fill="rgb(255,159,54)" fill-rule="nonzero"></path></g>
  <g transform="translate(112.07499999999999 86.18700000000001) matrix(0.991,-0.137,0.137,0.991,19.338,28.505)"><path d="M 4.394 0 L 0 0 L 0 2.27 L 4.394 2.27 L 4.394 0 Z" fill="rgb(255,159,54)" fill-rule="nonzero"></path></g>
  <g transform="translate(112.07499999999999 86.18700000000001) matrix(-0.137,-0.991,0.991,-0.137,55.459,35.119)"><path d="M 4.766 0 L 0 0 L 0 2.27 L 4.766 2.27 L 4.766 0 Z" fill="rgb(239,221,216)" fill-rule="nonzero"></path></g>
  <g transform="translate(112.07499999999999 86.18700000000001) matrix(-0.137,-0.991,0.991,-0.137,60.599,34.411)"><path d="M 12.023 0 L 0 0 L 0 2.27 L 12.023 2.27 L 12.023 0 Z" fill="rgb(239,221,216)" fill-rule="nonzero"></path></g>
  <g transform="translate(112.07499999999999 86.18700000000001) matrix(-0.137,-0.991,0.991,-0.137,65.737,33.704)"><path d="M 4.766 0 L 0 0 L 0 2.27 L 4.766 2.27 L 4.766 0 Z" fill="rgb(239,221,216)" fill-rule="nonzero"></path></g>
  <g transform="translate(112.07499999999999 86.18700000000001) matrix(-0.137,-0.991,0.991,-0.137,70.876,32.996)"><path d="M 9.204 0 L 0 0 L 0 2.27 L 9.204 2.27 L 9.204 0 Z" fill="rgb(255,159,54)" fill-rule="nonzero"></path></g>
  <g transform="translate(112.07499999999999 86.18700000000001) matrix(-0.137,-0.991,0.991,-0.137,58.959,22.502)"><path d="M 4.394 0 L 0 0 L 0 2.27 L 4.394 2.27 L 4.394 0 Z" fill="rgb(255,159,54)" fill-rule="nonzero"></path></g>
  <g transform="translate(112.07499999999999 86.18700000000001) matrix(-0.137,-0.991,0.991,-0.137,59.359,63.429)"><path d="M 4.531 0 L 0 0 L 0 2.27 L 4.531 2.27 L 4.531 0 Z" fill="rgb(239,221,216)" fill-rule="nonzero"></path></g>
  <g transform="translate(112.07499999999999 86.18700000000001) matrix(-0.137,-0.991,0.991,-0.137,64.497,62.720)"><path d="M 12.023 0 L 0 0 L 0 2.27 L 12.023 2.27 L 12.023 0 Z" fill="rgb(239,221,216)" fill-rule="nonzero"></path></g>
  <g transform="translate(112.07499999999999 86.18700000000001) matrix(-0.137,-0.991,0.991,-0.137,69.635,62.013)"><path d="M 6.384 0 L 0 0 L 0 2.27 L 6.384 2.27 L 6.384 0 Z" fill="rgb(239,221,216)" fill-rule="nonzero"></path></g>
  <g transform="translate(112.07499999999999 86.18700000000001) matrix(-0.137,-0.991,0.991,-0.137,74.774,61.305)"><path d="M 6.271 0 L 0 0 L 0 2.27 L 6.271 2.27 L 6.271 0 Z" fill="rgb(239,221,216)" fill-rule="nonzero"></path></g>
  <g transform="translate(112.07499999999999 86.18700000000001) matrix(-0.137,-0.991,0.991,-0.137,73.909,55.025)"><path d="M 6.271 0 L 0 0 L 0 2.27 L 6.271 2.27 L 6.271 0 Z" fill="rgb(30,144,255)" fill-rule="nonzero"></path></g>
  <g transform="translate(112.07499999999999 86.18700000000001) matrix(-0.137,-0.991,0.991,-0.137,81.043,31.596)"><path d="M 2.383 0 L 0 0 L 0 2.27 L 2.383 2.27 L 2.383 0 Z" fill="rgb(239,221,216)" fill-rule="nonzero"></path></g>
  <g transform="translate(112.07499999999999 86.18700000000001) matrix(-0.137,-0.991,0.991,-0.137,91.322,30.181)"><path d="M 19.469 0 L 0 0 L 0 2.27 L 19.469 2.27 L 19.469 0 Z" fill="rgb(239,221,216)" fill-rule="nonzero"></path></g>
  <g transform="translate(112.07499999999999 86.18700000000001) matrix(-0.137,-0.991,0.991,-0.137,96.460,29.473)"><path d="M 6.271 0 L 0 0 L 0 2.27 L 6.271 2.27 L 6.271 0 Z" fill="rgb(239,221,216)" fill-rule="nonzero"></path></g>
  <g transform="translate(112.07499999999999 86.18700000000001) matrix(-0.137,-0.991,0.991,-0.137,95.596,23.193)"><path d="M 6.271 0 L 0 0 L 0 2.27 L 6.271 2.27 L 6.271 0 Z" fill="rgb(255,159,54)" fill-rule="nonzero"></path></g>
  <g transform="translate(112.07499999999999 86.18700000000001) matrix(-0.137,-0.991,0.991,-0.137,86.183,30.888)"><path d="M 16.417 0 L 0 0 L 0 2.27 L 16.417 2.27 L 16.417 0 Z" fill="rgb(255,159,54)" fill-rule="nonzero"></path></g>
  <g transform="translate(112.07499999999999 86.18700000000001) matrix(-0.137,-0.991,0.991,-0.137,84.942,59.905)"><path d="M 9.475 0 L 0 0 L 0 2.27 L 9.475 2.27 L 9.475 0 Z" fill="rgb(239,221,216)" fill-rule="nonzero"></path></g>
  <g transform="translate(112.07499999999999 86.18700000000001) matrix(-0.137,-0.991,0.991,-0.137,90.081,59.198)"><path d="M 12.023 0 L 0 0 L 0 2.27 L 12.023 2.27 L 12.023 0 Z" fill="rgb(239,221,216)" fill-rule="nonzero"></path></g>
  <g transform="translate(112.07499999999999 86.18700000000001) matrix(-0.137,-0.991,0.991,-0.137,95.220,58.490)"><path d="M 19.469 0 L 0 0 L 0 2.27 L 19.469 2.27 L 19.469 0 Z" fill="rgb(239,221,216)" fill-rule="nonzero"></path></g>
  <g transform="translate(112.07499999999999 86.18700000000001) matrix(-0.137,-0.991,0.991,-0.137,100.358,57.782)"><path d="M 6.271 0 L 0 0 L 0 2.27 L 6.271 2.27 L 6.271 0 Z" fill="rgb(239,221,216)" fill-rule="nonzero"></path></g>
  <g transform="translate(112.07499999999999 86.18700000000001) matrix(-0.137,-0.991,0.991,-0.137,88.440,47.287)"><path d="M 4.394 0 L 0 0 L 0 2.27 L 4.394 2.27 L 4.394 0 Z" fill="rgb(30,144,255)" fill-rule="nonzero"></path></g>
  <g transform="translate(126.15799999999999 141.08300000000003)"><path d="M 14.58 6.317 C 15.132 10.325 12.329 14.019 8.324 14.571 C 4.318 15.123 0.621 12.324 0.069 8.315 C -0.483 4.31 2.32 0.613 6.325 0.061 C 6.555 0.029 6.786 0.01 7.013 0 L 7.324 7.316 L 14.469 5.716 C 14.515 5.913 14.552 6.114 14.58 6.317 Z" fill="rgb(255,159,54)" fill-rule="nonzero"></path></g>
  <g transform="translate(134.01299999999998 139.92100000000002)"><path d="M 7.456 5.723 L 0.312 7.323 L 0 0.007 C 3.533 -0.147 6.687 2.265 7.456 5.723 Z" fill="rgb(239,221,216)" fill-rule="nonzero"></path></g>
  <g transform="translate(146.44899999999998 138.28900000000002)"><path d="M 14.58 6.317 C 15.132 10.325 12.329 14.019 8.324 14.571 C 4.318 15.123 0.621 12.324 0.069 8.315 C -0.483 4.31 2.32 0.613 6.325 0.061 C 6.555 0.029 6.786 0.01 7.013 0 L 7.324 7.316 L 14.469 5.716 C 14.515 5.913 14.552 6.114 14.58 6.317 Z" fill="rgb(239,221,216)" fill-rule="nonzero"></path></g>
  <g transform="translate(154.30399999999997 137.126)"><path d="M 7.456 5.723 L 0.312 7.323 L 0 0.007 C 3.533 -0.147 6.687 2.265 7.456 5.723 Z" fill="rgb(30,144,255)" fill-rule="nonzero"></path></g>
  <g transform="translate(165.298 118.43300000000002)"><path d="M -0.047 2.84 C -0.236 2.866 -0.368 3.04 -0.342 3.229 C -0.316 3.418 -0.142 3.55 0.047 3.524 L 0 3.182 L -0.047 2.84 Z M 23.146 0.342 C 23.335 0.316 23.467 0.142 23.441 -0.047 C 23.415 -0.236 23.241 -0.368 23.052 -0.342 L 23.099 0 L 23.146 0.342 Z M 0 3.182 L 0.047 3.524 L 23.146 0.342 L 23.099 0 L 23.052 -0.342 L -0.047 2.84 L 0 3.182 Z" fill="rgb(239,221,216)" fill-rule="nonzero"></path></g>
  <g transform="translate(169.19799999999998 146.743)"><path d="M -0.047 2.84 C -0.236 2.866 -0.368 3.04 -0.342 3.229 C -0.316 3.418 -0.142 3.55 0.047 3.524 L 0 3.182 L -0.047 2.84 Z M 23.146 0.342 C 23.335 0.316 23.467 0.142 23.441 -0.047 C 23.415 -0.236 23.241 -0.368 23.052 -0.342 L 23.099 0 L 23.146 0.342 Z M 0 3.182 L 0.047 3.524 L 23.146 0.342 L 23.099 0 L 23.052 -0.342 L -0.047 2.84 L 0 3.182 Z" fill="rgb(239,221,216)" fill-rule="nonzero"></path></g>
  <g transform="translate(190.26399999999998 114.99400000000001)"><path d="M -0.047 2.84 C -0.236 2.866 -0.368 3.04 -0.342 3.229 C -0.316 3.418 -0.142 3.55 0.047 3.524 L 0 3.182 L -0.047 2.84 Z M 23.146 0.342 C 23.335 0.316 23.467 0.142 23.441 -0.047 C 23.415 -0.236 23.241 -0.368 23.052 -0.342 L 23.099 0 L 23.146 0.342 Z M 0 3.182 L 0.047 3.524 L 23.146 0.342 L 23.099 0 L 23.052 -0.342 L -0.047 2.84 L 0 3.182 Z" fill="rgb(239,221,216)" fill-rule="nonzero"></path></g>
  <g transform="translate(194.164 143.304)"><path d="M -0.047 2.84 C -0.236 2.866 -0.368 3.04 -0.342 3.229 C -0.316 3.418 -0.142 3.55 0.047 3.524 L 0 3.182 L -0.047 2.84 Z M 23.146 0.342 C 23.335 0.316 23.467 0.142 23.441 -0.047 C 23.415 -0.236 23.241 -0.368 23.052 -0.342 L 23.099 0 L 23.146 0.342 Z M 0 3.182 L 0.047 3.524 L 23.146 0.342 L 23.099 0 L 23.052 -0.342 L -0.047 2.84 L 0 3.182 Z" fill="rgb(239,221,216)" fill-rule="nonzero"></path></g>
  <g transform="translate(131.521 170.524)"><path d="M 1.086 43.953 C 2.44 44.626 6.512 45.82 7.943 45.048 L 15.804 41.17 C 18.682 39.618 21.008 37.213 22.463 34.286 L 25.481 28.212 C 26.819 25.519 27.362 22.499 27.046 19.508 L 25.438 4.309 C 25.158 1.664 22.787 -0.253 20.142 0.027 C 17.497 0.307 15.579 2.678 15.859 5.323 L 17.657 22.313 L 12.438 25.556 L 2.642 37.324 C 0.325 38.573 -0.687 41.448 0.499 43.797 C 0.988 44.766 0.189 43.507 1.086 43.953 Z" fill="rgb(252,211,182)" fill-rule="nonzero"></path><path d="M 1.086 43.953 L 1.277 43.568 L 1.277 43.568 L 1.086 43.953 Z M 7.943 45.048 L 7.753 44.663 L 7.746 44.666 L 7.739 44.67 L 7.943 45.048 Z M 15.804 41.17 L 15.994 41.555 L 16.001 41.551 L 16.008 41.548 L 15.804 41.17 Z M 22.463 34.286 L 22.847 34.477 L 22.847 34.477 L 22.463 34.286 Z M 25.481 28.212 L 25.866 28.404 L 25.866 28.403 L 25.481 28.212 Z M 27.046 19.508 L 27.473 19.462 L 27.473 19.462 L 27.046 19.508 Z M 25.438 4.309 L 25.01 4.355 L 25.01 4.355 L 25.438 4.309 Z M 20.142 0.027 L 20.187 0.454 L 20.187 0.454 L 20.142 0.027 Z M 15.859 5.323 L 16.286 5.278 L 16.286 5.278 L 15.859 5.323 Z M 17.657 22.313 L 17.884 22.678 L 18.113 22.535 L 18.084 22.268 L 17.657 22.313 Z M 12.438 25.556 L 12.211 25.191 L 12.152 25.228 L 12.108 25.281 L 12.438 25.556 Z M 2.642 37.324 L 2.846 37.702 L 2.919 37.662 L 2.972 37.599 L 2.642 37.324 Z M 0.499 43.797 L 0.883 43.604 L 0.883 43.604 L 0.499 43.797 Z M 1.086 43.953 L 0.895 44.338 C 1.613 44.695 3.006 45.171 4.398 45.463 C 5.096 45.609 5.809 45.712 6.448 45.726 C 7.074 45.741 7.689 45.673 8.147 45.426 L 7.943 45.048 L 7.739 44.67 C 7.482 44.809 7.051 44.881 6.468 44.867 C 5.899 44.854 5.242 44.761 4.574 44.622 C 3.233 44.341 1.913 43.884 1.277 43.568 L 1.086 43.953 Z M 7.943 45.048 L 8.133 45.433 L 15.994 41.555 L 15.804 41.17 L 15.614 40.784 L 7.753 44.663 L 7.943 45.048 Z M 15.804 41.17 L 16.008 41.548 C 18.964 39.954 21.353 37.484 22.847 34.477 L 22.463 34.286 L 22.078 34.094 C 20.662 36.942 18.4 39.282 15.6 40.791 L 15.804 41.17 Z M 22.463 34.286 L 22.847 34.477 L 25.866 28.404 L 25.481 28.212 L 25.096 28.021 L 22.078 34.095 L 22.463 34.286 Z M 25.481 28.212 L 25.866 28.403 C 27.241 25.637 27.798 22.535 27.473 19.462 L 27.046 19.508 L 26.619 19.553 C 26.927 22.463 26.398 25.401 25.096 28.021 L 25.481 28.212 Z M 27.046 19.508 L 27.473 19.462 L 25.865 4.264 L 25.438 4.309 L 25.01 4.355 L 26.619 19.553 L 27.046 19.508 Z M 25.438 4.309 L 25.865 4.264 C 25.56 1.383 22.978 -0.705 20.096 -0.4 L 20.142 0.027 L 20.187 0.454 C 22.596 0.199 24.756 1.946 25.01 4.355 L 25.438 4.309 Z M 20.142 0.027 L 20.096 -0.4 C 17.215 -0.095 15.127 2.488 15.432 5.369 L 15.859 5.323 L 16.286 5.278 C 16.031 2.869 17.778 0.709 20.187 0.454 L 20.142 0.027 Z M 15.859 5.323 L 15.432 5.369 L 17.23 22.358 L 17.657 22.313 L 18.084 22.268 L 16.286 5.278 L 15.859 5.323 Z M 17.657 22.313 L 17.43 21.948 L 12.211 25.191 L 12.438 25.556 L 12.665 25.921 L 17.884 22.678 L 17.657 22.313 Z M 12.438 25.556 L 12.108 25.281 L 2.312 37.049 L 2.642 37.324 L 2.972 37.599 L 12.768 25.831 L 12.438 25.556 Z M 2.642 37.324 L 2.438 36.946 C -0.069 38.297 -1.182 41.419 0.115 43.991 L 0.499 43.797 L 0.883 43.604 C -0.191 41.477 0.719 38.849 2.846 37.702 L 2.642 37.324 Z M 0.499 43.797 L 0.115 43.991 C 0.239 44.237 0.265 44.309 0.261 44.296 C 0.259 44.292 0.257 44.284 0.254 44.273 C 0.254 44.271 0.243 44.232 0.243 44.181 C 0.242 44.166 0.243 44.138 0.248 44.104 C 0.253 44.075 0.267 44.007 0.315 43.935 C 0.372 43.85 0.477 43.763 0.626 43.747 C 0.752 43.733 0.845 43.779 0.885 43.801 C 0.959 43.844 1.002 43.899 1.007 43.905 C 1.021 43.923 1.031 43.938 1.035 43.946 C 1.045 43.961 1.051 43.973 1.053 43.978 C 1.056 43.984 1.059 43.988 1.06 43.991 C 1.062 43.996 1.063 44 1.064 44.001 C 1.064 44.002 1.062 43.996 1.061 43.991 C 1.059 43.981 1.065 43.998 1.059 44.031 C 1.053 44.07 1.026 44.164 0.927 44.232 C 0.881 44.263 0.837 44.276 0.805 44.281 C 0.789 44.283 0.777 44.284 0.77 44.284 C 0.762 44.283 0.758 44.283 0.757 44.283 C 0.757 44.283 0.76 44.283 0.766 44.285 C 0.772 44.286 0.781 44.289 0.793 44.293 C 0.817 44.302 0.851 44.316 0.895 44.338 L 1.086 43.953 L 1.277 43.568 C 1.146 43.503 1.015 43.453 0.89 43.434 C 0.765 43.414 0.596 43.418 0.443 43.522 C 0.284 43.63 0.228 43.787 0.211 43.895 C 0.194 43.999 0.206 44.093 0.217 44.152 C 0.23 44.215 0.247 44.27 0.262 44.309 C 0.266 44.319 0.27 44.331 0.276 44.342 C 0.278 44.348 0.289 44.373 0.306 44.4 C 0.311 44.408 0.321 44.424 0.336 44.442 C 0.343 44.451 0.355 44.465 0.371 44.481 C 0.386 44.495 0.415 44.522 0.459 44.547 C 0.498 44.57 0.592 44.615 0.718 44.601 C 0.768 44.593 0.863 44.559 0.908 44.533 C 0.945 44.506 1.006 44.445 1.029 44.413 C 1.077 44.341 1.091 44.273 1.096 44.244 C 1.102 44.21 1.102 44.182 1.102 44.166 C 1.101 44.114 1.09 44.074 1.089 44.071 C 1.086 44.057 1.083 44.046 1.081 44.04 C 1.068 44 1.046 43.947 1.019 43.887 C 0.989 43.821 0.946 43.729 0.883 43.604 L 0.499 43.797 Z" fill="rgb(9,21,32)" fill-rule="nonzero"></path></g>
  <g transform="translate(103.017 162.41)"><path d="M 36.787 52.994 L 29.275 56.528 L 27.24 60.623 L 0 47.086 L 2.295 42.468 C 0.999 36.772 2.169 33.116 6.326 24.752 L 18.627 0 L 53.196 17.18 L 43.835 36.015" fill="rgb(252,211,182)" fill-rule="nonzero"></path><path d="M 36.97 53.383 C 37.185 53.282 37.277 53.026 37.176 52.811 C 37.075 52.597 36.819 52.504 36.604 52.605 L 36.787 52.994 L 36.97 53.383 Z M 29.275 56.528 L 29.092 56.139 L 28.956 56.203 L 28.89 56.337 L 29.275 56.528 Z M 27.24 60.623 L 27.048 61.008 L 27.433 61.199 L 27.624 60.814 L 27.24 60.623 Z M 0 47.086 L -0.385 46.895 L -0.576 47.28 L -0.191 47.471 L 0 47.086 Z M 2.295 42.468 L 2.679 42.659 L 2.748 42.522 L 2.714 42.373 L 2.295 42.468 Z M 6.326 24.752 L 6.71 24.943 L 6.71 24.943 L 6.326 24.752 Z M 18.627 0 L 18.818 -0.385 L 18.434 -0.576 L 18.242 -0.191 L 18.627 0 Z M 53.196 17.18 L 53.581 17.371 L 53.772 16.986 L 53.387 16.795 L 53.196 17.18 Z M 43.451 35.824 C 43.345 36.036 43.432 36.294 43.644 36.4 C 43.857 36.505 44.114 36.419 44.22 36.206 L 43.835 36.015 L 43.451 35.824 Z M 36.787 52.994 L 36.604 52.605 L 29.092 56.139 L 29.275 56.528 L 29.457 56.917 L 36.97 53.383 L 36.787 52.994 Z M 29.275 56.528 L 28.89 56.337 L 26.855 60.432 L 27.24 60.623 L 27.624 60.814 L 29.659 56.719 L 29.275 56.528 Z M 27.24 60.623 L 27.431 60.238 L 0.191 46.701 L 0 47.086 L -0.191 47.471 L 27.048 61.008 L 27.24 60.623 Z M 0 47.086 L 0.385 47.277 L 2.679 42.659 L 2.295 42.468 L 1.91 42.277 L -0.385 46.895 L 0 47.086 Z M 2.295 42.468 L 2.714 42.373 C 2.079 39.582 2.05 37.312 2.683 34.712 C 3.32 32.093 4.632 29.126 6.71 24.943 L 6.326 24.752 L 5.941 24.561 C 3.863 28.742 2.511 31.786 1.848 34.509 C 1.181 37.253 1.215 39.659 1.876 42.564 L 2.295 42.468 Z M 6.326 24.752 L 6.71 24.943 L 19.012 0.191 L 18.627 0 L 18.242 -0.191 L 5.941 24.561 L 6.326 24.752 Z M 18.627 0 L 18.436 0.385 L 53.005 17.565 L 53.196 17.18 L 53.387 16.795 L 18.818 -0.385 L 18.627 0 Z M 53.196 17.18 L 52.811 16.989 L 43.451 35.824 L 43.835 36.015 L 44.22 36.206 L 53.581 17.371 L 53.196 17.18 Z" fill="rgb(9,21,32)" fill-rule="nonzero"></path></g>
  <g transform="translate(146.691 137.707)"><path d="M 8.642 43.653 L 26.871 6.974 C 28.057 4.587 27.084 1.691 24.697 0.505 C 22.311 -0.681 19.415 0.292 18.229 2.679 L 0 39.358" fill="rgb(252,211,182)" fill-rule="nonzero"></path><path d="M 8.258 43.462 C 8.152 43.674 8.239 43.932 8.451 44.038 C 8.664 44.143 8.921 44.057 9.027 43.844 L 8.642 43.653 L 8.258 43.462 Z M 26.871 6.974 L 27.256 7.165 L 27.256 7.165 L 26.871 6.974 Z M 18.229 2.679 L 18.613 2.87 L 18.613 2.87 L 18.229 2.679 Z M -0.385 39.167 C -0.49 39.379 -0.404 39.637 -0.191 39.743 C 0.021 39.848 0.279 39.762 0.385 39.549 L 0 39.358 L -0.385 39.167 Z M 8.642 43.653 L 9.027 43.844 L 27.256 7.165 L 26.871 6.974 L 26.486 6.783 L 8.258 43.462 L 8.642 43.653 Z M 26.871 6.974 L 27.256 7.165 C 28.547 4.566 27.487 1.412 24.888 0.121 L 24.697 0.505 L 24.506 0.89 C 26.68 1.97 27.567 4.609 26.486 6.783 L 26.871 6.974 Z M 24.697 0.505 L 24.888 0.121 C 22.29 -1.171 19.136 -0.111 17.844 2.488 L 18.229 2.679 L 18.613 2.87 C 19.694 0.696 22.332 -0.19 24.506 0.89 L 24.697 0.505 Z M 18.229 2.679 L 17.844 2.488 L -0.385 39.167 L 0 39.358 L 0.385 39.549 L 18.613 2.87 L 18.229 2.679 Z" fill="rgb(9,21,32)" fill-rule="nonzero"></path></g>
  <g transform="translate(138.352 163.399)"><path d="M 8.478 13.385 L 11.664 6.974 C 12.85 4.587 11.877 1.691 9.49 0.505 C 7.104 -0.681 4.208 0.292 3.022 2.679 L 0 8.759" fill="rgb(252,211,182)" fill-rule="nonzero"></path><path d="M 8.093 13.194 C 7.988 13.406 8.074 13.664 8.287 13.769 C 8.499 13.875 8.757 13.788 8.863 13.576 L 8.478 13.385 L 8.093 13.194 Z M 11.664 6.974 L 12.049 7.165 L 12.049 7.165 L 11.664 6.974 Z M 3.022 2.679 L 3.406 2.87 L 3.406 2.87 L 3.022 2.679 Z M -0.385 8.568 C -0.49 8.78 -0.404 9.038 -0.191 9.144 C 0.021 9.249 0.279 9.163 0.385 8.95 L 0 8.759 L -0.385 8.568 Z M 8.478 13.385 L 8.863 13.576 L 12.049 7.165 L 11.664 6.974 L 11.279 6.783 L 8.093 13.194 L 8.478 13.385 Z M 11.664 6.974 L 12.049 7.165 C 13.34 4.566 12.28 1.412 9.681 0.121 L 9.49 0.505 L 9.299 0.89 C 11.473 1.97 12.36 4.609 11.279 6.783 L 11.664 6.974 Z M 9.49 0.505 L 9.681 0.121 C 7.083 -1.171 3.928 -0.111 2.637 2.488 L 3.022 2.679 L 3.406 2.87 C 4.487 0.696 7.125 -0.19 9.299 0.89 L 9.49 0.505 Z M 3.022 2.679 L 2.637 2.488 L -0.385 8.568 L 0 8.759 L 0.385 8.95 L 3.406 2.87 L 3.022 2.679 Z" fill="rgb(9,21,32)" fill-rule="nonzero"></path></g>
  <g transform="translate(129.611 160.201)"><path d="M 8.577 12.289 L 11.219 6.974 C 12.404 4.587 11.431 1.691 9.045 0.505 C 6.658 -0.681 3.762 0.292 2.576 2.679 L 0 7.863" fill="rgb(252,211,182)" fill-rule="nonzero"></path><path d="M 8.193 12.097 C 8.087 12.31 8.174 12.568 8.386 12.673 C 8.599 12.779 8.856 12.692 8.962 12.48 L 8.577 12.289 L 8.193 12.097 Z M 11.219 6.974 L 11.603 7.165 L 11.603 7.165 L 11.219 6.974 Z M 2.576 2.679 L 2.961 2.87 L 2.961 2.87 L 2.576 2.679 Z M -0.385 7.672 C -0.49 7.884 -0.404 8.142 -0.191 8.247 C 0.021 8.353 0.279 8.266 0.385 8.054 L 0 7.863 L -0.385 7.672 Z M 8.577 12.289 L 8.962 12.48 L 11.603 7.165 L 11.219 6.974 L 10.834 6.783 L 8.193 12.097 L 8.577 12.289 Z M 11.219 6.974 L 11.603 7.165 C 12.895 4.566 11.835 1.412 9.236 0.121 L 9.045 0.505 L 8.854 0.89 C 11.028 1.97 11.914 4.609 10.834 6.783 L 11.219 6.974 Z M 9.045 0.505 L 9.236 0.121 C 6.637 -1.171 3.483 -0.111 2.192 2.488 L 2.576 2.679 L 2.961 2.87 C 4.041 0.696 6.68 -0.19 8.854 0.89 L 9.045 0.505 Z M 2.576 2.679 L 2.192 2.488 L -0.385 7.672 L 0 7.863 L 0.385 8.054 L 2.961 2.87 L 2.576 2.679 Z" fill="rgb(9,21,32)" fill-rule="nonzero"></path></g>
  <g transform="translate(60.9 137.707) matrix(-0.896,-0.445,0.445,-0.896,70.503,90.573)"><path d="M 37.473 0 L 0 0 L 0 5.38 L 37.473 5.38 L 37.473 0 Z" fill="rgb(255,255,255)" fill-rule="nonzero"></path><path d="M 0 0 L 0 -0.43 L -0.43 -0.43 L -0.43 0 L 0 0 Z M 37.473 0 L 37.902 0 L 37.902 -0.43 L 37.473 -0.43 L 37.473 0 Z M 37.473 5.38 L 37.473 5.809 L 37.902 5.809 L 37.902 5.38 L 37.473 5.38 Z M 0 5.38 L -0.43 5.38 L -0.43 5.809 L 0 5.809 L 0 5.38 Z M 0 0 L 0 0.43 L 37.473 0.43 L 37.473 0 L 37.473 -0.43 L 0 -0.43 L 0 0 Z M 37.473 0 L 37.043 0 L 37.043 5.38 L 37.473 5.38 L 37.902 5.38 L 37.902 0 L 37.473 0 Z M 37.473 5.38 L 37.473 4.95 L 0 4.95 L 0 5.38 L 0 5.809 L 37.473 5.809 L 37.473 5.38 Z M 0 5.38 L 0.43 5.38 L 0.43 0 L 0 0 L -0.43 0 L -0.43 5.38 L 0 5.38 Z" fill="rgb(9,21,32)" fill-rule="nonzero"></path></g>
  <g transform="translate(120.519 157.38899999999998)"><path d="M 8.889 11.083 L 10.93 6.974 C 12.116 4.587 11.143 1.691 8.757 0.505 C 6.37 -0.681 3.474 0.292 2.288 2.679 L 0 7.283" fill="rgb(252,211,182)" fill-rule="nonzero"></path><path d="M 8.504 10.891 C 8.398 11.104 8.485 11.362 8.697 11.467 C 8.91 11.573 9.168 11.486 9.273 11.274 L 8.889 11.083 L 8.504 10.891 Z M 10.93 6.974 L 11.315 7.165 L 11.315 7.165 L 10.93 6.974 Z M 2.288 2.679 L 2.673 2.87 L 2.673 2.87 L 2.288 2.679 Z M -0.385 7.092 C -0.49 7.304 -0.404 7.562 -0.191 7.668 C 0.021 7.773 0.279 7.687 0.385 7.474 L 0 7.283 L -0.385 7.092 Z M 8.889 11.083 L 9.273 11.274 L 11.315 7.165 L 10.93 6.974 L 10.546 6.783 L 8.504 10.891 L 8.889 11.083 Z M 10.93 6.974 L 11.315 7.165 C 12.607 4.566 11.547 1.412 8.948 0.121 L 8.757 0.505 L 8.566 0.89 C 10.74 1.97 11.626 4.609 10.546 6.783 L 10.93 6.974 Z M 8.757 0.505 L 8.948 0.121 C 6.349 -1.171 3.195 -0.111 1.904 2.488 L 2.288 2.679 L 2.673 2.87 C 3.753 0.696 6.392 -0.19 8.566 0.89 L 8.757 0.505 Z M 2.288 2.679 L 1.904 2.488 L -0.385 7.092 L 0 7.283 L 0.385 7.474 L 2.673 2.87 L 2.288 2.679 Z" fill="rgb(9,21,32)" fill-rule="nonzero"></path></g>
  <g transform="translate(60.9 210.445)"><path d="M 73.236 19.275 L 48.527 67.302 L 0 67.302 L 34.446 0 L 39.619 2.571 L 73.236 19.275 Z" fill="rgb(30,144,255)" fill-rule="nonzero"></path><path d="M 73.236 19.275 L 73.618 19.471 L 73.817 19.084 L 73.427 18.89 L 73.236 19.275 Z M 48.527 67.302 L 48.527 67.732 L 48.789 67.732 L 48.909 67.499 L 48.527 67.302 Z M 0 67.302 L -0.382 67.106 L -0.702 67.732 L 0 67.732 L 0 67.302 Z M 34.446 0 L 34.637 -0.385 L 34.257 -0.574 L 34.064 -0.196 L 34.446 0 Z M 39.619 2.571 L 39.428 2.956 L 39.428 2.956 L 39.619 2.571 Z M 73.236 19.275 L 72.854 19.078 L 48.145 67.106 L 48.527 67.302 L 48.909 67.499 L 73.618 19.471 L 73.236 19.275 Z M 48.527 67.302 L 48.527 66.873 L 0 66.873 L 0 67.302 L 0 67.732 L 48.527 67.732 L 48.527 67.302 Z M 0 67.302 L 0.382 67.498 L 34.828 0.196 L 34.446 0 L 34.064 -0.196 L -0.382 67.106 L 0 67.302 Z M 34.446 0 L 34.255 0.385 L 39.428 2.956 L 39.619 2.571 L 39.81 2.187 L 34.637 -0.385 L 34.446 0 Z M 39.619 2.571 L 39.428 2.956 L 73.045 19.66 L 73.236 19.275 L 73.427 18.89 L 39.81 2.187 L 39.619 2.571 Z" fill="rgb(9,21,32)" fill-rule="nonzero"></path></g>
  <g transform="translate(103.017 187.57999999999998)"><path d="M 47.931 21.426 L 36.015 24.772 C 31.501 26.04 26.678 25.586 22.479 23.5 L 16.862 20.708 C 10.774 17.683 6.776 11.622 6.392 4.833 L 6.119 0 C 6.119 0 2.616 6.74 2.19 9.206 C 1.474 13.352 2.295 17.298 2.295 17.298 L 0 21.916 L 27.24 35.453 L 29.21 31.489 L 43.192 24.664 L 47.931 21.426 Z" fill="rgb(9,21,32)" fill-rule="nonzero"></path></g>
  <g transform="translate(147.007 177.314)"><path d="M 10.9 6.493 L 10.336 0 L 0 20.798 L 10.9 6.493 Z" fill="rgb(9,21,32)" fill-rule="nonzero"></path></g>
  <g transform="translate(165.019 140.134)"><path d="M 1.648 7.776 C 3.115 8.506 4.896 7.907 5.625 6.44 L 6.695 4.289 C 7.424 2.821 6.825 1.04 5.358 0.311 C 3.89 -0.419 2.109 0.18 1.38 1.648 L 0.311 3.799 C -0.419 5.266 0.18 7.047 1.648 7.776 Z" fill="rgb(255,255,255)" fill-rule="nonzero"></path></g>
  <g transform="translate(210.11700000000002 172.135)"><path d="M 0.03 0 C -0.492 0.422 5.954 24.511 5.954 24.511 L 4.664 30.446 L 10.351 36.578 L 24.441 33.71 L 33.692 32.689 L 32.32 24.322 L 0.03 0 Z" fill="rgb(252,211,182)" fill-rule="nonzero"></path></g>
  <g transform="translate(192.18200000000002 160.82)"><path d="M 32.073 26.215 C 28.857 20.211 23.157 15.565 17.498 16.237 C 14.183 16.63 11.349 16.313 10.416 12.883 C 10.412 12.868 8.256 3.608 8.256 3.608 C 7.704 1.155 5.352 -0.442 3.051 0.109 C 0.859 0.633 -0.41 2.982 0.12 5.338 L 2.667 16.669 C 3.351 19.713 4.788 22.557 6.823 24.895 L 26.62 46.059" fill="rgb(252,211,182)" fill-rule="nonzero"></path><path d="M 31.694 26.418 C 31.806 26.627 32.067 26.706 32.276 26.594 C 32.485 26.482 32.564 26.221 32.452 26.012 L 32.073 26.215 L 31.694 26.418 Z M 17.498 16.237 L 17.549 16.663 L 17.549 16.663 L 17.498 16.237 Z M 10.416 12.883 L 10.001 12.994 L 10.002 12.995 L 10.416 12.883 Z M 8.256 3.608 L 7.836 3.703 L 7.837 3.706 L 8.256 3.608 Z M 3.051 0.109 L 3.151 0.526 L 3.151 0.526 L 3.051 0.109 Z M 0.12 5.338 L 0.539 5.244 L 0.539 5.244 L 0.12 5.338 Z M 2.667 16.669 L 2.248 16.763 L 2.248 16.763 L 2.667 16.669 Z M 6.823 24.895 L 6.499 25.177 L 6.504 25.183 L 6.509 25.188 L 6.823 24.895 Z M 26.306 46.353 C 26.468 46.526 26.74 46.535 26.913 46.373 C 27.086 46.211 27.095 45.939 26.933 45.766 L 26.62 46.059 L 26.306 46.353 Z M 32.073 26.215 L 32.452 26.012 C 30.817 22.961 28.547 20.246 25.953 18.374 C 23.359 16.503 20.413 15.458 17.447 15.81 L 17.498 16.237 L 17.549 16.663 C 20.242 16.344 22.975 17.286 25.45 19.071 C 27.924 20.855 30.112 23.465 31.694 26.418 L 32.073 26.215 Z M 17.498 16.237 L 17.447 15.81 C 15.803 16.005 14.352 16.012 13.213 15.591 C 12.113 15.183 11.263 14.361 10.831 12.77 L 10.416 12.883 L 10.002 12.995 C 10.502 14.835 11.536 15.886 12.915 16.396 C 14.255 16.893 15.879 16.861 17.549 16.663 L 17.498 16.237 Z M 10.416 12.883 L 10.831 12.771 C 10.832 12.773 10.295 10.469 9.753 8.142 C 9.483 6.984 9.213 5.826 9.011 4.958 C 8.91 4.524 8.826 4.162 8.767 3.909 C 8.737 3.782 8.714 3.683 8.698 3.615 C 8.69 3.581 8.684 3.555 8.68 3.537 C 8.678 3.529 8.676 3.522 8.675 3.517 C 8.675 3.515 8.675 3.514 8.674 3.512 C 8.674 3.512 8.674 3.511 8.674 3.511 C 8.674 3.511 8.674 3.511 8.674 3.511 C 8.674 3.511 8.674 3.511 8.256 3.608 C 7.837 3.706 7.837 3.706 7.837 3.706 C 7.837 3.706 7.837 3.706 7.837 3.706 C 7.837 3.706 7.837 3.707 7.838 3.707 C 7.838 3.708 7.838 3.71 7.839 3.712 C 7.84 3.717 7.841 3.723 7.843 3.732 C 7.847 3.75 7.853 3.776 7.861 3.81 C 7.877 3.877 7.9 3.977 7.93 4.104 C 7.989 4.357 8.073 4.719 8.174 5.153 C 8.376 6.021 8.646 7.179 8.916 8.337 C 9.454 10.645 9.997 12.977 10.001 12.994 L 10.416 12.883 Z M 8.256 3.608 L 8.675 3.514 C 8.077 0.857 5.513 -0.922 2.951 -0.309 L 3.051 0.109 L 3.151 0.526 C 5.191 0.039 7.331 1.454 7.836 3.703 L 8.256 3.608 Z M 3.051 0.109 L 2.951 -0.309 C 0.492 0.279 -0.871 2.889 -0.299 5.432 L 0.12 5.338 L 0.539 5.244 C 0.052 3.076 1.227 0.986 3.151 0.526 L 3.051 0.109 Z M 0.12 5.338 L -0.299 5.432 L 2.248 16.763 L 2.667 16.669 L 3.086 16.574 L 0.539 5.244 L 0.12 5.338 Z M 2.667 16.669 L 2.248 16.763 C 2.948 19.876 4.417 22.785 6.499 25.177 L 6.823 24.895 L 7.147 24.613 C 5.159 22.329 3.755 19.549 3.086 16.574 L 2.667 16.669 Z M 6.823 24.895 L 6.509 25.188 L 26.306 46.353 L 26.62 46.059 L 26.933 45.766 L 7.137 24.601 L 6.823 24.895 Z" fill="rgb(9,21,32)" fill-rule="nonzero"></path></g>
  <g transform="translate(192.698 160.82)"><path d="M 2.535 0.109 C 4.835 -0.442 7.188 1.156 7.738 3.608 L 9.647 12.03 C 9.65 12.044 9.92 11.856 10.202 13.79 C 10.727 16.078 13.613 16.16 15.822 16.22 C 20.303 16.338 28.341 20.211 31.557 26.214 L 29.992 27.857 C 27.351 22.927 21.584 18.44 16.693 18.681 C 15.384 18.746 13.855 18.544 13.054 18.523 C 10.845 18.465 8.848 16.833 8.323 14.545 C 8.319 14.529 6.174 5.25 6.174 5.25 C 5.623 2.796 3.272 1.2 0.971 1.751 C 0.623 1.835 0.298 1.964 0 2.13 C 0.519 1.137 1.404 0.379 2.535 0.109 Z" fill="rgb(9,21,32)" fill-rule="nonzero"></path></g>
  <g transform="translate(205.948 136.04)"><path d="M 37.639 67.101 C 42.034 59.346 42.431 52.156 40.558 41.908 L 35.888 14.702 L 0 0 L 5.217 36.861" fill="rgb(252,211,182)" fill-rule="nonzero"></path><path d="M 37.266 66.889 C 37.149 67.095 37.221 67.358 37.427 67.475 C 37.634 67.592 37.896 67.519 38.013 67.313 L 37.639 67.101 L 37.266 66.889 Z M 40.558 41.908 L 40.135 41.981 L 40.136 41.985 L 40.558 41.908 Z M 35.888 14.702 L 36.311 14.63 L 36.271 14.395 L 36.051 14.305 L 35.888 14.702 Z M 0 0 L 0.163 -0.398 L -0.53 -0.681 L -0.425 0.06 L 0 0 Z M 4.792 36.921 C 4.825 37.156 5.042 37.32 5.277 37.287 C 5.512 37.253 5.676 37.036 5.642 36.801 L 5.217 36.861 L 4.792 36.921 Z M 37.639 67.101 L 38.013 67.313 C 42.476 59.438 42.864 52.135 40.981 41.831 L 40.558 41.908 L 40.136 41.985 C 41.998 52.177 41.593 59.253 37.266 66.889 L 37.639 67.101 Z M 40.558 41.908 L 40.982 41.835 L 36.311 14.63 L 35.888 14.702 L 35.465 14.775 L 40.135 41.981 L 40.558 41.908 Z M 35.888 14.702 L 36.051 14.305 L 0.163 -0.398 L 0 0 L -0.163 0.398 L 35.725 15.1 L 35.888 14.702 Z M 0 0 L -0.425 0.06 L 4.792 36.921 L 5.217 36.861 L 5.642 36.801 L 0.425 -0.06 L 0 0 Z" fill="rgb(9,21,32)" fill-rule="nonzero"></path></g>
  <g transform="translate(209.757 171.861)"><path d="M 0 6.104 C 0.029 6.296 1.396 15.606 1.396 15.606 C 1.396 15.606 15.475 18.371 15.61 18.623 C 15.745 18.875 19.535 17.153 18.593 14.603 C 17.65 12.054 12.457 0.555 11.874 0.03 C 11.29 -0.495 0 6.104 0 6.104 Z" fill="rgb(252,211,182)" fill-rule="nonzero"></path></g>
  <g transform="translate(218.80200000000002 203.141)"><path d="M 24.785 0 L 26.219 10.876 L 0.847 11.022 L 0.474 8.204 L 0 3.738" fill="rgb(252,211,182)" fill-rule="nonzero"></path><path d="M 25.211 -0.056 C 25.18 -0.291 24.965 -0.457 24.729 -0.426 C 24.494 -0.395 24.329 -0.179 24.36 0.056 L 24.785 0 L 25.211 -0.056 Z M 26.219 10.876 L 26.222 11.306 L 26.709 11.303 L 26.645 10.82 L 26.219 10.876 Z M 0.847 11.022 L 0.422 11.079 L 0.471 11.454 L 0.85 11.452 L 0.847 11.022 Z M 0.474 8.204 L 0.047 8.25 L 0.048 8.261 L 0.474 8.204 Z M 0.427 3.693 C 0.402 3.457 0.191 3.286 -0.045 3.311 C -0.281 3.336 -0.452 3.548 -0.427 3.784 L 0 3.738 L 0.427 3.693 Z M 24.785 0 L 24.36 0.056 L 25.793 10.932 L 26.219 10.876 L 26.645 10.82 L 25.211 -0.056 L 24.785 0 Z M 26.219 10.876 L 26.217 10.446 L 0.845 10.593 L 0.847 11.022 L 0.85 11.452 L 26.222 11.306 L 26.219 10.876 Z M 0.847 11.022 L 1.273 10.966 L 0.9 8.148 L 0.474 8.204 L 0.048 8.261 L 0.422 11.079 L 0.847 11.022 Z M 0.474 8.204 L 0.901 8.159 L 0.427 3.693 L 0 3.738 L -0.427 3.784 L 0.047 8.25 L 0.474 8.204 Z" fill="rgb(9,21,32)" fill-rule="nonzero"></path></g>
  <g transform="translate(223.30900000000003 146.035)"><path d="M 4.57 1.393 L 3.338 1.49 C 0.815 1.271 0.303 -1.514 0.221 1.137 L 0.002 8.242 C -0.079 10.893 1.9 13.22 4.424 13.439 C 6.947 13.658 9.059 11.686 9.14 9.034 L 9.359 1.93 C 9.441 -0.722 7.093 1.612 4.57 1.393 Z" fill="rgb(9,21,32)" fill-rule="nonzero"></path></g>
  <g transform="translate(240.23000000000002 193.00099999999998)"><path d="M 0.945 0.723 C 1.027 0.783 1.107 0.841 1.19 0.894 L 0 0 L 0.945 0.723 Z" fill="rgb(9,21,32)" fill-rule="nonzero"></path></g>
  <g transform="translate(202.63400000000001 126.541)"><path d="M 3.943 0.019 C 1.442 0.253 -0.303 2.59 0.044 5.24 L 7.336 52.81 L 12.113 51.719 L 12.884 41.495 L 10.643 31.059 L 11.979 31.361 L 12.303 25.552 L 9.099 4.394 C 8.753 1.744 6.444 -0.215 3.943 0.019 Z" fill="rgb(252,211,182)" fill-rule="nonzero"></path></g>
  <g transform="translate(220.692 126.54299999999999)"><path d="M 13.861 35.845 L 9.099 4.394 C 8.752 1.744 6.444 -0.215 3.943 0.019 C 1.442 0.253 -0.303 2.59 0.044 5.241 L 4.806 34.036" fill="rgb(252,211,182)" fill-rule="nonzero"></path><path d="M 13.437 35.909 C 13.472 36.144 13.691 36.305 13.926 36.27 C 14.16 36.234 14.322 36.015 14.286 35.781 L 13.861 35.845 L 13.437 35.909 Z M 9.099 4.394 L 8.673 4.45 L 8.675 4.459 L 9.099 4.394 Z M 3.943 0.019 L 3.983 0.447 L 3.983 0.447 L 3.943 0.019 Z M 0.044 5.241 L -0.382 5.296 L -0.381 5.304 L -0.38 5.311 L 0.044 5.241 Z M 4.382 34.106 C 4.421 34.34 4.642 34.499 4.876 34.46 C 5.11 34.421 5.269 34.2 5.23 33.966 L 4.806 34.036 L 4.382 34.106 Z M 13.861 35.845 L 14.286 35.781 L 9.524 4.33 L 9.099 4.394 L 8.675 4.459 L 13.437 35.909 L 13.861 35.845 Z M 9.099 4.394 L 9.525 4.339 C 9.151 1.483 6.657 -0.666 3.903 -0.409 L 3.943 0.019 L 3.983 0.447 C 6.23 0.237 8.353 2.005 8.674 4.45 L 9.099 4.394 Z M 3.943 0.019 L 3.903 -0.409 C 1.134 -0.15 -0.757 2.432 -0.382 5.296 L 0.044 5.241 L 0.47 5.185 C 0.151 2.749 1.751 0.655 3.983 0.447 L 3.943 0.019 Z M 0.044 5.241 L -0.38 5.311 L 4.382 34.106 L 4.806 34.036 L 5.23 33.966 L 0.468 5.17 L 0.044 5.241 Z" fill="rgb(9,21,32)" fill-rule="nonzero"></path></g>
  <g transform="translate(231.048 134.28)"><path d="M 14.173 36.181 L 9.099 4.394 C 8.752 1.744 6.444 -0.215 3.943 0.019 C 1.442 0.253 -0.303 2.59 0.044 5.241 L 3.506 28.108" fill="rgb(252,211,182)" fill-rule="nonzero"></path><path d="M 13.749 36.248 C 13.786 36.483 14.006 36.642 14.24 36.605 C 14.475 36.568 14.634 36.347 14.597 36.113 L 14.173 36.181 L 13.749 36.248 Z M 9.099 4.394 L 8.673 4.45 L 8.675 4.462 L 9.099 4.394 Z M 3.943 0.019 L 3.983 0.447 L 3.983 0.447 L 3.943 0.019 Z M 0.044 5.241 L -0.382 5.296 L -0.381 5.305 L 0.044 5.241 Z M 3.082 28.172 C 3.117 28.407 3.336 28.568 3.571 28.533 C 3.805 28.497 3.967 28.278 3.931 28.044 L 3.506 28.108 L 3.082 28.172 Z M 14.173 36.181 L 14.597 36.113 L 9.524 4.327 L 9.099 4.394 L 8.675 4.462 L 13.749 36.248 L 14.173 36.181 Z M 9.099 4.394 L 9.525 4.339 C 9.151 1.483 6.657 -0.666 3.903 -0.409 L 3.943 0.019 L 3.983 0.447 C 6.23 0.237 8.353 2.005 8.674 4.45 L 9.099 4.394 Z M 3.943 0.019 L 3.903 -0.409 C 1.134 -0.15 -0.757 2.432 -0.382 5.296 L 0.044 5.241 L 0.47 5.185 C 0.151 2.749 1.751 0.655 3.983 0.447 L 3.943 0.019 Z M 0.044 5.241 L -0.381 5.305 L 3.082 28.172 L 3.506 28.108 L 3.931 28.044 L 0.469 5.176 L 0.044 5.241 Z" fill="rgb(9,21,32)" fill-rule="nonzero"></path></g>
  <g transform="translate(211.246 123.651)"><path d="M 14.252 36.928 L 9.1 4.394 C 8.752 1.744 6.444 -0.215 3.943 0.019 C 1.442 0.253 -0.303 2.59 0.044 5.241 L 5.007 36.664" fill="rgb(252,211,182)" fill-rule="nonzero"></path><path d="M 13.828 36.996 C 13.865 37.23 14.085 37.39 14.319 37.353 C 14.554 37.316 14.714 37.096 14.676 36.861 L 14.252 36.928 L 13.828 36.996 Z M 9.1 4.394 L 8.673 4.45 L 8.675 4.461 L 9.1 4.394 Z M 3.943 0.019 L 3.983 0.447 L 3.983 0.447 L 3.943 0.019 Z M 0.044 5.241 L -0.382 5.296 L -0.38 5.308 L 0.044 5.241 Z M 4.583 36.731 C 4.62 36.965 4.84 37.125 5.074 37.088 C 5.308 37.051 5.468 36.831 5.431 36.597 L 5.007 36.664 L 4.583 36.731 Z M 14.252 36.928 L 14.676 36.861 L 9.524 4.327 L 9.1 4.394 L 8.675 4.461 L 13.828 36.996 L 14.252 36.928 Z M 9.1 4.394 L 9.525 4.339 C 9.152 1.483 6.657 -0.666 3.903 -0.409 L 3.943 0.019 L 3.983 0.447 C 6.23 0.237 8.353 2.005 8.674 4.45 L 9.1 4.394 Z M 3.943 0.019 L 3.903 -0.409 C 1.134 -0.15 -0.757 2.432 -0.382 5.296 L 0.044 5.241 L 0.47 5.185 C 0.151 2.749 1.751 0.655 3.983 0.447 L 3.943 0.019 Z M 0.044 5.241 L -0.38 5.308 L 4.583 36.731 L 5.007 36.664 L 5.431 36.597 L 0.468 5.174 L 0.044 5.241 Z" fill="rgb(9,21,32)" fill-rule="nonzero"></path></g>
  <g transform="translate(216.26800000000003 208.97899999999998)"><path d="M 29.36 7.488 L 28.367 0 L 0 2.7 L 0.992 10.187 L 29.36 7.488 Z" fill="rgb(255,255,255)" fill-rule="nonzero"></path><path d="M 29.36 7.488 L 29.4 7.915 L 29.844 7.873 L 29.785 7.431 L 29.36 7.488 Z M 28.367 0 L 28.793 -0.056 L 28.739 -0.467 L 28.327 -0.428 L 28.367 0 Z M 0 2.7 L -0.041 2.272 L -0.484 2.315 L -0.426 2.756 L 0 2.7 Z M 0.992 10.187 L 0.566 10.244 L 0.621 10.654 L 1.033 10.615 L 0.992 10.187 Z M 29.36 7.488 L 29.785 7.431 L 28.793 -0.056 L 28.367 0 L 27.941 0.056 L 28.934 7.544 L 29.36 7.488 Z M 28.367 0 L 28.327 -0.428 L -0.041 2.272 L 0 2.7 L 0.041 3.128 L 28.408 0.428 L 28.367 0 Z M 0 2.7 L -0.426 2.756 L 0.566 10.244 L 0.992 10.187 L 1.418 10.131 L 0.426 2.644 L 0 2.7 Z M 0.992 10.187 L 1.033 10.615 L 29.4 7.915 L 29.36 7.488 L 29.319 7.06 L 0.952 9.76 L 0.992 10.187 Z" fill="rgb(9,21,32)" fill-rule="nonzero"></path></g>
  <g transform="translate(216.69000000000003 212.15699999999998)"><path d="M 29.36 7.487 L 28.367 0 L 0 2.7 L 0.992 10.187 L 29.36 7.487 Z" fill="rgb(9,21,32)" fill-rule="nonzero"></path></g>
  <g transform="translate(211.91700000000003 214.25900000000001)"><path d="M 37.97 0 L 48.281 63.489 L 7.85 63.489 L 0 3.827 L 37.97 0 Z" fill="rgb(30,144,255)" fill-rule="nonzero"></path><path d="M 37.97 0 L 38.394 -0.069 L 38.329 -0.468 L 37.927 -0.427 L 37.97 0 Z M 48.281 63.489 L 48.281 63.918 L 48.786 63.918 L 48.705 63.42 L 48.281 63.489 Z M 7.85 63.489 L 7.424 63.545 L 7.473 63.918 L 7.85 63.918 L 7.85 63.489 Z M 0 3.827 L -0.043 3.4 L -0.484 3.444 L -0.426 3.883 L 0 3.827 Z M 37.97 0 L 37.546 0.069 L 47.857 63.558 L 48.281 63.489 L 48.705 63.42 L 38.394 -0.069 L 37.97 0 Z M 48.281 63.489 L 48.281 63.059 L 7.85 63.059 L 7.85 63.489 L 7.85 63.918 L 48.281 63.918 L 48.281 63.489 Z M 7.85 63.489 L 8.276 63.433 L 0.426 3.771 L 0 3.827 L -0.426 3.883 L 7.424 63.545 L 7.85 63.489 Z M 0 3.827 L 0.043 4.255 L 38.013 0.427 L 37.97 0 L 37.927 -0.427 L -0.043 3.4 L 0 3.827 Z" fill="rgb(9,21,32)" fill-rule="nonzero"></path></g>
  <g transform="translate(243.18400000000003 218.579)"><path d="M 2.861 5.283 C 4.235 5.152 5.192 3.866 4.999 2.41 C 4.806 0.954 3.536 -0.12 2.162 0.011 C 0.789 0.142 -0.168 1.427 0.025 2.883 C 0.217 4.339 1.487 5.413 2.861 5.283 Z" fill="rgb(9,21,32)" fill-rule="nonzero"></path><path d="M 2.861 5.283 L 2.902 5.71 L 2.902 5.71 L 2.861 5.283 Z M 4.999 2.41 L 5.425 2.354 L 5.425 2.354 L 4.999 2.41 Z M 2.162 0.011 L 2.122 -0.417 L 2.122 -0.417 L 2.162 0.011 Z M 0.025 2.883 L 0.451 2.827 L 0.451 2.827 L 0.025 2.883 Z M 2.861 5.283 L 2.902 5.71 C 4.544 5.554 5.646 4.024 5.425 2.354 L 4.999 2.41 L 4.573 2.467 C 4.737 3.708 3.925 4.75 2.82 4.855 L 2.861 5.283 Z M 4.999 2.41 L 5.425 2.354 C 5.204 0.693 3.749 -0.572 2.122 -0.417 L 2.162 0.011 L 2.203 0.438 C 3.323 0.332 4.407 1.216 4.573 2.467 L 4.999 2.41 Z M 2.162 0.011 L 2.122 -0.417 C 0.48 -0.26 -0.623 1.269 -0.401 2.94 L 0.025 2.883 L 0.451 2.827 C 0.286 1.586 1.098 0.544 2.203 0.438 L 2.162 0.011 Z M 0.025 2.883 L -0.401 2.94 C -0.181 4.601 1.275 5.865 2.902 5.71 L 2.861 5.283 L 2.82 4.855 C 1.7 4.962 0.616 4.078 0.451 2.827 L 0.025 2.883 Z" fill="rgb(9,21,32)" fill-rule="nonzero"></path></g>
  <g transform="translate(232.836 136.844)"><path d="M 3.279 7.976 C 1.962 7.976 0.766 6.935 0.497 5.553 L 0.056 3.283 C -0.096 2.504 0.064 1.702 0.494 1.083 C 0.888 0.517 1.474 0.144 2.142 0.034 C 2.278 0.011 2.417 0 2.555 0 C 3.552 0 4.521 0.608 5.026 1.548 C 5.172 1.821 5.276 2.116 5.336 2.424 L 5.778 4.694 C 5.929 5.473 5.77 6.275 5.339 6.893 C 4.945 7.459 4.36 7.832 3.692 7.943 C 3.556 7.965 3.417 7.976 3.279 7.976 Z" fill="rgb(255,238,227)" fill-rule="nonzero"></path></g>
  <g transform="translate(218.80200000000002 134.451)"><path d="M 13.283 1.411 C 13.283 1.411 16.172 0.731 17.695 4.476 C 18.903 7.447 23.048 39.213 24.711 52.229 C 25.165 55.777 24.376 59.312 22.494 62.166 C 20.84 64.675 18.435 66.515 15.636 67.413 L 0 72.429 L 0.474 76.895 L 25.62 74.501 L 24.785 68.691 C 24.785 68.691 26.525 65.396 28.092 60.202 C 28.493 58.874 29.112 54.82 28.524 49.136 C 26.062 33.771 21.345 4.224 21.345 4.224 C 21.345 4.224 18.927 -2.961 13.283 1.411 Z" fill="rgb(9,21,32)" fill-rule="nonzero"></path></g>
  <g transform="translate(204.42900000000003 128.648)"><path d="M 3.279 7.977 C 1.962 7.977 0.766 6.935 0.497 5.553 L 0.056 3.283 C -0.095 2.504 0.064 1.702 0.495 1.084 C 0.888 0.517 1.473 0.144 2.142 0.034 C 2.278 0.011 2.417 0 2.554 0 C 3.567 0 4.514 0.593 5.026 1.549 C 5.172 1.822 5.277 2.117 5.336 2.423 L 5.778 4.694 C 5.929 5.473 5.769 6.274 5.339 6.893 C 4.946 7.459 4.36 7.832 3.692 7.943 C 3.556 7.965 3.417 7.977 3.279 7.977 Z" fill="rgb(255,238,227)" fill-rule="nonzero"></path></g>
  <g transform="translate(192.912 163.839)"><path d="M 2.112 1.549 C 2.261 1.829 2.376 2.15 2.441 2.48 L 2.863 4.663 C 3.136 6.041 2.539 7.402 1.416 7.98 L 0.103 2.159 C -0.07 1.408 -0.018 0.66 0.204 0 C 0.997 0.212 1.697 0.775 2.112 1.549 Z" fill="rgb(255,238,227)" fill-rule="nonzero"></path></g>
  <g transform="translate(213.09500000000003 125.89099999999999)"><path d="M 3.279 7.977 C 1.962 7.977 0.767 6.935 0.498 5.553 L 0.056 3.283 C -0.096 2.504 0.064 1.702 0.494 1.084 C 0.888 0.517 1.473 0.144 2.142 0.034 C 2.278 0.011 2.417 0 2.554 0 C 3.567 0 4.514 0.593 5.026 1.549 C 5.172 1.823 5.277 2.117 5.336 2.423 L 5.778 4.694 C 5.929 5.473 5.77 6.274 5.34 6.893 C 4.946 7.46 4.361 7.833 3.692 7.943 C 3.556 7.965 3.417 7.977 3.279 7.977 Z" fill="rgb(255,238,227)" fill-rule="nonzero"></path></g>
  <g transform="translate(222.64200000000002 128.911)"><path d="M 3.279 7.977 C 1.963 7.977 0.767 6.935 0.498 5.554 L 0.056 3.283 C -0.095 2.504 0.064 1.702 0.495 1.083 C 0.888 0.517 1.473 0.144 2.142 0.034 C 2.278 0.011 2.416 0 2.554 0 C 3.567 0 4.514 0.593 5.026 1.549 C 5.172 1.822 5.277 2.116 5.336 2.424 L 5.778 4.694 C 5.93 5.473 5.77 6.275 5.34 6.893 C 4.946 7.46 4.361 7.833 3.692 7.943 C 3.556 7.965 3.417 7.977 3.279 7.977 Z" fill="rgb(255,238,227)" fill-rule="nonzero"></path></g>
  <g transform="translate(202.63400000000001 126.541)"><path d="M 11.879 25.618 C 11.914 25.852 12.133 26.014 12.368 25.978 C 12.602 25.942 12.764 25.724 12.728 25.489 L 12.303 25.553 L 11.879 25.618 Z M 9.1 4.394 L 8.674 4.45 L 8.675 4.459 L 9.1 4.394 Z M 3.943 0.019 L 3.983 0.447 L 3.983 0.447 L 3.943 0.019 Z M 0.044 5.241 L -0.382 5.296 L -0.381 5.306 L 0.044 5.241 Z M 6.911 52.875 C 6.947 53.11 7.167 53.271 7.401 53.235 C 7.636 53.199 7.797 52.979 7.761 52.745 L 7.336 52.81 L 6.911 52.875 Z M 12.303 25.553 L 12.728 25.489 L 9.524 4.33 L 9.1 4.394 L 8.675 4.459 L 11.879 25.618 L 12.303 25.553 Z M 9.1 4.394 L 9.525 4.339 C 9.152 1.483 6.657 -0.666 3.903 -0.409 L 3.943 0.019 L 3.983 0.447 C 6.23 0.237 8.353 2.005 8.674 4.45 L 9.1 4.394 Z M 3.943 0.019 L 3.903 -0.409 C 1.134 -0.15 -0.757 2.432 -0.382 5.296 L 0.044 5.241 L 0.47 5.185 C 0.151 2.749 1.751 0.655 3.983 0.447 L 3.943 0.019 Z M 0.044 5.241 L -0.381 5.306 L 6.911 52.875 L 7.336 52.81 L 7.761 52.745 L 0.469 5.175 L 0.044 5.241 Z" fill="rgb(9,21,32)" fill-rule="nonzero"></path></g>
</svg>