<svg xmlns="http://www.w3.org/2000/svg" viewBox="0 0 355 385">
  <g transform="translate(80.387 127.21900000000001)"><path d="M 195.226 3.606 L 195.226 115.952 L 0 115.952 L 0 3.606 C 0 1.617 1.618 0 3.606 0 L 191.618 0 C 191.901 0 192.178 0.033 192.443 0.094 C 194.036 0.469 195.226 1.9 195.226 3.606 Z" fill="rgb(255,255,255)" fill-rule="nonzero"></path></g>
  <g transform="translate(77.443 124.275)"><path d="M 193.87 7.242 L 193.87 114.597 L 7.242 114.597 L 7.242 7.242 M 194.562 0 L 6.55 0 C 2.933 0 0 2.933 0 6.55 L 0 121.839 L 201.113 121.839 L 201.113 6.55 C 201.113 2.933 198.18 0 194.562 0 Z" fill="rgb(0,0,0)" fill-rule="nonzero"></path></g>
  <g transform="translate(55.69 286.849)"><path d="M 244.619 1.156 L 244.619 3.664 C 244.619 5.986 241.655 7.868 237.998 7.868 L 6.622 7.868 C 2.965 7.868 0 5.986 0 3.664 L 0 1.156 C 0 0.813 0.081 0.454 0.251 0.086 L 0.291 0 L 244.33 0 L 244.369 0.086 C 244.538 0.454 244.619 0.813 244.619 1.156 Z" fill="rgb(188,190,192)" fill-rule="nonzero"></path></g>
  <g transform="translate(55.69 246.114)"><path d="M 244.619 41.745 C 244.619 41.937 244.586 42.124 244.521 42.304 C 244.355 42.767 243.981 43.185 243.43 43.538 C 242.878 43.892 242.15 44.178 241.277 44.377 C 240.405 44.576 239.387 44.687 238.263 44.687 L 6.357 44.687 C 5.232 44.687 4.216 44.576 3.342 44.377 C 2.47 44.178 1.741 43.892 1.189 43.538 C 0.638 43.185 0.264 42.767 0.098 42.304 C 0.033 42.124 0 41.938 0 41.746 C 0 41.446 0.081 41.132 0.251 40.81 L 0.291 40.735 L 21.753 0 L 222.866 0 L 244.33 40.735 L 244.369 40.81 C 244.538 41.132 244.619 41.446 244.619 41.745 Z" fill="rgb(242,242,242)" fill-rule="nonzero"></path></g>
  <g transform="translate(84.626 249.624)"><path d="M 11.054 0 L 9.774 3.042 L 0 3.042 L 1.447 0 L 11.054 0 Z" fill="rgb(51,51,51)" fill-rule="nonzero"></path></g>
  <g transform="translate(82.67 253.631)"><path d="M 11.312 0 L 9.978 3.17 L 0 3.17 L 1.508 0 L 11.312 0 Z" fill="rgb(51,51,51)" fill-rule="nonzero"></path></g>
  <g transform="translate(95.293 253.631)"><path d="M 11.114 0 L 9.978 3.17 L 0 3.17 L 1.309 0 L 11.114 0 Z" fill="rgb(51,51,51)" fill-rule="nonzero"></path></g>
  <g transform="translate(79.133 262.161)"><path d="M 23.552 0 L 22.316 3.451 L 10.415 3.451 L 0 3.451 L 1.641 0 L 23.552 0 Z" fill="rgb(51,51,51)" fill-rule="nonzero"></path></g>
  <g transform="translate(104.853 262.161)"><path d="M 11.435 0 L 10.415 3.451 L 0 3.451 L 1.209 0 L 11.435 0 Z" fill="rgb(51,51,51)" fill-rule="nonzero"></path></g>
  <g transform="translate(118.02799999999999 262.161)"><path d="M 11.219 0 L 10.415 3.451 L 0 3.451 L 0.993 0 L 11.219 0 Z" fill="rgb(51,51,51)" fill-rule="nonzero"></path></g>
  <g transform="translate(131.203 262.161)"><path d="M 11.003 0 L 10.415 3.451 L 0 3.451 L 0.777 0 L 11.003 0 Z" fill="rgb(51,51,51)" fill-rule="nonzero"></path></g>
  <g transform="translate(109.35499999999999 249.624)"><path d="M 10.673 0 L 9.774 3.042 L 0 3.042 L 1.066 0 L 10.673 0 Z" fill="rgb(51,51,51)" fill-rule="nonzero"></path></g>
  <g transform="translate(260.322 249.624)"><path d="M 9.607 0 L 11.054 3.042 L 1.28 3.042 L 0 0 L 9.607 0 Z" fill="rgb(51,51,51)" fill-rule="nonzero"></path></g>
  <g transform="translate(121.719 249.624)"><path d="M 10.482 0 L 9.773 3.042 L 0 3.042 L 0.875 0 L 10.482 0 Z" fill="rgb(51,51,51)" fill-rule="nonzero"></path></g>
  <g transform="translate(248.147 249.624)"><path d="M 9.607 0 L 10.863 3.042 L 1.09 3.042 L 0 0 L 9.607 0 Z" fill="rgb(51,51,51)" fill-rule="nonzero"></path></g>
  <g transform="translate(134.084 249.624)"><path d="M 10.292 0 L 9.774 3.042 L 0 3.042 L 0.685 0 L 10.292 0 Z" fill="rgb(51,51,51)" fill-rule="nonzero"></path></g>
  <g transform="translate(235.974 249.624)"><path d="M 9.607 0 L 10.673 3.042 L 0.899 3.042 L 0 0 L 9.607 0 Z" fill="rgb(51,51,51)" fill-rule="nonzero"></path></g>
  <g transform="translate(146.44799999999998 249.624)"><path d="M 10.101 0 L 9.774 3.042 L 0 3.042 L 0.494 0 L 10.101 0 Z" fill="rgb(51,51,51)" fill-rule="nonzero"></path></g>
  <g transform="translate(223.799 249.624)"><path d="M 9.607 0 L 10.482 3.042 L 0.708 3.042 L 0 0 L 9.607 0 Z" fill="rgb(51,51,51)" fill-rule="nonzero"></path></g>
  <g transform="translate(158.814 249.624)"><path d="M 9.91 0 L 9.773 3.042 L 0 3.042 L 0.304 0 L 9.91 0 Z" fill="rgb(51,51,51)" fill-rule="nonzero"></path></g>
  <g transform="translate(207.821 249.624)"><path d="M 9.607 0 L 10.232 3.042 L 0.458 3.042 L 0 0 L 9.607 0 Z" fill="rgb(51,51,51)" fill-rule="nonzero"></path></g>
  <g transform="translate(171.18 249.624)"><path d="M 9.72 0 L 9.774 3.042 L 0 3.042 L 0.113 0 L 9.72 0 Z" fill="rgb(51,51,51)" fill-rule="nonzero"></path></g>
  <g transform="translate(195.648 249.624)"><path d="M 9.607 0 L 10.041 3.042 L 0.268 3.042 L 0 0 L 9.607 0 Z" fill="rgb(51,51,51)" fill-rule="nonzero"></path></g>
  <g transform="translate(183.473 249.624)"><path d="M 9.607 0 L 9.851 3.042 L 0.077 3.042 L 0 0 L 9.607 0 Z" fill="rgb(51,51,51)" fill-rule="nonzero"></path></g>
  <g transform="translate(120.53999999999999 253.631)"><path d="M 10.717 0 L 9.978 3.17 L 0 3.17 L 0.912 0 L 10.717 0 Z" fill="rgb(51,51,51)" fill-rule="nonzero"></path></g>
  <g transform="translate(249.593 253.631)"><path d="M 9.805 0 L 11.114 3.17 L 1.136 3.17 L 0 0 L 9.805 0 Z" fill="rgb(51,51,51)" fill-rule="nonzero"></path></g>
  <g transform="translate(107.917 253.631)"><path d="M 10.915 0 L 9.978 3.17 L 0 3.17 L 1.111 0 L 10.915 0 Z" fill="rgb(51,51,51)" fill-rule="nonzero"></path></g>
  <g transform="translate(237.169 253.631)"><path d="M 9.805 0 L 10.915 3.17 L 0.937 3.17 L 0 0 L 9.805 0 Z" fill="rgb(51,51,51)" fill-rule="nonzero"></path></g>
  <g transform="translate(145.78699999999998 253.631)"><path d="M 10.32 0 L 9.978 3.17 L 0 3.17 L 0.515 0 L 10.32 0 Z" fill="rgb(51,51,51)" fill-rule="nonzero"></path></g>
  <g transform="translate(224.744 253.631)"><path d="M 9.805 0 L 10.717 3.17 L 0.738 3.17 L 0 0 L 9.805 0 Z" fill="rgb(51,51,51)" fill-rule="nonzero"></path></g>
  <g transform="translate(158.411 253.631)"><path d="M 10.121 0 L 9.978 3.17 L 0 3.17 L 0.316 0 L 10.121 0 Z" fill="rgb(51,51,51)" fill-rule="nonzero"></path></g>
  <g transform="translate(171.03699999999998 253.631)"><path d="M 9.923 0 L 9.978 3.17 L 0 3.17 L 0.118 0 L 9.923 0 Z" fill="rgb(51,51,51)" fill-rule="nonzero"></path></g>
  <g transform="translate(196.012 253.631)"><path d="M 9.805 0 L 10.258 3.17 L 0.279 3.17 L 0 0 L 9.805 0 Z" fill="rgb(51,51,51)" fill-rule="nonzero"></path></g>
  <g transform="translate(183.586 253.631)"><path d="M 9.805 0 L 10.059 3.17 L 0.081 3.17 L 0 0 L 9.805 0 Z" fill="rgb(51,51,51)" fill-rule="nonzero"></path></g>
  <g transform="translate(133.164 253.631)"><path d="M 10.518 0 L 9.978 3.17 L 0 3.17 L 0.714 0 L 10.518 0 Z" fill="rgb(51,51,51)" fill-rule="nonzero"></path></g>
  <g transform="translate(93.524 257.806)"><path d="M 11.376 0 L 10.192 3.306 L 0 3.306 L 1.365 0 L 11.376 0 Z" fill="rgb(51,51,51)" fill-rule="nonzero"></path></g>
  <g transform="translate(145.098 257.806)"><path d="M 10.548 0 L 10.192 3.306 L 0 3.306 L 0.537 0 L 10.548 0 Z" fill="rgb(51,51,51)" fill-rule="nonzero"></path></g>
  <g transform="translate(106.418 257.806)"><path d="M 11.169 0 L 10.192 3.306 L 0 3.306 L 1.158 0 L 11.169 0 Z" fill="rgb(51,51,51)" fill-rule="nonzero"></path></g>
  <g transform="translate(157.99200000000002 257.806)"><path d="M 10.341 0 L 10.192 3.306 L 0 3.306 L 0.33 0 L 10.341 0 Z" fill="rgb(51,51,51)" fill-rule="nonzero"></path></g>
  <g transform="translate(80.631 257.806)"><path d="M 11.583 0 L 10.192 3.306 L 0 3.306 L 1.573 0 L 11.583 0 Z" fill="rgb(51,51,51)" fill-rule="nonzero"></path></g>
  <g transform="translate(170.88799999999998 257.806)"><path d="M 10.134 0 L 10.192 3.306 L 0 3.306 L 0.123 0 L 10.134 0 Z" fill="rgb(51,51,51)" fill-rule="nonzero"></path></g>
  <g transform="translate(251.101 257.806)"><path d="M 10.011 0 L 11.376 3.306 L 1.184 3.306 L 0 0 L 10.011 0 Z" fill="rgb(51,51,51)" fill-rule="nonzero"></path></g>
  <g transform="translate(132.20499999999998 257.806)"><path d="M 10.755 0 L 10.192 3.306 L 0 3.306 L 0.744 0 L 10.755 0 Z" fill="rgb(51,51,51)" fill-rule="nonzero"></path></g>
  <g transform="translate(183.704 257.806)"><path d="M 10.011 0 L 10.276 3.306 L 0.084 3.306 L 0 0 L 10.011 0 Z" fill="rgb(51,51,51)" fill-rule="nonzero"></path></g>
  <g transform="translate(119.311 257.806)"><path d="M 10.962 0 L 10.192 3.306 L 0 3.306 L 0.951 0 L 10.962 0 Z" fill="rgb(51,51,51)" fill-rule="nonzero"></path></g>
  <g transform="translate(197.02 253.841)"><path d="M 20.677 0 L 22.129 7.271 L 0.291 7.271 L 0 3.762 L 11.439 3.762 L 10.872 0 L 20.677 0 Z" fill="rgb(51,51,51)" fill-rule="nonzero"></path></g>
  <g transform="translate(225.728 257.806)"><path d="M 10.011 0 L 10.962 3.306 L 0.77 3.306 L 0 0 L 10.011 0 Z" fill="rgb(51,51,51)" fill-rule="nonzero"></path></g>
  <g transform="translate(238.415 257.806)"><path d="M 10.011 0 L 11.169 3.306 L 0.977 3.306 L 0 0 L 10.011 0 Z" fill="rgb(51,51,51)" fill-rule="nonzero"></path></g>
  <g transform="translate(262.039 253.631)"><path d="M 9.805 0 L 13.33 7.482 L 3.138 7.482 L 1.664 3.972 L 0 0 L 9.805 0 Z" fill="rgb(51,51,51)" fill-rule="nonzero"></path></g>
  <g transform="translate(252.673 262.161)"><path d="M 10.226 0 L 11.651 3.451 L 1.236 3.451 L 0 0 L 10.226 0 Z" fill="rgb(51,51,51)" fill-rule="nonzero"></path></g>
  <g transform="translate(239.714 262.161)"><path d="M 10.226 0 L 11.435 3.451 L 1.02 3.451 L 0 0 L 10.226 0 Z" fill="rgb(51,51,51)" fill-rule="nonzero"></path></g>
  <g transform="translate(226.754 262.161)"><path d="M 10.226 0 L 11.219 3.451 L 0.804 3.451 L 0 0 L 10.226 0 Z" fill="rgb(51,51,51)" fill-rule="nonzero"></path></g>
  <g transform="translate(144.378 262.161)"><path d="M 10.787 0 L 10.415 3.451 L 0 3.451 L 0.561 0 L 10.787 0 Z" fill="rgb(51,51,51)" fill-rule="nonzero"></path></g>
  <g transform="translate(197.429 262.161)"><path d="M 21.911 0 L 22.62 3.451 L 0.304 3.451 L 0 0 L 21.911 0 Z" fill="rgb(51,51,51)" fill-rule="nonzero"></path></g>
  <g transform="translate(157.554 262.161)"><path d="M 10.57 0 L 10.415 3.451 L 0 3.451 L 0.345 0 L 10.57 0 Z" fill="rgb(51,51,51)" fill-rule="nonzero"></path></g>
  <g transform="translate(183.827 262.161)"><path d="M 10.226 0 L 10.503 3.451 L 0.088 3.451 L 0 0 L 10.226 0 Z" fill="rgb(51,51,51)" fill-rule="nonzero"></path></g>
  <g transform="translate(170.732 262.161)"><path d="M 10.354 0 L 10.415 3.451 L 0 3.451 L 0.128 0 L 10.354 0 Z" fill="rgb(51,51,51)" fill-rule="nonzero"></path></g>
  <g transform="translate(103.21799999999999 266.708)"><path d="M 11.714 0 L 10.648 3.605 L 0 3.605 L 1.263 0 L 11.714 0 Z" fill="rgb(51,51,51)" fill-rule="nonzero"></path></g>
  <g transform="translate(89.747 266.708)"><path d="M 11.939 0 L 10.648 3.605 L 0 3.605 L 1.489 0 L 11.939 0 Z" fill="rgb(51,51,51)" fill-rule="nonzero"></path></g>
  <g transform="translate(170.57 266.708)"><path d="M 10.585 0 L 10.648 3.605 L 0 3.605 L 0.134 0 L 10.585 0 Z" fill="rgb(51,51,51)" fill-rule="nonzero"></path></g>
  <g transform="translate(76.27799999999999 266.708)"><path d="M 12.165 0 L 10.648 3.605 L 0 3.605 L 1.715 0 L 12.165 0 Z" fill="rgb(51,51,51)" fill-rule="nonzero"></path></g>
  <g transform="translate(116.87899999999999 266.708)"><path d="M 50.801 0 L 50.626 3.605 L 0 3.605 L 1.114 0 L 50.801 0 Z" fill="rgb(51,51,51)" fill-rule="nonzero"></path></g>
  <g transform="translate(183.95499999999998 266.708)"><path d="M 10.45 0 L 10.74 3.605 L 0.092 3.605 L 0 0 L 10.45 0 Z" fill="rgb(51,51,51)" fill-rule="nonzero"></path></g>
  <g transform="translate(265.874 262.612)"><path d="M 10.226 0 L 13.889 7.701 L 3.241 7.701 L 1.724 4.096 L 0 0 L 10.226 0 Z" fill="rgb(51,51,51)" fill-rule="nonzero"></path></g>
  <g transform="translate(197.2 266.708)"><path d="M 10.45 0 L 10.966 3.605 L 0.318 3.605 L 0 0 L 10.45 0 Z" fill="rgb(51,51,51)" fill-rule="nonzero"></path></g>
  <g transform="translate(254.314 266.708)"><path d="M 10.45 0 L 11.939 3.605 L 1.291 3.605 L 0 0 L 10.45 0 Z" fill="rgb(51,51,51)" fill-rule="nonzero"></path></g>
  <g transform="translate(210.44299999999998 266.708)"><path d="M 10.45 0 L 11.191 3.605 L 0.543 3.605 L 0 0 L 10.45 0 Z" fill="rgb(51,51,51)" fill-rule="nonzero"></path></g>
  <g transform="translate(228.483 266.708)"><path d="M 22.393 0 L 23.656 3.605 L 0.84 3.605 L 0 0 L 22.393 0 Z" fill="rgb(51,51,51)" fill-rule="nonzero"></path></g>
  <g transform="translate(146.61 273.219)"><path d="M 57.024 0 C 57.582 0 58.119 0.05 58.613 0.142 C 59.108 0.233 59.561 0.365 59.948 0.529 C 60.336 0.692 60.659 0.888 60.893 1.105 C 61.128 1.323 61.275 1.563 61.309 1.815 L 62.78 12.581 L 32.412 12.581 L 32.425 15.543 L 30.356 15.543 L 30.369 12.581 L 0 12.581 L 1.471 1.815 C 1.506 1.563 1.652 1.323 1.887 1.105 C 2.122 0.888 2.445 0.692 2.833 0.529 C 3.22 0.365 3.673 0.233 4.168 0.142 C 4.663 0.05 5.2 0 5.757 0 L 57.024 0 Z" fill="rgb(221,221,221)" fill-rule="nonzero"></path></g>
  <g transform="translate(179.022 285.8)"><path d="M 30.369 0 L 30.493 0.912 C 30.532 1.193 30.448 1.461 30.264 1.706 C 30.079 1.951 29.793 2.172 29.427 2.358 C 29.061 2.544 28.615 2.695 28.111 2.799 C 27.607 2.904 27.045 2.961 26.448 2.961 L 0.013 2.961 L 0 0 L 30.369 0 Z" fill="rgb(188,190,192)" fill-rule="nonzero"></path></g>
  <g transform="translate(146.476 285.8)"><path d="M 30.502 0 L 30.489 2.961 L 4.056 2.961 C 3.459 2.961 2.897 2.904 2.393 2.799 C 1.889 2.695 1.442 2.544 1.076 2.358 C 0.71 2.172 0.424 1.951 0.239 1.706 C 0.055 1.461 -0.029 1.193 0.009 0.912 L 0.134 0 L 30.502 0 Z" fill="rgb(188,190,192)" fill-rule="nonzero"></path></g>
  <g transform="translate(122.839 101.03)"><path d="M 105.524 133.592 L 4.796 133.592 C 2.147 133.592 0 131.444 0 128.796 L 0 0 L 110.32 0 L 110.32 128.796 C 110.32 131.444 108.173 133.592 105.524 133.592 Z" fill="rgb(241,242,242)" fill-rule="nonzero"></path></g>
  <g transform="translate(145.688 110.89599999999999)"><path d="M 0 12.85 L 0 0 L 2.42 0 L 2.42 12.85 L 0 12.85 Z M 0.963 7.684 L 0.963 5.352 L 5.431 5.352 C 5.808 5.352 6.11 5.214 6.337 4.937 C 6.563 4.66 6.68 4.295 6.686 3.842 C 6.686 3.389 6.572 3.024 6.346 2.747 C 6.119 2.47 5.814 2.332 5.432 2.332 L 0.963 2.332 L 0.963 0 L 5.626 0 C 6.338 0 6.961 0.159 7.494 0.477 C 8.027 0.795 8.44 1.242 8.735 1.819 C 9.029 2.396 9.176 3.071 9.176 3.842 C 9.176 4.613 9.028 5.287 8.73 5.864 C 8.433 6.441 8.019 6.889 7.489 7.207 C 6.96 7.525 6.338 7.684 5.626 7.684 L 0.963 7.684 Z M 6.783 12.85 L 3.665 7.286 L 6.253 6.88 L 9.715 12.85 L 6.783 12.85 Z" fill="rgb(55,81,102)" fill-rule="nonzero"></path></g>
  <g transform="translate(157.47799999999998 110.90499999999999)"><path d="M 0 12.841 L 0 0 L 2.42 0 L 2.42 12.841 L 0 12.841 Z M 0.874 2.332 L 0.874 0 L 8.602 0 L 8.602 2.332 L 0.874 2.332 Z M 0.874 7.631 L 0.874 5.299 L 7.631 5.299 L 7.631 7.631 L 0.874 7.631 Z M 0.874 12.841 L 0.874 10.51 L 8.602 10.51 L 8.602 12.841 L 0.874 12.841 Z" fill="rgb(55,81,102)" fill-rule="nonzero"></path></g>
  <g transform="translate(168.28799999999998 110.90499999999999)"><path d="M 0 12.841 L 0 0 L 2.42 0 L 2.42 12.841 L 0 12.841 Z M 1.104 7.86 L 1.104 5.529 L 5.211 5.529 C 5.646 5.529 6 5.383 6.271 5.092 C 6.541 4.8 6.677 4.416 6.677 3.939 C 6.677 3.45 6.543 3.06 6.275 2.769 C 6.007 2.477 5.652 2.332 5.211 2.332 L 1.104 2.332 L 1.104 0 L 5.149 0 C 5.961 0 6.669 0.163 7.273 0.49 C 7.876 0.817 8.346 1.275 8.682 1.863 C 9.017 2.452 9.185 3.144 9.185 3.939 C 9.185 4.728 9.017 5.417 8.682 6.006 C 8.346 6.594 7.875 7.051 7.269 7.375 C 6.662 7.698 5.956 7.86 5.149 7.86 L 1.104 7.86 L 1.104 7.86 Z" fill="rgb(55,81,102)" fill-rule="nonzero"></path></g>
  <g transform="translate(179.10699999999997 110.77199999999999)"><path d="M 4.69 13.106 C 3.748 13.106 2.925 12.911 2.221 12.519 C 1.518 12.128 0.971 11.576 0.583 10.863 C 0.194 10.151 0 9.321 0 8.373 L 0 4.734 C 0 3.78 0.194 2.948 0.583 2.239 C 0.972 1.529 1.518 0.979 2.221 0.587 C 2.925 0.196 3.748 0 4.69 0 C 5.632 0 6.454 0.196 7.158 0.587 C 7.862 0.979 8.408 1.529 8.796 2.239 C 9.185 2.948 9.379 3.78 9.379 4.734 L 9.379 8.373 C 9.379 9.321 9.185 10.151 8.796 10.863 C 8.408 11.576 7.862 12.128 7.158 12.519 C 6.454 12.911 5.632 13.106 4.69 13.106 Z M 4.69 10.687 C 5.349 10.687 5.878 10.481 6.275 10.068 C 6.672 9.656 6.871 9.112 6.871 8.434 L 6.871 4.672 C 6.871 3.989 6.672 3.443 6.275 3.034 C 5.878 2.625 5.349 2.42 4.69 2.42 C 4.03 2.42 3.502 2.625 3.104 3.034 C 2.707 3.443 2.508 3.989 2.508 4.672 L 2.508 8.434 C 2.508 9.112 2.707 9.656 3.104 10.068 C 3.502 10.481 4.03 10.687 4.69 10.687 Z" fill="rgb(55,81,102)" fill-rule="nonzero"></path></g>
  <g transform="translate(190.87099999999998 110.89599999999999)"><path d="M 0 12.85 L 0 0 L 2.42 0 L 2.42 12.85 L 0 12.85 Z M 0.963 7.684 L 0.963 5.352 L 5.432 5.352 C 5.808 5.352 6.11 5.214 6.337 4.937 C 6.563 4.66 6.68 4.295 6.686 3.842 C 6.686 3.389 6.572 3.024 6.346 2.747 C 6.119 2.47 5.814 2.332 5.432 2.332 L 0.963 2.332 L 0.963 0 L 5.626 0 C 6.338 0 6.961 0.159 7.494 0.477 C 8.027 0.795 8.44 1.242 8.735 1.819 C 9.029 2.396 9.176 3.071 9.176 3.842 C 9.176 4.613 9.028 5.287 8.73 5.864 C 8.433 6.441 8.019 6.889 7.49 7.207 C 6.96 7.525 6.338 7.684 5.626 7.684 L 0.963 7.684 Z M 6.783 12.85 L 3.665 7.286 L 6.253 6.88 L 9.715 12.85 L 6.783 12.85 Z" fill="rgb(55,81,102)" fill-rule="nonzero"></path></g>
  <g transform="translate(200.89499999999998 110.90499999999999)"><path d="M 0 2.332 L 0 0 L 9.415 0 L 9.415 2.332 L 0 2.332 Z M 3.497 12.841 L 3.497 1.051 L 5.917 1.051 L 5.917 12.841 L 3.497 12.841 Z" fill="rgb(55,81,102)" fill-rule="nonzero"></path></g>
  <g transform="translate(137.125 191.475)"><path d="M 14.812 6.692 L 14.812 0 C 6.631 0 0 6.631 0 14.812 L 6.692 14.812 C 6.692 10.327 10.327 6.692 14.812 6.692 Z" fill="rgb(110,188,97)" fill-rule="nonzero"></path></g>
  <g transform="translate(137.125 206.287)"><path d="M 21.381 13.28 L 18.413 7.279 C 17.328 7.817 16.105 8.12 14.812 8.12 C 10.327 8.12 6.692 4.485 6.692 0 L 0 0 C 0 8.181 6.631 14.812 14.812 14.812 C 17.171 14.812 19.401 14.261 21.381 13.28 Z" fill="rgb(82,159,206)" fill-rule="nonzero"></path></g>
  <g transform="translate(155.538 206.287)"><path d="M 11.211 0 L 4.519 0 C 4.519 3.192 2.678 5.952 0 7.279 L 2.968 13.28 C 7.852 10.858 11.211 5.821 11.211 0 Z" fill="rgb(255,189,41)" fill-rule="nonzero"></path></g>
  <g transform="translate(154.376 189.036)"><path d="M 14.812 14.812 C 14.812 6.631 8.181 0 0 0 L 0 6.692 C 4.485 6.692 8.12 10.327 8.12 14.812 L 14.812 14.812 Z" fill="rgb(255,77,77)" fill-rule="nonzero"></path></g>
  <g transform="translate(137.125 148.73499999999999)"><path d="M 4.892 0 L 0 0 L 0 10.395 L 4.892 10.395 L 4.892 0 Z" fill="rgb(255,189,41)" fill-rule="nonzero"></path></g>
  <g transform="translate(144.393 143.385)"><path d="M 4.892 0 L 0 0 L 0 15.746 L 4.892 15.746 L 4.892 0 Z" fill="rgb(255,77,77)" fill-rule="nonzero"></path></g>
  <g transform="translate(151.66 138.034)"><path d="M 4.892 0 L 0 0 L 0 21.096 L 4.892 21.096 L 4.892 0 Z" fill="rgb(110,188,97)" fill-rule="nonzero"></path></g>
  <g transform="translate(158.928 132.684)"><path d="M 4.892 0 L 0 0 L 0 26.446 L 4.892 26.446 L 4.892 0 Z" fill="rgb(82,159,206)" fill-rule="nonzero"></path></g>
  <g transform="translate(173.624 132.684)"><path d="M 45.249 0 L 0 0 L 0 5.35 L 45.249 5.35 L 45.249 0 Z" fill="rgb(55,81,102)" fill-rule="nonzero"></path></g>
  <g transform="translate(182.319 141.856)"><path d="M 27.859 0 L 0 0 L 0 1.717 L 27.859 1.717 L 27.859 0 Z" fill="rgb(209,211,212)" fill-rule="nonzero"></path></g>
  <g transform="translate(173.624 145.548)"><path d="M 30.184 0 L 0 0 L 0 1.717 L 30.184 1.717 L 30.184 0 Z" fill="rgb(209,211,212)" fill-rule="nonzero"></path></g>
  <g transform="translate(173.624 149.239)"><path d="M 38.796 0 L 0 0 L 0 1.717 L 38.796 1.717 L 38.796 0 Z" fill="rgb(209,211,212)" fill-rule="nonzero"></path></g>
  <g transform="translate(173.624 152.93099999999998)"><path d="M 33.189 0 L 0 0 L 0 1.717 L 33.189 1.717 L 33.189 0 Z" fill="rgb(209,211,212)" fill-rule="nonzero"></path></g>
  <g transform="translate(173.624 156.623)"><path d="M 41.344 0 L 0 0 L 0 1.717 L 41.344 1.717 L 41.344 0 Z" fill="rgb(209,211,212)" fill-rule="nonzero"></path></g>
  <g transform="translate(173.624 160.315)"><path d="M 39.917 0 L 0 0 L 0 1.717 L 39.917 1.717 L 39.917 0 Z" fill="rgb(209,211,212)" fill-rule="nonzero"></path></g>
  <g transform="translate(137.125 164.006)"><path d="M 81.748 0 L 0 0 L 0 1.717 L 81.748 1.717 L 81.748 0 Z" fill="rgb(209,211,212)" fill-rule="nonzero"></path></g>
  <g transform="translate(137.125 167.69799999999998)"><path d="M 81.748 0 L 0 0 L 0 1.717 L 81.748 1.717 L 81.748 0 Z" fill="rgb(209,211,212)" fill-rule="nonzero"></path></g>
  <g transform="translate(137.125 171.39)"><path d="M 51.804 0 L 0 0 L 0 1.717 L 51.804 1.717 L 51.804 0 Z" fill="rgb(209,211,212)" fill-rule="nonzero"></path></g>
  <g transform="translate(137.125 175.08100000000002)"><path d="M 67.652 0 L 0 0 L 0 1.717 L 67.652 1.717 L 67.652 0 Z" fill="rgb(209,211,212)" fill-rule="nonzero"></path></g>
  <g transform="translate(137.125 178.773)"><path d="M 57.97 0 L 0 0 L 0 1.717 L 57.97 1.717 L 57.97 0 Z" fill="rgb(209,211,212)" fill-rule="nonzero"></path></g>
  <g transform="translate(137.125 182.465)"><path d="M 81.748 0 L 0 0 L 0 1.717 L 81.748 1.717 L 81.748 0 Z" fill="rgb(209,211,212)" fill-rule="nonzero"></path></g>
  <g transform="translate(176.394 186.156)"><path d="M 34.548 0 L 0 0 L 0 1.717 L 34.548 1.717 L 34.548 0 Z" fill="rgb(209,211,212)" fill-rule="nonzero"></path></g>
  <g transform="translate(176.394 189.848)"><path d="M 37.708 0 L 0 0 L 0 1.717 L 37.708 1.717 L 37.708 0 Z" fill="rgb(209,211,212)" fill-rule="nonzero"></path></g>
  <g transform="translate(176.394 193.54)"><path d="M 29.096 0 L 0 0 L 0 1.717 L 29.096 1.717 L 29.096 0 Z" fill="rgb(209,211,212)" fill-rule="nonzero"></path></g>
  <g transform="translate(176.394 197.232)"><path d="M 35.924 0 L 0 0 L 0 1.717 L 35.924 1.717 L 35.924 0 Z" fill="rgb(209,211,212)" fill-rule="nonzero"></path></g>
  <g transform="translate(176.394 200.923)"><path d="M 39.338 0 L 0 0 L 0 1.717 L 39.338 1.717 L 39.338 0 Z" fill="rgb(209,211,212)" fill-rule="nonzero"></path></g>
  <g transform="translate(176.394 204.615)"><path d="M 37.275 0 L 0 0 L 0 1.717 L 37.275 1.717 L 37.275 0 Z" fill="rgb(209,211,212)" fill-rule="nonzero"></path></g>
  <g transform="translate(186.639 220.24)"><path d="M 32.234 0 L 0 0 L 0 0.859 L 32.234 0.859 L 32.234 0 Z" fill="rgb(55,81,102)" fill-rule="nonzero"></path></g>
  <g transform="translate(186.639 210.667)"><path d="M 32.213 3.813 C 32.11 3.44 31.74 3.268 31.381 3.34 C 30.584 3.501 30.021 4.101 29.448 4.629 C 29.23 4.829 28.943 5.027 28.695 5.102 C 28.644 5.117 28.593 5.129 28.541 5.14 C 28.549 5.134 28.47 5.138 28.413 5.139 C 28.423 5.13 28.288 5.096 28.303 5.114 C 28.276 5.099 28.249 5.085 28.223 5.067 C 28.277 5.113 28.274 5.111 28.213 5.06 C 27.896 4.787 27.575 4.501 27.131 4.496 C 26.882 4.494 26.641 4.578 26.438 4.719 C 26.335 4.79 26.243 4.876 26.143 4.951 C 26.233 4.883 26.051 4.987 26.063 4.996 C 26.049 5 26.036 5.004 26.022 5.007 C 26.016 5.008 26.009 5.008 26.001 5.009 C 25.987 5.009 25.977 5.009 25.968 5.01 C 25.962 5.007 25.956 5.005 25.947 5.003 C 25.912 4.994 25.878 4.983 25.843 4.971 C 25.836 4.968 25.829 4.964 25.82 4.96 C 25.743 4.916 25.668 4.872 25.594 4.823 C 25.53 4.776 25.521 4.769 25.568 4.803 C 25.532 4.773 25.497 4.742 25.462 4.711 C 25.393 4.647 25.326 4.58 25.262 4.51 C 25.202 4.446 25.145 4.38 25.09 4.312 C 25.098 4.32 24.991 4.176 24.979 4.159 C 24.641 3.674 23.938 3.751 23.743 4.32 C 23.649 4.596 23.606 4.703 23.473 4.963 C 23.351 5.2 23.213 5.429 23.061 5.648 C 23 5.735 22.931 5.825 22.856 5.916 C 22.709 5.468 22.537 5.028 22.341 4.597 C 22.023 3.9 21.629 3 20.93 2.608 C 20.178 2.187 19.317 2.48 18.786 3.106 C 18.587 3.342 18.423 3.6 18.284 3.872 C 18.209 3.668 18.125 3.467 18.028 3.27 C 17.368 1.912 16.158 0.811 14.72 0.336 C 13.023 -0.224 11.236 0.216 9.658 0.923 C 9.506 0.991 9.356 1.062 9.206 1.135 C 9.011 0.973 8.809 0.822 8.605 0.682 C 5.389 -1.521 2.164 2.099 0.65 4.66 C 0.445 5.007 0.256 5.363 0.081 5.726 C -0.077 6.055 -0.009 6.457 0.324 6.651 C 0.62 6.824 1.09 6.739 1.249 6.409 C 1.881 5.094 2.67 3.941 3.668 2.911 C 4.162 2.403 4.612 2.021 5.238 1.694 C 5.391 1.614 5.464 1.579 5.576 1.538 C 5.743 1.475 5.915 1.423 6.091 1.387 C 6.111 1.383 6.216 1.365 6.219 1.363 C 6.292 1.355 6.364 1.35 6.437 1.348 C 6.52 1.345 6.603 1.346 6.685 1.351 C 6.721 1.353 6.757 1.356 6.792 1.36 C 6.793 1.36 6.793 1.36 6.793 1.36 C 6.816 1.364 6.839 1.369 6.862 1.373 C 7.256 1.464 7.591 1.627 7.905 1.841 C 7.735 1.94 7.566 2.041 7.398 2.143 C 6.75 2.536 6.057 2.935 5.553 3.512 C 5.06 4.076 4.747 4.781 4.801 5.542 C 4.852 6.264 5.144 6.914 5.601 7.469 C 6.014 7.972 6.612 8.366 7.246 8.522 C 7.975 8.701 8.735 8.574 9.395 8.228 C 10.635 7.576 11.484 6.085 11.342 4.681 C 11.246 3.739 10.815 2.88 10.217 2.146 C 10.638 1.954 11.061 1.791 11.531 1.659 C 12.224 1.463 12.801 1.389 13.535 1.454 C 13.759 1.474 14.165 1.569 14.456 1.673 C 14.499 1.688 14.54 1.704 14.582 1.72 C 14.583 1.72 14.602 1.728 14.618 1.734 C 14.641 1.745 14.691 1.768 14.699 1.771 C 14.729 1.786 14.759 1.8 14.789 1.815 C 14.93 1.885 15.067 1.962 15.199 2.046 C 15.487 2.228 15.597 2.314 15.857 2.563 C 15.971 2.672 16.08 2.787 16.183 2.906 C 16.228 2.957 16.271 3.009 16.314 3.062 C 16.4 3.166 16.351 3.109 16.333 3.085 C 16.36 3.122 16.386 3.158 16.413 3.195 C 17.161 4.252 17.431 5.466 17.346 6.763 C 17.256 7.188 17.184 7.617 17.126 8.049 C 17.126 8.049 17.126 8.05 17.125 8.05 C 17.126 8.05 17.126 8.05 17.126 8.05 C 17.118 8.11 17.109 8.17 17.101 8.23 C 17.059 8.562 17.391 8.854 17.687 8.894 C 18.014 8.938 18.342 8.737 18.429 8.41 C 18.553 7.94 18.636 7.461 18.677 6.979 C 18.737 6.712 18.803 6.446 18.875 6.193 C 18.973 5.843 19.084 5.497 19.208 5.155 C 19.269 4.986 19.335 4.818 19.401 4.65 C 19.414 4.622 19.427 4.593 19.441 4.564 C 19.475 4.495 19.51 4.427 19.548 4.36 C 19.586 4.293 19.627 4.226 19.67 4.162 C 19.688 4.135 19.706 4.109 19.724 4.083 C 19.764 4.035 19.806 3.988 19.85 3.943 C 19.871 3.922 19.958 3.848 19.955 3.846 C 19.997 3.819 20.041 3.797 20.083 3.771 C 20.098 3.767 20.123 3.761 20.139 3.757 C 20.151 3.757 20.166 3.758 20.178 3.758 C 20.2 3.768 20.228 3.768 20.213 3.757 C 20.243 3.772 20.273 3.79 20.3 3.808 C 20.35 3.852 20.395 3.9 20.44 3.95 C 20.445 3.956 20.448 3.96 20.451 3.963 C 20.468 3.986 20.484 4.01 20.5 4.033 C 20.552 4.11 20.601 4.19 20.648 4.271 C 20.827 4.574 20.991 4.886 21.139 5.205 C 21.447 5.867 21.692 6.637 21.854 7.388 C 21.903 7.614 22.109 7.8 22.326 7.86 C 22.578 7.929 22.792 7.843 22.984 7.686 C 23.645 7.15 24.182 6.483 24.584 5.74 C 24.785 5.918 25.007 6.071 25.252 6.18 C 25.605 6.336 25.973 6.404 26.355 6.318 C 26.521 6.281 26.687 6.209 26.828 6.115 C 26.913 6.058 26.993 5.992 27.073 5.928 C 27.087 5.917 27.102 5.905 27.116 5.893 C 27.123 5.899 27.131 5.905 27.138 5.912 C 27.193 5.96 27.248 6.009 27.305 6.055 C 27.619 6.312 27.954 6.462 28.361 6.491 C 29.071 6.542 29.756 6.148 30.275 5.7 C 30.532 5.477 30.766 5.23 31.025 5.009 C 31.052 4.987 31.079 4.964 31.106 4.942 C 31.109 4.94 31.112 4.937 31.115 4.935 C 31.12 4.932 31.126 4.928 31.134 4.922 C 31.199 4.876 31.265 4.832 31.334 4.791 C 31.373 4.769 31.413 4.748 31.453 4.727 C 31.462 4.722 31.474 4.717 31.484 4.713 C 31.568 4.683 31.653 4.661 31.74 4.644 C 32.098 4.572 32.304 4.147 32.213 3.813 Z M 9.996 5.17 C 9.994 5.196 9.991 5.222 9.989 5.248 C 9.988 5.252 9.987 5.256 9.985 5.262 C 9.957 5.403 9.926 5.541 9.881 5.677 C 9.863 5.733 9.842 5.788 9.821 5.843 C 9.813 5.857 9.773 5.945 9.761 5.969 C 9.696 6.097 9.622 6.22 9.541 6.338 C 9.524 6.363 9.506 6.388 9.488 6.413 C 9.504 6.39 9.565 6.322 9.481 6.421 C 9.435 6.475 9.389 6.529 9.34 6.581 C 9.291 6.633 9.241 6.683 9.188 6.731 C 9.169 6.749 9.086 6.82 9.068 6.837 C 9.057 6.845 9.047 6.854 9.044 6.855 C 9.011 6.878 8.979 6.901 8.945 6.924 C 8.887 6.962 8.827 6.998 8.765 7.032 C 8.716 7.059 8.666 7.085 8.615 7.109 C 8.634 7.098 8.521 7.146 8.49 7.157 C 8.433 7.176 8.376 7.193 8.318 7.207 C 8.279 7.217 8.24 7.226 8.201 7.234 C 8.195 7.235 8.166 7.24 8.144 7.244 C 8.109 7.246 8.013 7.254 7.99 7.255 C 7.922 7.257 7.854 7.254 7.786 7.251 C 7.77 7.25 7.755 7.248 7.739 7.247 C 7.669 7.226 7.594 7.217 7.524 7.197 C 7.461 7.179 7.4 7.154 7.338 7.135 C 7.459 7.173 7.318 7.125 7.269 7.1 C 7.154 7.041 7.045 6.972 6.939 6.898 C 6.917 6.879 6.894 6.86 6.872 6.841 C 6.822 6.797 6.774 6.751 6.728 6.704 C 6.688 6.664 6.65 6.621 6.612 6.579 C 6.606 6.573 6.589 6.552 6.575 6.536 C 6.562 6.519 6.546 6.498 6.542 6.493 C 6.472 6.392 6.407 6.289 6.349 6.18 C 6.342 6.166 6.301 6.081 6.286 6.051 C 6.279 6.034 6.272 6.016 6.269 6.008 C 6.257 5.973 6.245 5.938 6.233 5.903 C 6.197 5.788 6.174 5.671 6.15 5.553 C 6.182 5.712 6.151 5.531 6.149 5.488 C 6.146 5.414 6.15 5.342 6.151 5.269 C 6.151 5.266 6.151 5.262 6.151 5.259 C 6.151 5.248 6.151 5.223 6.155 5.205 C 6.156 5.199 6.157 5.193 6.157 5.187 C 6.157 5.192 6.157 5.196 6.156 5.2 C 6.168 5.148 6.178 5.095 6.192 5.044 C 6.207 4.989 6.227 4.936 6.245 4.882 C 6.27 4.838 6.29 4.792 6.315 4.749 C 6.355 4.679 6.399 4.612 6.444 4.546 C 6.466 4.516 6.471 4.507 6.472 4.504 C 6.473 4.504 6.481 4.498 6.509 4.468 C 6.627 4.342 6.746 4.22 6.878 4.108 C 7.012 3.994 7.002 4.004 7.158 3.895 C 7.302 3.794 7.45 3.699 7.599 3.606 C 8.052 3.323 8.509 3.047 8.975 2.786 C 9.261 3.094 9.498 3.415 9.704 3.814 C 9.734 3.872 9.762 3.93 9.789 3.989 C 9.788 3.993 9.842 4.127 9.849 4.147 C 9.909 4.317 9.953 4.491 9.986 4.668 C 9.99 4.686 9.992 4.698 9.994 4.707 C 9.994 4.714 9.994 4.725 9.996 4.743 C 9.999 4.814 10.004 4.885 10.004 4.956 C 10.004 5.027 10.002 5.099 9.996 5.17 Z M 19.402 4.649 C 19.402 4.648 19.402 4.647 19.403 4.647 C 19.436 4.562 19.411 4.627 19.402 4.649 Z M 19.722 4.087 C 19.722 4.087 19.723 4.086 19.723 4.086 C 19.71 4.103 19.678 4.14 19.722 4.087 Z M 20.154 3.749 C 20.167 3.742 20.162 3.734 20.154 3.749 Z M 20.183 3.758 C 20.19 3.758 20.196 3.757 20.199 3.755 C 20.201 3.754 20.202 3.754 20.203 3.753 C 20.205 3.754 20.206 3.754 20.207 3.755 C 20.2 3.758 20.192 3.759 20.183 3.758 Z M 20.208 3.754 C 20.207 3.754 20.205 3.753 20.204 3.752 C 20.227 3.74 20.222 3.748 20.208 3.754 Z M 20.298 3.806 C 20.298 3.806 20.299 3.806 20.299 3.807 C 20.282 3.794 20.245 3.76 20.298 3.806 Z M 27.03 5.832 C 27.021 5.827 27.021 5.828 27.03 5.832 Z M 31.492 4.71 C 31.516 4.701 31.509 4.703 31.492 4.71 Z" fill="rgb(28,117,188)" fill-rule="nonzero"></path></g>
  <g transform="translate(122.839 91.282)"><path d="M 110.32 9.748 L 0 9.748 L 0 4.796 C 0 2.147 2.147 0 4.796 0 L 105.524 0 C 108.173 0 110.32 2.147 110.32 4.796 L 110.32 9.748 Z" fill="rgb(55,81,102)" fill-rule="nonzero"></path></g>
  <g transform="translate(127.713 94.67)"><path d="M 1.486 2.973 C 2.307 2.973 2.973 2.307 2.973 1.486 C 2.973 0.665 2.307 0 1.486 0 C 0.665 0 0 0.665 0 1.486 C 0 2.307 0.665 2.973 1.486 2.973 Z" fill="rgb(93,121,137)" fill-rule="nonzero"></path></g>
  <g transform="translate(132.993 94.67)"><path d="M 1.486 2.973 C 2.307 2.973 2.973 2.307 2.973 1.486 C 2.973 0.665 2.307 0 1.486 0 C 0.665 0 0 0.665 0 1.486 C 0 2.307 0.665 2.973 1.486 2.973 Z" fill="rgb(93,121,137)" fill-rule="nonzero"></path></g>
  <g transform="translate(138.272 94.67)"><path d="M 1.486 2.973 C 2.307 2.973 2.973 2.307 2.973 1.486 C 2.973 0.665 2.307 0 1.486 0 C 0.665 0 0 0.665 0 1.486 C 0 2.307 0.665 2.973 1.486 2.973 Z" fill="rgb(93,121,137)" fill-rule="nonzero"></path></g>
</svg>