<svg xmlns="http://www.w3.org/2000/svg" viewBox="0 0 631 631">
  <g transform="translate(398.41999999999996 73.421)"><path d="M 205.793 115.772 L 200.501 118.821 L 0 3.065 L 5.291 0 L 205.793 115.772 Z" fill="rgb(177,196,243)" fill-rule="nonzero"></path></g>
  <g transform="translate(598.92 189.193)"><path d="M 5.291 18.84 L 0 21.878 L 0 3.049 L 5.291 0 L 5.291 18.84 Z" fill="rgb(86,108,161)" fill-rule="nonzero"></path></g>
  <g transform="translate(598.92 208.03300000000002)"><path d="M 5.291 179.092 L 0 182.164 L 0 3.038 L 5.291 0 L 5.291 179.092 Z" fill="rgb(197,197,197)" fill-rule="nonzero"></path></g>
  <g transform="translate(398.41999999999996 76.486)"><path d="M 200.501 115.756 L 0 0 L 0 18.838 L 200.501 134.585 L 200.501 115.756 Z" fill="rgb(129,162,243)" fill-rule="nonzero"></path></g>
  <g transform="translate(549.063 171.318)"><path d="M 10.089 7.529 L 7.134 2.412 L 2.948 0 L 0 1.718 L 0 6.548 L 2.948 11.655 L 7.134 14.068 L 10.089 12.375 L 10.089 7.529 Z" fill="rgb(169,183,62)" fill-rule="nonzero"></path></g>
  <g transform="translate(552.01 170.04700000000003)"><path d="M 4.186 3.683 L 0 1.271 L 2.21 0 L 6.395 2.41 L 4.747 3.741 L 4.186 3.683 Z" fill="rgb(209,218,87)" fill-rule="nonzero"></path></g>
  <g transform="translate(556.197 172.45700000000002)"><path d="M 2.955 6.389 L 0 1.273 L 2.209 0 L 5.165 5.133 L 3.49 6.647 L 2.955 6.389 Z" fill="rgb(207,199,68)" fill-rule="nonzero"></path></g>
  <g transform="translate(559.152 177.59000000000003)"><path d="M 0 6.103 L 0 1.257 L 2.21 0 L 2.21 4.823 L 0 6.103 Z" fill="rgb(136,149,64)" fill-rule="nonzero"></path></g>
  <g transform="translate(563.0699999999999 179.40800000000004)"><path d="M 10.082 7.525 L 7.125 2.41 L 2.957 0 L 0 1.698 L 0 6.521 L 2.957 11.645 L 7.125 14.082 L 10.082 12.357 L 10.082 7.525 Z" fill="rgb(119,199,215)" fill-rule="nonzero"></path></g>
  <g transform="translate(566.026 178.12600000000003)"><path d="M 4.168 3.692 L 0 1.282 L 2.185 0 L 6.388 2.403 L 4.722 3.752 L 4.168 3.692 Z" fill="rgb(177,231,243)" fill-rule="nonzero"></path></g>
  <g transform="translate(570.1949999999999 180.52900000000002)"><path d="M 2.957 6.404 L 0 1.289 L 2.219 0 L 5.167 5.133 L 3.508 6.647 L 2.957 6.404 Z" fill="rgb(129,162,243)" fill-rule="nonzero"></path></g>
  <g transform="translate(573.151 185.66200000000003)"><path d="M 0 6.103 L 0 1.271 L 2.21 0 L 2.21 4.83 L 0 6.103 Z" fill="rgb(89,149,161)" fill-rule="nonzero"></path></g>
  <g transform="translate(577.059 187.48600000000002)"><path d="M 10.105 7.536 L 7.141 2.394 L 2.964 0 L 0 1.707 L 0 6.548 L 2.964 11.646 L 7.141 14.075 L 10.105 12.35 L 10.105 7.536 Z" fill="rgb(141,43,35)" fill-rule="nonzero"></path></g>
  <g transform="translate(580.023 186.20600000000002)"><path d="M 4.177 3.674 L 0 1.28 L 2.194 0 L 6.388 2.436 L 4.722 3.766 L 4.177 3.674 Z" fill="rgb(238,88,78)" fill-rule="nonzero"></path></g>
  <g transform="translate(584.1999999999999 188.64200000000002)"><path d="M 2.964 6.38 L 0 1.239 L 2.21 0 L 5.167 5.106 L 3.485 6.606 L 2.964 6.38 Z" fill="rgb(179,35,25)" fill-rule="nonzero"></path></g>
  <g transform="translate(587.164 193.747)"><path d="M 0 6.088 L 0 1.275 L 2.203 0 L 2.203 4.823 L 0 6.088 Z" fill="rgb(141,28,20)" fill-rule="nonzero"></path></g>
  <g transform="translate(398.41999999999996 95.32400000000001)"><path d="M 0 179.101 L 200.501 294.874 L 200.501 115.747 L 0 0 L 0 179.101 Z" fill="rgb(250,247,243)" fill-rule="nonzero"></path></g>
  <g transform="translate(409.823 111.23100000000001)"><path d="M 177.677 232.936 L 0 130.357 L 0 0 L 177.677 102.586 L 177.677 232.936 Z" fill="rgb(131,192,191)" fill-rule="nonzero"></path></g>
  <g transform="translate(449.34 213.642)"><path d="M 8.8 6.571 L 6.247 2.1 L 2.587 0 L 0 1.498 L 0 5.701 L 2.587 10.172 L 6.247 12.265 L 8.8 10.792 L 8.8 6.571 Z" fill="rgb(238,88,78)" fill-rule="nonzero"></path></g>
  <g transform="translate(478.962 227.389)"><path d="M 8.825 6.589 L 6.231 2.111 L 2.587 0 L 0 1.491 L 0 5.726 L 2.587 10.19 L 6.231 12.292 L 8.825 10.808 L 8.825 6.589 Z" fill="rgb(238,88,78)" fill-rule="nonzero"></path></g>
  <g transform="translate(517.1899999999999 230.913)"><path d="M 8.816 6.564 L 6.231 2.102 L 2.562 0 L 0 1.482 L 0 5.684 L 2.562 10.155 L 6.231 12.267 L 8.816 10.776 L 8.816 6.564 Z" fill="rgb(238,88,78)" fill-rule="nonzero"></path></g>
  <g transform="translate(529.447 221.95499999999998)"><path d="M 8.816 6.564 L 6.229 2.102 L 2.58 0 L 0 1.482 L 0 5.701 L 2.58 10.181 L 6.229 12.283 L 8.816 10.783 L 8.816 6.564 Z" fill="rgb(238,88,78)" fill-rule="nonzero"></path></g>
  <g transform="translate(558.4649999999999 218.18699999999998)"><path d="M 10.951 8.18 L 7.754 2.638 L 3.216 0 L 0 1.868 L 0 7.101 L 3.216 12.676 L 7.754 15.272 L 10.951 13.422 L 10.951 8.18 Z" fill="rgb(238,88,78)" fill-rule="nonzero"></path></g>
  <g transform="translate(418.19399999999996 218.405)"><path d="M 1.44 22.254 L 0 19.734 L 35.123 0 L 64.668 13.765 L 102.855 17.297 L 115.305 8.775 L 145.236 6.095 L 146.266 8.742 L 116.452 11.371 L 103.852 19.943 L 65.013 16.301 L 36.044 2.796 L 1.44 22.254 Z" fill="rgb(238,88,78)" fill-rule="nonzero"></path></g>
  <g transform="translate(435.743 155.018)"><path d="M 7.805 8.23 L 7.805 18.553 L 14.116 29.488 L 18.328 31.916 L 18.328 40.925 L 10.893 36.638 L 0 17.783 L 0 0 L 7.805 8.23 Z" fill="rgb(223,88,65)" fill-rule="nonzero"></path></g>
  <g transform="translate(435.743 148.73)"><path d="M 0 6.288 L 10.893 0 L 26.298 8.883 L 23.049 16.035 L 14.116 10.893 L 7.805 14.518 L 0 6.288 Z" fill="rgb(243,135,27)" fill-rule="nonzero"></path></g>
  <g transform="translate(454.07099999999997 157.613)"><path d="M 0 29.32 L 4.722 32.042 L 11.026 28.4 L 11.026 18.101 L 4.722 7.152 L 7.97 0 L 18.863 18.881 L 18.863 36.647 L 7.97 42.933 L 0 38.329 L 0 29.32 Z" fill="rgb(243,189,80)" fill-rule="nonzero"></path></g>
  <g transform="translate(447.943 165.73499999999999)"><path d="M 9.025 3.056 L 3.75 0 L 0 2.16 L 0 8.255 L 3.75 14.778 L 9.025 17.825 L 12.784 15.656 L 12.784 9.544 L 9.025 3.056 Z" fill="rgb(243,189,80)" fill-rule="nonzero"></path></g>
  <g transform="translate(525.511 293.32099999999997)"><path d="M 49.231 29.102 L 0 0.662 L 0 0 L 49.231 28.417 L 49.231 29.102 Z" fill="rgb(62,128,156)" fill-rule="nonzero"></path></g>
  <g transform="translate(527.688 281.13)"><path d="M 8.582 4.965 L 0 0 L 0 13.438 L 8.582 18.404 L 8.582 4.965 Z" fill="rgb(243,225,116)" fill-rule="nonzero"></path></g>
  <g transform="translate(539.326 274.425)"><path d="M 8.565 4.956 L 0 0 L 0 26.85 L 8.565 31.806 L 8.565 4.956 Z" fill="rgb(243,189,80)" fill-rule="nonzero"></path></g>
  <g transform="translate(550.947 267.71799999999996)"><path d="M 8.565 4.947 L 0 0 L 0 40.279 L 8.565 45.235 L 8.565 4.947 Z" fill="rgb(241,167,79)" fill-rule="nonzero"></path></g>
  <g transform="translate(562.5849999999999 249.843)"><path d="M 8.556 4.965 L 0 0 L 0 64.869 L 8.556 69.817 L 8.556 4.965 Z" fill="rgb(221,77,82)" fill-rule="nonzero"></path></g>
  <g transform="translate(417.609 121.804)"><path d="M 1.942 117.038 L 1.942 1.114 L 0 0 L 0 118.143 L 162.214 211.796 L 162.214 209.551 L 1.942 117.038 Z" fill="rgb(62,128,156)" fill-rule="nonzero"></path></g>
  <g transform="translate(409.823 253.53500000000003)"><path d="M 175.878 100.493 L 1.817 0 L 0 1.055 L 0 3.324 L 1.817 6.422 L 175.878 106.915 L 177.677 105.885 L 177.677 103.616 L 175.878 100.493 Z" fill="rgb(197,197,197)" fill-rule="nonzero"></path></g>
  <g transform="translate(409.823 264.504)"><path d="M 132.223 75.293 L 1.817 0 L 0 1.062 L 0 3.332 L 1.817 6.42 L 132.223 81.722 L 134.033 80.674 L 134.033 78.431 L 132.223 75.293 Z" fill="rgb(197,197,197)" fill-rule="nonzero"></path></g>
  <g transform="translate(166.68099999999998 325.713)"><path d="M 339.64 169.977 L 294.398 196.106 L 0 26.122 L 45.235 0 L 339.64 169.977 Z" fill="rgb(0,0,0)" fill-rule="nonzero"></path></g>
  <g transform="translate(374.633 438.98300000000006)"><path d="M 4.354 45.111 L 0 34.117 L 70.001 0 L 70.001 7.116 L 4.354 45.111 Z" fill="rgb(197,197,197)" fill-rule="nonzero"></path></g>
  <g transform="translate(224.618 387.85400000000004)"><path d="M 154.37 96.24 L 0 7.109 L 0 0 L 85.8 29.846 L 154.37 89.115 L 154.37 96.24 Z" fill="rgb(232,227,221)" fill-rule="nonzero"></path></g>
  <g transform="translate(224.618 349.85200000000003)"><path d="M 154.37 127.118 L 0 38.002 L 65.647 0 L 220.017 89.131 L 154.37 127.118 Z" fill="rgb(250,247,243)" fill-rule="nonzero"></path></g>
  <g transform="translate(284.639 311.732)"><path d="M 116.636 113.537 L 108.766 118.075 L 0 4.538 L 7.853 0 L 94.592 50.076 L 116.636 113.537 Z" fill="rgb(197,197,197)" fill-rule="nonzero"></path></g>
  <g transform="translate(284.639 316.27000000000004)"><path d="M 108.766 113.537 L 22.036 63.462 L 0 0 L 86.73 50.076 L 108.766 113.537 Z" fill="rgb(232,227,221)" fill-rule="nonzero"></path></g>
  <g transform="translate(233.64299999999997 349.852)"><path d="M 154.379 121.918 L 154.328 129.202 L 211.026 96.256 L 211.026 89.131 L 56.631 0 L 0 32.778 L 154.379 121.918 Z" fill="rgb(0,0,0)" fill-rule="nonzero"></path></g>
  <g transform="translate(166.68999999999997 236.356)"><path d="M 307.257 169.95 L 294.354 177.401 L 0 7.442 L 12.892 0 L 307.257 169.95 Z" fill="rgb(232,227,221)" fill-rule="nonzero"></path></g>
  <g transform="translate(452.17099999999994 406.306)"><path d="M 21.777 42.382 L 8.874 49.824 L 0 24.908 L 8.874 7.451 L 21.777 0 L 21.777 42.382 Z" fill="rgb(52,43,40)" fill-rule="nonzero"></path></g>
  <g transform="translate(166.68999999999997 243.799)"><path d="M 294.354 169.959 L 0 0 L 0 42.391 L 294.354 212.331 L 294.354 169.959 Z" fill="rgb(92,77,71)" fill-rule="nonzero"></path></g>
  <g transform="translate(166.68999999999997 46.822)"><path d="M 307.257 169.934 L 294.354 177.394 L 0 7.444 L 12.892 0 L 307.257 169.934 Z" fill="rgb(250,247,243)" fill-rule="nonzero"></path></g>
  <g transform="translate(461.04499999999996 216.756)"><path d="M 12.903 189.551 L 0 197.002 L 0 7.46 L 12.903 0 L 12.903 189.551 Z" fill="rgb(197,197,197)" fill-rule="nonzero"></path></g>
  <g transform="translate(166.68999999999997 54.266000000000005)"><path d="M 294.354 169.95 L 0 0 L 0 189.542 L 294.354 359.491 L 294.354 169.95 Z" fill="rgb(232,227,221)" fill-rule="nonzero"></path></g>
  <g transform="translate(171.17699999999996 62.036)"><path d="M 285.389 341.297 L 285.389 343.944 L 0 179.191 L 0 0 L 2.311 1.321 L 2.311 177.836 L 285.389 341.297 Z" fill="rgb(151,144,139)" fill-rule="nonzero"></path></g>
  <g transform="translate(173.48899999999998 63.358000000000004)"><path d="M 283.077 163.429 L 283.077 339.976 L 0 176.514 L 0 0 L 283.077 163.429 Z" fill="rgb(131,192,191)" fill-rule="nonzero"></path></g>
  <g transform="translate(194.24999999999997 104.751)"><path d="M 0 129.822 L 180.861 234.242 L 180.861 104.42 L 0 0 L 0 129.822 Z" fill="rgb(250,247,243)" fill-rule="nonzero"></path></g>
  <g transform="translate(195.31599999999997 105.03600000000002)"><path d="M 180.071 232.751 L 179.795 232.583 L 179.795 104.135 L 0 0.326 L 0 0 L 180.071 103.967 L 180.071 232.751 Z" fill="rgb(62,128,156)" fill-rule="nonzero"></path></g>
  <g transform="translate(363.82499999999993 202.48900000000003)"><path d="M 0.276 128.776 L 0 128.616 L 0 0 L 0.276 0.168 L 0.276 128.776 Z" fill="rgb(62,128,156)" fill-rule="nonzero"></path></g>
  <g transform="translate(352.524 195.967)"><path d="M 0.285 128.783 L 0 128.618 L 0 0 L 0.285 0.168 L 0.285 128.783 Z" fill="rgb(62,128,156)" fill-rule="nonzero"></path></g>
  <g transform="translate(341.23699999999997 189.45300000000003)"><path d="M 0.285 128.776 L 0 128.616 L 0 0 L 0.285 0.159 L 0.285 128.776 Z" fill="rgb(62,128,156)" fill-rule="nonzero"></path></g>
  <g transform="translate(329.952 182.93200000000002)"><path d="M 0.285 128.774 L 0 128.616 L 0 0 L 0.285 0.159 L 0.285 128.774 Z" fill="rgb(62,128,156)" fill-rule="nonzero"></path></g>
  <g transform="translate(318.66599999999994 176.418)"><path d="M 0.285 128.774 L 0 128.616 L 0 0 L 0.285 0.15 L 0.285 128.774 Z" fill="rgb(62,128,156)" fill-rule="nonzero"></path></g>
  <g transform="translate(307.38 169.90500000000003)"><path d="M 0.276 128.774 L 0 128.607 L 0 0 L 0.285 0.151 L 0.276 128.774 Z" fill="rgb(62,128,156)" fill-rule="nonzero"></path></g>
  <g transform="translate(296.07599999999996 163.382)"><path d="M 0.285 128.776 L 0 128.609 L 0 0 L 0.285 0.159 L 0.285 128.776 Z" fill="rgb(62,128,156)" fill-rule="nonzero"></path></g>
  <g transform="translate(284.799 156.86100000000002)"><path d="M 0.285 128.774 L 0 128.616 L 0 0 L 0.285 0.166 L 0.285 128.774 Z" fill="rgb(62,128,156)" fill-rule="nonzero"></path></g>
  <g transform="translate(273.505 150.33800000000002)"><path d="M 0.285 128.783 L 0 128.625 L 0 0 L 0.285 0.175 L 0.285 128.783 Z" fill="rgb(62,128,156)" fill-rule="nonzero"></path></g>
  <g transform="translate(262.21799999999996 143.824)"><path d="M 0.276 128.783 L 0 128.616 L 0 0 L 0.276 0.168 L 0.276 128.783 Z" fill="rgb(62,128,156)" fill-rule="nonzero"></path></g>
  <g transform="translate(250.92299999999997 137.311)"><path d="M 0.285 128.774 L 0.009 128.607 L 0 0 L 0.285 0.159 L 0.285 128.774 Z" fill="rgb(62,128,156)" fill-rule="nonzero"></path></g>
  <g transform="translate(239.63699999999997 130.788)"><path d="M 0.278 128.776 L 0 128.618 L 0 0 L 0.278 0.168 L 0.278 128.776 Z" fill="rgb(62,128,156)" fill-rule="nonzero"></path></g>
  <g transform="translate(228.34399999999997 124.26700000000002)"><path d="M 0.285 128.783 L 0 128.632 L 0 0 L 0.285 0.168 L 0.285 128.783 Z" fill="rgb(62,128,156)" fill-rule="nonzero"></path></g>
  <g transform="translate(217.05899999999997 117.74400000000001)"><path d="M 0.285 128.783 L 0 128.632 L 0 0 L 0.285 0.177 L 0.285 128.783 Z" fill="rgb(62,128,156)" fill-rule="nonzero"></path></g>
  <g transform="translate(205.77199999999996 111.23100000000002)"><path d="M 0.285 128.784 L 0 128.625 L 0 0 L 0.285 0.168 L 0.285 128.784 Z" fill="rgb(62,128,156)" fill-rule="nonzero"></path></g>
  <g transform="translate(195.31599999999997 118.08000000000001)"><path d="M 179.938 104.211 L 0 0.317 L 0 0 L 179.938 103.875 L 179.938 104.211 Z" fill="rgb(62,128,156)" fill-rule="nonzero"></path></g>
  <g transform="translate(195.31599999999997 131.116)"><path d="M 179.938 104.202 L 0 0.317 L 0 0 L 179.938 103.875 L 179.938 104.202 Z" fill="rgb(62,128,156)" fill-rule="nonzero"></path></g>
  <g transform="translate(195.31599999999997 144.14200000000002)"><path d="M 179.938 104.203 L 0 0.326 L 0 0 L 179.938 103.884 L 179.938 104.203 Z" fill="rgb(62,128,156)" fill-rule="nonzero"></path></g>
  <g transform="translate(195.31599999999997 157.17800000000003)"><path d="M 179.938 104.211 L 0 0.335 L 0 0 L 179.938 103.884 L 179.938 104.211 Z" fill="rgb(62,128,156)" fill-rule="nonzero"></path></g>
  <g transform="translate(195.31599999999997 170.21300000000002)"><path d="M 179.938 104.22 L 0 0.328 L 0 0 L 179.938 103.886 L 179.938 104.22 Z" fill="rgb(62,128,156)" fill-rule="nonzero"></path></g>
  <g transform="translate(195.31599999999997 183.24900000000002)"><path d="M 179.938 104.211 L 0 0.326 L 0 0 L 179.938 103.884 L 179.938 104.211 Z" fill="rgb(62,128,156)" fill-rule="nonzero"></path></g>
  <g transform="translate(195.31599999999997 196.293)"><path d="M 179.938 104.203 L 0 0.319 L 0 0 L 179.938 103.877 L 179.938 104.203 Z" fill="rgb(62,128,156)" fill-rule="nonzero"></path></g>
  <g transform="translate(195.31599999999997 209.322)"><path d="M 179.938 104.209 L 0 0.325 L 0 0 L 179.938 103.891 L 179.938 104.209 Z" fill="rgb(62,128,156)" fill-rule="nonzero"></path></g>
  <g transform="translate(195.31599999999997 222.35700000000003)"><path d="M 179.938 104.211 L 0 0.326 L 0 0 L 179.938 103.891 L 179.938 104.211 Z" fill="rgb(62,128,156)" fill-rule="nonzero"></path></g>
  <g transform="translate(193.12199999999999 101.64500000000001)"><path d="M 2.194 132.057 L 2.194 1.273 L 0 0 L 0 133.329 L 183.028 238.996 L 183.028 236.459 L 2.194 132.057 Z" fill="rgb(62,128,156)" fill-rule="nonzero"></path></g>
  <g transform="translate(349.02299999999997 269.83700000000005)"><path d="M 9.93 7.426 L 7.017 2.385 L 2.906 0 L 0 1.691 L 0 6.447 L 2.906 11.486 L 7.017 13.864 L 9.93 12.189 L 9.93 7.426 Z" fill="rgb(241,167,79)" fill-rule="nonzero"></path></g>
  <g transform="translate(331.32399999999996 277.33000000000004)"><path d="M 9.946 7.442 L 7.033 2.387 L 2.913 0 L 0 1.7 L 0 6.447 L 2.913 11.488 L 7.033 13.873 L 9.946 12.189 L 9.946 7.442 Z" fill="rgb(241,167,79)" fill-rule="nonzero"></path></g>
  <g transform="translate(307.429 257.798)"><path d="M 9.946 7.433 L 7.033 2.387 L 2.922 0 L 0 1.691 L 0 6.438 L 2.922 11.486 L 7.033 13.864 L 9.946 12.189 L 9.946 7.433 Z" fill="rgb(241,167,79)" fill-rule="nonzero"></path></g>
  <g transform="translate(269.66999999999996 256.769)"><path d="M 9.946 7.426 L 7.042 2.385 L 2.913 0 L 0 1.682 L 0 6.438 L 2.913 11.495 L 7.042 13.864 L 9.946 12.18 L 9.946 7.426 Z" fill="rgb(241,167,79)" fill-rule="nonzero"></path></g>
  <g transform="translate(247.48399999999998 236.348)"><path d="M 9.928 7.426 L 7.015 2.378 L 2.904 0 L 0 1.691 L 0 6.438 L 2.904 11.479 L 7.015 13.857 L 9.928 12.182 L 9.928 7.426 Z" fill="rgb(241,167,79)" fill-rule="nonzero"></path></g>
  <g transform="translate(224.18399999999997 227.68300000000002)"><path d="M 9.946 7.433 L 7.033 2.385 L 2.913 0 L 0 1.691 L 0 6.445 L 2.913 11.486 L 7.033 13.855 L 9.946 12.189 L 9.946 7.433 Z" fill="rgb(241,167,79)" fill-rule="nonzero"></path></g>
  <g transform="translate(362.294 274.5)"><path d="M 12.357 9.227 L 8.74 2.957 L 3.626 0 L 0 2.086 L 0 7.996 L 3.626 14.275 L 8.74 17.232 L 12.357 15.139 L 12.357 9.227 Z" fill="rgb(241,167,79)" fill-rule="nonzero"></path></g>
  <g transform="translate(195.15599999999998 208.43400000000003)"><path d="M 79.713 56.797 L 57.351 35.576 L 33.968 27.394 L 0 2.412 L 0.317 0 L 33.899 24.715 L 57.484 32.962 L 79.529 53.886 L 117.114 54.212 L 140.648 74.371 L 158.163 66.41 L 173.199 73.317 L 173.433 76.046 L 159.126 69.475 L 141.266 77.595 L 117.38 57.125 L 79.713 56.797 Z" fill="rgb(241,167,79)" fill-rule="nonzero"></path></g>
  <g transform="translate(250.51399999999998 206.66)"><path d="M 9.946 7.426 L 7.024 2.378 L 2.913 0 L 0 1.682 L 0 6.438 L 2.913 11.479 L 7.024 13.873 L 9.946 12.182 L 9.946 7.426 Z" fill="rgb(238,88,78)" fill-rule="nonzero"></path></g>
  <g transform="translate(274.65 224.87800000000001)"><path d="M 9.939 7.426 L 7.026 2.385 L 2.906 0 L 0 1.682 L 0 6.438 L 2.906 11.488 L 7.026 13.864 L 9.939 12.182 L 9.939 7.426 Z" fill="rgb(238,88,78)" fill-rule="nonzero"></path></g>
  <g transform="translate(330.243 236.449)"><path d="M 9.937 7.419 L 7.033 2.369 L 2.913 0 L 0 1.675 L 0 6.429 L 2.913 11.479 L 7.033 13.855 L 9.937 12.173 L 9.937 7.419 Z" fill="rgb(238,88,78)" fill-rule="nonzero"></path></g>
  <g transform="translate(343.932 230.91400000000002)"><path d="M 9.946 7.419 L 7.033 2.378 L 2.913 0 L 0 1.675 L 0 6.431 L 2.913 11.479 L 7.033 13.857 L 9.946 12.173 L 9.946 7.419 Z" fill="rgb(238,88,78)" fill-rule="nonzero"></path></g>
  <g transform="translate(362.293 233.38400000000001)"><path d="M 12.357 9.227 L 8.74 2.955 L 3.626 0 L 0 2.093 L 0 8.005 L 3.626 14.275 L 8.74 17.239 L 12.357 15.146 L 12.357 9.227 Z" fill="rgb(238,88,78)" fill-rule="nonzero"></path></g>
  <g transform="translate(195.123 189.513)"><path d="M 0.384 2.787 L 0 0 L 60.172 22.312 L 60.354 22.462 L 84.367 40.882 L 140.044 52.303 L 153.331 46.6 L 173.022 51.046 L 173.675 53.925 L 154.444 49.58 L 141.182 55.274 L 84.536 43.662 L 84.267 43.452 L 60.188 24.975 L 0.384 2.787 Z" fill="rgb(238,88,78)" fill-rule="nonzero"></path></g>
  <g transform="translate(362.294 209.272)"><path d="M 12.357 9.225 L 8.74 2.955 L 3.626 0 L 0 2.084 L 0.009 8.003 L 3.626 14.266 L 8.74 17.23 L 12.357 15.137 L 12.357 9.225 Z" fill="rgb(89,149,161)" fill-rule="nonzero"></path></g>
  <g transform="translate(327.004 202.757)"><path d="M 9.937 7.419 L 7.024 2.38 L 2.904 0 L 0 1.675 L 0 6.431 L 2.904 11.488 L 7.024 13.857 L 9.937 12.182 L 9.937 7.419 Z" fill="rgb(89,149,161)" fill-rule="nonzero"></path></g>
  <g transform="translate(293.41499999999996 209.431)"><path d="M 9.937 7.426 L 7.031 2.387 L 2.912 0 L 0 1.7 L 0 6.447 L 2.912 11.486 L 7.031 13.864 L 9.937 12.182 L 9.937 7.426 Z" fill="rgb(89,149,161)" fill-rule="nonzero"></path></g>
  <g transform="translate(254.60899999999998 188.81900000000002)"><path d="M 9.946 7.433 L 7.024 2.385 L 2.913 0 L 0 1.689 L 0 6.445 L 2.913 11.486 L 7.024 13.871 L 9.946 12.182 L 9.946 7.433 Z" fill="rgb(89,149,161)" fill-rule="nonzero"></path></g>
  <g transform="translate(228.78799999999998 181.735)"><path d="M 9.93 7.417 L 7.024 2.369 L 2.904 0 L 0 1.682 L 0 6.429 L 2.904 11.477 L 7.024 13.855 L 9.93 12.173 L 9.93 7.417 Z" fill="rgb(89,149,161)" fill-rule="nonzero"></path></g>
  <g transform="translate(195.05499999999998 154.918)"><path d="M 38.823 35.156 L 38.538 34.912 L 0 2.245 L 0.519 0 L 38.765 32.435 L 64.452 39.149 L 103.441 60.372 L 136.52 52.854 L 173.1 61.528 L 173.743 64.4 L 137.509 55.802 L 104.178 63.387 L 64.652 41.879 L 38.823 35.156 Z" fill="rgb(89,149,161)" fill-rule="nonzero"></path></g>
  <g transform="translate(394.462 225.17700000000002)"><path d="M 26.807 18.663 L 16.426 12.66 L 9.085 16.904 L 9.085 28.893 L 16.426 41.601 L 21.315 44.422 L 21.315 54.913 L 12.658 49.923 L 0 27.997 L 0 7.309 L 12.658 0 L 30.575 10.33 L 26.807 18.663 Z" fill="rgb(238,88,78)" fill-rule="nonzero"></path></g>
  <g transform="translate(415.775 235.51100000000002)"><path d="M 0 34.092 L 5.493 37.274 L 12.836 33.037 L 12.836 21.047 L 5.493 8.329 L 9.261 0 L 21.928 21.943 L 21.928 42.614 L 9.261 49.941 L 0 44.583 L 0 34.092 Z" fill="rgb(62,128,156)" fill-rule="nonzero"></path></g>
  <g transform="translate(394.462 286.131)"><path d="M 26.807 18.669 L 16.426 12.658 L 9.085 16.911 L 9.085 28.9 L 16.426 41.61 L 21.315 44.431 L 21.315 54.922 L 12.658 49.925 L 0 27.998 L 0 7.318 L 12.658 0 L 30.575 10.341 L 26.807 18.669 Z" fill="rgb(221,77,82)" fill-rule="nonzero"></path></g>
  <g transform="translate(415.775 329.49699999999996)"><path d="M 21.928 9.588 L 9.261 16.905 L 0 11.555 L 0 1.065 L 5.493 4.239 L 12.836 0 L 21.928 9.588 Z" fill="rgb(243,189,80)" fill-rule="nonzero"></path></g>
  <g transform="translate(421.269 296.469)"><path d="M 7.343 33.028 L 7.343 21.039 L 0 8.331 L 3.768 0 L 16.435 21.935 L 16.435 42.616 L 7.343 33.028 Z" fill="rgb(243,225,116)" fill-rule="nonzero"></path></g>
  <g transform="translate(394.451 338.99300000000005)"><path d="M 43.169 37.155 L 0 12.232 L 0 0 L 43.169 24.933 L 43.169 37.155 Z" fill="rgb(62,128,156)" fill-rule="nonzero"></path></g>
  <g transform="translate(55.162 317.66700000000003)"><path d="M 64.223 26.223 L 64.223 10.868 L 45.412 0 L 18.813 0 L 0 10.868 L 0 26.223 L 18.813 37.081 L 45.412 37.081 L 64.223 26.223 Z" fill="rgb(0,0,0)" fill-rule="nonzero"></path></g>
  <g transform="translate(56.125 257.288)"><path d="M 62.298 25.426 L 62.298 10.54 L 44.047 0 L 18.252 0 L 0 10.54 L 0 25.426 L 18.252 35.976 L 44.047 35.976 L 62.298 25.426 Z" fill="rgb(250,247,243)" fill-rule="nonzero"></path></g>
  <g transform="translate(92.87100000000001 259.949)"><path d="M 5.367 0 L 20.956 8.993 L 20.956 21.71 L 18.679 23.033 L 5.367 15.355 L 0 6.716 L 5.367 0 Z" fill="rgb(232,227,221)" fill-rule="nonzero"></path></g>
  <g transform="translate(73.145 259.949)"><path d="M 25.092 15.355 L 3.056 15.355 L 0 8.582 L 3.056 0 L 25.092 0 L 25.092 15.355 Z" fill="rgb(204,197,189)" fill-rule="nonzero"></path></g>
  <g transform="translate(60.620999999999995 259.949)"><path d="M 15.58 15.355 L 2.284 23.033 L 0 21.71 L 0 8.993 L 15.58 0 L 15.58 15.355 Z" fill="rgb(151,144,139)" fill-rule="nonzero"></path></g>
  <g transform="translate(62.905 275.30400000000003)"><path d="M 48.645 7.678 L 39.987 12.669 L 32.192 14.879 L 15.658 14.509 L 8.641 12.669 L 0 7.678 L 13.296 0 L 35.332 0 L 48.645 7.678 Z" fill="rgb(136,72,53)" fill-rule="nonzero"></path></g>
  <g transform="translate(71.54599999999999 281.34000000000003)"><path d="M 22.17 0 L 9.184 0 L 0 5.291 L 0 6.631 L 4.655 9.31 L 26.691 9.31 L 31.346 6.631 L 31.346 5.291 L 22.17 0 Z M 15.222 2.748 L 15.624 2.529 L 16.168 2.529 L 16.561 2.748 L 16.561 3.065 L 16.168 3.299 L 15.624 3.299 L 15.222 3.065 L 15.222 2.748 Z M 11.989 1.776 L 12.625 1.424 L 13.512 1.424 L 14.149 1.776 L 14.149 2.295 L 13.512 2.663 L 12.625 2.663 L 11.989 2.295 L 11.989 1.776 Z M 5.234 4.071 L 5.62 3.844 L 6.173 3.844 L 6.566 4.071 L 6.566 4.397 L 6.173 4.615 L 5.62 4.615 L 5.234 4.397 L 5.234 4.071 Z M 7.644 6.029 L 7.017 6.397 L 6.121 6.397 L 5.484 6.029 L 5.484 5.519 L 6.121 5.149 L 7.017 5.149 L 7.644 5.519 L 7.644 6.029 Z M 9.921 5.661 L 9.452 5.946 L 8.784 5.946 L 8.306 5.661 L 8.306 5.284 L 8.784 5.007 L 9.452 5.007 L 9.921 5.284 L 9.921 5.661 Z M 8.816 4.43 L 7.603 3.736 L 7.603 2.748 L 8.816 2.044 L 10.532 2.044 L 11.738 2.748 L 11.738 3.736 L 10.532 4.43 L 8.816 4.43 Z M 12.66 6.566 L 12.267 6.791 L 11.706 6.791 L 11.32 6.566 L 11.32 6.24 L 11.706 6.022 L 12.267 6.022 L 12.66 6.24 L 12.66 6.566 Z M 13.437 5.477 L 12.809 5.1 L 12.809 4.581 L 13.437 4.22 L 14.333 4.22 L 14.962 4.581 L 14.962 5.1 L 14.333 5.477 L 13.437 5.477 Z M 18.328 7.244 L 17.34 7.805 L 15.95 7.805 L 14.962 7.244 L 14.962 6.431 L 15.95 5.861 L 17.34 5.861 L 18.328 6.431 L 18.328 7.244 Z M 17.742 4.028 L 17.742 3.047 L 18.948 2.353 L 20.655 2.353 L 21.869 3.047 L 21.869 4.028 L 20.655 4.74 L 18.948 4.74 L 17.742 4.028 Z M 22.588 7 L 21.784 7.476 L 20.619 7.476 L 19.79 7 L 19.79 6.339 L 20.619 5.861 L 21.784 5.861 L 22.588 6.339 L 22.588 7 Z M 23.057 1.985 L 23.443 1.758 L 23.996 1.758 L 24.389 1.985 L 24.389 2.302 L 23.996 2.529 L 23.443 2.529 L 23.057 2.302 L 23.057 1.985 Z M 25.368 4.12 L 24.732 4.471 L 23.827 4.471 L 23.199 4.12 L 23.199 3.6 L 23.827 3.233 L 24.732 3.233 L 25.368 3.6 L 25.368 4.12 Z" fill="rgb(227,187,132)" fill-rule="nonzero"></path></g>
  <g transform="translate(74.377 293.264)"><path d="M 25.795 0 L 0 0 L 0 59.83 L 25.795 59.83 L 25.795 0 Z" fill="rgb(204,197,189)" fill-rule="nonzero"></path></g>
  <g transform="translate(56.125 282.714)"><path d="M 18.252 70.378 L 0 59.846 L 0 0 L 18.252 10.55 L 18.252 70.378 Z" fill="rgb(232,227,221)" fill-rule="nonzero"></path></g>
  <g transform="translate(100.17099999999999 282.714)"><path d="M 0 70.378 L 18.25 59.846 L 18.25 0 L 0 10.55 L 0 70.378 Z" fill="rgb(151,144,139)" fill-rule="nonzero"></path></g>
  <g transform="translate(74.377 333.718)"><path d="M 25.795 0 L 0 0 L 0 6.815 L 25.795 6.815 L 25.795 0 Z" fill="rgb(37,88,113)" fill-rule="nonzero"></path></g>
  <g transform="translate(56.125 323.177)"><path d="M 18.252 17.356 L 0 6.815 L 0 0 L 18.252 10.541 L 18.252 17.356 Z" fill="rgb(62,135,172)" fill-rule="nonzero"></path></g>
  <g transform="translate(100.17099999999999 323.177)"><path d="M 0 17.356 L 18.25 6.815 L 18.25 0 L 0 10.541 L 0 17.356 Z" fill="rgb(20,58,80)" fill-rule="nonzero"></path></g>
  <g transform="translate(53.354 290.38300000000004)"><path d="M 7.074 8.674 L 0 4.579 L 8.012 0 L 15.086 4.094 L 9.595 8.674 L 7.074 8.674 Z" fill="rgb(250,247,243)" fill-rule="nonzero"></path></g>
  <g transform="translate(40.585 294.96200000000005)"><path d="M 7.074 26.206 L 0 22.121 L 12.768 0 L 19.842 4.094 L 14.275 17.062 L 7.074 26.206 Z" fill="rgb(232,227,221)" fill-rule="nonzero"></path></g>
  <g transform="translate(40.585 317.083)"><path d="M 7.074 24.941 L 0 20.855 L 0 0 L 7.074 4.085 L 8.883 15.212 L 7.074 24.941 Z" fill="rgb(204,197,189)" fill-rule="nonzero"></path></g>
  <g transform="translate(53.354 335.40000000000003)"><path d="M 7.074 8.666 L 0 4.572 L 8.012 0 L 15.086 4.087 L 9.595 8.666 L 7.074 8.666 Z" fill="rgb(250,247,243)" fill-rule="nonzero"></path></g>
  <g transform="translate(47.659 294.47700000000003)"><path d="M 20.78 45.01 L 14.693 48.484 L 4.637 42.665 L 4.637 26.239 L 14.693 8.807 L 20.78 5.333 L 20.78 0 L 12.768 4.579 L 0 26.691 L 0 47.547 L 12.768 54.931 L 20.78 50.343 L 20.78 45.01 Z" fill="rgb(151,144,139)" fill-rule="nonzero"></path></g>
  <g transform="translate(71.42 376.594)"><path d="M 261.595 207.585 L 0 56.556 L 97.965 0 L 359.576 151.036 L 261.595 207.585 Z" fill="rgb(0,0,0)" fill-rule="nonzero"></path></g>
  <g transform="translate(324.45 520.3629999999999)"><path d="M 8.354 62.718 L 0 46.777 L 105.482 0 L 105.482 6.64 L 8.354 62.718 Z" fill="rgb(197,197,197)" fill-rule="nonzero"></path></g>
  <g transform="translate(73.487 426.72799999999995)"><path d="M 259.318 156.353 L 0 6.631 L 0 0 L 19.684 4.763 L 242.749 133.756 L 259.318 149.697 L 259.318 156.353 Z" fill="rgb(232,227,221)" fill-rule="nonzero"></path></g>
  <g transform="translate(73.487 370.657)"><path d="M 259.318 205.767 L 0 56.071 L 97.12 0 L 356.445 149.706 L 259.318 205.767 Z" fill="rgb(250,247,243)" fill-rule="nonzero"></path></g>
  <g transform="translate(368.28000000000003 495.92499999999995)"><path d="M 10.339 8.506 L 0 2.537 L 4.386 0 L 14.719 5.976 L 10.339 8.506 Z" fill="rgb(232,227,221)" fill-rule="nonzero"></path></g>
  <g transform="translate(379.80800000000005 502.58099999999996)"><path d="M 10.341 8.506 L 0 2.528 L 4.37 0 L 14.719 5.969 L 10.341 8.506 Z" fill="rgb(232,227,221)" fill-rule="nonzero"></path></g>
  <g transform="translate(391.32000000000005 509.22799999999995)"><path d="M 10.348 8.497 L 0 2.537 L 4.377 0 L 14.719 5.985 L 10.348 8.497 Z" fill="rgb(232,227,221)" fill-rule="nonzero"></path></g>
  <g transform="translate(371.95500000000004 498.04299999999995)"><path d="M 6.095 4.269 L 0 0.736 L 1.273 0 L 7.375 3.532 L 6.095 4.269 Z" fill="rgb(209,218,87)" fill-rule="nonzero"></path></g>
  <g transform="translate(383.46700000000004 504.69999999999993)"><path d="M 6.112 4.269 L 0 0.719 L 1.271 0 L 7.392 3.525 L 6.112 4.269 Z" fill="rgb(209,218,87)" fill-rule="nonzero"></path></g>
  <g transform="translate(394.97900000000004 511.347)"><path d="M 6.121 4.26 L 0 0.745 L 1.289 0 L 7.401 3.534 L 6.121 4.26 Z" fill="rgb(209,218,87)" fill-rule="nonzero"></path></g>
  <g transform="translate(163.46699999999998 377.095)"><path d="M 20.479 9.889 L 20.479 6.766 L 0 0 L 0 3.115 L 16.109 12.416 L 20.479 9.889 Z" fill="rgb(197,197,197)" fill-rule="nonzero"></path></g>
  <g transform="translate(163.46699999999998 374.567)"><path d="M 20.479 9.294 L 4.379 0 L 0 2.528 L 16.109 11.812 L 20.479 9.294 Z" fill="rgb(250,247,243)" fill-rule="nonzero"></path></g>
  <g transform="translate(180.69699999999997 387.024)"><path d="M 10.332 9.101 L 14.719 6.564 L 14.719 3.449 L 0 0 L 0 3.123 L 10.332 9.101 Z" fill="rgb(197,197,197)" fill-rule="nonzero"></path></g>
  <g transform="translate(180.69699999999997 384.504)"><path d="M 10.332 8.49 L 14.719 5.969 L 4.37 0 L 0 2.52 L 10.332 8.49 Z" fill="rgb(250,247,243)" fill-rule="nonzero"></path></g>
  <g transform="translate(192.20999999999998 393.681)"><path d="M 10.347 9.092 L 14.726 6.573 L 14.726 3.449 L 0 0 L 0 3.123 L 10.347 9.092 Z" fill="rgb(197,197,197)" fill-rule="nonzero"></path></g>
  <g transform="translate(192.20999999999998 391.161)"><path d="M 10.347 8.49 L 14.726 5.969 L 4.377 0 L 0 2.52 L 10.347 8.49 Z" fill="rgb(250,247,243)" fill-rule="nonzero"></path></g>
  <g transform="translate(203.72199999999998 400.337)"><path d="M 10.348 9.092 L 14.726 6.564 L 14.726 3.442 L 0 0 L 0 3.123 L 10.348 9.092 Z" fill="rgb(197,197,197)" fill-rule="nonzero"></path></g>
  <g transform="translate(203.72199999999998 397.817)"><path d="M 10.348 8.49 L 14.726 5.962 L 4.395 0 L 0 2.52 L 10.348 8.49 Z" fill="rgb(250,247,243)" fill-rule="nonzero"></path></g>
  <g transform="translate(215.25799999999998 406.99399999999997)"><path d="M 10.339 9.092 L 14.719 6.562 L 14.719 3.442 L 0 0 L 0 3.115 L 10.339 9.092 Z" fill="rgb(197,197,197)" fill-rule="nonzero"></path></g>
  <g transform="translate(215.25799999999998 404.448)"><path d="M 10.339 8.506 L 14.719 5.987 L 4.37 0 L 0 2.546 L 10.339 8.506 Z" fill="rgb(250,247,243)" fill-rule="nonzero"></path></g>
  <g transform="translate(226.771 413.632)"><path d="M 10.347 9.101 L 14.726 6.573 L 14.726 3.451 L 0 0 L 0 3.124 L 10.347 9.101 Z" fill="rgb(197,197,197)" fill-rule="nonzero"></path></g>
  <g transform="translate(226.771 411.113)"><path d="M 10.347 8.497 L 14.726 5.969 L 4.379 0 L 0 2.519 L 10.347 8.497 Z" fill="rgb(250,247,243)" fill-rule="nonzero"></path></g>
  <g transform="translate(238.283 420.289)"><path d="M 10.348 9.092 L 14.735 6.571 L 14.735 3.449 L 0 0 L 0 3.121 L 10.348 9.092 Z" fill="rgb(197,197,197)" fill-rule="nonzero"></path></g>
  <g transform="translate(238.283 417.76)"><path d="M 10.348 8.499 L 14.735 5.978 L 4.386 0 L 0 2.529 L 10.348 8.499 Z" fill="rgb(250,247,243)" fill-rule="nonzero"></path></g>
  <g transform="translate(249.81799999999998 426.944)"><path d="M 10.339 9.085 L 14.719 6.573 L 14.719 3.451 L 0 0 L 0 3.115 L 10.339 9.085 Z" fill="rgb(197,197,197)" fill-rule="nonzero"></path></g>
  <g transform="translate(249.81799999999998 424.425)"><path d="M 10.339 8.481 L 14.719 5.969 L 4.372 0 L 0 2.519 L 10.339 8.481 Z" fill="rgb(250,247,243)" fill-rule="nonzero"></path></g>
  <g transform="translate(261.339 433.59999999999997)"><path d="M 10.341 9.094 L 14.711 6.564 L 14.711 3.442 L 0 0 L 0 3.115 L 10.341 9.094 Z" fill="rgb(197,197,197)" fill-rule="nonzero"></path></g>
  <g transform="translate(261.339 431.063)"><path d="M 10.341 8.499 L 14.711 5.978 L 4.372 0 L 0 2.537 L 10.341 8.499 Z" fill="rgb(250,247,243)" fill-rule="nonzero"></path></g>
  <g transform="translate(272.852 440.247)"><path d="M 10.339 9.085 L 14.728 6.557 L 14.728 3.434 L 0 0 L 0 3.124 L 10.339 9.085 Z" fill="rgb(197,197,197)" fill-rule="nonzero"></path></g>
  <g transform="translate(272.852 437.71000000000004)"><path d="M 10.339 8.508 L 14.728 5.971 L 4.37 0 L 0 2.537 L 10.339 8.508 Z" fill="rgb(250,247,243)" fill-rule="nonzero"></path></g>
  <g transform="translate(284.37199999999996 446.896)"><path d="M 10.339 9.085 L 14.726 6.555 L 14.726 3.433 L 0 0 L 0 3.123 L 10.339 9.085 Z" fill="rgb(197,197,197)" fill-rule="nonzero"></path></g>
  <g transform="translate(284.37199999999996 444.35900000000004)"><path d="M 10.339 8.506 L 14.726 5.969 L 4.379 0 L 0 2.537 L 10.339 8.506 Z" fill="rgb(250,247,243)" fill-rule="nonzero"></path></g>
  <g transform="translate(295.902 453.543)"><path d="M 10.339 9.092 L 14.71 6.573 L 14.71 3.449 L 0 0 L 0 3.132 L 10.339 9.092 Z" fill="rgb(197,197,197)" fill-rule="nonzero"></path></g>
  <g transform="translate(295.902 451.015)"><path d="M 10.339 8.506 L 14.71 5.976 L 4.37 0 L 0 2.528 L 10.339 8.506 Z" fill="rgb(250,247,243)" fill-rule="nonzero"></path></g>
  <g transform="translate(307.41999999999996 460.19899999999996)"><path d="M 10.332 9.092 L 14.711 6.564 L 14.711 3.442 L 0 0 L 0 3.123 L 10.332 9.092 Z" fill="rgb(197,197,197)" fill-rule="nonzero"></path></g>
  <g transform="translate(307.41999999999996 457.679)"><path d="M 10.332 8.499 L 14.711 5.962 L 4.372 0 L 0 2.52 L 10.332 8.499 Z" fill="rgb(250,247,243)" fill-rule="nonzero"></path></g>
  <g transform="translate(318.932 466.84700000000004)"><path d="M 10.348 9.094 L 14.728 6.557 L 14.728 3.451 L 0 0 L 0 3.124 L 10.348 9.094 Z" fill="rgb(197,197,197)" fill-rule="nonzero"></path></g>
  <g transform="translate(318.932 464.319)"><path d="M 10.348 8.497 L 14.728 5.978 L 4.386 0 L 0 2.528 L 10.348 8.497 Z" fill="rgb(250,247,243)" fill-rule="nonzero"></path></g>
  <g transform="translate(145.18 387.652)"><path d="M 26.441 6.438 L 26.441 3.324 L 0 0 L 0 3.115 L 16.101 12.409 L 26.441 6.438 Z" fill="rgb(197,197,197)" fill-rule="nonzero"></path></g>
  <g transform="translate(145.18 381.676)"><path d="M 26.441 9.301 L 10.341 0 L 0 5.976 L 16.101 15.27 L 26.441 9.301 Z" fill="rgb(250,247,243)" fill-rule="nonzero"></path></g>
  <g transform="translate(162.403 394.745)"><path d="M 15.279 2.854 L 10.341 0 L 5.409 2.854 L 0 2.854 L 0 5.969 L 10.341 11.955 L 20.688 5.969 L 20.688 2.854 L 15.279 2.854 Z" fill="rgb(197,197,197)" fill-rule="nonzero"></path></g>
  <g transform="translate(162.403 391.621)"><path d="M 10.341 0 L 0 5.978 L 10.341 11.948 L 20.688 5.978 L 10.341 0 Z" fill="rgb(250,247,243)" fill-rule="nonzero"></path></g>
  <g transform="translate(173.915 401.38399999999996)"><path d="M 15.286 2.865 L 10.356 0 L 5.407 2.865 L 0 2.865 L 0 5.969 L 10.356 11.957 L 20.688 5.969 L 20.688 2.865 L 15.286 2.865 Z" fill="rgb(197,197,197)" fill-rule="nonzero"></path></g>
  <g transform="translate(173.915 398.27)"><path d="M 10.356 0 L 0 5.978 L 10.356 11.948 L 20.688 5.978 L 10.356 0 Z" fill="rgb(250,247,243)" fill-rule="nonzero"></path></g>
  <g transform="translate(185.434 408.03999999999996)"><path d="M 15.281 2.847 L 10.35 0 L 5.41 2.847 L 0 2.847 L 0 5.971 L 10.35 11.948 L 20.69 5.971 L 20.69 2.847 L 15.281 2.847 Z" fill="rgb(197,197,197)" fill-rule="nonzero"></path></g>
  <g transform="translate(185.434 404.926)"><path d="M 10.35 0 L 0 5.96 L 10.35 11.939 L 20.69 5.96 L 10.35 0 Z" fill="rgb(250,247,243)" fill-rule="nonzero"></path></g>
  <g transform="translate(196.964 414.69599999999997)"><path d="M 15.272 2.847 L 10.339 0 L 5.409 2.847 L 0 2.847 L 0 5.962 L 10.339 11.948 L 20.681 5.962 L 20.681 2.847 L 15.272 2.847 Z" fill="rgb(197,197,197)" fill-rule="nonzero"></path></g>
  <g transform="translate(196.964 411.582)"><path d="M 10.339 0 L 0 5.96 L 10.339 11.93 L 20.681 5.96 L 10.339 0 Z" fill="rgb(250,247,243)" fill-rule="nonzero"></path></g>
  <g transform="translate(208.47699999999998 421.34299999999996)"><path d="M 15.286 2.856 L 10.348 0 L 5.409 2.856 L 0 2.856 L 0 5.978 L 10.348 11.949 L 20.688 5.978 L 20.688 2.856 L 15.286 2.856 Z" fill="rgb(197,197,197)" fill-rule="nonzero"></path></g>
  <g transform="translate(208.47699999999998 418.222)"><path d="M 10.348 0 L 0 5.976 L 10.348 11.955 L 20.688 5.976 L 10.348 0 Z" fill="rgb(250,247,243)" fill-rule="nonzero"></path></g>
  <g transform="translate(220.01299999999998 427.991)"><path d="M 15.279 2.845 L 10.332 0 L 5.391 2.845 L 0 2.845 L 0 5.978 L 10.332 11.948 L 20.672 5.978 L 20.672 2.845 L 15.279 2.845 Z" fill="rgb(197,197,197)" fill-rule="nonzero"></path></g>
  <g transform="translate(220.01299999999998 424.876)"><path d="M 10.332 0 L 0 5.96 L 10.332 11.939 L 20.672 5.96 L 10.332 0 Z" fill="rgb(250,247,243)" fill-rule="nonzero"></path></g>
  <g transform="translate(231.51799999999997 434.647)"><path d="M 15.279 2.854 L 10.339 0 L 5.418 2.854 L 0 2.854 L 0 5.969 L 10.339 11.929 L 20.688 5.969 L 20.688 2.854 L 15.279 2.854 Z" fill="rgb(197,197,197)" fill-rule="nonzero"></path></g>
  <g transform="translate(231.51799999999997 431.52299999999997)"><path d="M 10.339 0 L 0 5.978 L 10.339 11.94 L 20.688 5.978 L 10.339 0 Z" fill="rgb(250,247,243)" fill-rule="nonzero"></path></g>
  <g transform="translate(243.038 441.294)"><path d="M 15.279 2.863 L 10.348 0 L 5.409 2.863 L 0 2.863 L 0 5.978 L 10.348 11.948 L 20.688 5.978 L 20.688 2.863 L 15.279 2.863 Z" fill="rgb(197,197,197)" fill-rule="nonzero"></path></g>
  <g transform="translate(243.038 438.188)"><path d="M 10.348 0 L 0 5.969 L 10.348 11.939 L 20.688 5.969 L 10.348 0 Z" fill="rgb(250,247,243)" fill-rule="nonzero"></path></g>
  <g transform="translate(254.565 447.95799999999997)"><path d="M 15.272 2.847 L 10.341 0 L 5.401 2.847 L 0 2.847 L 0 5.962 L 10.341 11.931 L 20.681 5.962 L 20.681 2.847 L 15.272 2.847 Z" fill="rgb(197,197,197)" fill-rule="nonzero"></path></g>
  <g transform="translate(254.565 444.828)"><path d="M 10.341 0 L 0 5.976 L 10.341 11.939 L 20.681 5.976 L 10.341 0 Z" fill="rgb(250,247,243)" fill-rule="nonzero"></path></g>
  <g transform="translate(266.087 454.598)"><path d="M 15.279 2.847 L 10.33 0 L 5.4 2.847 L 0 2.847 L 0 5.969 L 10.33 11.939 L 20.688 5.969 L 20.688 2.847 L 15.279 2.847 Z" fill="rgb(197,197,197)" fill-rule="nonzero"></path></g>
  <g transform="translate(266.087 451.483)"><path d="M 10.33 0 L 0 5.962 L 10.33 11.949 L 20.688 5.962 L 10.33 0 Z" fill="rgb(250,247,243)" fill-rule="nonzero"></path></g>
  <g transform="translate(277.599 461.246)"><path d="M 15.279 2.856 L 10.356 0 L 5.409 2.856 L 0 2.856 L 0 5.978 L 10.356 11.957 L 20.688 5.978 L 20.688 2.856 L 15.279 2.856 Z" fill="rgb(197,197,197)" fill-rule="nonzero"></path></g>
  <g transform="translate(277.599 458.123)"><path d="M 10.356 0 L 0 5.978 L 10.356 11.948 L 20.688 5.978 L 10.356 0 Z" fill="rgb(250,247,243)" fill-rule="nonzero"></path></g>
  <g transform="translate(289.118 467.911)"><path d="M 15.297 2.847 L 10.348 0 L 5.418 2.847 L 0 2.847 L 0 5.978 L 10.348 11.939 L 20.697 5.978 L 20.697 2.847 L 15.297 2.847 Z" fill="rgb(197,197,197)" fill-rule="nonzero"></path></g>
  <g transform="translate(289.118 464.788)"><path d="M 10.348 0 L 0 5.969 L 10.348 11.939 L 20.697 5.969 L 10.348 0 Z" fill="rgb(250,247,243)" fill-rule="nonzero"></path></g>
  <g transform="translate(300.647 474.559)"><path d="M 15.288 2.854 L 10.347 0 L 5.4 2.854 L 0 2.854 L 0 5.967 L 10.347 11.946 L 20.679 5.967 L 20.679 2.854 L 15.288 2.854 Z" fill="rgb(197,197,197)" fill-rule="nonzero"></path></g>
  <g transform="translate(300.647 471.435)"><path d="M 10.347 0 L 0 5.978 L 10.347 11.948 L 20.679 5.978 L 10.347 0 Z" fill="rgb(250,247,243)" fill-rule="nonzero"></path></g>
  <g transform="translate(134.154 391.17)"><path d="M 15.281 2.847 L 10.348 0 L 5.409 2.847 L 0 2.847 L 0 5.969 L 10.348 11.939 L 20.69 5.969 L 20.69 2.847 L 15.281 2.847 Z" fill="rgb(197,197,197)" fill-rule="nonzero"></path></g>
  <g transform="translate(134.154 388.046)"><path d="M 10.348 0 L 0 5.971 L 10.348 11.94 L 20.69 5.971 L 10.348 0 Z" fill="rgb(250,247,243)" fill-rule="nonzero"></path></g>
  <g transform="translate(145.667 397.81699999999995)"><path d="M 15.288 2.847 L 10.348 0 L 5.416 2.847 L 0 2.847 L 0 5.962 L 10.348 11.939 L 20.681 5.962 L 20.681 2.847 L 15.288 2.847 Z" fill="rgb(197,197,197)" fill-rule="nonzero"></path></g>
  <g transform="translate(145.667 394.69399999999996)"><path d="M 10.348 0 L 0 5.969 L 10.348 11.948 L 20.681 5.969 L 10.348 0 Z" fill="rgb(250,247,243)" fill-rule="nonzero"></path></g>
  <g transform="translate(157.197 404.448)"><path d="M 15.279 2.856 L 10.339 0 L 5.4 2.856 L 0 2.856 L 0 5.987 L 10.339 11.948 L 20.679 5.987 L 20.679 2.856 L 15.279 2.856 Z" fill="rgb(197,197,197)" fill-rule="nonzero"></path></g>
  <g transform="translate(157.197 401.33299999999997)"><path d="M 10.339 0 L 0 5.971 L 10.339 11.948 L 20.679 5.971 L 10.339 0 Z" fill="rgb(250,247,243)" fill-rule="nonzero"></path></g>
  <g transform="translate(168.709 411.113)"><path d="M 15.279 2.847 L 10.339 0 L 5.418 2.847 L 0 2.847 L 0 5.969 L 10.339 11.939 L 20.697 5.969 L 20.697 2.847 L 15.279 2.847 Z" fill="rgb(197,197,197)" fill-rule="nonzero"></path></g>
  <g transform="translate(168.709 407.989)"><path d="M 10.339 0 L 0 5.971 L 10.339 11.948 L 20.697 5.971 L 10.339 0 Z" fill="rgb(250,247,243)" fill-rule="nonzero"></path></g>
  <g transform="translate(180.228 417.768)"><path d="M 15.279 2.839 L 10.348 0 L 5.409 2.839 L 0 2.839 L 0 5.971 L 10.348 11.949 L 20.688 5.971 L 20.688 2.839 L 15.279 2.839 Z" fill="rgb(197,197,197)" fill-rule="nonzero"></path></g>
  <g transform="translate(180.228 414.638)"><path d="M 10.348 0 L 0 5.969 L 10.348 11.955 L 20.688 5.969 L 10.348 0 Z" fill="rgb(250,247,243)" fill-rule="nonzero"></path></g>
  <g transform="translate(191.757 424.426)"><path d="M 15.279 2.845 L 10.339 0 L 5.4 2.845 L 0 2.845 L 0 5.969 L 10.339 11.939 L 20.679 5.969 L 20.679 2.845 L 15.279 2.845 Z" fill="rgb(197,197,197)" fill-rule="nonzero"></path></g>
  <g transform="translate(191.757 421.294)"><path d="M 10.339 0 L 0 5.976 L 10.339 11.946 L 20.679 5.976 L 10.339 0 Z" fill="rgb(250,247,243)" fill-rule="nonzero"></path></g>
  <g transform="translate(203.268 431.06399999999996)"><path d="M 15.279 2.856 L 10.348 0 L 5.409 2.856 L 0 2.856 L 0 5.969 L 10.348 11.948 L 20.688 5.969 L 20.688 2.856 L 15.279 2.856 Z" fill="rgb(197,197,197)" fill-rule="nonzero"></path></g>
  <g transform="translate(203.268 427.941)"><path d="M 10.348 0 L 0 5.978 L 10.348 11.948 L 20.688 5.978 L 10.348 0 Z" fill="rgb(250,247,243)" fill-rule="nonzero"></path></g>
  <g transform="translate(214.798 437.71099999999996)"><path d="M 15.279 2.847 L 10.339 0 L 5.409 2.847 L 0 2.847 L 0 5.971 L 10.339 11.94 L 20.688 5.971 L 20.688 2.847 L 15.279 2.847 Z" fill="rgb(197,197,197)" fill-rule="nonzero"></path></g>
  <g transform="translate(214.798 434.597)"><path d="M 10.339 0 L 0 5.96 L 10.339 11.948 L 20.688 5.96 L 10.339 0 Z" fill="rgb(250,247,243)" fill-rule="nonzero"></path></g>
  <g transform="translate(226.31799999999998 444.36699999999996)"><path d="M 15.279 2.856 L 10.348 0 L 5.4 2.856 L 0 2.856 L 0 5.962 L 10.348 11.948 L 20.679 5.962 L 20.679 2.856 L 15.279 2.856 Z" fill="rgb(197,197,197)" fill-rule="nonzero"></path></g>
  <g transform="translate(226.31799999999998 441.253)"><path d="M 10.348 0 L 0 5.969 L 10.348 11.938 L 20.679 5.969 L 10.348 0 Z" fill="rgb(250,247,243)" fill-rule="nonzero"></path></g>
  <g transform="translate(237.83800000000002 451.015)"><path d="M 15.272 2.854 L 10.348 0 L 5.4 2.854 L 0 2.854 L 0 5.976 L 10.348 11.955 L 20.688 5.976 L 20.688 2.854 L 15.272 2.854 Z" fill="rgb(197,197,197)" fill-rule="nonzero"></path></g>
  <g transform="translate(237.83800000000002 447.9)"><path d="M 10.348 0 L 0 5.969 L 10.348 11.957 L 20.688 5.969 L 10.348 0 Z" fill="rgb(250,247,243)" fill-rule="nonzero"></path></g>
  <g transform="translate(249.358 457.68)"><path d="M 15.279 2.847 L 10.339 0 L 5.418 2.847 L 0 2.847 L 0 5.962 L 10.339 11.931 L 20.688 5.962 L 20.688 2.847 L 15.279 2.847 Z" fill="rgb(197,197,197)" fill-rule="nonzero"></path></g>
  <g transform="translate(249.358 454.548)"><path d="M 10.339 0 L 0 5.978 L 10.339 11.938 L 20.688 5.978 L 10.339 0 Z" fill="rgb(250,247,243)" fill-rule="nonzero"></path></g>
  <g transform="translate(260.871 464.319)"><path d="M 15.286 2.854 L 10.356 0 L 5.416 2.854 L 0 2.854 L 0 5.978 L 10.356 11.955 L 20.686 5.978 L 20.686 2.854 L 15.286 2.854 Z" fill="rgb(197,197,197)" fill-rule="nonzero"></path></g>
  <g transform="translate(260.871 461.204)"><path d="M 10.356 0 L 0 5.969 L 10.356 11.948 L 20.686 5.969 L 10.356 0 Z" fill="rgb(250,247,243)" fill-rule="nonzero"></path></g>
  <g transform="translate(272.398 470.98400000000004)"><path d="M 15.279 2.845 L 10.339 0 L 5.392 2.845 L 0 2.845 L 0 5.96 L 10.339 11.938 L 20.688 5.96 L 20.688 2.845 L 15.279 2.845 Z" fill="rgb(197,197,197)" fill-rule="nonzero"></path></g>
  <g transform="translate(272.398 467.86)"><path d="M 10.339 0 L 0 5.969 L 10.339 11.94 L 20.688 5.969 L 10.339 0 Z" fill="rgb(250,247,243)" fill-rule="nonzero"></path></g>
  <g transform="translate(283.919 480.47799999999995)"><path d="M 26.39 6.413 L 26.39 3.297 L 0 0 L 0 3.13 L 16.042 12.398 L 26.39 6.413 Z" fill="rgb(197,197,197)" fill-rule="nonzero"></path></g>
  <g transform="translate(283.919 474.525)"><path d="M 26.39 9.25 L 10.339 0 L 0 5.953 L 16.042 15.22 L 26.39 9.25 Z" fill="rgb(250,247,243)" fill-rule="nonzero"></path></g>
  <g transform="translate(123.036 400.721)"><path d="M 25.981 6.171 L 25.981 3.058 L 0 0 L 0 3.115 L 15.64 12.149 L 25.981 6.171 Z" fill="rgb(197,197,197)" fill-rule="nonzero"></path></g>
  <g transform="translate(123.036 394.745)"><path d="M 25.981 9.034 L 10.348 0 L 0 5.976 L 15.64 14.994 L 25.981 9.034 Z" fill="rgb(250,247,243)" fill-rule="nonzero"></path></g>
  <g transform="translate(139.856 407.58)"><path d="M 15.279 2.856 L 10.332 0 L 5.409 2.856 L 0 2.856 L 0 5.969 L 10.332 11.948 L 20.688 5.969 L 20.688 2.856 L 15.279 2.856 Z" fill="rgb(197,197,197)" fill-rule="nonzero"></path></g>
  <g transform="translate(139.856 404.448)"><path d="M 10.332 0 L 0 5.987 L 10.332 11.948 L 20.688 5.987 L 10.332 0 Z" fill="rgb(250,247,243)" fill-rule="nonzero"></path></g>
  <g transform="translate(151.376 414.227)"><path d="M 15.279 2.856 L 10.348 0 L 5.401 2.856 L 0 2.856 L 0 5.962 L 10.348 11.939 L 20.688 5.962 L 20.688 2.856 L 15.279 2.856 Z" fill="rgb(197,197,197)" fill-rule="nonzero"></path></g>
  <g transform="translate(151.376 411.09499999999997)"><path d="M 10.348 0 L 0 5.987 L 10.348 11.94 L 20.688 5.987 L 10.348 0 Z" fill="rgb(250,247,243)" fill-rule="nonzero"></path></g>
  <g transform="translate(162.889 420.85699999999997)"><path d="M 15.281 2.872 L 10.348 0 L 5.409 2.872 L 0 2.872 L 0 5.985 L 10.348 11.964 L 20.69 5.985 L 20.69 2.872 L 15.281 2.872 Z" fill="rgb(197,197,197)" fill-rule="nonzero"></path></g>
  <g transform="translate(162.889 417.751)"><path d="M 10.348 0 L 0 5.978 L 10.348 11.948 L 20.69 5.978 L 10.348 0 Z" fill="rgb(250,247,243)" fill-rule="nonzero"></path></g>
  <g transform="translate(174.417 427.522)"><path d="M 15.288 2.854 L 10.339 0 L 5.401 2.854 L 0 2.854 L 0 5.969 L 10.339 11.948 L 20.681 5.969 L 20.681 2.854 L 15.288 2.854 Z" fill="rgb(197,197,197)" fill-rule="nonzero"></path></g>
  <g transform="translate(174.417 424.407)"><path d="M 10.339 0 L 0 5.969 L 10.339 11.939 L 20.681 5.969 L 10.339 0 Z" fill="rgb(250,247,243)" fill-rule="nonzero"></path></g>
  <g transform="translate(185.938 434.169)"><path d="M 15.279 2.847 L 10.348 0 L 5.4 2.847 L 0 2.847 L 0 5.978 L 10.348 11.955 L 20.688 5.978 L 20.688 2.847 L 15.279 2.847 Z" fill="rgb(197,197,197)" fill-rule="nonzero"></path></g>
  <g transform="translate(185.938 431.054)"><path d="M 10.348 0 L 0 5.962 L 10.348 11.948 L 20.688 5.962 L 10.348 0 Z" fill="rgb(250,247,243)" fill-rule="nonzero"></path></g>
  <g transform="translate(197.466 440.82599999999996)"><path d="M 15.263 2.847 L 10.33 0 L 5.409 2.847 L 0 2.847 L 0 5.978 L 10.33 11.938 L 20.688 5.978 L 20.688 2.847 L 15.263 2.847 Z" fill="rgb(197,197,197)" fill-rule="nonzero"></path></g>
  <g transform="translate(197.466 437.703)"><path d="M 10.33 0 L 0 5.969 L 10.33 11.948 L 20.688 5.969 L 10.33 0 Z" fill="rgb(250,247,243)" fill-rule="nonzero"></path></g>
  <g transform="translate(208.978 447.483)"><path d="M 15.279 2.847 L 10.341 0 L 5.401 2.847 L 0 2.847 L 0 5.96 L 10.341 11.939 L 20.681 5.96 L 20.681 2.847 L 15.279 2.847 Z" fill="rgb(197,197,197)" fill-rule="nonzero"></path></g>
  <g transform="translate(208.978 444.351)"><path d="M 10.341 0 L 0 5.978 L 10.341 11.948 L 20.681 5.978 L 10.341 0 Z" fill="rgb(250,247,243)" fill-rule="nonzero"></path></g>
  <g transform="translate(220.498 454.13)"><path d="M 15.281 2.856 L 10.339 0 L 5.401 2.856 L 0 2.856 L 0 5.978 L 10.339 11.948 L 20.681 5.978 L 20.681 2.856 L 15.281 2.856 Z" fill="rgb(197,197,197)" fill-rule="nonzero"></path></g>
  <g transform="translate(220.498 451.007)"><path d="M 10.339 0 L 0 5.978 L 10.339 11.955 L 20.681 5.978 L 10.339 0 Z" fill="rgb(250,247,243)" fill-rule="nonzero"></path></g>
  <g transform="translate(232.01799999999997 460.795)"><path d="M 15.272 2.847 L 10.341 0 L 5.409 2.847 L 0 2.847 L 0 5.96 L 10.341 11.93 L 20.697 5.96 L 20.697 2.847 L 15.272 2.847 Z" fill="rgb(197,197,197)" fill-rule="nonzero"></path></g>
  <g transform="translate(232.01799999999997 457.663)"><path d="M 10.341 0 L 0 5.978 L 10.341 11.948 L 20.697 5.978 L 10.341 0 Z" fill="rgb(250,247,243)" fill-rule="nonzero"></path></g>
  <g transform="translate(243.541 467.433)"><path d="M 15.279 2.847 L 10.339 0 L 5.407 2.847 L 0 2.847 L 0 5.971 L 10.339 11.931 L 20.688 5.971 L 20.688 2.847 L 15.279 2.847 Z" fill="rgb(197,197,197)" fill-rule="nonzero"></path></g>
  <g transform="translate(243.541 464.31)"><path d="M 10.339 0 L 0 5.969 L 10.339 11.957 L 20.688 5.969 L 10.339 0 Z" fill="rgb(250,247,243)" fill-rule="nonzero"></path></g>
  <g transform="translate(255.05899999999997 474.081)"><path d="M 15.281 2.854 L 10.341 0 L 5.401 2.854 L 0 2.854 L 0 5.969 L 10.341 11.946 L 20.681 5.969 L 20.681 2.854 L 15.281 2.854 Z" fill="rgb(197,197,197)" fill-rule="nonzero"></path></g>
  <g transform="translate(255.05899999999997 470.957)"><path d="M 10.341 0 L 0 5.978 L 10.341 11.948 L 20.681 5.978 L 10.341 0 Z" fill="rgb(250,247,243)" fill-rule="nonzero"></path></g>
  <g transform="translate(266.589 480.745)"><path d="M 15.272 2.847 L 10.339 0 L 5.4 2.847 L 0 2.847 L 0 5.969 L 10.339 11.938 L 20.681 5.969 L 20.681 2.847 L 15.272 2.847 Z" fill="rgb(197,197,197)" fill-rule="nonzero"></path></g>
  <g transform="translate(266.589 477.613)"><path d="M 10.339 0 L 0 5.978 L 10.339 11.957 L 20.681 5.978 L 10.339 0 Z" fill="rgb(250,247,243)" fill-rule="nonzero"></path></g>
  <g transform="translate(111.86 407.17699999999996)"><path d="M 29.111 7.97 L 29.111 4.864 L 0 0 L 0 3.123 L 18.77 13.956 L 29.111 7.97 Z" fill="rgb(197,197,197)" fill-rule="nonzero"></path></g>
  <g transform="translate(111.86 401.20799999999997)"><path d="M 29.111 10.833 L 10.339 0 L 0 5.969 L 18.77 16.804 L 29.111 10.833 Z" fill="rgb(250,247,243)" fill-rule="nonzero"></path></g>
  <g transform="translate(131.81 415.834)"><path d="M 15.279 2.847 L 10.339 0 L 5.4 2.847 L 0 2.847 L 0 5.978 L 10.339 11.938 L 20.681 5.978 L 20.681 2.847 L 15.279 2.847 Z" fill="rgb(197,197,197)" fill-rule="nonzero"></path></g>
  <g transform="translate(131.81 412.719)"><path d="M 10.339 0 L 0 5.962 L 10.339 11.939 L 20.681 5.962 L 10.339 0 Z" fill="rgb(250,247,243)" fill-rule="nonzero"></path></g>
  <g transform="translate(143.32999999999998 422.491)"><path d="M 15.279 2.838 L 10.332 0 L 5.392 2.838 L 0 2.838 L 0 5.951 L 10.332 11.93 L 20.681 5.951 L 20.681 2.838 L 15.279 2.838 Z" fill="rgb(197,197,197)" fill-rule="nonzero"></path></g>
  <g transform="translate(143.32999999999998 419.368)"><path d="M 10.332 0 L 0 5.96 L 10.332 11.93 L 20.681 5.96 L 10.332 0 Z" fill="rgb(250,247,243)" fill-rule="nonzero"></path></g>
  <g transform="translate(154.84300000000002 429.12899999999996)"><path d="M 15.279 2.839 L 10.348 0 L 5.4 2.839 L 0 2.839 L 0 5.969 L 10.348 11.948 L 20.688 5.969 L 20.688 2.839 L 15.279 2.839 Z" fill="rgb(197,197,197)" fill-rule="nonzero"></path></g>
  <g transform="translate(154.84300000000002 426.015)"><path d="M 10.348 0 L 0 5.953 L 10.348 11.93 L 20.688 5.953 L 10.348 0 Z" fill="rgb(250,247,243)" fill-rule="nonzero"></path></g>
  <g transform="translate(166.363 435.79499999999996)"><path d="M 15.279 2.838 L 10.339 0 L 5.418 2.838 L 0 2.838 L 0 5.969 L 10.339 11.939 L 20.688 5.969 L 20.688 2.838 L 15.279 2.838 Z" fill="rgb(197,197,197)" fill-rule="nonzero"></path></g>
  <g transform="translate(166.363 432.67199999999997)"><path d="M 10.339 0 L 0 5.96 L 10.339 11.939 L 20.688 5.96 L 10.339 0 Z" fill="rgb(250,247,243)" fill-rule="nonzero"></path></g>
  <g transform="translate(177.885 442.451)"><path d="M 15.288 2.838 L 10.348 0 L 5.409 2.838 L 0 2.838 L 0 5.953 L 10.348 11.93 L 20.679 5.953 L 20.679 2.838 L 15.288 2.838 Z" fill="rgb(197,197,197)" fill-rule="nonzero"></path></g>
  <g transform="translate(177.885 439.31)"><path d="M 10.348 0 L 0 5.978 L 10.348 11.948 L 20.679 5.978 L 10.348 0 Z" fill="rgb(250,247,243)" fill-rule="nonzero"></path></g>
  <g transform="translate(189.413 449.09000000000003)"><path d="M 15.277 2.845 L 10.339 0 L 5.391 2.845 L 0 2.845 L 0 5.967 L 10.339 11.93 L 20.679 5.967 L 20.679 2.845 L 15.277 2.845 Z" fill="rgb(197,197,197)" fill-rule="nonzero"></path></g>
  <g transform="translate(189.413 445.966)"><path d="M 10.339 0 L 0 5.969 L 10.339 11.948 L 20.679 5.969 L 10.339 0 Z" fill="rgb(250,247,243)" fill-rule="nonzero"></path></g>
  <g transform="translate(200.925 455.73699999999997)"><path d="M 15.279 2.854 L 10.348 0 L 5.416 2.854 L 0 2.854 L 0 5.978 L 10.348 11.948 L 20.688 5.978 L 20.688 2.854 L 15.279 2.854 Z" fill="rgb(197,197,197)" fill-rule="nonzero"></path></g>
  <g transform="translate(200.925 452.62199999999996)"><path d="M 10.348 0 L 0 5.969 L 10.348 11.931 L 20.688 5.969 L 10.348 0 Z" fill="rgb(250,247,243)" fill-rule="nonzero"></path></g>
  <g transform="translate(212.445 462.39399999999995)"><path d="M 15.279 2.854 L 10.348 0 L 5.418 2.854 L 0 2.854 L 0 5.969 L 10.348 11.939 L 20.688 5.969 L 20.688 2.854 L 15.279 2.854 Z" fill="rgb(197,197,197)" fill-rule="nonzero"></path></g>
  <g transform="translate(212.445 459.27099999999996)"><path d="M 10.348 0 L 0 5.976 L 10.348 11.939 L 20.688 5.976 L 10.348 0 Z" fill="rgb(250,247,243)" fill-rule="nonzero"></path></g>
  <g transform="translate(223.96499999999997 469.057)"><path d="M 15.295 2.847 L 10.348 0 L 5.409 2.847 L 0 2.847 L 0 5.953 L 10.348 11.931 L 20.688 5.953 L 20.688 2.847 L 15.295 2.847 Z" fill="rgb(197,197,197)" fill-rule="nonzero"></path></g>
  <g transform="translate(223.96499999999997 465.918)"><path d="M 10.348 0 L 0 5.985 L 10.348 11.948 L 20.688 5.985 L 10.348 0 Z" fill="rgb(250,247,243)" fill-rule="nonzero"></path></g>
  <g transform="translate(235.485 475.70399999999995)"><path d="M 15.279 2.84 L 10.356 0 L 5.409 2.84 L 0 2.84 L 0 5.971 L 10.356 11.94 L 20.697 5.971 L 20.697 2.84 L 15.279 2.84 Z" fill="rgb(197,197,197)" fill-rule="nonzero"></path></g>
  <g transform="translate(235.485 472.57399999999996)"><path d="M 10.356 0 L 0 5.969 L 10.356 11.939 L 20.697 5.969 L 10.356 0 Z" fill="rgb(250,247,243)" fill-rule="nonzero"></path></g>
  <g transform="translate(247.00599999999997 482.36)"><path d="M 15.279 2.839 L 10.348 0 L 5.409 2.839 L 0 2.839 L 0 5.971 L 10.348 11.94 L 20.688 5.971 L 20.688 2.839 L 15.279 2.839 Z" fill="rgb(197,197,197)" fill-rule="nonzero"></path></g>
  <g transform="translate(247.00599999999997 479.23)"><path d="M 10.348 0 L 0 5.969 L 10.348 11.946 L 20.688 5.969 L 10.348 0 Z" fill="rgb(250,247,243)" fill-rule="nonzero"></path></g>
  <g transform="translate(258.526 490.247)"><path d="M 40.263 3.115 L 40.263 0 L 18.737 3.609 L 0 1.599 L 0 4.731 L 18.737 15.548 L 40.263 3.115 Z" fill="rgb(197,197,197)" fill-rule="nonzero"></path></g>
  <g transform="translate(258.526 484.269)"><path d="M 40.263 5.978 L 29.924 0 L 18.737 6.465 L 10.339 1.599 L 0 7.577 L 18.737 18.404 L 40.263 5.978 Z" fill="rgb(250,247,243)" fill-rule="nonzero"></path></g>
  <g transform="translate(100.774 413.56499999999994)"><path d="M 23.318 4.648 L 23.318 1.523 L 0 0 L 0 3.124 L 12.977 10.617 L 23.318 4.648 Z" fill="rgb(197,197,197)" fill-rule="nonzero"></path></g>
  <g transform="translate(100.774 407.60499999999996)"><path d="M 23.318 7.484 L 10.339 0 L 0 5.96 L 12.977 13.471 L 23.318 7.484 Z" fill="rgb(250,247,243)" fill-rule="nonzero"></path></g>
  <g transform="translate(114.957 418.907)"><path d="M 15.279 2.856 L 10.339 0 L 5.409 2.856 L 0 2.856 L 0 5.978 L 10.339 11.939 L 20.688 5.978 L 20.688 2.856 L 15.279 2.856 Z" fill="rgb(197,197,197)" fill-rule="nonzero"></path></g>
  <g transform="translate(114.957 415.784)"><path d="M 10.339 0 L 0 5.978 L 10.339 11.948 L 20.688 5.978 L 10.339 0 Z" fill="rgb(250,247,243)" fill-rule="nonzero"></path></g>
  <g transform="translate(126.469 425.554)"><path d="M 15.297 2.848 L 10.348 0 L 5.409 2.848 L 0 2.848 L 0 5.969 L 10.348 11.948 L 20.69 5.969 L 20.69 2.848 L 15.297 2.848 Z" fill="rgb(197,197,197)" fill-rule="nonzero"></path></g>
  <g transform="translate(126.469 422.44)"><path d="M 10.348 0 L 0 5.962 L 10.348 11.931 L 20.69 5.962 L 10.348 0 Z" fill="rgb(250,247,243)" fill-rule="nonzero"></path></g>
  <g transform="translate(137.998 432.203)"><path d="M 15.279 2.854 L 10.348 0 L 5.409 2.854 L 0 2.854 L 0 5.985 L 10.348 11.955 L 20.688 5.985 L 20.688 2.854 L 15.279 2.854 Z" fill="rgb(197,197,197)" fill-rule="nonzero"></path></g>
  <g transform="translate(137.998 429.08)"><path d="M 10.348 0 L 0 5.976 L 10.348 11.946 L 20.688 5.976 L 10.348 0 Z" fill="rgb(250,247,243)" fill-rule="nonzero"></path></g>
  <g transform="translate(149.518 438.86699999999996)"><path d="M 15.272 2.847 L 10.348 0 L 5.409 2.847 L 0 2.847 L 0 5.971 L 10.348 11.938 L 20.688 5.971 L 20.688 2.847 L 15.272 2.847 Z" fill="rgb(197,197,197)" fill-rule="nonzero"></path></g>
  <g transform="translate(149.518 435.74399999999997)"><path d="M 10.348 0 L 0 5.969 L 10.348 11.938 L 20.688 5.969 L 10.348 0 Z" fill="rgb(250,247,243)" fill-rule="nonzero"></path></g>
  <g transform="translate(161.029 445.515)"><path d="M 15.29 2.845 L 10.348 0 L 5.418 2.845 L 0 2.845 L 0 5.967 L 10.348 11.955 L 20.697 5.967 L 20.697 2.845 L 15.29 2.845 Z" fill="rgb(197,197,197)" fill-rule="nonzero"></path></g>
  <g transform="translate(161.029 442.39099999999996)"><path d="M 10.348 0 L 0 5.969 L 10.348 11.94 L 20.697 5.969 L 10.348 0 Z" fill="rgb(250,247,243)" fill-rule="nonzero"></path></g>
  <g transform="translate(172.56799999999998 452.15299999999996)"><path d="M 15.27 2.865 L 10.33 0 L 5.392 2.865 L 0 2.865 L 0 5.969 L 10.33 11.948 L 20.679 5.969 L 20.679 2.865 L 15.27 2.865 Z" fill="rgb(197,197,197)" fill-rule="nonzero"></path></g>
  <g transform="translate(172.56799999999998 449.04699999999997)"><path d="M 10.33 0 L 0 5.971 L 10.33 11.938 L 20.679 5.971 L 10.33 0 Z" fill="rgb(250,247,243)" fill-rule="nonzero"></path></g>
  <g transform="translate(184.07 458.80999999999995)"><path d="M 15.29 2.847 L 10.357 0 L 5.418 2.847 L 0 2.847 L 0 5.969 L 10.357 11.939 L 20.697 5.969 L 20.697 2.847 L 15.29 2.847 Z" fill="rgb(197,197,197)" fill-rule="nonzero"></path></g>
  <g transform="translate(184.07 455.69599999999997)"><path d="M 10.357 0 L 0 5.96 L 10.357 11.939 L 20.697 5.96 L 10.357 0 Z" fill="rgb(250,247,243)" fill-rule="nonzero"></path></g>
  <g transform="translate(195.591 465.46599999999995)"><path d="M 15.286 2.856 L 10.347 0 L 5.425 2.856 L 0 2.856 L 0 5.969 L 10.347 11.948 L 20.688 5.969 L 20.688 2.856 L 15.286 2.856 Z" fill="rgb(197,197,197)" fill-rule="nonzero"></path></g>
  <g transform="translate(195.591 462.34299999999996)"><path d="M 10.347 0 L 0 5.978 L 10.347 11.948 L 20.688 5.978 L 10.347 0 Z" fill="rgb(250,247,243)" fill-rule="nonzero"></path></g>
  <g transform="translate(207.153 472.138)"><path d="M 15.279 2.847 L 10.348 0 L 5.409 2.847 L 0 2.847 L 0 5.969 L 10.348 11.957 L 20.688 5.969 L 20.688 2.847 L 15.279 2.847 Z" fill="rgb(197,197,197)" fill-rule="nonzero"></path></g>
  <g transform="translate(207.153 469.008)"><path d="M 10.348 0 L 0 5.976 L 10.348 11.955 L 20.688 5.976 L 10.348 0 Z" fill="rgb(250,247,243)" fill-rule="nonzero"></path></g>
  <g transform="translate(218.66500000000002 478.77799999999996)"><path d="M 15.288 2.863 L 10.357 0 L 5.418 2.863 L 0 2.863 L 0 5.985 L 10.357 11.957 L 20.69 5.985 L 20.69 2.863 L 15.288 2.863 Z" fill="rgb(197,197,197)" fill-rule="nonzero"></path></g>
  <g transform="translate(218.66500000000002 475.67199999999997)"><path d="M 10.357 0 L 0 5.969 L 10.357 11.939 L 20.69 5.969 L 10.357 0 Z" fill="rgb(250,247,243)" fill-rule="nonzero"></path></g>
  <g transform="translate(230.20299999999997 485.443)"><path d="M 15.27 2.845 L 10.33 0 L 5.391 2.845 L 0 2.845 L 0 5.976 L 10.33 11.955 L 20.679 5.976 L 20.679 2.845 L 15.27 2.845 Z" fill="rgb(197,197,197)" fill-rule="nonzero"></path></g>
  <g transform="translate(230.20299999999997 482.31899999999996)"><path d="M 10.33 0 L 0 5.969 L 10.33 11.957 L 20.679 5.969 L 10.33 0 Z" fill="rgb(250,247,243)" fill-rule="nonzero"></path></g>
  <g transform="translate(241.68099999999998 494.928)"><path d="M 34.837 11.295 L 34.837 8.163 L 0 0 L 0 3.115 L 24.497 17.273 L 34.837 11.295 Z" fill="rgb(197,197,197)" fill-rule="nonzero"></path></g>
  <g transform="translate(241.68099999999998 488.959)"><path d="M 34.837 14.133 L 10.339 0 L 0 5.969 L 24.497 20.109 L 34.837 14.133 Z" fill="rgb(250,247,243)" fill-rule="nonzero"></path></g>
  <g transform="translate(89.663 419.986)"><path d="M 0 0 L 0 3.124 L 16.06 12.391 L 26.408 6.415 L 26.408 3.315 L 0 0 Z" fill="rgb(197,197,197)" fill-rule="nonzero"></path></g>
  <g transform="translate(89.663 414.017)"><path d="M 10.341 0 L 0 5.969 L 16.06 15.238 L 26.408 9.285 L 10.341 0 Z" fill="rgb(250,247,243)" fill-rule="nonzero"></path></g>
  <g transform="translate(106.928 429.949)"><path d="M 0 0 L 0 3.124 L 13.036 10.642 L 23.376 4.664 L 23.376 1.55 L 0 0 Z" fill="rgb(197,197,197)" fill-rule="nonzero"></path></g>
  <g transform="translate(106.928 423.98)"><path d="M 10.341 0 L 0 5.969 L 13.036 13.489 L 23.376 7.52 L 10.341 0 Z" fill="rgb(250,247,243)" fill-rule="nonzero"></path></g>
  <g transform="translate(121.128 438.156)"><path d="M 0 0 L 0 3.114 L 16.132 12.44 L 26.48 6.454 L 26.48 3.332 L 0 0 Z" fill="rgb(197,197,197)" fill-rule="nonzero"></path></g>
  <g transform="translate(121.128 432.178)"><path d="M 10.347 0 L 0 5.978 L 16.132 15.288 L 26.48 9.31 L 10.347 0 Z" fill="rgb(250,247,243)" fill-rule="nonzero"></path></g>
  <g transform="translate(138.441 448.135)"><path d="M 0 0 L 0 3.132 L 67.95 42.356 L 78.298 36.387 L 78.298 33.281 L 0 0 Z" fill="rgb(197,197,197)" fill-rule="nonzero"></path></g>
  <g transform="translate(138.441 442.182)"><path d="M 10.339 0 L 0 5.953 L 67.95 45.194 L 78.298 39.234 L 10.339 0 Z" fill="rgb(250,247,243)" fill-rule="nonzero"></path></g>
  <g transform="translate(207.571 488.05299999999994)"><path d="M 0 0 L 0 3.123 L 15.054 11.823 L 25.393 5.861 L 25.393 2.722 L 0 0 Z" fill="rgb(197,197,197)" fill-rule="nonzero"></path></g>
  <g transform="translate(207.571 482.09299999999996)"><path d="M 10.339 0 L 0 5.96 L 15.054 14.659 L 25.393 8.683 L 10.339 0 Z" fill="rgb(250,247,243)" fill-rule="nonzero"></path></g>
  <g transform="translate(223.88 497.473)"><path d="M 0 0 L 0 3.114 L 13.204 10.741 L 23.544 4.772 L 23.544 1.65 L 0 0 Z" fill="rgb(197,197,197)" fill-rule="nonzero"></path></g>
  <g transform="translate(223.88 491.504)"><path d="M 10.341 0 L 0 5.969 L 13.204 13.604 L 23.544 7.619 L 10.341 0 Z" fill="rgb(250,247,243)" fill-rule="nonzero"></path></g>
  <g transform="translate(238.197 505.745)"><path d="M 0 0 L 0 3.114 L 16.871 12.853 L 27.229 6.882 L 27.229 3.759 L 0 0 Z" fill="rgb(197,197,197)" fill-rule="nonzero"></path></g>
  <g transform="translate(238.197 499.767)"><path d="M 10.35 0 L 0 5.978 L 16.871 15.707 L 27.229 9.737 L 10.35 0 Z" fill="rgb(250,247,243)" fill-rule="nonzero"></path></g>
  <g transform="translate(313.44899999999996 481.95099999999996)"><path d="M 15.281 2.847 L 10.348 0 L 5.409 2.847 L 0 2.847 L 0 5.969 L 10.348 11.939 L 20.69 5.969 L 20.69 2.847 L 15.281 2.847 Z" fill="rgb(197,197,197)" fill-rule="nonzero"></path></g>
  <g transform="translate(313.44899999999996 478.828)"><path d="M 10.348 0 L 0 5.969 L 10.348 11.939 L 20.69 5.969 L 10.348 0 Z" fill="rgb(250,247,243)" fill-rule="nonzero"></path></g>
  <g transform="translate(302.42199999999997 488.313)"><path d="M 15.281 2.856 L 10.341 0 L 5.401 2.856 L 0 2.856 L 0 5.978 L 10.341 11.94 L 20.697 5.978 L 20.697 2.856 L 15.281 2.856 Z" fill="rgb(197,197,197)" fill-rule="nonzero"></path></g>
  <g transform="translate(302.42199999999997 485.19)"><path d="M 10.341 0 L 0 5.978 L 10.341 11.957 L 20.697 5.978 L 10.341 0 Z" fill="rgb(250,247,243)" fill-rule="nonzero"></path></g>
  <g transform="translate(291.061 494.878)"><path d="M 15.281 2.847 L 10.341 0 L 5.409 2.847 L 0 2.847 L 0 5.969 L 10.341 11.939 L 20.688 5.969 L 20.688 2.847 L 15.281 2.847 Z" fill="rgb(197,197,197)" fill-rule="nonzero"></path></g>
  <g transform="translate(291.061 491.755)"><path d="M 10.341 0 L 0 5.969 L 10.341 11.948 L 20.688 5.969 L 10.341 0 Z" fill="rgb(250,247,243)" fill-rule="nonzero"></path></g>
  <g transform="translate(324.962 488.59799999999996)"><path d="M 15.295 2.856 L 10.348 0 L 5.409 2.856 L 0 2.856 L 0 5.969 L 10.348 11.948 L 20.697 5.969 L 20.697 2.856 L 15.295 2.856 Z" fill="rgb(197,197,197)" fill-rule="nonzero"></path></g>
  <g transform="translate(324.962 485.47499999999997)"><path d="M 10.348 0 L 0 5.978 L 10.348 11.94 L 20.697 5.978 L 10.348 0 Z" fill="rgb(250,247,243)" fill-rule="nonzero"></path></g>
  <g transform="translate(313.942 494.978)"><path d="M 15.288 2.847 L 10.339 0 L 5.409 2.847 L 0 2.847 L 0 5.96 L 10.339 11.931 L 20.697 5.96 L 20.697 2.847 L 15.288 2.847 Z" fill="rgb(197,197,197)" fill-rule="nonzero"></path></g>
  <g transform="translate(313.942 491.839)"><path d="M 10.339 0 L 0 5.985 L 10.339 11.946 L 20.697 5.985 L 10.339 0 Z" fill="rgb(250,247,243)" fill-rule="nonzero"></path></g>
  <g transform="translate(302.58299999999997 501.51699999999994)"><path d="M 15.279 2.863 L 10.347 0 L 5.407 2.863 L 0 2.863 L 0 5.995 L 10.347 11.955 L 20.688 5.995 L 20.688 2.863 L 15.279 2.863 Z" fill="rgb(197,197,197)" fill-rule="nonzero"></path></g>
  <g transform="translate(302.58299999999997 498.39399999999995)"><path d="M 10.347 0 L 0 5.985 L 10.347 11.964 L 20.688 5.985 L 10.347 0 Z" fill="rgb(250,247,243)" fill-rule="nonzero"></path></g>
  <g transform="translate(336.49199999999996 495.24499999999995)"><path d="M 15.27 2.848 L 10.339 0 L 5.4 2.848 L 0 2.848 L 0 5.978 L 10.339 11.94 L 20.679 5.978 L 20.679 2.848 L 15.27 2.848 Z" fill="rgb(197,197,197)" fill-rule="nonzero"></path></g>
  <g transform="translate(336.49199999999996 492.12199999999996)"><path d="M 10.339 0 L 0 5.971 L 10.339 11.948 L 20.679 5.971 L 10.339 0 Z" fill="rgb(250,247,243)" fill-rule="nonzero"></path></g>
  <g transform="translate(325.45599999999996 501.618)"><path d="M 15.288 2.854 L 10.356 0 L 5.416 2.854 L 0 2.854 L 0 5.978 L 10.356 11.939 L 20.695 5.978 L 20.695 2.854 L 15.288 2.854 Z" fill="rgb(197,197,197)" fill-rule="nonzero"></path></g>
  <g transform="translate(325.45599999999996 498.503)"><path d="M 10.356 0 L 0 5.969 L 10.356 11.931 L 20.695 5.969 L 10.356 0 Z" fill="rgb(250,247,243)" fill-rule="nonzero"></path></g>
  <g transform="translate(314.101 508.181)"><path d="M 15.281 2.847 L 10.35 0 L 5.41 2.847 L 0 2.847 L 0 5.962 L 10.35 11.94 L 20.69 5.962 L 20.69 2.847 L 15.281 2.847 Z" fill="rgb(197,197,197)" fill-rule="nonzero"></path></g>
  <g transform="translate(314.101 505.051)"><path d="M 10.35 0 L 0 5.976 L 10.35 11.946 L 20.69 5.976 L 10.35 0 Z" fill="rgb(250,247,243)" fill-rule="nonzero"></path></g>
  <g transform="translate(257.68 514.143)"><path d="M 15.288 2.854 L 10.348 0 L 5.418 2.854 L 0 2.854 L 0 5.978 L 10.348 11.938 L 20.697 5.978 L 20.697 2.854 L 15.288 2.854 Z" fill="rgb(197,197,197)" fill-rule="nonzero"></path></g>
  <g transform="translate(257.68 511.02)"><path d="M 10.348 0 L 0 5.976 L 10.348 11.938 L 20.697 5.976 L 10.348 0 Z" fill="rgb(250,247,243)" fill-rule="nonzero"></path></g>
  <g transform="translate(280.319 514.3929999999999)"><path d="M 15.279 2.839 L 10.341 0 L 5.401 2.839 L 0 2.839 L 0 5.953 L 10.341 11.938 L 20.681 5.953 L 20.681 2.839 L 15.279 2.839 Z" fill="rgb(197,197,197)" fill-rule="nonzero"></path></g>
  <g transform="translate(280.319 511.25399999999996)"><path d="M 10.341 0 L 0 5.978 L 10.341 11.939 L 20.681 5.978 L 10.341 0 Z" fill="rgb(250,247,243)" fill-rule="nonzero"></path></g>
  <g transform="translate(269.209 520.7900000000001)"><path d="M 15.279 2.863 L 10.339 0 L 5.4 2.863 L 0 2.863 L 0 5.978 L 10.339 11.957 L 20.688 5.978 L 20.688 2.863 L 15.279 2.863 Z" fill="rgb(197,197,197)" fill-rule="nonzero"></path></g>
  <g transform="translate(269.209 517.667)"><path d="M 10.339 0 L 0 5.985 L 10.339 11.948 L 20.688 5.985 L 10.339 0 Z" fill="rgb(250,247,243)" fill-rule="nonzero"></path></g>
  <g transform="translate(280.72 527.437)"><path d="M 15.288 2.856 L 10.348 0 L 5.409 2.856 L 0 2.856 L 0 5.987 L 10.348 11.957 L 20.688 5.987 L 20.688 2.856 L 15.288 2.856 Z" fill="rgb(197,197,197)" fill-rule="nonzero"></path></g>
  <g transform="translate(280.72 524.323)"><path d="M 10.348 0 L 0 5.969 L 10.348 11.938 L 20.688 5.969 L 10.348 0 Z" fill="rgb(250,247,243)" fill-rule="nonzero"></path></g>
  <g transform="translate(349.985 503.03999999999996)"><path d="M 15.279 2.863 L 10.356 0 L 5.416 2.863 L 0 2.863 L 0 5.987 L 10.356 11.957 L 20.695 5.987 L 20.695 2.863 L 15.279 2.863 Z" fill="rgb(197,197,197)" fill-rule="nonzero"></path></g>
  <g transform="translate(349.985 499.93399999999997)"><path d="M 10.356 0 L 0 5.969 L 10.356 11.939 L 20.695 5.969 L 10.356 0 Z" fill="rgb(250,247,243)" fill-rule="nonzero"></path></g>
  <g transform="translate(338.96 509.41999999999996)"><path d="M 15.286 2.847 L 10.347 0 L 5.416 2.847 L 0 2.847 L 0 5.969 L 10.347 11.939 L 20.695 5.969 L 20.695 2.847 L 15.286 2.847 Z" fill="rgb(197,197,197)" fill-rule="nonzero"></path></g>
  <g transform="translate(338.96 506.30499999999995)"><path d="M 10.347 0 L 0 5.962 L 10.347 11.931 L 20.695 5.962 L 10.347 0 Z" fill="rgb(250,247,243)" fill-rule="nonzero"></path></g>
  <g transform="translate(327.605 515.976)"><path d="M 15.281 2.854 L 10.348 0 L 5.409 2.854 L 0 2.854 L 0 5.978 L 10.348 11.948 L 20.688 5.978 L 20.688 2.854 L 15.281 2.854 Z" fill="rgb(197,197,197)" fill-rule="nonzero"></path></g>
  <g transform="translate(327.605 512.853)"><path d="M 10.348 0 L 0 5.976 L 10.348 11.948 L 20.688 5.976 L 10.348 0 Z" fill="rgb(250,247,243)" fill-rule="nonzero"></path></g>
  <g transform="translate(316.23699999999997 522.532)"><path d="M 15.288 2.847 L 10.356 0 L 5.409 2.847 L 0 2.847 L 0 5.978 L 10.356 11.948 L 20.704 5.978 L 20.704 2.847 L 15.288 2.847 Z" fill="rgb(197,197,197)" fill-rule="nonzero"></path></g>
  <g transform="translate(316.23699999999997 519.418)"><path d="M 10.356 0 L 0 5.96 L 10.356 11.955 L 20.704 5.96 L 10.356 0 Z" fill="rgb(250,247,243)" fill-rule="nonzero"></path></g>
  <g transform="translate(305.118 528.961)"><path d="M 15.27 2.847 L 10.339 0 L 5.391 2.847 L 0 2.847 L 0 5.985 L 10.339 11.948 L 20.67 5.985 L 20.67 2.847 L 15.27 2.847 Z" fill="rgb(197,197,197)" fill-rule="nonzero"></path></g>
  <g transform="translate(305.118 525.855)"><path d="M 10.339 0 L 0 5.953 L 10.339 11.931 L 20.67 5.953 L 10.339 0 Z" fill="rgb(250,247,243)" fill-rule="nonzero"></path></g>
  <g transform="translate(361.513 509.69699999999995)"><path d="M 15.279 2.856 L 10.341 0 L 5.401 2.856 L 0 2.856 L 0 5.969 L 10.341 11.939 L 20.681 5.969 L 20.681 2.856 L 15.279 2.856 Z" fill="rgb(197,197,197)" fill-rule="nonzero"></path></g>
  <g transform="translate(361.513 506.57399999999996)"><path d="M 10.341 0 L 0 5.978 L 10.341 11.938 L 20.681 5.978 L 10.341 0 Z" fill="rgb(250,247,243)" fill-rule="nonzero"></path></g>
  <g transform="translate(350.48699999999997 516.0679999999999)"><path d="M 15.279 2.847 L 10.348 0 L 5.409 2.847 L 0 2.847 L 0 5.962 L 10.348 11.948 L 20.688 5.962 L 20.688 2.847 L 15.279 2.847 Z" fill="rgb(197,197,197)" fill-rule="nonzero"></path></g>
  <g transform="translate(350.48699999999997 512.9359999999999)"><path d="M 10.348 0 L 0 5.978 L 10.348 11.939 L 20.688 5.978 L 10.348 0 Z" fill="rgb(250,247,243)" fill-rule="nonzero"></path></g>
  <g transform="translate(339.118 522.6229999999999)"><path d="M 15.295 2.847 L 10.356 0 L 5.416 2.847 L 0 2.847 L 0 5.985 L 10.356 11.94 L 20.697 5.985 L 20.697 2.847 L 15.295 2.847 Z" fill="rgb(197,197,197)" fill-rule="nonzero"></path></g>
  <g transform="translate(339.118 519.4929999999999)"><path d="M 10.356 0 L 0 5.976 L 10.356 11.946 L 20.697 5.976 L 10.356 0 Z" fill="rgb(250,247,243)" fill-rule="nonzero"></path></g>
  <g transform="translate(327.77299999999997 529.178)"><path d="M 15.279 2.847 L 10.339 0 L 5.4 2.847 L 0 2.847 L 0 5.969 L 10.339 11.94 L 20.681 5.969 L 20.681 2.847 L 15.279 2.847 Z" fill="rgb(197,197,197)" fill-rule="nonzero"></path></g>
  <g transform="translate(327.77299999999997 526.0649999999999)"><path d="M 10.339 0 L 0 5.96 L 10.339 11.938 L 20.681 5.96 L 10.339 0 Z" fill="rgb(250,247,243)" fill-rule="nonzero"></path></g>
  <g transform="translate(316.62899999999996 535.618)"><path d="M 15.27 2.854 L 10.348 0 L 5.409 2.854 L 0 2.854 L 0 5.96 L 10.348 11.939 L 20.688 5.96 L 20.688 2.854 L 15.27 2.854 Z" fill="rgb(197,197,197)" fill-rule="nonzero"></path></g>
  <g transform="translate(316.62899999999996 532.495)"><path d="M 10.348 0 L 0 5.976 L 10.348 11.937 L 20.688 5.976 L 10.348 0 Z" fill="rgb(250,247,243)" fill-rule="nonzero"></path></g>
  <g transform="translate(294.2 535.233)"><path d="M 23.81 7.77 L 10.357 0 L 3.984 3.66 L 0 2.847 L 0 5.96 L 21.894 18.604 L 32.233 12.642 L 32.233 9.512 L 23.81 7.77 Z" fill="rgb(197,197,197)" fill-rule="nonzero"></path></g>
  <g transform="translate(294.2 532.101)"><path d="M 10.357 0 L 0 5.978 L 21.894 18.613 L 32.233 12.643 L 10.357 0 Z" fill="rgb(250,247,243)" fill-rule="nonzero"></path></g>
  <g transform="translate(373.02599999999995 516.336)"><path d="M 15.279 2.854 L 10.347 0 L 5.407 2.854 L 0 2.854 L 0 5.978 L 10.347 11.948 L 20.679 5.978 L 20.679 2.854 L 15.279 2.854 Z" fill="rgb(197,197,197)" fill-rule="nonzero"></path></g>
  <g transform="translate(373.02599999999995 513.221)"><path d="M 10.347 0 L 0 5.969 L 10.347 11.948 L 20.679 5.969 L 10.347 0 Z" fill="rgb(250,247,243)" fill-rule="nonzero"></path></g>
  <g transform="translate(362.01599999999996 522.707)"><path d="M 15.263 2.863 L 10.332 0 L 5.4 2.863 L 0 2.863 L 0 5.985 L 10.332 11.948 L 20.679 5.985 L 20.679 2.863 L 15.263 2.863 Z" fill="rgb(197,197,197)" fill-rule="nonzero"></path></g>
  <g transform="translate(362.01599999999996 519.601)"><path d="M 10.332 0 L 0 5.969 L 10.332 11.939 L 20.679 5.969 L 10.332 0 Z" fill="rgb(250,247,243)" fill-rule="nonzero"></path></g>
  <g transform="translate(350.64599999999996 529.2799999999999)"><path d="M 15.288 2.847 L 10.341 0 L 5.401 2.847 L 0 2.847 L 0 5.962 L 10.341 11.939 L 20.681 5.962 L 20.681 2.847 L 15.288 2.847 Z" fill="rgb(197,197,197)" fill-rule="nonzero"></path></g>
  <g transform="translate(350.64599999999996 526.1479999999999)"><path d="M 10.341 0 L 0 5.978 L 10.341 11.948 L 20.681 5.978 L 10.341 0 Z" fill="rgb(250,247,243)" fill-rule="nonzero"></path></g>
  <g transform="translate(339.284 535.828)"><path d="M 15.281 2.854 L 10.341 0 L 5.401 2.854 L 0 2.854 L 0 5.976 L 10.341 11.948 L 20.681 5.976 L 20.681 2.854 L 15.281 2.854 Z" fill="rgb(197,197,197)" fill-rule="nonzero"></path></g>
  <g transform="translate(339.284 532.7049999999999)"><path d="M 10.341 0 L 0 5.976 L 10.341 11.946 L 20.681 5.976 L 10.341 0 Z" fill="rgb(250,247,243)" fill-rule="nonzero"></path></g>
  <g transform="translate(328.14099999999996 542.265)"><path d="M 15.281 2.847 L 10.357 0 L 5.425 2.847 L 0 2.847 L 0 5.978 L 10.357 11.93 L 20.688 5.978 L 20.688 2.847 L 15.281 2.847 Z" fill="rgb(197,197,197)" fill-rule="nonzero"></path></g>
  <g transform="translate(328.14099999999996 539.15)"><path d="M 10.357 0 L 0 5.962 L 10.357 11.931 L 20.688 5.962 L 10.357 0 Z" fill="rgb(250,247,243)" fill-rule="nonzero"></path></g>
  <g transform="translate(317.26599999999996 548.5450000000001)"><path d="M 15.279 2.847 L 10.348 0 L 5.409 2.847 L 0 2.847 L 0 5.985 L 10.348 11.938 L 20.688 5.985 L 20.688 2.847 L 15.279 2.847 Z" fill="rgb(197,197,197)" fill-rule="nonzero"></path></g>
  <g transform="translate(317.26599999999996 545.422)"><path d="M 10.348 0 L 0 5.969 L 10.348 11.955 L 20.688 5.969 L 10.348 0 Z" fill="rgb(250,247,243)" fill-rule="nonzero"></path></g>
  <g transform="translate(328.786 548.9119999999999)"><path d="M 27.544 3.651 L 21.223 0 L 8.255 7.476 L 0 9.133 L 0 12.258 L 10.348 18.227 L 31.564 5.978 L 31.564 2.863 L 27.544 3.651 Z" fill="rgb(197,197,197)" fill-rule="nonzero"></path></g>
  <g transform="translate(384.554 523)"><path d="M 15.279 2.856 L 10.341 0 L 5.409 2.856 L 0 2.856 L 0 5.978 L 10.341 11.948 L 20.69 5.978 L 20.69 2.856 L 15.279 2.856 Z" fill="rgb(197,197,197)" fill-rule="nonzero"></path></g>
  <g transform="translate(384.554 519.886)"><path d="M 10.341 0 L 0 5.969 L 10.341 11.938 L 20.69 5.969 L 10.341 0 Z" fill="rgb(250,247,243)" fill-rule="nonzero"></path></g>
  <g transform="translate(373.52099999999996 529.362)"><path d="M 15.286 2.856 L 10.339 0 L 5.409 2.856 L 0 2.856 L 0 5.978 L 10.339 11.948 L 20.688 5.978 L 20.688 2.856 L 15.286 2.856 Z" fill="rgb(197,197,197)" fill-rule="nonzero"></path></g>
  <g transform="translate(373.52099999999996 526.2389999999999)"><path d="M 10.339 0 L 0 5.978 L 10.339 11.948 L 20.688 5.978 L 10.339 0 Z" fill="rgb(250,247,243)" fill-rule="nonzero"></path></g>
  <g transform="translate(362.159 535.928)"><path d="M 15.279 2.845 L 10.339 0 L 5.416 2.845 L 0 2.845 L 0 5.967 L 10.339 11.946 L 20.688 5.967 L 20.688 2.845 L 15.279 2.845 Z" fill="rgb(197,197,197)" fill-rule="nonzero"></path></g>
  <g transform="translate(362.159 532.804)"><path d="M 10.339 0 L 0 5.969 L 10.339 11.94 L 20.688 5.969 L 10.339 0 Z" fill="rgb(250,247,243)" fill-rule="nonzero"></path></g>
  <g transform="translate(350.79699999999997 542.4909999999999)"><path d="M 15.288 2.847 L 10.348 0 L 5.416 2.847 L 0 2.847 L 0 5.969 L 10.348 11.94 L 20.688 5.969 L 20.688 2.847 L 15.288 2.847 Z" fill="rgb(197,197,197)" fill-rule="nonzero"></path></g>
  <g transform="translate(350.79699999999997 539.3589999999999)"><path d="M 10.348 0 L 0 5.978 L 10.348 11.94 L 20.688 5.978 L 10.348 0 Z" fill="rgb(250,247,243)" fill-rule="nonzero"></path></g>
  <g transform="translate(328.786 545.79)"><path d="M 0 12.256 L 10.348 18.227 L 31.564 5.985 L 21.223 0 L 0 12.256 Z" fill="rgb(250,247,243)" fill-rule="nonzero"></path></g>
  <g transform="translate(26.789 392.19)"><path d="M 36.326 31.153 L 15.371 31.153 L 0 22.28 L 0 8.866 L 15.371 0 L 36.328 0 L 51.692 8.866 L 51.692 22.28 L 36.326 31.153 Z" fill="rgb(0,0,0)" fill-rule="nonzero"></path></g>
  <g transform="translate(113.02199999999999 270.23)"><path d="M 12.283 24.196 L 2.98 15.389 L 0 5.376 L 5.082 0 L 15.254 2.428 L 24.557 11.235 L 27.537 21.257 L 22.446 26.634 L 12.283 24.196 Z" fill="rgb(243,225,116)" fill-rule="nonzero"></path></g>
  <g transform="translate(33.502 275.606)"><path d="M 82.501 10.013 L 79.52 0 L 0 83.941 L 2.98 93.963 L 82.358 11.226 L 82.501 10.013 Z" fill="rgb(195,207,113)" fill-rule="nonzero"></path></g>
  <g transform="translate(36.482 285.619)"><path d="M 88.823 8.807 L 79.52 0 L 0 83.95 L 9.303 92.766 L 89.023 10.046 L 88.823 8.807 Z" fill="rgb(149,167,95)" fill-rule="nonzero"></path></g>
  <g transform="translate(45.785000000000004 294.42600000000004)"><path d="M 89.683 2.437 L 79.52 0 L 0 83.959 L 10.172 86.386 L 89.683 2.437 Z" fill="rgb(112,141,83)" fill-rule="nonzero"></path></g>
  <g transform="translate(140.39000000000001 246.385)"><path d="M 10.047 19.81 L 2.437 12.6 L 0 4.388 L 4.161 0 L 12.483 1.985 L 20.111 9.202 L 22.53 17.407 L 18.369 21.793 L 10.047 19.81 Z" fill="rgb(250,247,243)" fill-rule="nonzero"></path></g>
  <g transform="translate(115.96000000000001 250.773)"><path d="M 30.894 4.814 L 24.431 0 L 0 25.795 L 2.437 34.007 L 26.749 9.184 L 30.894 4.814 Z" fill="rgb(250,247,243)" fill-rule="nonzero"></path></g>
  <g transform="translate(118.39800000000001 258.985)"><path d="M 32.04 7.21 L 24.431 0 L 0 25.795 L 7.61 33.005 L 32.224 8.214 L 32.04 7.21 Z" fill="rgb(232,227,221)" fill-rule="nonzero"></path></g>
  <g transform="translate(126.007 266.195)"><path d="M 32.753 1.983 L 24.431 0 L 0 25.795 L 8.313 27.787 L 32.753 1.983 Z" fill="rgb(197,197,197)" fill-rule="nonzero"></path></g>
  <g transform="translate(141.279 230.226)"><path d="M 9.872 34.42 L 0 0 L 18.227 5.016 L 29.607 43.303 L 13.119 39.51 L 9.872 34.42 Z" fill="rgb(195,207,113)" fill-rule="nonzero"></path></g>
  <g transform="translate(143.68200000000002 184.99099999999999)"><path d="M 1.022 26.926 L 11.095 0 L 27.093 3.768 L 15.824 50.251 L 0 46.425 L 1.022 26.926 Z" fill="rgb(125,149,88)" fill-rule="nonzero"></path></g>
  <g transform="translate(154.77700000000002 146.99699999999999)"><path d="M 0 37.993 L 28.608 0 L 50.024 5.845 L 15.999 41.761 L 0 37.993 Z" fill="rgb(112,141,83)" fill-rule="nonzero"></path></g>
  <g transform="translate(149.476 158.08999999999997)"><path d="M 11.093 112.073 L 18.018 113.739 L 6.907 76.398 L 18.009 29.965 L 44.817 1.675 L 37.892 0 L 11.102 28.298 L 0 74.716 L 11.093 112.073 Z" fill="rgb(86,108,161)" fill-rule="nonzero"></path></g>
  <g transform="translate(149.476 158.08999999999997)"><path d="M 33.104 123.552 L 11.093 112.073 L 0 74.716 L 11.102 28.298 L 37.892 0 L 62.851 0.494 L 75.803 43.763 L 64.701 90.188 L 33.104 123.552 Z" fill="rgb(119,199,215)" fill-rule="nonzero"></path></g>
  <g transform="translate(133.478 140.736)"><path d="M 96.222 55.566 L 82.124 8.145 L 48.098 0 L 14.073 35.926 L 0 94.85 L 14.089 142.28 L 48.106 150.418 L 82.122 114.499 L 96.222 55.566 Z M 48.106 134.45 L 21.297 128.028 L 10.202 90.68 L 21.297 44.257 L 48.097 15.966 L 74.905 22.379 L 85.998 59.729 L 74.905 106.152 L 48.106 134.45 Z" fill="rgb(149,167,95)" fill-rule="nonzero"></path></g>
  <g transform="translate(215.601 148.881)"><path d="M 14.098 47.421 L 0 0 L 17.991 4.269 L 32.098 51.69 L 17.816 51.984 L 14.098 47.421 Z" fill="rgb(195,207,113)" fill-rule="nonzero"></path></g>
  <g transform="translate(215.601 196.302)"><path d="M 0 58.934 L 14.098 0 L 32.098 4.269 L 17.991 63.203 L 2.284 64.602 L 0 58.934 Z" fill="rgb(125,149,88)" fill-rule="nonzero"></path></g>
  <g transform="translate(181.584 255.23499999999999)"><path d="M 0 35.917 L 34.018 0 L 52.009 4.269 L 17.985 40.204 L 0 35.917 Z" fill="rgb(112,141,83)" fill-rule="nonzero"></path></g>
  <g transform="translate(109.909 482.07599999999996)"><path d="M 17.313 5.684 L 123.676 67.104 L 125.434 68.117 L 125.317 68.384 L 128.473 70.201 L 130.08 71.139 L 129.252 72.931 L 126.456 74.546 L 123.35 75.024 L 121.742 74.103 L 118.569 72.278 L 118.109 72.354 L 116.349 71.332 L 9.979 9.919 L 0 0 L 17.313 5.684 Z" fill="rgb(0,0,0)" fill-rule="nonzero"></path></g>
  <g transform="translate(109.909 478.258)"><path d="M 3.968 2.093 L 4.713 1.23 L 0 0 L 3.968 2.093 Z" fill="rgb(119,100,95)" fill-rule="nonzero"></path></g>
  <g transform="translate(109.909 478.258)"><path d="M 3.449 3.424 L 3.851 2.344 L 0 0 L 3.449 3.424 Z" fill="rgb(52,43,40)" fill-rule="nonzero"></path></g>
  <g transform="translate(109.909 478.258)"><path d="M 3.449 2.571 L 3.883 2.571 L 3.968 1.659 L 0 0 L 3.449 2.571 Z" fill="rgb(92,77,71)" fill-rule="nonzero"></path></g>
  <g transform="translate(113.358 479.917)"><path d="M 8.037 9.795 L 12.173 6.672 L 12.29 2.468 L 7.869 1.724 L 0.519 0 L 0 0.912 L 5.542 5.859 L 8.037 9.795 Z" fill="rgb(227,187,132)" fill-rule="nonzero"></path></g>
  <g transform="translate(113.358 480.829)"><path d="M 8.037 8.883 L 8.037 6.027 L 0 0 L 0 0.853 L 8.037 8.883 Z" fill="rgb(187,148,86)" fill-rule="nonzero"></path></g>
  <g transform="translate(113.878 479.488)"><path d="M 9.276 4.321 L 11.771 2.897 L 0.745 0 L 0 0.429 L 9.276 4.321 Z" fill="rgb(235,218,178)" fill-rule="nonzero"></path></g>
  <g transform="translate(217.327 537.845)"><path d="M 0 4.462 L 1.749 1.422 L 4.226 0 L 5.985 1.013 L 5.985 3.869 L 4.226 6.907 L 1.749 8.338 L 0 7.334 L 0 4.462 Z" fill="rgb(108,82,77)" fill-rule="nonzero"></path></g>
  <g transform="translate(123.153 482.385)"><path d="M 95.923 56.882 L 98.4 55.46 L 2.495 0 L 0 1.424 L 95.587 56.925 L 95.923 56.882 Z" fill="rgb(152,122,117)" fill-rule="nonzero"></path></g>
  <g transform="translate(121.396 483.80899999999997)"><path d="M 95.932 58.497 L 97.681 55.458 L 1.758 0 L 0 3.047 L 95.613 58.64 L 95.932 58.497 Z" fill="rgb(113,77,74)" fill-rule="nonzero"></path></g>
  <g transform="translate(121.396 486.856)"><path d="M 95.932 58.322 L 95.932 55.45 L 0 0 L 0 2.856 L 95.932 58.322 Z" fill="rgb(75,51,49)" fill-rule="nonzero"></path></g>
  <g transform="translate(227.708 543.829)"><path d="M 0 4.471 L 1.758 1.431 L 4.219 0 L 5.978 1.013 L 5.978 3.876 L 4.219 6.916 L 1.758 8.349 L 0 7.334 L 0 4.471 Z" fill="rgb(204,197,189)" fill-rule="nonzero"></path></g>
  <g transform="translate(219.076 537.8439999999999)"><path d="M 10.39 7.417 L 12.851 5.985 L 2.477 0 L 0 1.422 L 10.047 7.46 L 10.39 7.417 Z" fill="rgb(218,213,209)" fill-rule="nonzero"></path></g>
  <g transform="translate(217.327 539.266)"><path d="M 10.381 9.034 L 12.139 5.994 L 1.749 0 L 0 3.04 L 10.062 9.177 L 10.381 9.034 Z" fill="rgb(197,197,197)" fill-rule="nonzero"></path></g>
  <g transform="translate(217.327 542.3059999999999)"><path d="M 10.381 8.857 L 10.381 5.995 L 0 0 L 0 2.872 L 10.381 8.857 Z" fill="rgb(151,144,139)" fill-rule="nonzero"></path></g>
  <g transform="translate(232.949 547.063)"><path d="M 0 4.102 L 1.615 1.323 L 3.901 0 L 5.517 0.928 L 5.517 3.557 L 3.901 6.355 L 1.615 7.669 L 0 6.739 L 0 4.102 Z" fill="rgb(154,67,86)" fill-rule="nonzero"></path></g>
  <g transform="translate(229.793 544.324)"><path d="M 4.772 4.062 L 7.058 2.739 L 2.286 0 L 0 1.307 L 4.471 4.087 L 4.772 4.062 Z" fill="rgb(240,157,136)" fill-rule="nonzero"></path></g>
  <g transform="translate(228.186 545.631)"><path d="M 4.763 5.533 L 6.378 2.755 L 1.606 0 L 0 2.796 L 4.478 5.668 L 4.763 5.533 Z" fill="rgb(201,115,106)" fill-rule="nonzero"></path></g>
  <g transform="translate(228.186 548.4269999999999)"><path d="M 4.763 5.374 L 4.763 2.737 L 0 0 L 0 2.629 L 4.763 5.374 Z" fill="rgb(182,100,88)" fill-rule="nonzero"></path></g>
  <g transform="translate(206.341 530.485)"><path d="M 3.818 3.642 L 6.306 2.21 L 2.479 0 L 0 1.44 L 3.485 3.683 L 3.818 3.642 Z" fill="rgb(239,221,115)" fill-rule="nonzero"></path></g>
  <g transform="translate(204.592 531.9250000000001)"><path d="M 3.818 5.232 L 5.567 2.201 L 1.749 0 L 0 3.031 L 3.499 5.383 L 3.818 5.232 Z" fill="rgb(215,179,89)" fill-rule="nonzero"></path></g>
  <g transform="translate(204.592 534.956)"><path d="M 3.818 5.064 L 3.818 2.201 L 0 0 L 0 2.87 L 3.818 5.064 Z" fill="rgb(192,138,72)" fill-rule="nonzero"></path></g>
  <g transform="translate(39.271 466.395)"><path d="M 17.322 5.675 L 123.685 67.095 L 125.434 68.108 L 125.308 68.384 L 128.481 70.201 L 130.098 71.13 L 129.268 72.931 L 126.472 74.537 L 123.359 75.024 L 121.742 74.103 L 118.569 72.269 L 118.109 72.345 L 116.351 71.339 L 9.995 9.919 L 0 0 L 17.322 5.675 Z" fill="rgb(0,0,0)" fill-rule="nonzero"></path></g>
  <g transform="translate(39.271 462.568)"><path d="M 3.968 2.086 L 4.705 1.239 L 0 0 L 3.968 2.086 Z" fill="rgb(119,100,95)" fill-rule="nonzero"></path></g>
  <g transform="translate(39.271 462.568)"><path d="M 3.449 3.424 L 3.842 2.353 L 0 0 L 3.449 3.424 Z" fill="rgb(52,43,40)" fill-rule="nonzero"></path></g>
  <g transform="translate(39.271 462.568)"><path d="M 3.449 2.58 L 3.876 2.58 L 3.968 1.675 L 0 0 L 3.449 2.58 Z" fill="rgb(92,77,71)" fill-rule="nonzero"></path></g>
  <g transform="translate(42.72 464.243)"><path d="M 8.046 9.788 L 12.175 6.665 L 12.274 2.454 L 7.878 1.716 L 0.519 0 L 0 0.905 L 5.542 5.845 L 8.046 9.788 Z" fill="rgb(227,187,132)" fill-rule="nonzero"></path></g>
  <g transform="translate(42.72 465.14799999999997)"><path d="M 8.046 8.883 L 8.046 6.018 L 0 0 L 0 0.844 L 8.046 8.883 Z" fill="rgb(187,148,86)" fill-rule="nonzero"></path></g>
  <g transform="translate(43.239000000000004 463.80699999999996)"><path d="M 9.276 4.329 L 11.755 2.89 L 0.737 0 L 0 0.436 L 9.276 4.329 Z" fill="rgb(235,218,178)" fill-rule="nonzero"></path></g>
  <g transform="translate(146.687 522.164)"><path d="M 0 4.462 L 1.751 1.422 L 4.237 0 L 5.994 1.013 L 5.994 3.867 L 4.237 6.907 L 1.751 8.338 L 0 7.325 L 0 4.462 Z" fill="rgb(108,82,77)" fill-rule="nonzero"></path></g>
  <g transform="translate(52.515 466.697)"><path d="M 95.923 56.889 L 98.409 55.467 L 2.479 0 L 0 1.439 L 95.606 56.932 L 95.923 56.889 Z" fill="rgb(207,199,68)" fill-rule="nonzero"></path></g>
  <g transform="translate(50.766 468.136)"><path d="M 95.921 58.49 L 97.672 55.451 L 1.749 0 L 0 3.031 L 95.604 58.633 L 95.921 58.49 Z" fill="rgb(160,154,31)" fill-rule="nonzero"></path></g>
  <g transform="translate(50.766 471.166)"><path d="M 95.921 58.322 L 95.921 55.459 L 0 0 L 0 2.865 L 95.921 58.322 Z" fill="rgb(122,119,35)" fill-rule="nonzero"></path></g>
  <g transform="translate(157.06900000000002 528.148)"><path d="M 0 4.471 L 1.749 1.431 L 4.228 0 L 5.985 1.013 L 5.985 3.876 L 4.228 6.909 L 1.749 8.347 L 0 7.334 L 0 4.471 Z" fill="rgb(204,197,189)" fill-rule="nonzero"></path></g>
  <g transform="translate(148.43800000000002 522.163)"><path d="M 10.381 7.417 L 12.86 5.985 L 2.486 0 L 0 1.422 L 10.047 7.458 L 10.381 7.417 Z" fill="rgb(218,213,209)" fill-rule="nonzero"></path></g>
  <g transform="translate(146.687 523.585)"><path d="M 10.383 9.034 L 12.131 5.994 L 1.751 0 L 0 3.031 L 10.064 9.168 L 10.383 9.034 Z" fill="rgb(197,197,197)" fill-rule="nonzero"></path></g>
  <g transform="translate(146.687 526.616)"><path d="M 10.383 8.866 L 10.383 6.003 L 0 0 L 0 2.872 L 10.383 8.866 Z" fill="rgb(151,144,139)" fill-rule="nonzero"></path></g>
  <g transform="translate(162.319 531.3729999999999)"><path d="M 0 4.111 L 1.606 1.323 L 3.909 0 L 5.499 0.937 L 5.499 3.575 L 3.909 6.362 L 1.606 7.677 L 0 6.748 L 0 4.111 Z" fill="rgb(154,67,86)" fill-rule="nonzero"></path></g>
  <g transform="translate(159.153 528.636)"><path d="M 4.772 4.06 L 7.074 2.737 L 2.295 0 L 0 1.314 L 4.48 4.111 L 4.772 4.06 Z" fill="rgb(240,157,136)" fill-rule="nonzero"></path></g>
  <g transform="translate(157.554 529.9499999999999)"><path d="M 4.765 5.533 L 6.371 2.746 L 1.599 0 L 0 2.796 L 4.48 5.668 L 4.765 5.533 Z" fill="rgb(201,115,106)" fill-rule="nonzero"></path></g>
  <g transform="translate(157.554 532.746)"><path d="M 4.765 5.374 L 4.765 2.737 L 0 0 L 0 2.638 L 4.765 5.374 Z" fill="rgb(182,100,88)" fill-rule="nonzero"></path></g>
  <g transform="translate(135.702 514.813)"><path d="M 3.827 3.633 L 6.297 2.21 L 2.488 0 L 0 1.422 L 3.499 3.665 L 3.827 3.633 Z" fill="rgb(177,231,243)" fill-rule="nonzero"></path></g>
  <g transform="translate(133.953 516.235)"><path d="M 3.818 5.25 L 5.576 2.21 L 1.749 0 L 0 3.04 L 3.499 5.383 L 3.818 5.25 Z" fill="rgb(52,141,140)" fill-rule="nonzero"></path></g>
  <g transform="translate(133.953 519.275)"><path d="M 3.818 5.08 L 3.818 2.21 L 0 0 L 0 2.863 L 3.818 5.08 Z" fill="rgb(55,90,93)" fill-rule="nonzero"></path></g>
</svg>