<svg xmlns="http://www.w3.org/2000/svg" viewBox="0 0 20 20" fill="none">
  <g transform="translate(3.333 2.5)" fill="#091520"><path d="M 0 13.333 L 13.333 13.333 L 13.333 15 L 0 15 L 0 13.333 Z M 13.333 0 L 0 0 L 0 8.333 C 0 10.175 1.492 11.667 3.333 11.667 L 8.333 11.667 C 10.175 11.667 11.667 10.175 11.667 8.333 L 11.667 5.833 L 13.333 5.833 C 13.775 5.833 14.199 5.658 14.512 5.345 C 14.824 5.033 15 4.609 15 4.167 L 15 1.667 C 15 0.742 14.258 0 13.333 0 Z M 10 8.333 C 10 9.25 9.25 10 8.333 10 L 3.333 10 C 2.417 10 1.667 9.25 1.667 8.333 L 1.667 1.667 L 10 1.667 L 10 8.333 Z M 13.333 4.167 L 11.667 4.167 L 11.667 1.667 L 13.333 1.667 L 13.333 4.167 Z" fill-rule="nonzero"></path></g>
</svg>