<svg xmlns="http://www.w3.org/2000/svg" viewBox="0 0 18 18" fill="none">
  <g transform="translate(1.499 1.499)" fill="#1E90FF"><path d="M 15.001 8.501 C 15.553 8.501 16.001 8.053 16.001 7.501 C 16.001 6.948 15.553 6.501 15.001 6.501 L 15.001 7.501 L 15.001 8.501 Z M 13.141 7.501 L 13.139 8.501 L 13.141 8.501 L 13.141 7.501 Z M 11.693 8.596 L 12.656 8.866 L 12.656 8.866 L 11.693 8.596 Z M 9.931 14.866 L 10.891 15.146 L 10.893 15.137 L 9.931 14.866 Z M 9.571 14.866 L 8.608 15.137 L 8.611 15.146 L 9.571 14.866 Z M 5.43 0.135 L 6.393 -0.136 L 6.39 -0.145 L 5.43 0.135 Z M 5.25 0 L 5.25 -1 L 5.25 0 Z M 5.07 0.135 L 4.11 -0.145 L 4.108 -0.136 L 5.07 0.135 Z M 3.308 6.406 L 2.345 6.135 L 2.345 6.136 L 3.308 6.406 Z M 1.868 7.501 L 1.868 8.501 L 1.871 8.501 L 1.868 7.501 Z M 0 6.501 C -0.552 6.501 -1 6.948 -1 7.501 C -1 8.053 -0.552 8.501 0 8.501 L 0 7.501 L 0 6.501 Z M 15.001 7.501 L 15.001 6.501 L 13.141 6.501 L 13.141 7.501 L 13.141 8.501 L 15.001 8.501 L 15.001 7.501 Z M 13.141 7.501 L 13.143 6.501 C 12.597 6.499 12.065 6.677 11.63 7.007 L 12.233 7.804 L 12.836 8.602 C 12.923 8.536 13.03 8.5 13.139 8.501 L 13.141 7.501 Z M 12.233 7.804 L 11.63 7.007 C 11.194 7.336 10.878 7.8 10.731 8.326 L 11.693 8.596 L 12.656 8.866 C 12.686 8.76 12.749 8.668 12.836 8.602 L 12.233 7.804 Z M 11.693 8.596 L 10.731 8.325 L 8.968 14.596 L 9.931 14.866 L 10.893 15.137 L 12.656 8.866 L 11.693 8.596 Z M 9.931 14.866 L 8.971 14.586 C 9.02 14.417 9.123 14.269 9.263 14.164 L 9.863 14.964 L 10.463 15.764 C 10.669 15.61 10.819 15.393 10.891 15.146 L 9.931 14.866 Z M 9.863 14.964 L 9.263 14.164 C 9.404 14.058 9.575 14.001 9.751 14.001 L 9.751 15.001 L 9.751 16.001 C 10.008 16.001 10.258 15.918 10.463 15.764 L 9.863 14.964 Z M 9.751 15.001 L 9.751 14.001 C 9.927 14.001 10.098 14.058 10.238 14.164 L 9.638 14.964 L 9.038 15.764 C 9.244 15.918 9.494 16.001 9.751 16.001 L 9.751 15.001 Z M 9.638 14.964 L 10.238 14.164 C 10.379 14.269 10.482 14.417 10.531 14.586 L 9.571 14.866 L 8.611 15.146 C 8.683 15.393 8.833 15.61 9.038 15.764 L 9.638 14.964 Z M 9.571 14.866 L 10.533 14.596 L 6.393 -0.136 L 5.43 0.135 L 4.468 0.406 L 8.608 15.137 L 9.571 14.866 Z M 5.43 0.135 L 6.39 -0.145 C 6.318 -0.392 6.168 -0.608 5.963 -0.762 L 5.363 0.038 L 4.763 0.838 C 4.622 0.732 4.52 0.584 4.47 0.415 L 5.43 0.135 Z M 5.363 0.038 L 5.963 -0.762 C 5.757 -0.917 5.507 -1 5.25 -1 L 5.25 0 L 5.25 1 C 5.075 1 4.904 0.943 4.763 0.838 L 5.363 0.038 Z M 5.25 0 L 5.25 -1 C 4.993 -1 4.743 -0.917 4.538 -0.762 L 5.138 0.038 L 5.738 0.838 C 5.597 0.943 5.426 1 5.25 1 L 5.25 0 Z M 5.138 0.038 L 4.538 -0.762 C 4.332 -0.608 4.182 -0.392 4.11 -0.145 L 5.07 0.135 L 6.03 0.415 C 5.981 0.584 5.879 0.732 5.738 0.838 L 5.138 0.038 Z M 5.07 0.135 L 4.108 -0.136 L 2.345 6.135 L 3.308 6.406 L 4.27 6.676 L 6.033 0.406 L 5.07 0.135 Z M 3.308 6.406 L 2.345 6.136 C 2.316 6.24 2.253 6.333 2.166 6.399 L 2.771 7.195 L 3.377 7.991 C 3.81 7.661 4.124 7.199 4.271 6.676 L 3.308 6.406 Z M 2.771 7.195 L 2.166 6.399 C 2.079 6.464 1.974 6.5 1.865 6.501 L 1.868 7.501 L 1.871 8.501 C 2.415 8.499 2.943 8.32 3.377 7.991 L 2.771 7.195 Z M 1.868 7.501 L 1.868 6.501 L 0 6.501 L 0 7.501 L 0 8.501 L 1.868 8.501 L 1.868 7.501 Z" fill-rule="nonzero"></path></g>
</svg>