<svg xmlns="http://www.w3.org/2000/svg" viewBox="0 0 20 20" fill="none">
  <g transform="translate(2.5 1.667)" fill="#091520"><path d="M 7.5 0 C 9.489 0 11.397 0.79 12.803 2.197 C 14.21 3.603 15 5.511 15 7.5 C 15 10.062 13.603 12.158 12.132 13.662 C 11.396 14.406 10.594 15.08 9.735 15.676 L 9.38 15.917 L 9.213 16.028 L 8.899 16.228 L 8.619 16.399 L 8.273 16.601 C 8.037 16.735 7.771 16.806 7.5 16.806 C 7.229 16.806 6.963 16.735 6.727 16.601 L 6.381 16.399 L 5.947 16.132 L 5.787 16.028 L 5.446 15.801 C 4.519 15.174 3.656 14.458 2.868 13.662 C 1.397 12.157 0 10.062 0 7.5 C 0 5.511 0.79 3.603 2.197 2.197 C 3.603 0.79 5.511 0 7.5 0 Z M 7.5 1.667 C 5.953 1.667 4.469 2.281 3.375 3.375 C 2.281 4.469 1.667 5.953 1.667 7.5 C 1.667 9.435 2.727 11.133 4.059 12.497 C 4.632 13.077 5.251 13.609 5.911 14.088 L 6.292 14.36 C 6.416 14.446 6.534 14.526 6.648 14.6 L 6.973 14.808 L 7.259 14.982 L 7.5 15.123 L 7.879 14.899 L 8.185 14.707 C 8.348 14.604 8.522 14.488 8.708 14.36 L 9.089 14.088 C 9.749 13.609 10.368 13.077 10.941 12.497 C 12.273 11.134 13.333 9.435 13.333 7.5 C 13.333 5.953 12.719 4.469 11.625 3.375 C 10.531 2.281 9.047 1.667 7.5 1.667 Z M 7.5 4.167 C 8.384 4.167 9.232 4.518 9.857 5.143 C 10.482 5.768 10.833 6.616 10.833 7.5 C 10.833 8.384 10.482 9.232 9.857 9.857 C 9.232 10.482 8.384 10.833 7.5 10.833 C 6.616 10.833 5.768 10.482 5.143 9.857 C 4.518 9.232 4.167 8.384 4.167 7.5 C 4.167 6.616 4.518 5.768 5.143 5.143 C 5.768 4.518 6.616 4.167 7.5 4.167 Z M 7.5 5.833 C 7.058 5.833 6.634 6.009 6.321 6.321 C 6.009 6.634 5.833 7.058 5.833 7.5 C 5.833 7.942 6.009 8.366 6.321 8.679 C 6.634 8.991 7.058 9.167 7.5 9.167 C 7.942 9.167 8.366 8.991 8.679 8.679 C 8.991 8.366 9.167 7.942 9.167 7.5 C 9.167 7.058 8.991 6.634 8.679 6.321 C 8.366 6.009 7.942 5.833 7.5 5.833 Z" fill-rule="evenodd"></path></g>
</svg>