<svg xmlns="http://www.w3.org/2000/svg" viewBox="0 0 18 18" fill="none">
  <g transform="translate(2.25 2.25)" fill="#1E90FF"><path d="M 6.75 13.5 C 7.636 13.5 8.514 13.325 9.333 12.986 C 10.152 12.647 10.896 12.15 11.523 11.523 C 12.15 10.896 12.647 10.152 12.986 9.333 C 13.325 8.514 13.5 7.636 13.5 6.75 C 13.5 5.864 13.325 4.986 12.986 4.167 C 12.647 3.348 12.15 2.604 11.523 1.977 C 10.896 1.35 10.152 0.853 9.333 0.514 C 8.514 0.175 7.636 0 6.75 0 C 4.96 0 3.243 0.711 1.977 1.977 C 0.711 3.243 0 4.96 0 6.75 C 0 8.54 0.711 10.257 1.977 11.523 C 3.243 12.789 4.96 13.5 6.75 13.5 Z M 6.576 9.48 L 10.326 4.98 L 9.174 4.02 L 5.949 7.889 L 4.28 6.22 L 3.22 7.28 L 5.47 9.53 L 6.05 10.111 L 6.576 9.48 Z" fill-rule="evenodd"></path></g>
</svg>