<svg xmlns="http://www.w3.org/2000/svg" viewBox="0 0 18 18" fill="none">
  <g transform="translate(1.498 1.499)" fill="#1E90FF"><path d="M 14.503 0.001 C 14.503 -0.551 14.055 -0.999 13.503 -0.999 C 12.951 -0.999 12.503 -0.551 12.503 0.001 L 13.503 0.001 L 14.503 0.001 Z M 12.503 3.001 C 12.503 3.554 12.951 4.001 13.503 4.001 C 14.055 4.001 14.503 3.554 14.503 3.001 L 13.503 3.001 L 12.503 3.001 Z M 15.003 2.501 C 15.555 2.501 16.003 2.054 16.003 1.501 C 16.003 0.949 15.555 0.501 15.003 0.501 L 15.003 1.501 L 15.003 2.501 Z M 12.003 0.501 C 11.451 0.501 11.003 0.949 11.003 1.501 C 11.003 2.054 11.451 2.501 12.003 2.501 L 12.003 1.501 L 12.003 0.501 Z M 6.765 0.612 L 7.748 0.798 L 7.748 0.796 L 6.765 0.612 Z M 7.502 0 L 7.502 1 L 7.502 0 Z M 8.24 0.612 L 7.257 0.796 L 7.257 0.798 L 8.24 0.612 Z M 9.028 4.781 L 10.011 4.595 L 10.011 4.595 L 9.028 4.781 Z M 10.224 5.976 L 10.409 4.993 L 10.409 4.993 L 10.224 5.976 Z M 14.392 6.764 L 14.207 7.747 L 14.209 7.747 L 14.392 6.764 Z M 14.392 8.239 L 14.209 7.256 L 14.207 7.256 L 14.392 8.239 Z M 10.224 9.027 L 10.409 10.01 L 10.409 10.01 L 10.224 9.027 Z M 9.028 10.222 L 10.011 10.408 L 10.011 10.408 L 9.028 10.222 Z M 8.24 14.391 L 7.257 14.205 L 7.257 14.207 L 8.24 14.391 Z M 6.765 14.391 L 7.748 14.207 L 7.748 14.205 L 6.765 14.391 Z M 5.977 10.222 L 4.994 10.408 L 4.994 10.408 L 5.977 10.222 Z M 4.781 9.027 L 4.595 10.01 L 4.596 10.01 L 4.781 9.027 Z M 0.612 8.239 L 0.798 7.256 L 0.796 7.256 L 0.612 8.239 Z M 0 7.502 L 1 7.502 L 0 7.502 Z M 0.612 6.764 L 0.796 7.747 L 0.798 7.747 L 0.612 6.764 Z M 4.781 5.976 L 4.596 4.993 L 4.595 4.993 L 4.781 5.976 Z M 5.977 4.781 L 4.994 4.595 L 4.994 4.595 L 5.977 4.781 Z M 13.503 0.001 L 12.503 0.001 L 12.503 3.001 L 13.503 3.001 L 14.503 3.001 L 14.503 0.001 L 13.503 0.001 Z M 15.003 1.501 L 15.003 0.501 L 12.003 0.501 L 12.003 1.501 L 12.003 2.501 L 15.003 2.501 L 15.003 1.501 Z M 6.765 0.612 L 7.748 0.796 C 7.737 0.853 7.707 0.905 7.662 0.942 L 7.023 0.173 L 6.384 -0.596 C 6.07 -0.335 5.857 0.027 5.782 0.429 L 6.765 0.612 Z M 7.023 0.173 L 7.662 0.942 C 7.617 0.98 7.561 1 7.502 1 L 7.502 0 L 7.502 -1 C 7.094 -1 6.699 -0.857 6.384 -0.596 L 7.023 0.173 Z M 7.502 0 L 7.502 1 C 7.444 1 7.388 0.98 7.343 0.942 L 7.982 0.173 L 8.62 -0.596 C 8.306 -0.857 7.911 -1 7.502 -1 L 7.502 0 Z M 7.982 0.173 L 7.343 0.942 C 7.298 0.905 7.267 0.853 7.257 0.796 L 8.24 0.612 L 9.223 0.429 C 9.148 0.027 8.935 -0.335 8.62 -0.596 L 7.982 0.173 Z M 8.24 0.612 L 7.257 0.798 L 8.045 4.966 L 9.028 4.781 L 10.011 4.595 L 9.222 0.426 L 8.24 0.612 Z M 9.028 4.781 L 8.045 4.966 C 8.139 5.46 8.379 5.915 8.734 6.27 L 9.441 5.563 L 10.148 4.856 C 10.077 4.785 10.029 4.694 10.011 4.595 L 9.028 4.781 Z M 9.441 5.563 L 8.734 6.27 C 9.09 6.625 9.544 6.865 10.038 6.959 L 10.224 5.976 L 10.409 4.993 C 10.31 4.975 10.219 4.927 10.148 4.856 L 9.441 5.563 Z M 10.224 5.976 L 10.038 6.959 L 14.207 7.747 L 14.392 6.764 L 14.578 5.782 L 10.409 4.993 L 10.224 5.976 Z M 14.392 6.764 L 14.209 7.747 C 14.152 7.737 14.1 7.706 14.063 7.661 L 14.832 7.022 L 15.601 6.383 C 15.34 6.069 14.977 5.856 14.576 5.781 L 14.392 6.764 Z M 14.832 7.022 L 14.063 7.661 C 14.025 7.616 14.005 7.56 14.005 7.502 L 15.005 7.502 L 16.005 7.502 C 16.005 7.093 15.862 6.698 15.601 6.383 L 14.832 7.022 Z M 15.005 7.502 L 14.005 7.502 C 14.005 7.443 14.025 7.387 14.063 7.342 L 14.832 7.981 L 15.601 8.62 C 15.862 8.305 16.005 7.91 16.005 7.502 L 15.005 7.502 Z M 14.832 7.981 L 14.063 7.342 C 14.1 7.297 14.152 7.266 14.209 7.256 L 14.392 8.239 L 14.576 9.222 C 14.977 9.147 15.34 8.934 15.601 8.62 L 14.832 7.981 Z M 14.392 8.239 L 14.207 7.256 L 10.038 8.044 L 10.224 9.027 L 10.409 10.01 L 14.578 9.221 L 14.392 8.239 Z M 10.224 9.027 L 10.038 8.044 C 9.544 8.138 9.09 8.378 8.734 8.733 L 9.441 9.44 L 10.148 10.147 C 10.219 10.076 10.31 10.028 10.409 10.01 L 10.224 9.027 Z M 9.441 9.44 L 8.734 8.733 C 8.379 9.088 8.139 9.543 8.045 10.037 L 9.028 10.222 L 10.011 10.408 C 10.029 10.309 10.077 10.218 10.148 10.147 L 9.441 9.44 Z M 9.028 10.222 L 8.045 10.037 L 7.257 14.205 L 8.24 14.391 L 9.222 14.577 L 10.011 10.408 L 9.028 10.222 Z M 8.24 14.391 L 7.257 14.207 C 7.267 14.15 7.298 14.098 7.343 14.061 L 7.982 14.83 L 8.62 15.599 C 8.935 15.338 9.148 14.976 9.223 14.574 L 8.24 14.391 Z M 7.982 14.83 L 7.343 14.061 C 7.388 14.023 7.444 14.003 7.502 14.003 L 7.502 15.003 L 7.502 16.003 C 7.911 16.003 8.306 15.86 8.62 15.599 L 7.982 14.83 Z M 7.502 15.003 L 7.502 14.003 C 7.561 14.003 7.617 14.023 7.662 14.061 L 7.023 14.83 L 6.384 15.599 C 6.699 15.86 7.094 16.003 7.502 16.003 L 7.502 15.003 Z M 7.023 14.83 L 7.662 14.061 C 7.707 14.098 7.737 14.15 7.748 14.207 L 6.765 14.391 L 5.782 14.574 C 5.857 14.976 6.07 15.338 6.384 15.599 L 7.023 14.83 Z M 6.765 14.391 L 7.748 14.205 L 6.959 10.037 L 5.977 10.222 L 4.994 10.408 L 5.783 14.577 L 6.765 14.391 Z M 5.977 10.222 L 6.959 10.037 C 6.866 9.543 6.626 9.088 6.271 8.733 L 5.563 9.44 L 4.856 10.147 C 4.928 10.218 4.976 10.309 4.994 10.408 L 5.977 10.222 Z M 5.563 9.44 L 6.271 8.733 C 5.915 8.378 5.461 8.138 4.967 8.044 L 4.781 9.027 L 4.596 10.01 C 4.694 10.028 4.785 10.076 4.856 10.147 L 5.563 9.44 Z M 4.781 9.027 L 4.967 8.044 L 0.798 7.256 L 0.612 8.239 L 0.427 9.221 L 4.595 10.01 L 4.781 9.027 Z M 0.612 8.239 L 0.796 7.256 C 0.853 7.266 0.905 7.297 0.942 7.342 L 0.173 7.981 L -0.596 8.62 C -0.335 8.934 0.027 9.147 0.429 9.222 L 0.612 8.239 Z M 0.173 7.981 L 0.942 7.342 C 0.98 7.387 1 7.443 1 7.502 L 0 7.502 L -1 7.502 C -1 7.91 -0.857 8.305 -0.596 8.62 L 0.173 7.981 Z M 0 7.502 L 1 7.502 C 1 7.56 0.98 7.616 0.942 7.661 L 0.173 7.022 L -0.596 6.383 C -0.857 6.698 -1 7.093 -1 7.502 L 0 7.502 Z M 0.173 7.022 L 0.942 7.661 C 0.905 7.706 0.853 7.737 0.796 7.747 L 0.612 6.764 L 0.429 5.781 C 0.027 5.856 -0.335 6.069 -0.596 6.383 L 0.173 7.022 Z M 0.612 6.764 L 0.798 7.747 L 4.967 6.959 L 4.781 5.976 L 4.595 4.993 L 0.427 5.782 L 0.612 6.764 Z M 4.781 5.976 L 4.967 6.959 C 5.461 6.865 5.915 6.625 6.271 6.27 L 5.563 5.563 L 4.856 4.856 C 4.785 4.927 4.694 4.975 4.596 4.993 L 4.781 5.976 Z M 5.563 5.563 L 6.271 6.27 C 6.626 5.915 6.866 5.46 6.959 4.966 L 5.977 4.781 L 4.994 4.595 C 4.976 4.694 4.928 4.785 4.856 4.856 L 5.563 5.563 Z M 5.977 4.781 L 6.959 4.966 L 7.748 0.798 L 6.765 0.612 L 5.783 0.426 L 4.994 4.595 L 5.977 4.781 Z M 3.002 13.501 L 2.002 13.501 C 2.002 13.777 1.778 14.001 1.502 14.001 L 1.502 15.001 L 1.502 16.001 C 2.883 16.001 4.002 14.882 4.002 13.501 L 3.002 13.501 Z M 1.502 15.001 L 1.502 14.001 C 1.226 14.001 1.002 13.777 1.002 13.501 L 0.002 13.501 L -0.998 13.501 C -0.998 14.882 0.121 16.001 1.502 16.001 L 1.502 15.001 Z M 0.002 13.501 L 1.002 13.501 C 1.002 13.225 1.226 13.001 1.502 13.001 L 1.502 12.001 L 1.502 11.001 C 0.121 11.001 -0.998 12.12 -0.998 13.501 L 0.002 13.501 Z M 1.502 12.001 L 1.502 13.001 C 1.778 13.001 2.002 13.225 2.002 13.501 L 3.002 13.501 L 4.002 13.501 C 4.002 12.12 2.883 11.001 1.502 11.001 L 1.502 12.001 Z" fill-rule="nonzero"></path></g>
</svg>