<svg xmlns="http://www.w3.org/2000/svg" viewBox="0 0 63 63" fill="none">
  <g transform="translate(5.25 5.25)" fill="#FFFFFF"><path d="M 26.25 0 C 21.058 0 15.983 1.54 11.666 4.424 C 7.35 7.308 3.985 11.408 1.998 16.205 C 0.011 21.001 -0.508 26.279 0.504 31.371 C 1.517 36.463 4.017 41.14 7.688 44.812 C 11.36 48.483 16.037 50.983 21.129 51.996 C 26.221 53.008 31.499 52.489 36.295 50.502 C 41.092 48.515 45.192 45.15 48.076 40.834 C 50.96 36.517 52.5 31.442 52.5 26.25 C 52.5 22.803 51.821 19.389 50.502 16.205 C 49.183 13.02 47.249 10.126 44.812 7.688 C 42.374 5.251 39.48 3.317 36.295 1.998 C 33.111 0.679 29.697 0 26.25 0 Z M 21 38.062 L 21 14.437 L 36.75 26.25 L 21 38.062 Z" fill-rule="nonzero"></path></g>
</svg>