<svg xmlns="http://www.w3.org/2000/svg" viewBox="0 0 18 18" fill="none">
  <g transform="translate(1.499 1.499)" fill="#1E90FF"><path d="M 5.3 8.401 C 4.969 7.959 4.342 7.869 3.9 8.201 C 3.459 8.532 3.369 9.159 3.7 9.601 L 4.5 9.001 L 5.3 8.401 Z M 11.301 9.601 C 11.632 9.159 11.543 8.532 11.101 8.201 C 10.659 7.869 10.032 7.959 9.701 8.401 L 10.501 9.001 L 11.301 9.601 Z M 5.25 4.25 C 4.698 4.25 4.25 4.698 4.25 5.25 C 4.25 5.803 4.698 6.25 5.25 6.25 L 5.25 5.25 L 5.25 4.25 Z M 5.258 6.25 C 5.81 6.25 6.258 5.803 6.258 5.25 C 6.258 4.698 5.81 4.25 5.258 4.25 L 5.258 5.25 L 5.258 6.25 Z M 9.751 4.25 C 9.198 4.25 8.751 4.698 8.751 5.25 C 8.751 5.803 9.198 6.25 9.751 6.25 L 9.751 5.25 L 9.751 4.25 Z M 9.758 6.25 C 10.311 6.25 10.758 5.803 10.758 5.25 C 10.758 4.698 10.311 4.25 9.758 4.25 L 9.758 5.25 L 9.758 6.25 Z M 4.5 9.001 C 3.7 9.601 3.701 9.601 3.701 9.601 C 3.701 9.601 3.701 9.602 3.701 9.602 C 3.702 9.603 3.702 9.603 3.702 9.604 C 3.703 9.605 3.704 9.606 3.705 9.607 C 3.707 9.609 3.709 9.612 3.711 9.615 C 3.716 9.621 3.722 9.629 3.729 9.638 C 3.744 9.656 3.763 9.68 3.786 9.708 C 3.834 9.764 3.899 9.839 3.983 9.927 C 4.151 10.101 4.394 10.33 4.709 10.56 C 5.335 11.015 6.287 11.501 7.501 11.501 L 7.501 10.501 L 7.501 9.501 C 6.839 9.501 6.291 9.237 5.885 8.942 C 5.685 8.796 5.53 8.65 5.427 8.543 C 5.377 8.49 5.34 8.448 5.318 8.422 C 5.308 8.409 5.301 8.401 5.297 8.397 C 5.296 8.395 5.295 8.394 5.296 8.395 C 5.296 8.395 5.297 8.396 5.297 8.397 C 5.298 8.397 5.298 8.398 5.299 8.398 C 5.299 8.399 5.299 8.399 5.299 8.4 C 5.3 8.4 5.3 8.4 5.3 8.4 C 5.3 8.4 5.3 8.401 4.5 9.001 Z M 7.501 10.501 L 7.501 11.501 C 8.714 11.501 9.666 11.015 10.292 10.56 C 10.607 10.33 10.851 10.101 11.018 9.927 C 11.102 9.839 11.168 9.764 11.215 9.708 C 11.238 9.68 11.257 9.656 11.272 9.638 C 11.279 9.629 11.285 9.621 11.29 9.615 C 11.292 9.612 11.294 9.609 11.296 9.607 C 11.297 9.606 11.298 9.605 11.299 9.604 C 11.299 9.603 11.299 9.603 11.3 9.602 C 11.3 9.602 11.3 9.601 11.3 9.601 C 11.301 9.601 11.301 9.601 10.501 9.001 C 9.701 8.401 9.701 8.4 9.701 8.4 C 9.701 8.4 9.702 8.4 9.702 8.4 C 9.702 8.399 9.702 8.399 9.703 8.398 C 9.703 8.398 9.703 8.397 9.704 8.397 C 9.705 8.396 9.705 8.395 9.705 8.395 C 9.706 8.394 9.705 8.395 9.704 8.397 C 9.701 8.401 9.694 8.409 9.683 8.422 C 9.661 8.448 9.625 8.49 9.574 8.543 C 9.471 8.65 9.316 8.796 9.116 8.942 C 8.711 9.237 8.163 9.501 7.501 9.501 L 7.501 10.501 Z M 5.25 5.25 L 5.25 6.25 L 5.258 6.25 L 5.258 5.25 L 5.258 4.25 L 5.25 4.25 L 5.25 5.25 Z M 9.751 5.25 L 9.751 6.25 L 9.758 6.25 L 9.758 5.25 L 9.758 4.25 L 9.751 4.25 L 9.751 5.25 Z M 15.001 7.501 L 14.001 7.501 C 14.001 11.091 11.091 14.001 7.501 14.001 L 7.501 15.001 L 7.501 16.001 C 12.195 16.001 16.001 12.195 16.001 7.501 L 15.001 7.501 Z M 7.501 15.001 L 7.501 14.001 C 3.91 14.001 1 11.091 1 7.501 L 0 7.501 L -1 7.501 C -1 12.195 2.806 16.001 7.501 16.001 L 7.501 15.001 Z M 0 7.501 L 1 7.501 C 1 3.91 3.91 1 7.501 1 L 7.501 0 L 7.501 -1 C 2.806 -1 -1 2.806 -1 7.501 L 0 7.501 Z M 7.501 0 L 7.501 1 C 11.091 1 14.001 3.91 14.001 7.501 L 15.001 7.501 L 16.001 7.501 C 16.001 2.806 12.195 -1 7.501 -1 L 7.501 0 Z" fill-rule="nonzero"></path></g>
</svg>