<svg xmlns="http://www.w3.org/2000/svg" viewBox="0 0 16 16" fill="none">
  <g transform="translate(3.333 2)" fill="#1E90FF"><path d="M -1 12 C -1 12.552 -0.552 13 0 13 C 0.552 13 1 12.552 1 12 L 0 12 L -1 12 Z M 1 8 C 1 7.448 0.552 7 0 7 C -0.552 7 -1 7.448 -1 8 L 0 8 L 1 8 Z M 3.667 12 C 3.667 12.552 4.115 13 4.667 13 C 5.219 13 5.667 12.552 5.667 12 L 4.667 12 L 3.667 12 Z M 5.667 0 C 5.667 -0.552 5.219 -1 4.667 -1 C 4.115 -1 3.667 -0.552 3.667 0 L 4.667 0 L 5.667 0 Z M 8.334 12 C 8.334 12.552 8.782 13 9.334 13 C 9.887 13 10.334 12.552 10.334 12 L 9.334 12 L 8.334 12 Z M 10.334 4 C 10.334 3.448 9.887 3 9.334 3 C 8.782 3 8.334 3.448 8.334 4 L 9.334 4 L 10.334 4 Z M 0 12 L 1 12 L 1 8 L 0 8 L -1 8 L -1 12 L 0 12 Z M 4.667 12 L 5.667 12 L 5.667 0 L 4.667 0 L 3.667 0 L 3.667 12 L 4.667 12 Z M 9.334 12 L 10.334 12 L 10.334 4 L 9.334 4 L 8.334 4 L 8.334 12 L 9.334 12 Z" fill-rule="nonzero"></path></g>
</svg>