<svg xmlns="http://www.w3.org/2000/svg" viewBox="0 0 18 18" fill="none">
  <g transform="translate(2.25 2.25)" fill="#1E90FF"><path d="M 1 0 C 1 -0.552 0.552 -1 0 -1 C -0.552 -1 -1 -0.552 -1 0 L 0 0 L 1 0 Z M 0 12 L -1 12 L 0 12 Z M 13.5 14.5 C 14.052 14.5 14.5 14.052 14.5 13.5 C 14.5 12.948 14.052 12.5 13.5 12.5 L 13.5 13.5 L 13.5 14.5 Z M 10.25 10.5 C 10.25 11.052 10.698 11.5 11.25 11.5 C 11.802 11.5 12.25 11.052 12.25 10.5 L 11.25 10.5 L 10.25 10.5 Z M 12.25 4.5 C 12.25 3.948 11.802 3.5 11.25 3.5 C 10.698 3.5 10.25 3.948 10.25 4.5 L 11.25 4.5 L 12.25 4.5 Z M 6.5 10.5 C 6.5 11.052 6.948 11.5 7.5 11.5 C 8.052 11.5 8.5 11.052 8.5 10.5 L 7.5 10.5 L 6.5 10.5 Z M 8.5 1.5 C 8.5 0.948 8.052 0.5 7.5 0.5 C 6.948 0.5 6.5 0.948 6.5 1.5 L 7.5 1.5 L 8.5 1.5 Z M 2.75 10.5 C 2.75 11.052 3.198 11.5 3.75 11.5 C 4.302 11.5 4.75 11.052 4.75 10.5 L 3.75 10.5 L 2.75 10.5 Z M 4.75 8.25 C 4.75 7.698 4.302 7.25 3.75 7.25 C 3.198 7.25 2.75 7.698 2.75 8.25 L 3.75 8.25 L 4.75 8.25 Z M 0 0 L -1 0 L -1 12 L 0 12 L 1 12 L 1 0 L 0 0 Z M 0 12 L -1 12 C -1 12.663 -0.737 13.299 -0.268 13.768 L 0.439 13.061 L 1.146 12.354 C 1.053 12.26 1 12.133 1 12 L 0 12 Z M 0.439 13.061 L -0.268 13.768 C 0.201 14.237 0.837 14.5 1.5 14.5 L 1.5 13.5 L 1.5 12.5 C 1.367 12.5 1.24 12.447 1.146 12.354 L 0.439 13.061 Z M 1.5 13.5 L 1.5 14.5 L 13.5 14.5 L 13.5 13.5 L 13.5 12.5 L 1.5 12.5 L 1.5 13.5 Z M 11.25 10.5 L 12.25 10.5 L 12.25 4.5 L 11.25 4.5 L 10.25 4.5 L 10.25 10.5 L 11.25 10.5 Z M 7.5 10.5 L 8.5 10.5 L 8.5 1.5 L 7.5 1.5 L 6.5 1.5 L 6.5 10.5 L 7.5 10.5 Z M 3.75 10.5 L 4.75 10.5 L 4.75 8.25 L 3.75 8.25 L 2.75 8.25 L 2.75 10.5 L 3.75 10.5 Z" fill-rule="nonzero"></path></g>
</svg>